<svg width="103" height="25" viewBox="0 0 103 25" fill="none" xmlns="http://www.w3.org/2000/svg">
<path d="M13.2045 18.8028L18.6264 17.4068L20.8918 24.4999L13.2045 18.8028ZM25.6824 9.63447H16.1383L13.2045 0.503906L10.2707 9.63447H0.726562L8.45099 15.2939L5.5172 24.4245L13.2416 18.765L17.9951 15.2939L25.6824 9.63447Z" fill="#00B67A"/>
<path d="M41.13 6.58181V17.5H38.8878V6.58181H41.13ZM44.4894 6.58181V8.34402H35.5809V6.58181H44.4894ZM47.2714 11.1561V17.5H45.1118V9.38635H47.144L47.2714 11.1561ZM49.716 9.33386L49.6785 11.336C49.5736 11.321 49.4461 11.3085 49.2961 11.2985C49.1511 11.2835 49.0187 11.276 48.8987 11.276C48.5937 11.276 48.3288 11.316 48.1038 11.396C47.8838 11.471 47.6989 11.5835 47.5489 11.7335C47.4039 11.8834 47.2939 12.0659 47.219 12.2809C47.149 12.4958 47.109 12.7408 47.099 13.0157L46.664 12.8808C46.664 12.3559 46.7165 11.8734 46.8215 11.4335C46.9265 10.9886 47.079 10.6011 47.2789 10.2712C47.4839 9.94125 47.7339 9.6863 48.0288 9.50633C48.3238 9.32636 48.6612 9.23637 49.0412 9.23637C49.1611 9.23637 49.2836 9.24637 49.4086 9.26637C49.5336 9.28136 49.6361 9.30386 49.716 9.33386ZM55.5351 15.5578V9.38635H57.6947V17.5H55.6626L55.5351 15.5578ZM55.775 13.8931L56.4124 13.8781C56.4124 14.418 56.3499 14.9204 56.225 15.3854C56.1 15.8453 55.9125 16.2452 55.6626 16.5852C55.4126 16.9201 55.0976 17.1826 54.7177 17.3725C54.3378 17.5575 53.8903 17.65 53.3754 17.65C52.9805 17.65 52.6156 17.595 52.2806 17.485C51.9507 17.37 51.6657 17.1926 51.4258 16.9526C51.1908 16.7076 51.0058 16.3952 50.8708 16.0152C50.7409 15.6303 50.6759 15.1679 50.6759 14.628V9.38635H52.8355V14.643C52.8355 14.8829 52.863 15.0854 52.918 15.2504C52.978 15.4153 53.0605 15.5503 53.1655 15.6553C53.2705 15.7603 53.3929 15.8353 53.5329 15.8803C53.6779 15.9253 53.8379 15.9478 54.0128 15.9478C54.4578 15.9478 54.8077 15.8578 55.0627 15.6778C55.3226 15.4978 55.5051 15.2529 55.6101 14.9429C55.72 14.628 55.775 14.278 55.775 13.8931ZM63.7312 15.2579C63.7312 15.1029 63.6862 14.9629 63.5962 14.8379C63.5063 14.713 63.3388 14.598 63.0938 14.493C62.8539 14.383 62.5064 14.283 62.0515 14.193C61.6416 14.1031 61.2591 13.9906 60.9042 13.8556C60.5542 13.7156 60.2493 13.5482 59.9893 13.3532C59.7344 13.1582 59.5344 12.9283 59.3894 12.6633C59.2445 12.3933 59.172 12.0859 59.172 11.741C59.172 11.401 59.2445 11.0811 59.3894 10.7811C59.5394 10.4812 59.7519 10.2162 60.0268 9.98625C60.3068 9.75129 60.6467 9.56882 61.0467 9.43884C61.4516 9.30386 61.9065 9.23637 62.4114 9.23637C63.1163 9.23637 63.7212 9.34885 64.2261 9.57382C64.736 9.79878 65.126 10.1087 65.3959 10.5037C65.6709 10.8936 65.8084 11.3385 65.8084 11.8384H63.6487C63.6487 11.6285 63.6037 11.441 63.5137 11.276C63.4288 11.1061 63.2938 10.9736 63.1088 10.8786C62.9288 10.7786 62.6939 10.7286 62.4039 10.7286C62.164 10.7286 61.9565 10.7711 61.7815 10.8561C61.6066 10.9361 61.4716 11.0461 61.3766 11.186C61.2866 11.321 61.2416 11.471 61.2416 11.636C61.2416 11.761 61.2666 11.8734 61.3166 11.9734C61.3716 12.0684 61.4591 12.1559 61.5791 12.2359C61.6991 12.3159 61.854 12.3908 62.044 12.4608C62.239 12.5258 62.4789 12.5858 62.7639 12.6408C63.3488 12.7608 63.8712 12.9183 64.3311 13.1132C64.791 13.3032 65.156 13.5632 65.4259 13.8931C65.6959 14.218 65.8309 14.6455 65.8309 15.1754C65.8309 15.5353 65.7509 15.8653 65.5909 16.1652C65.4309 16.4652 65.201 16.7276 64.901 16.9526C64.6011 17.1726 64.2411 17.345 63.8212 17.47C63.4063 17.59 62.9388 17.65 62.4189 17.65C61.6641 17.65 61.0242 17.515 60.4993 17.245C59.9793 16.9751 59.5844 16.6326 59.3144 16.2177C59.0495 15.7978 58.917 15.3679 58.917 14.9279H60.9642C60.9742 15.2229 61.0492 15.4603 61.1891 15.6403C61.3341 15.8203 61.5166 15.9503 61.7365 16.0302C61.9615 16.1102 62.204 16.1502 62.4639 16.1502C62.7439 16.1502 62.9763 16.1127 63.1613 16.0377C63.3463 15.9578 63.4863 15.8528 63.5812 15.7228C63.6812 15.5878 63.7312 15.4328 63.7312 15.2579ZM71.2075 9.38635V10.9161H66.4833V9.38635H71.2075ZM67.6531 7.38418H69.8127V15.0554C69.8127 15.2904 69.8427 15.4703 69.9027 15.5953C69.9677 15.7203 70.0627 15.8078 70.1876 15.8578C70.3126 15.9028 70.4701 15.9253 70.6601 15.9253C70.795 15.9253 70.915 15.9203 71.02 15.9103C71.13 15.8953 71.2225 15.8803 71.2975 15.8653L71.305 17.455C71.12 17.515 70.92 17.5625 70.7051 17.5975C70.4901 17.6325 70.2526 17.65 69.9927 17.65C69.5178 17.65 69.1028 17.5725 68.7479 17.4175C68.3979 17.2575 68.128 17.0026 67.938 16.6526C67.748 16.3027 67.6531 15.8428 67.6531 15.2729V7.38418ZM74.5969 10.9461V20.6195H72.4373V9.38635H74.4394L74.5969 10.9461ZM79.7336 13.3532V13.5107C79.7336 14.1006 79.6636 14.648 79.5236 15.1529C79.3886 15.6578 79.1886 16.0977 78.9237 16.4727C78.6587 16.8426 78.3288 17.1326 77.9339 17.3425C77.5439 17.5475 77.094 17.65 76.5841 17.65C76.0892 17.65 75.6592 17.55 75.2943 17.35C74.9294 17.1501 74.6219 16.8701 74.3719 16.5102C74.127 16.1452 73.9295 15.7228 73.7795 15.2429C73.6296 14.763 73.5146 14.248 73.4346 13.6981V13.2857C73.5146 12.6958 73.6296 12.1559 73.7795 11.666C73.9295 11.1711 74.127 10.7436 74.3719 10.3837C74.6219 10.0187 74.9269 9.73629 75.2868 9.53632C75.6517 9.33636 76.0792 9.23637 76.5691 9.23637C77.084 9.23637 77.5364 9.33386 77.9264 9.52882C78.3213 9.72379 78.6512 10.0037 78.9162 10.3687C79.1861 10.7336 79.3886 11.1686 79.5236 11.6735C79.6636 12.1784 79.7336 12.7383 79.7336 13.3532ZM77.5664 13.5107V13.3532C77.5664 13.0082 77.5364 12.6908 77.4764 12.4008C77.4214 12.1059 77.3315 11.8484 77.2065 11.6285C77.0865 11.4085 76.9265 11.2385 76.7266 11.1186C76.5316 10.9936 76.2941 10.9311 76.0142 10.9311C75.7192 10.9311 75.4668 10.9786 75.2568 11.0736C75.0518 11.1686 74.8844 11.306 74.7544 11.486C74.6244 11.666 74.5269 11.8809 74.4619 12.1309C74.3969 12.3808 74.357 12.6633 74.342 12.9783V14.0206C74.3669 14.3905 74.4369 14.723 74.5519 15.0179C74.6669 15.3079 74.8444 15.5378 75.0843 15.7078C75.3243 15.8778 75.6392 15.9628 76.0292 15.9628C76.3141 15.9628 76.5541 15.9003 76.7491 15.7753C76.944 15.6453 77.1015 15.4678 77.2215 15.2429C77.3465 15.0179 77.4339 14.758 77.4839 14.463C77.5389 14.1681 77.5664 13.8506 77.5664 13.5107ZM83.3555 9.38635V17.5H81.1883V9.38635H83.3555ZM81.0533 7.2717C81.0533 6.95675 81.1633 6.69679 81.3833 6.49183C81.6032 6.28686 81.8982 6.18438 82.2681 6.18438C82.6331 6.18438 82.9255 6.28686 83.1455 6.49183C83.3705 6.69679 83.4829 6.95675 83.4829 7.2717C83.4829 7.58665 83.3705 7.8466 83.1455 8.05157C82.9255 8.25653 82.6331 8.35902 82.2681 8.35902C81.8982 8.35902 81.6032 8.25653 81.3833 8.05157C81.1633 7.8466 81.0533 7.58665 81.0533 7.2717ZM87.4198 5.98191V17.5H85.2526V5.98191H87.4198ZM88.8595 13.5257V13.3682C88.8595 12.7733 88.9445 12.2259 89.1145 11.726C89.2845 11.221 89.5319 10.7836 89.8569 10.4137C90.1818 10.0437 90.5818 9.75629 91.0567 9.55132C91.5316 9.34135 92.0765 9.23637 92.6914 9.23637C93.3063 9.23637 93.8537 9.34135 94.3336 9.55132C94.8136 9.75629 95.216 10.0437 95.5409 10.4137C95.8709 10.7836 96.1208 11.221 96.2908 11.726C96.4608 12.2259 96.5458 12.7733 96.5458 13.3682V13.5257C96.5458 14.1156 96.4608 14.663 96.2908 15.1679C96.1208 15.6678 95.8709 16.1052 95.5409 16.4802C95.216 16.8501 94.8161 17.1376 94.3411 17.3425C93.8662 17.5475 93.3213 17.65 92.7064 17.65C92.0915 17.65 91.5441 17.5475 91.0642 17.3425C90.5893 17.1376 90.1868 16.8501 89.8569 16.4802C89.5319 16.1052 89.2845 15.6678 89.1145 15.1679C88.9445 14.663 88.8595 14.1156 88.8595 13.5257ZM91.0192 13.3682V13.5257C91.0192 13.8656 91.0492 14.1831 91.1092 14.478C91.1692 14.773 91.2641 15.0329 91.3941 15.2579C91.5291 15.4778 91.7041 15.6503 91.919 15.7753C92.134 15.9003 92.3965 15.9628 92.7064 15.9628C93.0064 15.9628 93.2638 15.9003 93.4788 15.7753C93.6937 15.6503 93.8662 15.4778 93.9962 15.2579C94.1262 15.0329 94.2212 14.773 94.2811 14.478C94.3461 14.1831 94.3786 13.8656 94.3786 13.5257V13.3682C94.3786 13.0382 94.3461 12.7283 94.2811 12.4383C94.2212 12.1434 94.1237 11.8834 93.9887 11.6585C93.8587 11.4285 93.6862 11.2485 93.4713 11.1186C93.2563 10.9886 92.9964 10.9236 92.6914 10.9236C92.3865 10.9236 92.1265 10.9886 91.9115 11.1186C91.7016 11.2485 91.5291 11.4285 91.3941 11.6585C91.2641 11.8834 91.1692 12.1434 91.1092 12.4383C91.0492 12.7283 91.0192 13.0382 91.0192 13.3682ZM101.847 9.38635V10.9161H97.1232V9.38635H101.847ZM98.293 7.38418H100.453V15.0554C100.453 15.2904 100.483 15.4703 100.543 15.5953C100.608 15.7203 100.703 15.8078 100.828 15.8578C100.953 15.9028 101.11 15.9253 101.3 15.9253C101.435 15.9253 101.555 15.9203 101.66 15.9103C101.77 15.8953 101.862 15.8803 101.937 15.8653L101.945 17.455C101.76 17.515 101.56 17.5625 101.345 17.5975C101.13 17.6325 100.893 17.65 100.633 17.65C100.158 17.65 99.7427 17.5725 99.3878 17.4175C99.0379 17.2575 98.7679 17.0026 98.5779 16.6526C98.388 16.3027 98.293 15.8428 98.293 15.2729V7.38418Z" fill="#222222"/>
</svg>
