<svg width="154" height="29" viewBox="0 0 154 29" fill="none" xmlns="http://www.w3.org/2000/svg">
<path d="M28.7656 0H0.078125V29H28.7656V0Z" fill="#00B67A"/>
<path d="M59.8438 0H31.1562V29H59.8438V0Z" fill="#00B67A"/>
<path d="M90.9219 0H62.2344V29H90.9219V0Z" fill="#00B67A"/>
<path d="M122 0H93.3125V29H122V0Z" fill="#00B67A"/>
<path d="M153.078 0H124.391V29H153.078V0Z" fill="#00B67A"/>
<path d="M153.078 0H143.047V29H153.078V0Z" fill="#CCCECE"/>
<path d="M14.4234 19.5456L18.7863 18.4279L20.6092 24.107L14.4234 19.5456ZM24.4641 12.2049H16.7842L14.4234 4.89453L12.0627 12.2049H4.38281L10.5984 16.7362L8.2377 24.0466L14.4533 19.5154L18.2783 16.7362L24.4641 12.2049Z" fill="white"/>
<path d="M45.5016 19.5456L49.8645 18.4279L51.6873 24.107L45.5016 19.5456ZM55.5422 12.2049H47.8623L45.5016 4.89453L43.1408 12.2049H35.4609L41.6766 16.7362L39.3158 24.0466L45.5314 19.5154L49.3564 16.7362L55.5422 12.2049Z" fill="white"/>
<path d="M76.5797 19.5456L80.9426 18.4279L82.7654 24.107L76.5797 19.5456ZM86.6203 12.2049H78.9404L76.5797 4.89453L74.2189 12.2049H66.5391L72.7547 16.7362L70.3939 24.0466L76.6096 19.5154L80.4346 16.7362L86.6203 12.2049Z" fill="white"/>
<path d="M107.658 19.5456L112.021 18.4279L113.844 24.107L107.658 19.5456ZM117.698 12.2049H110.019L107.658 4.89453L105.297 12.2049H97.6172L103.833 16.7362L101.472 24.0466L107.688 19.5154L111.513 16.7362L117.698 12.2049Z" fill="white"/>
<path d="M138.736 19.5456L143.099 18.4279L144.922 24.107L138.736 19.5456ZM148.777 12.2049H141.097L138.736 4.89453L136.375 12.2049H128.695L134.911 16.7362L132.55 24.0466L138.766 19.5154L142.591 16.7362L148.777 12.2049Z" fill="white"/>
</svg>
