<svg width="21" height="21" viewBox="0 0 21 21" fill="none" xmlns="http://www.w3.org/2000/svg">
<path d="M9.84174 1.51992C10.0891 0.945541 10.9035 0.94554 11.1508 1.51992L13.4119 6.77045C13.5151 7.01002 13.7409 7.17409 14.0007 7.19818L19.6929 7.72613C20.3156 7.78388 20.5673 8.5584 20.0975 8.97114L15.8026 12.7441C15.6067 12.9162 15.5204 13.1817 15.5778 13.4362L16.8347 19.013C16.9722 19.6231 16.3133 20.1018 15.7756 19.7825L10.8601 16.8637C10.6358 16.7306 10.3567 16.7306 10.1324 16.8637L5.21696 19.7825C4.67924 20.1018 4.02039 19.6231 4.15789 19.013L5.41479 13.4362C5.47215 13.1817 5.38589 12.9162 5.18992 12.7441L0.895092 8.97114C0.425264 8.55841 0.67692 7.78388 1.29962 7.72613L6.99189 7.19818C7.25163 7.17409 7.47745 7.01002 7.58062 6.77045L9.84174 1.51992Z" fill="#00B67A"/>
</svg>
