<svg width="120" height="120" viewBox="0 0 120 120" fill="none" xmlns="http://www.w3.org/2000/svg">
<rect width="120" height="120" rx="60" fill="#F7931A"/>
<path d="M75.0711 57.8583C78.7413 56.0232 80.8823 52.9647 80.5764 47.4593C79.9647 40.1189 73.5418 37.672 65.5896 36.7545V26.6613H59.4726V36.4486C57.9433 36.4486 56.1082 36.4486 54.5789 36.4486V26.3555H48.4618V36.4486C47.2384 36.4486 45.7092 36.4486 44.4858 36.4486H35.9219V43.1774H40.5097C42.9565 43.1774 43.8741 44.7067 44.1799 45.9301V57.5525C44.4858 57.5525 44.4858 57.5525 44.7916 57.5525C44.4858 57.5525 44.4858 57.5525 44.1799 57.5525V73.7627C44.1799 74.6803 43.5682 75.9037 41.7331 75.9037H37.1453L35.9219 83.2441H43.8741C45.4033 83.2441 46.9326 83.2441 48.156 83.2441V93.6432H54.2731V83.55C56.1082 83.55 57.6374 83.55 59.1667 83.55V93.6432H65.2838V83.2441C75.6828 82.6324 83.0233 80.1856 83.9408 70.3983C84.8584 63.0578 81.1881 59.3876 75.0711 57.8583ZM54.5789 44.0949C57.9433 44.0949 68.954 43.1774 68.954 50.5179C68.954 57.5525 57.9433 56.6349 54.5789 56.6349V44.0949ZM54.2731 76.2095V62.4461C58.555 62.4461 71.7067 61.2227 71.7067 69.4808C71.7067 77.1271 58.555 76.2095 54.2731 76.2095Z" fill="white"/>
</svg>
