<svg width="50" height="50" viewBox="0 0 50 50" fill="none" xmlns="http://www.w3.org/2000/svg">
<g clip-path="url(#clip0_870_64848)">
<path d="M11.1089 21.8801H7.6873C7.6873 21.3185 7.6212 20.9415 7.48979 20.7496C7.28628 20.4658 6.7247 20.3237 5.80477 20.3237C4.91165 20.3237 4.31962 20.4052 4.03076 20.5689C3.7419 20.7332 3.59721 21.0904 3.59721 21.6401C3.59721 22.1376 3.72525 22.4657 3.98184 22.6227C4.16582 22.7341 4.40862 22.7997 4.71127 22.8193L5.40115 22.868C6.88006 22.9659 7.80337 23.0354 8.1716 23.0747C9.34109 23.1926 10.1889 23.5035 10.7149 24.0078C11.1286 24.4012 11.3756 24.9155 11.4542 25.55C11.5005 25.9301 11.5231 26.3597 11.5231 26.8372C11.5231 27.938 11.4183 28.7439 11.2083 29.2545C10.8275 30.1918 9.97164 30.7838 8.64028 31.0325C8.08234 31.1374 7.22903 31.19 6.08114 31.19C4.16504 31.19 2.83004 31.076 2.07614 30.8466C1.15101 30.5657 0.540766 29.9965 0.245661 29.1396C0.0811929 28.6624 0 27.8677 0 26.7552H3.42103L3.42129 27.0398C3.42129 27.6334 3.59175 28.0149 3.93239 28.1849C4.16816 28.302 4.45286 28.3637 4.78752 28.371H6.04549C6.68723 28.371 7.09683 28.3382 7.27353 28.2721C7.58815 28.1484 7.79452 27.9492 7.89315 27.6738C7.94546 27.5038 7.97148 27.2845 7.97148 27.0156C7.97148 26.4139 7.7521 26.0478 7.31361 25.9163C7.14914 25.8645 6.38666 25.7919 5.02511 25.7005C3.93161 25.6224 3.17199 25.5471 2.74677 25.4742C1.62672 25.2646 0.88011 24.8335 0.507716 24.1789C0.180082 23.623 0.016655 22.7818 0.016655 21.656C0.016655 20.7991 0.105134 20.1117 0.282093 19.5949C0.459052 19.0778 0.744268 18.6852 1.13774 18.4167C1.71494 18.0043 2.4527 17.7627 3.35077 17.6903C4.09868 17.625 4.92753 17.5917 5.83964 17.5917C7.27535 17.5917 8.29885 17.6744 8.90884 17.8382C10.3976 18.2384 11.1419 19.3593 11.1419 21.2014C11.1419 21.3524 11.131 21.5781 11.1089 21.8801ZM26.153 31.19V17.5195H33.0044C33.9441 17.5195 34.661 17.5961 35.1539 17.7497C36.2807 18.1027 37.0367 18.8263 37.424 19.9191C37.6238 20.4929 37.724 21.3568 37.724 22.5102C37.724 23.8969 37.6131 24.8931 37.3935 25.5C36.954 26.6997 36.0497 27.391 34.6837 27.5699C34.5231 27.597 33.8398 27.6207 32.633 27.6402L32.0228 27.6605H29.8303V31.19H26.153ZM29.8306 24.4895H32.1232C32.8501 24.4635 33.2922 24.4075 33.4512 24.32C33.6685 24.2005 33.8145 23.961 33.8871 23.6019C33.9337 23.3632 33.9569 23.0078 33.9569 22.5357C33.9569 21.9575 33.9105 21.5289 33.8179 21.249C33.6857 20.8566 33.369 20.6181 32.8673 20.5312C32.7678 20.5182 32.5303 20.5111 32.154 20.5111H29.8308L29.8306 24.4895ZM45.5737 28.8275H40.6568L39.9961 31.19H36.1915L40.2972 17.5195H45.8443L50 31.19H46.2753L45.5737 28.8275ZM44.8435 26.1644L43.1202 20.2385L41.4482 26.1644H44.8435Z" fill="#10298E"/>
<path d="M21.0795 19.4429C22.5962 19.4429 23.9499 20.142 24.8397 21.2368L25.6323 19.5363C24.3926 18.3637 22.7055 17.6406 20.8443 17.6406C17.9466 17.6406 15.4679 19.3918 14.4509 21.8705H12.9051L11.9922 23.8282H13.9806C13.9648 24.0106 13.9566 24.1937 13.9559 24.3768C13.9559 24.601 13.9676 24.8231 13.9897 25.042H12.9904L12.0781 27.0002H14.4982C15.5444 29.4162 17.9921 31.1122 20.8443 31.1122C22.2818 31.1122 23.6158 30.6813 24.72 29.945V27.5452C23.8305 28.5583 22.5298 29.1985 21.0795 29.1985C19.3844 29.1985 17.8932 28.3239 17.0251 27.0002H22.0926L23.0053 25.042H16.2798C16.2203 24.6401 16.2107 24.2323 16.2512 23.8279H23.5713L24.4837 21.8705H16.8835C17.7241 20.4192 19.2881 19.4429 21.0795 19.4429Z" fill="#FFBE00"/>
<path d="M21.0779 19.5009C22.5233 19.5009 23.877 20.1471 24.7925 21.2735L24.8516 21.3464L24.8916 21.2613L25.6841 19.5608L25.7018 19.522L25.6713 19.4929C24.3683 18.2605 22.6534 17.582 20.8427 17.582C19.4288 17.582 18.0686 17.9952 16.9079 18.7774C15.7751 19.541 14.906 20.6028 14.3951 21.8479L14.4492 21.8114H12.8657L12.8501 21.8453L11.9375 23.8032L11.8984 23.8868H13.979L13.9205 23.823C13.9047 24.0071 13.8964 24.1917 13.8957 24.3765C13.8957 24.5963 13.9072 24.8225 13.9296 25.0477L13.9881 24.9832H12.9519L12.9362 25.017L12.0231 26.975L11.9843 27.0585H14.4966L14.4427 27.0231C15.5336 29.5424 18.0459 31.1705 20.8427 31.1705C22.2448 31.1705 23.5959 30.7641 24.7509 29.9939L24.7766 29.9767V27.3889L24.6741 27.5061C24.2252 28.0185 23.6722 28.4292 23.0521 28.7108C22.432 28.9924 21.7589 29.1384 21.0779 29.1391C19.4613 29.1391 17.964 28.3268 17.0724 26.9677L17.0235 27.0588H22.1287L22.1444 27.025L23.057 25.0665L23.096 24.9832H16.2779L16.3362 25.0334C16.2774 24.6363 16.2679 24.2334 16.3078 23.8339L16.2493 23.8868H23.6071L23.6227 23.8529L24.5351 21.895L24.5744 21.8114H16.8819L16.9327 21.8997C17.7896 20.42 19.3781 19.5009 21.0779 19.5009ZM16.8819 21.9288H24.4818L24.4284 21.8453L23.5163 23.8032L23.5694 23.7694H16.1962L16.1905 23.8225C16.1504 24.2315 16.1602 24.6439 16.2196 25.0506L16.2274 25.1009H23.0036L22.9506 25.017L22.0382 26.975L22.091 26.9411H16.9144L16.9743 27.0317C17.8877 28.4252 19.4218 29.256 21.0782 29.256C22.486 29.256 23.8289 28.6468 24.7626 27.5837L24.6595 27.5449V29.9447L24.6855 29.8963C23.5499 30.6531 22.2211 31.0531 20.8427 31.0531C18.0925 31.0531 15.6229 29.4526 14.5507 26.9763L14.5351 26.9411H12.0764L12.13 27.0252L13.0422 25.0665L12.9888 25.1009H14.0532L14.0467 25.0358C14.0245 24.8145 14.0128 24.5924 14.0128 24.3765C14.0128 24.2107 14.0212 24.0326 14.0376 23.8329L14.0428 23.7694H11.9908L12.0436 23.8529L12.9563 21.895L12.9035 21.9288H14.4883L14.5031 21.8924C15.0056 20.6689 15.86 19.6256 16.9738 18.8747C18.1141 18.1064 19.4525 17.7 20.8427 17.7C22.6234 17.7 24.309 18.3665 25.5904 19.5785L25.5774 19.5108L24.7852 21.2115L24.8841 21.199C23.9454 20.0456 22.5587 19.3835 21.0779 19.3835C19.3359 19.3835 17.7092 20.325 16.8309 21.8406L16.7799 21.9288H16.8819Z" fill="#10298E"/>
</g>
<defs>
<clipPath id="clip0_870_64848">
<rect width="50" height="15" fill="white" transform="translate(0 17)"/>
</clipPath>
</defs>
</svg>
