<svg width="50" height="50" viewBox="0 0 50 50" fill="none" xmlns="http://www.w3.org/2000/svg">
<g clip-path="url(#clip0_870_64827)">
<path d="M21.5143 32.5002H17.4766L19.9919 16.8789H24.0958L21.5143 32.5002Z" fill="#1C33C3"/>
<path d="M14.013 16.8789L10.1738 27.602L9.71048 25.2853L8.32044 18.2689C8.32044 18.2689 8.18806 16.8789 6.40088 16.8789H-0.0197453L-0.0859375 17.1437C-0.0859375 17.1437 1.89982 17.5408 4.15035 18.9309L7.72472 32.5002H11.961L18.3816 16.8789H14.013Z" fill="#1C33C3"/>
<path d="M45.9303 32.4985H49.6371L46.3937 16.9434H43.1503C41.6279 16.9434 41.2969 18.1348 41.2969 18.1348L35.2734 32.4985H39.5097L40.3702 30.1818H45.5332L45.9303 32.4985ZM41.4955 26.9384L43.6136 21.1135L44.8051 26.9384H41.4955V26.9384Z" fill="#1C33C3"/>
<path d="M35.5408 20.651L36.1366 17.2752C36.1366 17.2752 34.3494 16.6133 32.496 16.6133C30.5103 16.6133 25.6782 17.4738 25.6782 21.7763C25.6782 25.814 31.3046 25.8802 31.3046 27.9321C31.3046 30.0503 26.274 29.6531 24.6192 28.3293L24.0234 31.8374C24.0234 31.8374 25.8106 32.6979 28.5907 32.6979C31.3708 32.6979 35.5408 31.2417 35.5408 27.3364C35.5408 23.2987 29.8483 22.9015 29.8483 21.1805C29.9145 19.4595 33.8199 19.7243 35.5408 20.651Z" fill="#1C33C3"/>
<path d="M9.7261 25.2853L8.33607 18.2689C8.33607 18.2689 8.20369 16.8789 6.4165 16.8789H-0.00412025L-0.0703125 17.1437C-0.0703125 17.1437 2.97452 17.8056 5.95316 20.1885C8.79942 22.439 9.7261 25.2853 9.7261 25.2853Z" fill="#1C33C3"/>
</g>
<defs>
<clipPath id="clip0_870_64827">
<rect width="50" height="50" fill="white"/>
</clipPath>
</defs>
</svg>
