<svg width="50" height="50" viewBox="0 0 50 50" fill="none" xmlns="http://www.w3.org/2000/svg">
<path d="M28.655 14.2278L16.5078 14.2285L16.509 36.0588L28.6563 36.0581L28.655 14.2278Z" fill="#FF5F00"/>
<path d="M17.2919 25.155C17.2901 23.053 17.7665 20.9781 18.6851 19.0873C19.6036 17.1965 20.9402 15.5395 22.5936 14.2415C20.5455 12.6321 18.086 11.6314 15.496 11.3537C12.9061 11.076 10.2903 11.5326 7.94754 12.6713C5.60481 13.8099 3.62969 15.5847 2.24791 17.7928C0.866131 20.0009 0.133446 22.5531 0.133593 25.1579C0.133739 27.7627 0.866711 30.3149 2.24874 32.5228C3.63076 34.7308 5.60609 36.5053 7.94894 37.6437C10.2918 38.7821 12.9077 39.2384 15.4976 38.9604C18.0875 38.6825 20.547 37.6814 22.5949 36.0718C20.9407 34.7737 19.6037 33.1161 18.6849 31.2248C17.7661 29.3334 17.2898 27.2578 17.2919 25.155V25.155Z" fill="#EB001B"/>
<path d="M45.0494 25.1524C45.0495 27.7574 44.3167 30.3098 42.9346 32.518C41.5526 34.7261 39.5772 36.5009 37.2342 37.6394C34.8912 38.7778 32.2751 39.2341 29.685 38.9561C27.0949 38.678 24.6353 37.6768 22.5873 36.0669C24.2402 34.7678 25.5764 33.1103 26.4951 31.2194C27.4139 29.3285 27.8912 27.2537 27.8911 25.1514C27.891 23.0492 27.4134 20.9744 26.4945 19.0836C25.5755 17.1929 24.2391 15.5355 22.5861 14.2366C24.6341 12.6262 27.094 11.6247 29.6844 11.3465C32.2748 11.0683 34.8912 11.5246 37.2345 12.6633C39.5778 13.802 41.5534 15.5771 42.9354 17.7857C44.3173 19.9942 45.05 22.5471 45.0494 25.1524Z" fill="#F79E1B"/>
</svg>
