<svg width="73" height="35" viewBox="0 0 73 35" fill="none" xmlns="http://www.w3.org/2000/svg">
<g clip-path="url(#clip0_1693_20761)">
<path d="M3.48 28.308C3.48 21.6187 4.60133 16.3987 6.844 12.648C9.12533 8.85866 13.0307 6.964 18.56 6.964C24.0893 6.964 27.9753 8.85866 30.218 12.648C32.4993 16.3987 33.64 21.6187 33.64 28.308C33.64 35.0747 32.4993 40.372 30.218 44.2C27.9753 47.9893 24.0893 49.884 18.56 49.884C13.0307 49.884 9.12533 47.9893 6.844 44.2C4.60133 40.372 3.48 35.0747 3.48 28.308ZM27.144 28.308C27.144 25.176 26.9313 22.5273 26.506 20.362C26.1193 18.1967 25.3073 16.4373 24.07 15.084C22.8327 13.692 20.996 12.996 18.56 12.996C16.124 12.996 14.2873 13.692 13.05 15.084C11.8127 16.4373 10.9813 18.1967 10.556 20.362C10.1693 22.5273 9.976 25.176 9.976 28.308C9.976 31.556 10.1693 34.282 10.556 36.486C10.9427 38.69 11.7547 40.4687 12.992 41.822C14.268 43.1753 16.124 43.852 18.56 43.852C20.996 43.852 22.8327 43.1753 24.07 41.822C25.346 40.4687 26.1773 38.69 26.564 36.486C26.9507 34.282 27.144 31.556 27.144 28.308ZM39.7663 13.75V7.718H51.8303V50H45.1603V13.75H39.7663Z" fill="white"/>
</g>
<defs>
<clipPath id="clip0_1693_20761">
<rect width="73" height="35" fill="white"/>
</clipPath>
</defs>
</svg>
