<svg width="21" height="20" viewBox="0 0 21 20" fill="none" xmlns="http://www.w3.org/2000/svg">
<rect x="1.62959" y="1.3" width="17.4" height="17.4" rx="1.2" stroke="white" stroke-width="1.6"/>
<path fill-rule="evenodd" clip-rule="evenodd" d="M6.16392 13.0332C5.8515 13.3456 5.8515 13.8521 6.16392 14.1645C6.47634 14.4769 6.98287 14.4769 7.29529 14.1645L8.41253 13.0473C8.96761 13.3972 9.62497 13.5996 10.3296 13.5996C11.034 13.5996 11.6912 13.3973 12.2462 13.0476L13.3639 14.1653C13.6763 14.4777 14.1829 14.4777 14.4953 14.1653C14.8077 13.8529 14.8077 13.3464 14.4953 13.0339L13.3776 11.9162C13.7273 11.3612 13.9296 10.7041 13.9296 9.99962C13.9296 9.29499 13.7272 8.63763 13.3773 8.08255L14.4945 6.96529C14.8069 6.65288 14.8069 6.14634 14.4945 5.83392C14.1821 5.5215 13.6756 5.5215 13.3631 5.83392L12.2457 6.95136C11.6908 6.60183 11.0338 6.39962 10.3296 6.39962C9.62517 6.39962 8.96799 6.60195 8.41301 6.95166L7.29529 5.83394C6.98287 5.52152 6.47634 5.52152 6.16392 5.83394C5.8515 6.14636 5.8515 6.65289 6.16392 6.96531L7.28164 8.08303C6.93193 8.63801 6.7296 9.29519 6.7296 9.99962C6.7296 10.7039 6.93181 11.3609 7.28134 11.9157L6.16392 13.0332ZM10.4327 11.5988C11.2612 11.5988 11.9327 10.9273 11.9327 10.0988C11.9327 9.27041 11.2612 8.59884 10.4327 8.59884C9.6043 8.59884 8.93273 9.27041 8.93273 10.0988C8.93273 10.9273 9.6043 11.5988 10.4327 11.5988Z" fill="white"/>
</svg>
