<svg width="73" height="35" viewBox="0 0 73 35" fill="none" xmlns="http://www.w3.org/2000/svg">
<g clip-path="url(#clip0_1693_20765)">
<path d="M3.48 28.308C3.48 21.6187 4.60133 16.3987 6.844 12.648C9.12533 8.85866 13.0307 6.964 18.56 6.964C24.0893 6.964 27.9753 8.85866 30.218 12.648C32.4993 16.3987 33.64 21.6187 33.64 28.308C33.64 35.0747 32.4993 40.372 30.218 44.2C27.9753 47.9893 24.0893 49.884 18.56 49.884C13.0307 49.884 9.12533 47.9893 6.844 44.2C4.60133 40.372 3.48 35.0747 3.48 28.308ZM27.144 28.308C27.144 25.176 26.9313 22.5273 26.506 20.362C26.1193 18.1967 25.3073 16.4373 24.07 15.084C22.8327 13.692 20.996 12.996 18.56 12.996C16.124 12.996 14.2873 13.692 13.05 15.084C11.8127 16.4373 10.9813 18.1967 10.556 20.362C10.1693 22.5273 9.976 25.176 9.976 28.308C9.976 31.556 10.1693 34.282 10.556 36.486C10.9427 38.69 11.7547 40.4687 12.992 41.822C14.268 43.1753 16.124 43.852 18.56 43.852C20.996 43.852 22.8327 43.1753 24.07 41.822C25.346 40.4687 26.1773 38.69 26.564 36.486C26.9507 34.282 27.144 31.556 27.144 28.308ZM56.7603 23.552C60.6656 23.8613 63.7203 25.1567 65.9243 27.438C68.1283 29.7193 69.2303 32.7933 69.2303 36.66C69.2303 40.836 67.9156 44.142 65.2863 46.578C62.6956 49.014 59.1383 50.232 54.6143 50.232C50.5156 50.232 47.1323 49.1687 44.4643 47.042C41.8349 44.8767 40.4236 41.7833 40.2303 37.762H46.8423C46.9969 39.8113 47.7509 41.4933 49.1043 42.808C50.4576 44.084 52.3329 44.722 54.7303 44.722C57.1663 44.722 59.0803 44.0067 60.4723 42.576C61.9029 41.1453 62.6183 39.1733 62.6183 36.66C62.6183 34.1853 61.9223 32.252 60.5303 30.86C59.1383 29.4293 57.2243 28.714 54.7883 28.714H48.8143V24.016L59.2543 13.228H42.2603V7.718H67.2583V12.764L56.7603 23.552Z" fill="white"/>
</g>
<defs>
<clipPath id="clip0_1693_20765">
<rect width="73" height="35" fill="white"/>
</clipPath>
</defs>
</svg>
