<svg width="73" height="35" viewBox="0 0 73 35" fill="none" xmlns="http://www.w3.org/2000/svg">
<g clip-path="url(#clip0_1693_20763)">
<path d="M3.48 28.308C3.48 21.6187 4.60133 16.3987 6.844 12.648C9.12533 8.85866 13.0307 6.964 18.56 6.964C24.0893 6.964 27.9753 8.85866 30.218 12.648C32.4993 16.3987 33.64 21.6187 33.64 28.308C33.64 35.0747 32.4993 40.372 30.218 44.2C27.9753 47.9893 24.0893 49.884 18.56 49.884C13.0307 49.884 9.12533 47.9893 6.844 44.2C4.60133 40.372 3.48 35.0747 3.48 28.308ZM27.144 28.308C27.144 25.176 26.9313 22.5273 26.506 20.362C26.1193 18.1967 25.3073 16.4373 24.07 15.084C22.8327 13.692 20.996 12.996 18.56 12.996C16.124 12.996 14.2873 13.692 13.05 15.084C11.8127 16.4373 10.9813 18.1967 10.556 20.362C10.1693 22.5273 9.976 25.176 9.976 28.308C9.976 31.556 10.1693 34.282 10.556 36.486C10.9427 38.69 11.7547 40.4687 12.992 41.822C14.268 43.1753 16.124 43.852 18.56 43.852C20.996 43.852 22.8327 43.1753 24.07 41.822C25.346 40.4687 26.1773 38.69 26.564 36.486C26.9507 34.282 27.144 31.556 27.144 28.308ZM52.2363 33.818C55.4843 30.6473 57.7656 28.0373 59.0803 25.988C60.3949 23.9387 61.0523 21.9087 61.0523 19.898C61.0523 17.8873 60.4916 16.302 59.3703 15.142C58.2489 13.9433 56.4896 13.344 54.0923 13.344C51.8496 13.344 50.1096 14.098 48.8723 15.606C47.6349 17.0753 46.9776 19.1053 46.9003 21.696H40.5203C40.6363 17.1333 41.9509 13.6727 44.4643 11.314C47.0163 8.91666 50.2449 7.718 54.1503 7.718C58.4036 7.718 61.7289 8.83933 64.1263 11.082C66.5236 13.286 67.7223 16.2247 67.7223 19.898C67.7223 22.566 66.9296 25.234 65.3443 27.902C63.7976 30.5313 61.0909 33.7407 57.2243 37.53L50.1483 44.49H68.7663V50H40.5783V45.186L52.2363 33.818Z" fill="white"/>
</g>
<defs>
<clipPath id="clip0_1693_20763">
<rect width="73" height="35" fill="white"/>
</clipPath>
</defs>
</svg>
