<svg width="770" height="196" viewBox="0 0 770 196" fill="none" xmlns="http://www.w3.org/2000/svg">
<g clip-path="url(#clip0_1706_20858)">
<rect x="324.109" y="8.04688" width="117.791" height="117.791" rx="58.8957" fill="#F7931A"/>
<path d="M397.795 64.8391C401.398 63.0377 403.499 60.0355 403.199 54.6315C402.598 47.4261 396.294 45.0243 388.488 44.1236V34.2162H382.483V43.8234C380.982 43.8234 379.181 43.8234 377.68 43.8234V33.916H371.675V43.8234C370.474 43.8234 368.973 43.8234 367.772 43.8234H359.366V50.4283H363.87C366.271 50.4283 367.172 51.9295 367.472 53.1304V64.5389C367.772 64.5389 367.772 64.5389 368.073 64.5389C367.772 64.5389 367.772 64.5389 367.472 64.5389V80.4507C367.472 81.3514 366.872 82.5523 365.07 82.5523H360.567L359.366 89.7577H367.172C368.673 89.7577 370.174 89.7577 371.375 89.7577V99.9653H377.38V90.0579C379.181 90.0579 380.682 90.0579 382.183 90.0579V99.9653H388.188V89.7577C398.395 89.1572 405.601 86.7554 406.501 77.1483C407.402 69.9429 403.799 66.3402 397.795 64.8391ZM377.68 51.329C380.982 51.329 391.79 50.4283 391.79 57.6337C391.79 64.5389 380.982 63.6382 377.68 63.6382V51.329ZM377.38 82.8525V69.3424C381.583 69.3424 394.492 68.1416 394.492 76.2476C394.492 83.7532 381.583 82.8525 377.38 82.8525Z" fill="white"/>
<rect x="226.805" y="126.438" width="100.597" height="100.597" rx="50.2985" transform="rotate(-36 226.805 126.438)" fill="#2F6FEB"/>
<path d="M310.604 136.209C306.94 131.166 302.659 131.636 296.084 135.312C291.343 137.875 289.642 137.351 288.176 135.334C286.711 133.317 287.21 130.973 290.091 128.88C292.684 126.996 294.753 126.814 297.043 128.451C297.502 128.779 298.143 128.753 298.575 128.439L300.88 126.764C301.457 126.345 301.575 125.599 301.156 125.023L301.052 124.879C298.172 122.128 293.8 121.563 290.277 123.682L287.765 120.225C287.346 119.648 286.6 119.53 285.775 119.909L283.613 121.479C283.037 121.898 282.919 122.644 283.298 123.47L285.706 126.783C281.802 130.5 281.159 135.37 283.775 138.972C287.23 143.726 291.472 143.505 298.046 139.83C302.604 137.619 304.528 137.541 306.203 139.847C307.878 142.152 307.012 145.202 304.275 147.191C300.529 149.912 298.081 149.269 296.078 147.422C295.516 146.951 294.874 146.977 294.442 147.291L291.993 149.07C291.417 149.489 291.298 150.235 291.717 150.811L291.822 150.956C295.015 154.139 299.204 155.057 304.482 152.323L306.994 155.781C307.413 156.357 308.159 156.475 308.984 156.096L311.145 154.526C311.721 154.107 311.84 153.361 311.46 152.536L308.948 149.078C312.747 145.218 313.43 140.099 310.604 136.209Z" fill="white"/>
<path d="M304.738 163.581C290.569 167.712 275.7 159.365 271.818 145.235C269.583 137.614 270.988 129.55 275.324 123.097C275.691 122.39 275.665 121.749 275.142 121.028L273.677 119.011C273.258 118.435 272.656 118.212 271.975 118.487C271.831 118.592 271.543 118.801 271.503 119.05C260.956 133.316 264.037 153.31 278.303 163.857C286.758 170.04 297.454 171.735 307.406 168.466C308.192 168.335 308.559 167.629 308.284 166.948C308.324 166.699 308.219 166.555 308.01 166.267L306.544 164.25C306.23 163.818 305.379 163.555 304.738 163.581ZM287.351 107.535C286.565 107.666 286.198 108.373 286.473 109.054C286.434 109.303 286.538 109.446 286.748 109.735L288.213 111.752C288.632 112.328 289.483 112.59 290.124 112.565C304.293 108.434 319.162 116.781 323.044 130.91C325.279 138.531 323.874 146.596 319.538 153.049C319.171 153.755 319.197 154.397 319.72 155.117L321.186 157.134C321.604 157.711 322.206 157.934 322.887 157.659C323.031 157.554 323.319 157.345 323.359 157.096C333.906 142.83 330.825 122.835 316.559 112.289C307.999 105.961 297.159 104.372 287.351 107.535Z" fill="white"/>
<rect x="709.672" y="141.203" width="47.5556" height="47.5556" rx="23.7778" fill="#2F6FEB"/>
<path d="M739.006 168.223C739.006 165.276 737.238 164.266 733.702 163.845C731.177 163.508 730.672 162.835 730.672 161.656C730.672 160.478 731.514 159.72 733.197 159.72C734.713 159.72 735.554 160.225 735.975 161.488C736.06 161.741 736.312 161.909 736.565 161.909H737.911C738.248 161.909 738.501 161.656 738.501 161.32V161.235C738.164 159.383 736.649 157.952 734.713 157.784V155.763C734.713 155.427 734.46 155.174 734.039 155.09H732.776C732.44 155.09 732.187 155.342 732.103 155.763V157.7C729.577 158.036 727.978 159.72 727.978 161.825C727.978 164.603 729.661 165.697 733.197 166.118C735.554 166.539 736.312 167.044 736.312 168.391C736.312 169.738 735.133 170.664 733.534 170.664C731.345 170.664 730.587 169.738 730.335 168.475C730.251 168.139 729.998 167.97 729.746 167.97H728.314C727.978 167.97 727.725 168.223 727.725 168.56V168.644C728.062 170.748 729.409 172.264 732.187 172.685V174.705C732.187 175.042 732.44 175.294 732.86 175.379H734.123C734.46 175.379 734.713 175.126 734.797 174.705V172.685C737.322 172.264 739.006 170.496 739.006 168.223Z" fill="white"/>
<path d="M729.156 177.061C722.59 174.704 719.222 167.38 721.664 160.897C722.926 157.361 725.705 154.668 729.156 153.405C729.493 153.236 729.661 152.984 729.661 152.563V151.384C729.661 151.048 729.493 150.795 729.156 150.711C729.072 150.711 728.904 150.711 728.819 150.795C720.822 153.321 716.444 161.823 718.97 169.821C720.485 174.535 724.105 178.155 728.819 179.671C729.156 179.839 729.493 179.671 729.577 179.334C729.661 179.25 729.661 179.166 729.661 178.997V177.818C729.661 177.566 729.409 177.229 729.156 177.061ZM738.08 150.795C737.743 150.627 737.406 150.795 737.322 151.132C737.238 151.216 737.238 151.3 737.238 151.469V152.647C737.238 152.984 737.49 153.321 737.743 153.489C744.309 155.846 747.677 163.17 745.235 169.653C743.973 173.188 741.195 175.882 737.743 177.145C737.406 177.313 737.238 177.566 737.238 177.987V179.166C737.238 179.502 737.406 179.755 737.743 179.839C737.827 179.839 737.996 179.839 738.08 179.755C746.077 177.229 750.455 168.726 747.929 160.729C746.414 155.93 742.71 152.31 738.08 150.795Z" fill="white"/>
<rect x="188.031" y="130.961" width="59.9932" height="59.9932" rx="29.9966" fill="#13D659"/>
<path d="M220.751 162.093C220.589 162.093 219.617 162.093 217.511 162.093C215.891 162.093 214.757 162.093 214.271 162.093C207.954 161.769 203.095 160.635 203.095 159.339C203.095 158.043 207.792 156.909 214.271 156.585V160.959C214.757 160.959 215.891 161.121 217.511 161.121C219.455 161.121 220.427 160.959 220.589 160.959V156.585C226.906 156.909 231.765 158.043 231.765 159.339C231.927 160.635 227.068 161.769 220.751 162.093ZM220.751 156.099V152.212H229.659V146.381H205.525V152.212H214.433V156.099C207.144 156.423 201.799 157.881 201.799 159.501C201.799 161.121 207.144 162.579 214.433 162.903V175.537H220.913V163.065C228.04 162.741 233.547 161.283 233.547 159.663C233.385 157.881 228.04 156.423 220.751 156.099Z" fill="white"/>
<rect x="549.734" y="43.8672" width="120.651" height="120.651" rx="60.3255" transform="rotate(35.7666 549.734 43.8672)" fill="#13D659"/>
<path d="M566.534 133.126C566.27 132.935 564.684 131.793 561.248 129.318C558.605 127.414 556.754 126.081 555.961 125.51C546.034 117.556 539.437 109.994 540.961 107.879C542.484 105.765 551.482 109.436 562.435 116.523L557.294 123.66C558.087 124.231 559.747 125.828 562.39 127.732C565.562 130.017 567.338 130.895 567.602 131.085L572.743 123.949C582.671 131.903 589.267 139.465 587.744 141.579C586.485 143.884 577.223 140.022 566.534 133.126ZM573.579 123.346L578.148 117.003L592.685 127.474L599.54 117.959L560.157 89.59L553.303 99.1053L567.84 109.577L563.27 115.921C550.995 107.881 540.56 103.977 538.656 106.62C536.752 109.264 543.76 117.925 555.274 127.022L540.423 147.638L550.996 155.254L565.656 134.902C577.667 142.751 588.367 146.845 590.271 144.202C592.101 141.104 585.092 132.442 573.579 123.346Z" fill="white"/>
<rect x="239.969" width="86.5511" height="86.5511" rx="43.2756" fill="#EAF0F0"/>
<path d="M266.34 47.0312L283.119 70.8229V57.0488L266.34 47.0312Z" fill="#8C8C8C"/>
<path d="M283.117 57.0488V70.8229L300.147 47.0312L283.117 57.0488Z" fill="#343434"/>
<path d="M283.117 15.7285V53.7951L300.147 43.7776L283.117 15.7285Z" fill="#343434"/>
<path d="M283.119 15.7285V53.7951L266.34 43.7776L283.119 15.7285Z" fill="#8C8C8C"/>
<path d="M283.119 36.0137L266.34 43.7773L283.119 53.7948V36.0137Z" fill="#393939"/>
<path d="M283.117 36.0137V53.7948L300.147 43.7773L283.117 36.0137Z" fill="#151515"/>
<rect x="586.766" y="53.2969" width="86.5511" height="86.5511" rx="43.2756" transform="rotate(-35 586.766 53.2969)" fill="#EAF0F0"/>
<path d="M635.343 76.6992L662.734 86.5639L654.833 75.2809L635.343 76.6992Z" fill="#8C8C8C"/>
<path d="M654.832 75.2821L662.733 86.5651L663.036 57.3083L654.832 75.2821Z" fill="#343434"/>
<path d="M631.132 41.4336L652.967 72.6159L661.171 54.6422L631.132 41.4336Z" fill="#343434"/>
<path d="M631.134 41.4324L652.968 72.6147L633.477 74.0331L631.134 41.4324Z" fill="#8C8C8C"/>
<path d="M642.769 58.0476L633.477 74.0314L652.968 72.6131L642.769 58.0476Z" fill="#393939"/>
<path d="M642.768 58.0488L652.966 72.6143L661.171 54.6405L642.768 58.0488Z" fill="#151515"/>
<rect x="70.2344" y="78.2812" width="49.7504" height="49.7504" rx="24.8752" fill="#DA3737"/>
<path fill-rule="evenodd" clip-rule="evenodd" d="M81.7407 89.0879L102.663 93.0721L108.672 98.4554L92.7851 118.15L81.7407 89.0879ZM86.732 95.0308L92.6121 110.504L93.9151 101.179L86.732 95.0308ZM96.4082 101.765L95.0887 111.208L103.75 100.471L96.4082 101.765ZM104.071 97.7863L99.3231 98.6232L102.102 96.0221L104.071 97.7863ZM99.3508 95.0759L88.2773 92.9671L95.2387 98.9251L99.3508 95.0759Z" fill="white"/>
<rect x="737" y="114" width="32.1915" height="32.1915" rx="16.0957" fill="#DA3737"/>
<path fill-rule="evenodd" clip-rule="evenodd" d="M744.445 120.992L757.983 123.57L761.871 127.054L751.592 139.797L744.445 120.992ZM747.675 124.838L751.48 134.849L752.323 128.816L747.675 124.838ZM753.936 129.195L753.082 135.305L758.687 128.358L753.936 129.195ZM758.894 126.621L755.822 127.162L757.62 125.479L758.894 126.621ZM755.84 124.867L748.675 123.502L753.179 127.357L755.84 124.867Z" fill="white"/>
<rect x="411.172" y="98.0391" width="91.453" height="91.453" rx="45.7265" fill="#DA3737"/>
<path fill-rule="evenodd" clip-rule="evenodd" d="M432.323 117.902L470.783 125.226L481.829 135.122L452.625 171.325L432.323 117.902ZM441.498 128.827L452.307 157.27L454.703 140.128L441.498 128.827ZM459.286 141.206L456.86 158.565L472.781 138.827L459.286 141.206ZM473.371 133.892L464.644 135.43L469.752 130.649L473.371 133.892ZM464.695 128.91L444.339 125.033L457.136 135.986L464.695 128.91Z" fill="white"/>
<rect x="165.344" y="44.625" width="86.5511" height="86.5511" rx="43.2756" fill="#87E4E4"/>
<path d="M206.579 90.3689L203.05 102.271H221.928C222.054 102.266 222.178 102.286 222.295 102.33C222.413 102.374 222.52 102.441 222.612 102.526C222.703 102.611 222.777 102.714 222.829 102.828C222.88 102.942 222.909 103.065 222.913 103.19V103.502L221.272 109.165C221.199 109.433 221.038 109.668 220.814 109.833C220.591 109.997 220.318 110.08 220.041 110.068H191.148L195.991 93.57L190.574 95.2116L191.805 91.4359L197.222 89.7943L204.035 66.6476C204.11 66.3813 204.272 66.1477 204.495 65.9841C204.718 65.8205 204.99 65.7362 205.266 65.7447H212.571C212.696 65.7403 212.821 65.7606 212.938 65.8045C213.055 65.8483 213.163 65.9148 213.254 66.0002C213.346 66.0856 213.42 66.1882 213.471 66.3021C213.523 66.416 213.552 66.539 213.556 66.664V66.9759L207.811 86.5111L213.228 84.8695L212.079 88.8094L206.579 90.3689Z" fill="white"/>
<rect x="623.344" y="105.344" width="86.5511" height="86.5511" rx="43.2756" fill="#87E4E4"/>
<path d="M664.579 151.088L661.05 162.989H679.928C680.054 162.985 680.178 163.005 680.295 163.049C680.413 163.093 680.52 163.159 680.612 163.245C680.703 163.33 680.777 163.433 680.829 163.547C680.88 163.661 680.909 163.784 680.913 163.909V164.221L679.272 169.884C679.199 170.152 679.038 170.387 678.814 170.551C678.591 170.715 678.318 170.798 678.041 170.787H649.148L653.991 154.289L648.574 155.93L649.805 152.155L655.222 150.513L662.035 127.366C662.11 127.1 662.272 126.866 662.495 126.703C662.718 126.539 662.99 126.455 663.266 126.463H670.571C670.696 126.459 670.821 126.479 670.938 126.523C671.055 126.567 671.163 126.634 671.254 126.719C671.346 126.804 671.42 126.907 671.471 127.021C671.523 127.135 671.552 127.258 671.556 127.383V127.695L665.811 147.23L671.228 145.588L670.079 149.528L664.579 151.088Z" fill="white"/>
<rect y="105.344" width="86.5511" height="86.5511" rx="43.2756" fill="#E2E633"/>
<path fill-rule="evenodd" clip-rule="evenodd" d="M57.3224 146.23L57.2939 140.121H57.316L52.1286 137.066L43.2394 142.309L34.4039 137.066L29.2196 140.121V146.23L38.1088 151.448V161.909L43.271 164.935L48.4332 161.909V151.448L57.3224 146.23ZM43.2425 121.416L29.2164 129.688L34.3786 132.743L43.2425 127.5L52.1317 132.743L57.2939 129.688L43.2425 121.416ZM25.3492 159.127L25.3208 148.754L20.1617 145.72V162.192L34.2131 170.386V164.313L25.3492 159.127ZM25.3208 144.425V138.38L30.5082 135.344L25.3208 132.307L20.1586 135.344V141.389L25.3208 144.425ZM43.077 132.307L37.9148 135.344L43.077 138.38L48.2645 135.344L43.077 132.307ZM29.2164 151.014V157.123L34.4069 160.149V154.068L29.2164 151.014ZM43.3194 169.746L38.1289 166.691V172.772L43.3194 175.826L48.5353 172.772V166.691L43.3194 169.746ZM61.1697 132.307L55.9793 135.362L61.1697 138.416V144.497L66.3856 141.442V135.362L61.1697 132.307ZM61.1983 148.851L61.1697 159.286L52.2604 164.5V170.609L66.3888 162.365V145.797L61.1983 148.851ZM57.3366 156.495L51.8968 159.498V153.463L57.3366 150.431V156.495Z" fill="white"/>
<rect x="379.367" y="113.969" width="64.3829" height="64.3829" rx="32.1915" transform="rotate(44.5722 379.367 113.969)" fill="#E2E633"/>
<path fill-rule="evenodd" clip-rule="evenodd" d="M388.397 165.559L391.572 162.307L391.584 162.318L390.429 157.992L382.982 156.129L381.037 148.738L376.695 147.651L373.506 150.888L375.492 158.294L370.031 163.837L371.187 168.135L375.502 169.227L380.963 163.683L388.397 165.559ZM393.891 145.06L382.14 142.121L383.28 146.434L390.715 148.284L392.688 155.703L397.018 156.779L393.891 145.06ZM371.008 153.422L367.818 156.659L368.989 160.972L372.163 157.75L371.008 153.422ZM368.702 170.71L367.546 166.382L364.372 169.604L365.527 173.932L369.886 175.037L373.06 171.815L368.702 170.71ZM397.706 160.19L393.361 159.099L394.516 163.427L391.342 166.65L395.701 167.754L398.875 164.532L397.706 160.19ZM389.084 168.972L383.622 174.486L376.178 172.598L372.989 175.835L384.779 178.843L393.429 170.063L389.084 168.972ZM364.723 155.703L370.123 150.192L368.973 145.891L360.374 154.619L363.542 166.297L366.712 163.079L364.723 155.703ZM372.383 147.898L375.539 144.695L379.873 145.794L378.709 141.477L374.388 140.391L371.233 143.594L372.383 147.898ZM388.118 150.746L383.797 149.66L384.948 153.964L389.282 155.063L388.118 150.746ZM383.048 171.006L378.598 169.758L381.748 166.56L386.213 167.793L383.048 171.006Z" fill="white"/>
<rect x="102.422" y="105.348" width="86.5511" height="86.5511" rx="43.2756" fill="#2F6FEB"/>
<path fill-rule="evenodd" clip-rule="evenodd" d="M131.08 130.16L160.543 130.16C161.586 130.16 162.627 130.313 163.716 130.821C165.02 131.429 165.712 132.388 166.197 133.097C166.235 133.152 166.27 133.209 166.303 133.267C166.873 134.281 167.166 135.377 167.166 136.555C167.166 137.675 166.9 138.895 166.303 139.958C166.297 139.968 166.291 139.978 166.285 139.988L147.671 171.963C147.261 172.668 146.505 173.101 145.689 173.098C144.874 173.095 144.121 172.657 143.716 171.949L125.443 140.042C125.438 140.034 125.433 140.025 125.428 140.016C125.009 139.327 124.363 138.262 124.25 136.886C124.146 135.622 124.43 134.355 125.065 133.256C125.701 132.157 126.657 131.279 127.808 130.741C129.042 130.165 130.292 130.16 131.08 130.16ZM143.414 134.728H131.08C130.27 134.728 129.959 134.778 129.742 134.88C129.441 135.02 129.188 135.251 129.02 135.543C128.851 135.835 128.774 136.173 128.802 136.512C128.818 136.706 128.897 136.928 129.364 137.699C129.374 137.715 129.383 137.731 129.393 137.747L143.414 162.23V134.728ZM147.981 134.728V162.351L162.327 137.709C162.489 137.414 162.599 136.989 162.599 136.555C162.599 136.203 162.526 135.897 162.362 135.582C162.191 135.336 162.087 135.205 162 135.116C161.925 135.04 161.867 134.999 161.786 134.961C161.446 134.803 161.099 134.728 160.543 134.728H147.981Z" fill="white"/>
<rect x="443.359" y="13.1719" width="86.5511" height="86.5511" rx="43.2756" fill="#2F6FEB"/>
<path fill-rule="evenodd" clip-rule="evenodd" d="M472.018 37.9846L501.481 37.9844C502.523 37.9844 503.565 38.1375 504.653 38.6449C505.958 39.2532 506.65 40.2118 507.135 40.9208C507.172 40.976 507.208 41.0328 507.24 41.091C507.81 42.1056 508.104 43.201 508.104 44.3794C508.104 45.499 507.838 46.7189 507.24 47.782C507.235 47.7923 507.229 47.8023 507.223 47.8124L488.609 79.7874C488.198 80.4926 487.443 80.9251 486.627 80.9223C485.811 80.9195 485.059 80.4814 484.653 79.7734L466.381 47.8666C466.376 47.858 466.37 47.8494 466.365 47.8406C465.947 47.1515 465.3 46.0859 465.187 44.7107C465.083 43.446 465.367 42.1789 466.003 41.0803C466.638 39.9815 467.595 39.1031 468.746 38.5654C469.979 37.9889 471.229 37.9846 472.018 37.9846ZM484.351 42.5523H472.018C471.208 42.5523 470.897 42.6022 470.679 42.7038C470.378 42.8442 470.126 43.0751 469.957 43.367C469.788 43.6591 469.712 43.9976 469.74 44.3364C469.756 44.5306 469.835 44.7527 470.302 45.5228C470.311 45.539 470.321 45.5553 470.33 45.5716L484.351 70.0543V42.5523ZM488.919 42.5523V70.1753L503.265 45.5328C503.426 45.2386 503.536 44.8135 503.536 44.3794C503.536 44.0272 503.463 43.7214 503.3 43.4063C503.129 43.1599 503.024 43.0295 502.937 42.9402C502.862 42.8639 502.805 42.823 502.723 42.7851C502.384 42.6269 502.037 42.5523 501.481 42.5523H488.919Z" fill="white"/>
</g>
<defs>
<clipPath id="clip0_1706_20858">
<rect width="770" height="196" fill="white"/>
</clipPath>
</defs>
</svg>
