<svg width="89" height="32" viewBox="0 0 89 32" fill="none" xmlns="http://www.w3.org/2000/svg">
<g clip-path="url(#clip0_1735_20744)">
<g clip-path="url(#clip1_1735_20744)">
<mask id="mask0_1735_20744" style="mask-type:luminance" maskUnits="userSpaceOnUse" x="19" y="7" width="10" height="16">
<path d="M19.7297 19.7103V22.9109C22.4783 22.9249 25.2308 21.8836 27.3281 19.7863C27.5154 19.599 27.6941 19.407 27.8641 19.2097C28.1414 18.889 28.3954 18.5564 28.6274 18.2131C28.7021 17.7824 28.7541 17.3464 28.7847 16.9058C28.8047 16.6111 28.8147 16.3138 28.8147 16.0151C28.8147 14.1092 28.4007 12.2672 27.6154 10.5913C27.0148 9.30734 26.1968 8.12204 25.1788 7.08008C26.1695 8.11338 26.8301 9.38334 27.1061 10.7606C27.2034 11.2439 27.2528 11.7406 27.2528 12.2446C27.2528 14.2385 26.4761 16.1138 25.0655 17.5237C23.6555 18.9344 21.7803 19.711 19.7863 19.711C19.7677 19.711 19.7483 19.711 19.7297 19.7103Z" fill="white"/>
</mask>
<g mask="url(#mask0_1735_20744)">
<mask id="mask1_1735_20744" style="mask-type:luminance" maskUnits="userSpaceOnUse" x="19" y="6" width="11" height="18">
<path d="M29.1504 6.74219H19.3987V23.2397H29.1504V6.74219Z" fill="white"/>
</mask>
<g mask="url(#mask1_1735_20744)">
<rect x="19.3839" y="6.72656" width="9.79168" height="16.5435" fill="url(#paint0_linear_1735_20744)"/>
</g>
</g>
<mask id="mask2_1735_20744" style="mask-type:luminance" maskUnits="userSpaceOnUse" x="0" y="0" width="28" height="16">
<path d="M0.0445557 15.1771H3.24912C3.44511 12.0685 4.74974 9.17263 6.97167 6.9507C8.55295 5.37009 10.4742 4.25346 12.5715 3.66947C12.9828 3.55548 13.4008 3.46148 13.8248 3.38882C14.1988 3.13549 14.5848 2.90883 14.9807 2.70817C17.2647 1.55354 19.8773 1.27288 22.3205 1.86687C24.1171 2.30219 25.8217 3.21082 27.2377 4.59144C25.8217 3.19816 24.2098 2.12219 22.4925 1.36422C16.6247 -1.22837 9.51758 -0.120404 4.70907 4.68811C1.7945 7.60268 0.239883 11.3612 0.0445557 15.1771Z" fill="white"/>
</mask>
<g mask="url(#mask2_1735_20744)">
<mask id="mask3_1735_20744" style="mask-type:luminance" maskUnits="userSpaceOnUse" x="-1" y="-1" width="29" height="17">
<path d="M27.5715 -0.332031H-0.288269V15.5095H27.5715V-0.332031Z" fill="white"/>
</mask>
<g mask="url(#mask3_1735_20744)">
<rect x="-0.320557" y="-0.355469" width="27.9031" height="15.8715" fill="url(#paint1_linear_1735_20744)"/>
</g>
</g>
<path d="M0.28797 18.8918C0.851285 21.977 2.32657 24.9296 4.71183 27.3149C10.9603 33.5633 21.0906 33.5633 27.3384 27.3149C32.1469 22.5064 33.2549 15.3986 30.6623 9.53077C29.9037 7.81349 28.8277 6.20221 27.4351 4.78626C27.4031 4.75359 27.3711 4.72092 27.3384 4.68826C27.3058 4.65559 27.2731 4.62359 27.2404 4.59159C25.8245 3.21097 24.1199 2.30233 22.3233 1.86702C19.88 1.27303 17.2674 1.55369 14.9835 2.70832C14.5875 2.90898 14.2015 3.13564 13.8275 3.38897C13.4835 3.62096 13.1502 3.87628 12.8296 4.15294C12.6329 4.32294 12.4409 4.5016 12.2543 4.68826C8.08905 8.85346 8.08905 15.6072 12.2543 19.7724C13.3609 20.8791 14.6508 21.6917 16.0255 22.211C17.2201 22.6617 18.4801 22.8903 19.74 22.897V19.6964C18.4134 19.6871 17.1408 19.3331 16.0255 18.6771C15.4815 18.3585 14.9748 17.9678 14.5168 17.5098C13.1069 16.0999 12.3302 14.2246 12.3302 12.2307C12.3302 10.2367 13.1069 8.36081 14.5168 6.95085C15.9275 5.5409 17.8021 4.76426 19.7967 4.76426C20.3013 4.76426 20.798 4.81425 21.282 4.91158C22.6579 5.18691 23.9272 5.84755 24.9605 6.83752C24.9992 6.87485 25.0378 6.91285 25.0758 6.95085C25.1138 6.98885 25.1518 7.02752 25.1892 7.06618C26.2071 8.10815 27.0251 9.29344 27.6258 10.5774C28.4111 12.2533 28.8251 14.0953 28.8251 16.0012C28.8251 16.2999 28.8151 16.5972 28.7951 16.8919C28.7644 17.3325 28.7124 17.7685 28.6377 18.1992C28.5651 18.6231 28.4717 19.0411 28.3571 19.4525C27.7738 21.5497 26.6571 23.471 25.0758 25.0523C22.6586 27.4695 19.444 28.8008 16.0255 28.8008C12.6069 28.8008 9.39234 27.4695 6.97442 25.0523C5.25381 23.3317 4.08318 21.2071 3.55186 18.8918C3.33654 17.9545 3.22588 16.9865 3.22588 16.0012C3.22588 15.7252 3.23454 15.4506 3.25187 15.1773H0.0473108C-0.0166871 16.4185 0.0639769 17.6658 0.28797 18.8918Z" fill="#13D659"/>
<path d="M42.7428 19.8204L49.2 26.666H45.2847L40.0985 20.7912V26.666H37.2V8.66602H40.0985V18.9265L45.1831 12.5872H49.2L42.7428 19.8204Z" fill="#191C1A"/>
<path d="M52.6269 25.9026C51.5609 25.3039 50.7229 24.46 50.1138 23.3716C49.5046 22.2832 49.2 21.0226 49.2 19.5879C49.2 18.1532 49.5132 16.9143 50.1395 15.8174C50.7651 14.7211 51.6202 13.8772 52.7034 13.2863C53.7866 12.6961 54.9963 12.4004 56.3333 12.4004C57.6704 12.4004 58.8801 12.6955 59.9633 13.2863C61.0465 13.8772 61.9009 14.7204 62.5272 15.8174C63.1529 16.9143 63.4667 18.1709 63.4667 19.5879C63.4667 21.0049 63.145 22.2622 62.5022 23.3585C61.8587 24.4554 60.9832 25.3032 59.875 25.902C58.7661 26.5007 57.5438 26.8004 56.2068 26.8004C54.8698 26.8004 53.6936 26.5013 52.6276 25.902L52.6269 25.9026ZM58.3006 23.7646C58.952 23.4104 59.4814 22.8787 59.8875 22.1702C60.2936 21.4617 60.4967 20.6014 60.4967 19.5886C60.4967 18.5758 60.3022 17.72 59.9125 17.0201C59.5229 16.3201 59.0067 15.7924 58.3639 15.4381C57.7205 15.0839 57.0269 14.9064 56.2819 14.9064C55.5369 14.9064 54.8473 15.0832 54.2131 15.4381C53.5782 15.7924 53.0746 16.3201 52.7027 17.0201C52.3302 17.7207 52.1443 18.5764 52.1443 19.5886C52.1443 21.0903 52.5293 22.2504 53.2994 23.068C54.0694 23.8862 55.0385 24.2957 56.2061 24.2957C56.9504 24.2957 57.6486 24.1182 58.3006 23.764V23.7646Z" fill="#191C1A"/>
<path d="M74.5333 23.7529H72.15C69.8492 23.7529 67.9835 21.8903 67.9835 19.5917V8.66602H65.0667V19.5963C65.0667 23.5008 68.2359 26.666 72.1454 26.666H74.5327V23.7529H74.5333Z" fill="#191C1A"/>
<path d="M77.9602 25.9026C76.8942 25.3039 76.0562 24.46 75.4471 23.3716C74.8379 22.2832 74.5333 21.0226 74.5333 19.5879C74.5333 18.1532 74.8465 16.9143 75.4728 15.8174C76.0984 14.7211 76.9535 13.8772 78.0367 13.2863C79.1199 12.6961 80.3296 12.4004 81.6667 12.4004C83.0037 12.4004 84.2134 12.6955 85.2966 13.2863C86.3798 13.8772 87.2342 14.7204 87.8605 15.8174C88.4862 16.9143 88.8 18.1709 88.8 19.5879C88.8 21.0049 88.4783 22.2622 87.8355 23.3585C87.192 24.4554 86.3165 25.3032 85.2083 25.902C84.0994 26.5007 82.8771 26.8004 81.5401 26.8004C80.2031 26.8004 79.0269 26.5013 77.9609 25.902L77.9602 25.9026ZM83.6339 23.7646C84.2853 23.4104 84.8147 22.8787 85.2208 22.1702C85.6269 21.4617 85.83 20.6014 85.83 19.5886C85.83 18.5758 85.6355 17.72 85.2458 17.0201C84.8562 16.3201 84.34 15.7924 83.6972 15.4381C83.0538 15.0839 82.3602 14.9064 81.6152 14.9064C80.8703 14.9064 80.1807 15.0832 79.5464 15.4381C78.9116 15.7924 78.4079 16.3201 78.036 17.0201C77.6636 17.7207 77.4776 18.5764 77.4776 19.5886C77.4776 21.0903 77.8627 22.2504 78.6327 23.068C79.4027 23.8862 80.3718 24.2957 81.5394 24.2957C82.2837 24.2957 82.9819 24.1182 83.6339 23.764V23.7646Z" fill="#191C1A"/>
</g>
</g>
<defs>
<linearGradient id="paint0_linear_1735_20744" x1="29.009" y1="8.1297" x2="20.3259" y2="21.5628" gradientUnits="userSpaceOnUse">
<stop stop-color="#13D659" stop-opacity="0"/>
<stop offset="1" stop-color="#13D659"/>
</linearGradient>
<linearGradient id="paint1_linear_1735_20744" x1="24.9355" y1="3.41501" x2="2.25925" y2="10.0892" gradientUnits="userSpaceOnUse">
<stop stop-color="#13D659" stop-opacity="0"/>
<stop offset="1" stop-color="#13D659"/>
</linearGradient>
<clipPath id="clip0_1735_20744">
<rect width="88.8" height="32" fill="white"/>
</clipPath>
<clipPath id="clip1_1735_20744">
<rect width="91.8" height="32" fill="white" transform="translate(-0.133362)"/>
</clipPath>
</defs>
</svg>
