<svg width="926" height="583" viewBox="0 0 926 583" fill="none" xmlns="http://www.w3.org/2000/svg">
<g clip-path="url(#clip0_1706_20988)">
<rect x="549.774" y="-0.105469" width="18.2197" height="299.106" fill="url(#paint0_linear_1706_20988)"/>
<rect x="604.43" y="-0.105469" width="18.2197" height="299.106" fill="url(#paint1_linear_1706_20988)"/>
<rect width="18.2197" height="297.588" transform="matrix(1 0 0 -1 549.774 786.586)" fill="url(#paint2_linear_1706_20988)"/>
<rect width="18.2197" height="297.588" transform="matrix(1 0 0 -1 604.43 786.586)" fill="url(#paint3_linear_1706_20988)"/>
<rect width="18.2197" height="297.588" transform="matrix(1 0 0 -1 659.094 786.586)" fill="url(#paint4_linear_1706_20988)"/>
<rect x="1236.37" y="330.988" width="18.2197" height="528.37" transform="rotate(90 1236.37 330.988)" fill="url(#paint5_linear_1706_20988)"/>
<rect x="1236.37" y="385.648" width="18.2197" height="528.37" transform="rotate(90 1236.37 385.648)" fill="url(#paint6_linear_1706_20988)"/>
<path d="M518 339H194C149.817 339 114 374.817 114 419V422.75C114 444.841 96.0914 462.75 74 462.75H-4" stroke="url(#paint7_linear_1706_20988)" stroke-width="18"/>
<path d="M518 395H208C185.909 395 168 412.909 168 435L168 638" stroke="url(#paint8_linear_1706_20988)" stroke-width="18"/>
<path d="M518 449H242C230.954 449 222 457.954 222 469L222 692" stroke="url(#paint9_linear_1706_20988)" stroke-width="18"/>
<rect opacity="0.6" x="518" y="299" width="190" height="190" rx="20.7942" fill="url(#paint10_linear_1706_20988)"/>
<path d="M617.086 329.258C606.708 329.258 597.334 330.662 588.633 333.902C587.027 334.365 586.053 336.297 586.657 337.825C587.261 339.353 589.311 340.142 590.818 339.429C598.716 336.488 607.27 335.202 617.086 335.202C626.786 335.202 635.691 336.782 643.401 339.475C644.905 340.01 646.772 339.158 647.32 337.687C647.867 336.216 646.995 334.39 645.491 333.855C637.097 330.924 627.465 329.258 617.086 329.258ZM617.086 341.147C600.604 341.147 586.239 346.212 576.948 355.358C575.78 356.444 575.748 358.482 576.882 359.602C578.015 360.723 580.1 360.714 581.223 359.584C589.086 351.844 601.896 347.092 617.086 347.092C632.276 347.092 645.086 351.844 652.948 359.584C654.072 360.714 656.156 360.723 657.29 359.602C658.423 358.482 658.391 356.444 657.223 355.358C647.932 346.212 633.567 341.147 617.086 341.147ZM617.086 351.55C590.292 351.55 568.446 372.4 568.446 397.62C568.423 399.19 569.88 400.635 571.486 400.635C573.092 400.635 574.549 399.19 574.526 397.62C574.526 375.761 593.511 357.494 617.086 357.494C622.89 357.494 628.428 358.598 633.473 360.56C634.964 361.191 636.912 360.401 637.509 358.924C638.106 357.446 637.235 355.568 635.706 355.033C629.973 352.804 623.682 351.55 617.086 351.55ZM613.856 361.953C606.005 362.132 599.202 364.49 593.906 368.548C592.65 369.508 592.401 371.499 593.383 372.727C594.366 373.955 596.402 374.199 597.658 373.238C602.5 369.529 608.834 367.491 616.896 367.944C627.901 368.562 635.907 372.073 641.263 378.486C646.62 384.899 649.488 394.53 649.006 407.884C648.89 411.089 649.93 415.788 651.001 420.562C652.071 425.337 653.121 429.544 653.708 431.244C654.218 432.727 656.062 433.624 657.579 433.125C659.097 432.626 660.013 430.823 659.503 429.34C659.246 428.595 657.977 423.942 656.938 419.309C655.899 414.675 655.039 409.42 655.086 408.116C655.601 393.834 652.586 382.593 646.013 374.724C639.44 366.856 629.47 362.684 617.276 361.999C616.112 361.934 614.977 361.927 613.856 361.953ZM648.388 362.975C647.181 363.017 646.041 363.833 645.634 364.945C645.228 366.058 645.582 367.396 646.488 368.176C654.534 375.349 659.646 386.351 659.646 397.62C659.623 399.19 661.079 400.635 662.686 400.635C664.292 400.635 665.748 399.19 665.726 397.62C665.726 384.619 659.99 372.116 650.621 363.764C650.025 363.223 649.2 362.932 648.388 362.975ZM617.086 372.356C609.532 372.356 602.569 375.309 597.801 380.808C593.033 386.307 590.517 394.183 591.246 403.75C591.392 405.676 590.172 410.397 588.111 415.593C586.05 420.789 583.281 426.688 580.843 432.08C580.209 433.515 580.967 435.384 582.435 436.004C583.902 436.624 585.814 435.884 586.448 434.448C588.859 429.117 591.648 423.229 593.811 417.776C595.974 412.322 597.645 407.53 597.326 403.332C596.69 394.991 598.816 388.759 602.408 384.616C606 380.474 611.115 378.3 617.086 378.3C623.687 378.3 628.808 380.156 632.428 383.873C636.049 387.59 638.366 393.423 638.366 402.079V419.912C638.366 421.536 638.748 423.22 639.268 425.392C640.946 431.442 642.364 437.151 644.636 443.226C645.192 444.689 647.063 445.524 648.558 444.976C650.053 444.428 650.901 442.596 650.336 441.136C648.364 435.088 646.647 430.016 645.206 424.045C644.723 422.03 644.446 420.25 644.446 419.912V402.079C644.446 392.378 641.783 384.809 636.846 379.74C631.909 374.671 624.894 372.356 617.086 372.356ZM587.873 376.768C586.898 376.885 585.999 377.495 585.546 378.347C581.186 386.305 578.916 398.081 579.086 407.791C578.904 409.073 578.402 410.456 578.041 411.553C577.299 413.724 576.196 416.467 574.858 418.983C574.131 420.369 574.755 422.276 576.169 422.992C577.584 423.707 579.536 423.105 580.273 421.723C581.809 418.835 583.01 415.874 583.836 413.457C584.249 412.248 584.56 411.168 584.786 410.299C585.011 409.43 585.192 409.121 585.166 407.93C584.972 399.243 587.29 387.708 590.866 381.18C591.412 380.231 591.366 378.985 590.75 378.078C590.135 377.171 588.979 376.645 587.873 376.768ZM617.086 384.245C611.526 384.245 607.203 386.749 604.926 390.468C602.649 394.187 602.051 398.674 601.886 403.425C601.883 403.503 601.883 403.58 601.886 403.658C602.426 415.86 593.18 432.146 585.641 443.551C584.776 444.864 585.215 446.829 586.561 447.67C587.907 448.511 589.916 448.075 590.771 446.756C598.421 435.182 608.524 418.747 607.966 403.658C607.963 403.58 607.969 403.502 607.966 403.425C608.134 399.222 608.837 395.633 610.151 393.487C611.491 391.298 613.109 390.189 617.086 390.189C619.421 390.189 621.483 390.516 623.071 392.047C624.658 393.578 626.206 396.791 626.206 403.565C626.206 407.795 623.936 418.001 620.173 428.272C616.41 438.542 611.086 449.178 605.686 455.069C604.621 456.235 604.742 458.245 605.939 459.281C607.136 460.317 609.191 460.191 610.246 459.016C616.689 451.988 622.004 441.004 625.921 430.315C629.837 419.626 632.286 409.58 632.286 403.565C632.286 395.885 630.488 390.851 627.346 387.821C624.203 384.791 620.149 384.245 617.086 384.245ZM616.753 396.088C615.259 396.248 614.013 397.637 614.046 399.106V409.509C614.023 411.08 615.479 412.524 617.086 412.524C618.692 412.524 620.148 411.08 620.126 409.509V399.106C620.163 397.42 618.468 395.903 616.753 396.088ZM613.856 419.866C612.686 419.94 611.596 420.739 611.196 421.816C607.58 431.357 600.101 444.413 593.478 452.143C592.446 453.334 592.616 455.337 593.835 456.346C595.053 457.355 597.101 457.189 598.133 455.998C605.445 447.464 612.972 434.259 616.896 423.906C617.632 422.051 615.886 419.731 613.856 419.866ZM633.521 428.829C632.394 428.93 631.358 429.699 630.956 430.733C627.866 438.886 624.326 448.172 619.176 455.347C618.027 456.593 618.283 458.808 619.687 459.771C621.091 460.735 623.308 460.217 624.116 458.738C627.924 453.432 630.691 447.556 633.093 441.74C634.419 446.546 635.866 451.114 637.131 453.815C637.694 455.362 639.731 456.204 641.258 455.521C642.786 454.839 643.468 452.782 642.641 451.353C641.087 448.036 637.814 437.577 636.798 431.337C636.565 429.86 635.042 428.695 633.521 428.829Z" fill="#13D659"/>
<path d="M666 299L666 226C666 203.909 683.909 186 706 186L909 186" stroke="url(#paint11_linear_1706_20988)" stroke-width="18"/>
<path d="M707.983 449L748.983 449C771.075 449 788.983 466.909 788.983 489L788.983 692" stroke="url(#paint12_linear_1706_20988)" stroke-width="18"/>
</g>
<defs>
<linearGradient id="paint0_linear_1706_20988" x1="558.884" y1="-0.105469" x2="558.884" y2="299.001" gradientUnits="userSpaceOnUse">
<stop stop-color="#13D659" stop-opacity="0"/>
<stop offset="1" stop-color="#13D659"/>
</linearGradient>
<linearGradient id="paint1_linear_1706_20988" x1="613.54" y1="-0.105469" x2="613.54" y2="299.001" gradientUnits="userSpaceOnUse">
<stop stop-color="#13D659" stop-opacity="0"/>
<stop offset="1" stop-color="#13D659"/>
</linearGradient>
<linearGradient id="paint2_linear_1706_20988" x1="9.10983" y1="0" x2="9.10983" y2="297.588" gradientUnits="userSpaceOnUse">
<stop stop-color="#13D659" stop-opacity="0"/>
<stop offset="1" stop-color="#13D659"/>
</linearGradient>
<linearGradient id="paint3_linear_1706_20988" x1="9.10983" y1="0" x2="9.10983" y2="297.588" gradientUnits="userSpaceOnUse">
<stop stop-color="#13D659" stop-opacity="0"/>
<stop offset="1" stop-color="#13D659"/>
</linearGradient>
<linearGradient id="paint4_linear_1706_20988" x1="9.10983" y1="0" x2="9.10983" y2="297.588" gradientUnits="userSpaceOnUse">
<stop stop-color="#13D659" stop-opacity="0"/>
<stop offset="1" stop-color="#13D659"/>
</linearGradient>
<linearGradient id="paint5_linear_1706_20988" x1="1245.48" y1="330.988" x2="1245.48" y2="859.358" gradientUnits="userSpaceOnUse">
<stop stop-color="#13D659" stop-opacity="0"/>
<stop offset="1" stop-color="#13D659"/>
</linearGradient>
<linearGradient id="paint6_linear_1706_20988" x1="1245.48" y1="385.648" x2="1245.48" y2="914.018" gradientUnits="userSpaceOnUse">
<stop stop-color="#13D659" stop-opacity="0"/>
<stop offset="1" stop-color="#13D659"/>
</linearGradient>
<linearGradient id="paint7_linear_1706_20988" x1="4.39903" y1="339.501" x2="518" y2="339.501" gradientUnits="userSpaceOnUse">
<stop stop-color="#13D659" stop-opacity="0"/>
<stop offset="1" stop-color="#23D662"/>
</linearGradient>
<linearGradient id="paint8_linear_1706_20988" x1="73.0487" y1="395.501" x2="518" y2="395.501" gradientUnits="userSpaceOnUse">
<stop stop-color="#13D659" stop-opacity="0"/>
<stop offset="1" stop-color="#23D662"/>
</linearGradient>
<linearGradient id="paint9_linear_1706_20988" x1="141.698" y1="449.501" x2="518" y2="449.501" gradientUnits="userSpaceOnUse">
<stop stop-color="#13D659" stop-opacity="0"/>
<stop offset="1" stop-color="#23D662"/>
</linearGradient>
<linearGradient id="paint10_linear_1706_20988" x1="613" y1="299" x2="613" y2="489" gradientUnits="userSpaceOnUse">
<stop stop-color="#10AF49"/>
<stop offset="1" stop-color="#0A6C2E"/>
</linearGradient>
<linearGradient id="paint11_linear_1706_20988" x1="666.501" y1="155.344" x2="666.501" y2="299" gradientUnits="userSpaceOnUse">
<stop stop-color="#13D659" stop-opacity="0"/>
<stop offset="1" stop-color="#23D662"/>
</linearGradient>
<linearGradient id="paint12_linear_1706_20988" x1="856.214" y1="449.501" x2="707.983" y2="449.501" gradientUnits="userSpaceOnUse">
<stop stop-color="#13D659" stop-opacity="0"/>
<stop offset="1" stop-color="#23D662"/>
</linearGradient>
<clipPath id="clip0_1706_20988">
<rect width="926" height="583" fill="white"/>
</clipPath>
</defs>
</svg>
