<svg width="50" height="50" viewBox="0 0 50 50" fill="none" xmlns="http://www.w3.org/2000/svg">
<rect width="50" height="50" rx="25" fill="#26A17B"/>
<path d="M27.2692 25.9462C27.1342 25.9462 26.3242 25.9462 24.5693 25.9462C23.2193 25.9462 22.2743 25.9462 21.8693 25.9462C16.6045 25.6762 12.5546 24.7313 12.5546 23.6513C12.5546 22.5713 16.4695 21.6263 21.8693 21.3563V25.0012C22.2743 25.0012 23.2193 25.1362 24.5693 25.1362C26.1892 25.1362 26.9992 25.0012 27.1342 25.0012V21.3563C32.3991 21.6263 36.449 22.5713 36.449 23.6513C36.5839 24.7313 32.5341 25.6762 27.2692 25.9462ZM27.2692 20.9514V17.7114H34.694V12.8516H14.5795V17.7114H22.0043V20.9514C15.9295 21.2213 11.4746 22.4363 11.4746 23.7863C11.4746 25.1362 15.9295 26.3512 22.0043 26.6212V37.1509H27.4042V26.7562C33.344 26.4862 37.9339 25.2712 37.9339 23.9213C37.7989 22.4363 33.344 21.2213 27.2692 20.9514Z" fill="white"/>
</svg>
