<svg width="50" height="50" viewBox="0 0 50 50" fill="none" xmlns="http://www.w3.org/2000/svg">
<rect width="50" height="50" rx="10" fill="#1334CA"/>
<path d="M22.5193 30.7407H19.0182L21.1993 19.2617H24.7577L22.5193 30.7407Z" fill="white"/>
<path d="M17.7632 19.2617L14.9791 27.1414L14.6431 25.439L13.6351 20.2832C13.6351 20.2832 13.5391 19.2617 12.2431 19.2617H7.58706L7.53906 19.4563C7.53906 19.4563 8.97908 19.7481 10.6111 20.7696L13.2031 30.7407H16.2752L20.9312 19.2617H17.7632Z" fill="white"/>
<path d="M39.0138 30.7407H41.9761L39.3841 19.2617H36.7921C35.5754 19.2617 35.3109 20.141 35.3109 20.141L30.4971 30.7407H33.8826L34.5703 29.0311H38.6964L39.0138 30.7407ZM35.4696 26.6376L37.1623 22.3391L38.1145 26.6376H35.4696V26.6376Z" fill="white"/>
<path d="M31.9399 22.1433L32.4104 19.7341C32.4104 19.7341 30.999 19.2617 29.5354 19.2617C27.9672 19.2617 24.1513 19.8758 24.1513 22.9463C24.1513 25.8279 28.5945 25.8751 28.5945 27.3395C28.5945 28.8512 24.6218 28.5677 23.315 27.623L22.8445 30.1266C22.8445 30.1266 24.2559 30.7407 26.4513 30.7407C28.6468 30.7407 31.9399 29.7015 31.9399 26.9144C31.9399 24.0328 27.4445 23.7494 27.4445 22.5212C27.4968 21.293 30.5808 21.4819 31.9399 22.1433Z" fill="white"/>
</svg>
