<svg width="50" height="50" viewBox="0 0 50 50" fill="none" xmlns="http://www.w3.org/2000/svg">
<rect width="50" height="50" rx="10" fill="black"/>
<path d="M29.9922 17.8008H20.0079V32.1978H29.9922V17.8008Z" fill="#FF5F00"/>
<path d="M21.4643 24.9986C21.4632 23.6128 21.781 22.2449 22.3935 20.9984C23.006 19.752 23.8973 18.6596 24.9999 17.8039C23.6343 16.7429 21.9943 16.083 20.2674 15.8999C18.5405 15.7167 16.7963 16.0176 15.2342 16.7682C13.672 17.5188 12.355 18.6888 11.4336 20.1444C10.5121 21.6001 10.0235 23.2826 10.0235 24.9999C10.0235 26.7171 10.5121 28.3997 11.4336 29.8553C12.355 31.311 13.672 32.481 15.2342 33.2316C16.7963 33.9821 18.5405 34.283 20.2674 34.0999C21.9943 33.9167 23.6343 33.2569 24.9999 32.1958C23.897 31.3399 23.0055 30.2471 22.3929 29.0002C21.7804 27.7532 21.4629 26.3848 21.4643 24.9986V24.9986Z" fill="#EB001B"/>
<path d="M39.9764 25.0011C39.9763 26.7183 39.4876 28.4008 38.5661 29.8563C37.6446 31.3119 36.3275 32.4817 34.7653 33.2321C33.2031 33.9825 31.4589 34.2831 29.732 34.0998C28.0052 33.9164 26.3654 33.2563 25 32.195C26.102 31.3387 26.993 30.2461 27.6056 28.9997C28.2182 27.7533 28.5366 26.3857 28.5366 24.9999C28.5366 23.6141 28.2182 22.2464 27.6056 21C26.993 19.7536 26.102 18.6611 25 17.8048C26.3655 16.7433 28.0056 16.0832 29.7327 15.8999C31.4598 15.7166 33.2042 16.0175 34.7665 16.7682C36.3287 17.5189 37.6458 18.6891 38.5671 20.145C39.4885 21.6009 39.9768 23.2838 39.9764 25.0011Z" fill="#F79E1B"/>
</svg>
