<svg width="50" height="50" viewBox="0 0 50 50" fill="none" xmlns="http://www.w3.org/2000/svg">
<rect width="50" height="50" rx="10" fill="#F7931A"/>
<path d="M31.278 24.1106C32.8072 23.3459 33.6993 22.0715 33.5719 19.7777C33.317 16.7191 30.6408 15.6996 27.3274 15.3173V11.1118H24.7786V15.1899C24.1414 15.1899 23.3768 15.1899 22.7396 15.1899V10.9844H20.1908V15.1899C19.6811 15.1899 19.0439 15.1899 18.5341 15.1899H14.9658V17.9935H16.8774C17.8969 17.9935 18.2792 18.6307 18.4067 19.1405V23.9831C18.5341 23.9831 18.5341 23.9831 18.6615 23.9831C18.5341 23.9831 18.5341 23.9831 18.4067 23.9831V30.7374C18.4067 31.1197 18.1518 31.6295 17.3872 31.6295H15.4756L14.9658 34.688H18.2792C18.9164 34.688 19.5536 34.688 20.0634 34.688V39.0209H22.6121V34.8154C23.3768 34.8154 24.014 34.8154 24.6512 34.8154V39.0209H27.1999V34.688C31.5329 34.4331 34.5914 33.4136 34.9737 29.3356C35.356 26.277 33.8268 24.7478 31.278 24.1106ZM22.7396 18.3758C24.1414 18.3758 28.7292 17.9935 28.7292 21.052C28.7292 23.9831 24.1414 23.6008 22.7396 23.6008V18.3758ZM22.6121 31.7569V26.0222C24.3963 26.0222 29.8762 25.5124 29.8762 28.9532C29.8762 32.1392 24.3963 31.7569 22.6121 31.7569Z" fill="white"/>
</svg>
