<svg width="201" height="50" viewBox="0 0 201 50" fill="none" xmlns="http://www.w3.org/2000/svg">
<rect width="201" height="50" rx="25" fill="#E76FB2"/>
<path d="M21.4258 31V16.7812H30.7031V19.125H24.4824V22.9824H29.9121V25.2676H24.4824V31H21.4258ZM31.5625 28.0312C31.5625 26.9115 31.9922 26.0684 32.8516 25.502C33.7174 24.9355 34.8145 24.6491 36.1426 24.6426H38.1738V24.0664C38.1738 23.6107 38.0566 23.2461 37.8223 22.9727C37.5944 22.6927 37.1908 22.5527 36.6113 22.5527C36.0319 22.5527 35.6185 22.6699 35.3711 22.9043C35.1237 23.1322 35 23.4154 35 23.7539V23.9199L32.1094 23.9102V23.7539C32.1094 22.8359 32.5358 22.0807 33.3887 21.4883C34.248 20.8958 35.3678 20.5996 36.748 20.5996C38.1283 20.5996 39.2025 20.8828 39.9707 21.4492C40.7454 22.0156 41.1328 22.8978 41.1328 24.0957V28.7246C41.1328 29.1348 41.1686 29.5254 41.2402 29.8965C41.3184 30.2676 41.4225 30.5833 41.5527 30.8437V31H38.6426C38.5579 30.8503 38.4863 30.6549 38.4277 30.4141C38.3691 30.1732 38.3268 29.9355 38.3008 29.7012C38.1055 30.0853 37.7246 30.4303 37.1582 30.7363C36.5983 31.0358 35.8984 31.1855 35.0586 31.1855C34.056 31.1855 33.2227 30.9219 32.5586 30.3945C31.8945 29.8672 31.5625 29.0794 31.5625 28.0312ZM34.5215 27.7773C34.5215 28.2201 34.6484 28.5749 34.9023 28.8418C35.1628 29.1022 35.5632 29.2324 36.1035 29.2324C36.696 29.2324 37.1875 29.0436 37.5781 28.666C37.9753 28.2884 38.1738 27.8424 38.1738 27.3281V26.3809H36.6309C35.9147 26.3809 35.3841 26.5013 35.0391 26.7422C34.694 26.9766 34.5215 27.3216 34.5215 27.7773ZM42.998 27.7969L45.8594 27.8164V27.9727C45.8594 28.4479 46.0189 28.793 46.3379 29.0078C46.6569 29.2161 47.0866 29.3203 47.627 29.3203C48.1738 29.3203 48.5872 29.2194 48.8672 29.0176C49.1471 28.8158 49.2871 28.5456 49.2871 28.207C49.2871 27.862 49.1374 27.6081 48.8379 27.4453C48.5384 27.276 47.8451 27.0807 46.7578 26.8594C45.5534 26.612 44.6745 26.2344 44.1211 25.7266C43.5677 25.2122 43.291 24.5449 43.291 23.7246C43.291 22.748 43.6816 21.9831 44.4629 21.4297C45.2507 20.8698 46.3151 20.5898 47.6563 20.5898C48.9909 20.5898 50.0553 20.8796 50.8496 21.459C51.6439 22.0384 52.041 22.8327 52.041 23.8418V23.9687H49.1895V23.8027C49.1895 23.4121 49.0592 23.1094 48.7988 22.8945C48.5449 22.6797 48.1576 22.5723 47.6367 22.5723C47.1224 22.5723 46.748 22.6602 46.5137 22.8359C46.2858 23.0052 46.1719 23.2363 46.1719 23.5293C46.1719 23.8223 46.3216 24.0534 46.6211 24.2227C46.9271 24.3919 47.627 24.5905 48.7207 24.8184C49.9316 25.0527 50.8171 25.4173 51.377 25.9121C51.9434 26.4069 52.2266 27.0905 52.2266 27.9629C52.2266 29.0111 51.8359 29.8281 51.0547 30.4141C50.2799 30.9935 49.1471 31.2832 47.6563 31.2832C46.1719 31.2832 45.026 30.9935 44.2188 30.4141C43.4115 29.8281 43.0046 28.9948 42.998 27.9141V27.7969ZM52.9297 23.0312V20.8828H59.3066V23.0312H52.9297ZM54.4434 27.9629V21.8887L54.4629 21.625V18.373H57.3828V27.7969C57.3828 28.2917 57.4674 28.6302 57.6367 28.8125C57.8125 28.9883 58.0599 29.0762 58.3789 29.0762C58.5352 29.0762 58.6882 29.0599 58.8379 29.0273C58.9876 28.9883 59.1309 28.9395 59.2676 28.8809V30.9805C59.1113 31.0586 58.8867 31.127 58.5938 31.1855C58.3073 31.2441 57.985 31.2734 57.627 31.2734C56.6569 31.2734 55.8822 31.0098 55.3027 30.4824C54.7298 29.9486 54.4434 29.1087 54.4434 27.9629ZM64.5703 23.0312V20.8828H70.9473V23.0312H64.5703ZM66.084 27.9629V21.8887L66.1035 21.625V18.373H69.0234V27.7969C69.0234 28.2917 69.1081 28.6302 69.2773 28.8125C69.4531 28.9883 69.7005 29.0762 70.0195 29.0762C70.1758 29.0762 70.3288 29.0599 70.4785 29.0273C70.6283 28.9883 70.7715 28.9395 70.9082 28.8809V30.9805C70.752 31.0586 70.5273 31.127 70.2344 31.1855C69.9479 31.2441 69.6257 31.2734 69.2676 31.2734C68.2975 31.2734 67.5228 31.0098 66.9434 30.4824C66.3704 29.9486 66.084 29.1087 66.084 27.9629ZM72.5293 31V20.8828H75.3809L75.4395 22.0254H75.4883C75.6966 21.6348 75.9863 21.3027 76.3574 21.0293C76.7285 20.7559 77.1452 20.6191 77.6074 20.6191C77.7507 20.6191 77.8939 20.6354 78.0371 20.668C78.1803 20.694 78.2813 20.7201 78.3398 20.7461V23.2461C78.2227 23.2135 78.0957 23.1908 77.959 23.1777C77.8288 23.1582 77.6823 23.1484 77.5195 23.1484C77.0768 23.1484 76.6732 23.2819 76.3086 23.5488C75.9505 23.8158 75.6868 24.1543 75.5176 24.5645V31H72.5293ZM78.9648 28.0312C78.9648 26.9115 79.3945 26.0684 80.2539 25.502C81.1198 24.9355 82.2168 24.6491 83.5449 24.6426H85.5762V24.0664C85.5762 23.6107 85.459 23.2461 85.2246 22.9727C84.9967 22.6927 84.5931 22.5527 84.0137 22.5527C83.4342 22.5527 83.0208 22.6699 82.7734 22.9043C82.526 23.1322 82.4023 23.4154 82.4023 23.7539V23.9199L79.5117 23.9102V23.7539C79.5117 22.8359 79.9382 22.0807 80.791 21.4883C81.6504 20.8958 82.7702 20.5996 84.1504 20.5996C85.5306 20.5996 86.6048 20.8828 87.373 21.4492C88.1478 22.0156 88.5352 22.8978 88.5352 24.0957V28.7246C88.5352 29.1348 88.571 29.5254 88.6426 29.8965C88.7207 30.2676 88.8249 30.5833 88.9551 30.8437V31H86.0449C85.9603 30.8503 85.8887 30.6549 85.8301 30.4141C85.7715 30.1732 85.7292 29.9355 85.7031 29.7012C85.5078 30.0853 85.127 30.4303 84.5605 30.7363C84.0007 31.0358 83.3008 31.1855 82.4609 31.1855C81.4583 31.1855 80.625 30.9219 79.9609 30.3945C79.2969 29.8672 78.9648 29.0794 78.9648 28.0312ZM81.9238 27.7773C81.9238 28.2201 82.0508 28.5749 82.3047 28.8418C82.5651 29.1022 82.9655 29.2324 83.5059 29.2324C84.0983 29.2324 84.5898 29.0436 84.9805 28.666C85.3776 28.2884 85.5762 27.8424 85.5762 27.3281V26.3809H84.0332C83.3171 26.3809 82.7865 26.5013 82.4414 26.7422C82.0964 26.9766 81.9238 27.3216 81.9238 27.7773ZM90.9863 31V20.8828H93.8184L93.877 22.0547H93.9258C94.1862 21.6445 94.5768 21.3125 95.0977 21.0586C95.6185 20.7982 96.2044 20.668 96.8555 20.668C97.8906 20.668 98.737 20.9642 99.3945 21.5566C100.052 22.1426 100.381 23.1647 100.381 24.623V31H97.4121V24.6328C97.4121 24.0078 97.2786 23.5684 97.0117 23.3145C96.7448 23.0605 96.3639 22.9336 95.8691 22.9336C95.4655 22.9336 95.0879 23.0508 94.7363 23.2852C94.3913 23.5195 94.1309 23.8451 93.9551 24.2617V31H90.9863ZM102.1 27.7969L104.961 27.8164V27.9727C104.961 28.4479 105.12 28.793 105.439 29.0078C105.758 29.2161 106.188 29.3203 106.729 29.3203C107.275 29.3203 107.689 29.2194 107.969 29.0176C108.249 28.8158 108.389 28.5456 108.389 28.207C108.389 27.862 108.239 27.6081 107.939 27.4453C107.64 27.276 106.947 27.0807 105.859 26.8594C104.655 26.612 103.776 26.2344 103.223 25.7266C102.669 25.2122 102.393 24.5449 102.393 23.7246C102.393 22.748 102.783 21.9831 103.564 21.4297C104.352 20.8698 105.417 20.5898 106.758 20.5898C108.092 20.5898 109.157 20.8796 109.951 21.459C110.745 22.0384 111.143 22.8327 111.143 23.8418V23.9687H108.291V23.8027C108.291 23.4121 108.161 23.1094 107.9 22.8945C107.646 22.6797 107.259 22.5723 106.738 22.5723C106.224 22.5723 105.85 22.6602 105.615 22.8359C105.387 23.0052 105.273 23.2363 105.273 23.5293C105.273 23.8223 105.423 24.0534 105.723 24.2227C106.029 24.3919 106.729 24.5905 107.822 24.8184C109.033 25.0527 109.919 25.4173 110.479 25.9121C111.045 26.4069 111.328 27.0905 111.328 27.9629C111.328 29.0111 110.938 29.8281 110.156 30.4141C109.382 30.9935 108.249 31.2832 106.758 31.2832C105.273 31.2832 104.128 30.9935 103.32 30.4141C102.513 29.8281 102.106 28.9948 102.1 27.9141V27.7969ZM112.715 28.0312C112.715 26.9115 113.145 26.0684 114.004 25.502C114.87 24.9355 115.967 24.6491 117.295 24.6426H119.326V24.0664C119.326 23.6107 119.209 23.2461 118.975 22.9727C118.747 22.6927 118.343 22.5527 117.764 22.5527C117.184 22.5527 116.771 22.6699 116.523 22.9043C116.276 23.1322 116.152 23.4154 116.152 23.7539V23.9199L113.262 23.9102V23.7539C113.262 22.8359 113.688 22.0807 114.541 21.4883C115.4 20.8958 116.52 20.5996 117.9 20.5996C119.281 20.5996 120.355 20.8828 121.123 21.4492C121.898 22.0156 122.285 22.8978 122.285 24.0957V28.7246C122.285 29.1348 122.321 29.5254 122.393 29.8965C122.471 30.2676 122.575 30.5833 122.705 30.8437V31H119.795C119.71 30.8503 119.639 30.6549 119.58 30.4141C119.521 30.1732 119.479 29.9355 119.453 29.7012C119.258 30.0853 118.877 30.4303 118.311 30.7363C117.751 31.0358 117.051 31.1855 116.211 31.1855C115.208 31.1855 114.375 30.9219 113.711 30.3945C113.047 29.8672 112.715 29.0794 112.715 28.0312ZM115.674 27.7773C115.674 28.2201 115.801 28.5749 116.055 28.8418C116.315 29.1022 116.715 29.2324 117.256 29.2324C117.848 29.2324 118.34 29.0436 118.73 28.666C119.128 28.2884 119.326 27.8424 119.326 27.3281V26.3809H117.783C117.067 26.3809 116.536 26.5013 116.191 26.7422C115.846 26.9766 115.674 27.3216 115.674 27.7773ZM124.199 26.0879V25.7754C124.199 24.1803 124.671 22.9173 125.615 21.9863C126.566 21.0553 127.826 20.5898 129.395 20.5898C130.892 20.5898 132.035 20.9544 132.822 21.6836C133.61 22.4128 134.03 23.3014 134.082 24.3496L134.102 24.5352H131.211V24.4082C131.211 23.9329 131.058 23.5423 130.752 23.2363C130.452 22.9238 129.997 22.7676 129.385 22.7676C128.675 22.7676 128.138 23.0247 127.773 23.5391C127.409 24.0469 127.227 24.7402 127.227 25.6191V26.2441C127.227 27.123 127.402 27.8229 127.754 28.3437C128.112 28.8581 128.656 29.1152 129.385 29.1152C130.049 29.1152 130.518 28.9525 130.791 28.627C131.071 28.2949 131.211 27.9076 131.211 27.4648V27.3477H134.092V27.4844C134.085 28.526 133.675 29.4212 132.861 30.1699C132.048 30.9121 130.892 31.2832 129.395 31.2832C127.832 31.2832 126.576 30.8177 125.625 29.8867C124.674 28.9492 124.199 27.6829 124.199 26.0879ZM134.57 23.0312V20.8828H140.947V23.0312H134.57ZM136.084 27.9629V21.8887L136.104 21.625V18.373H139.023V27.7969C139.023 28.2917 139.108 28.6302 139.277 28.8125C139.453 28.9883 139.701 29.0762 140.02 29.0762C140.176 29.0762 140.329 29.0599 140.479 29.0273C140.628 28.9883 140.771 28.9395 140.908 28.8809V30.9805C140.752 31.0586 140.527 31.127 140.234 31.1855C139.948 31.2441 139.626 31.2734 139.268 31.2734C138.298 31.2734 137.523 31.0098 136.943 30.4824C136.37 29.9486 136.084 29.1087 136.084 27.9629ZM142.568 31V20.8828H145.547V31H142.568ZM142.334 17.9824C142.334 17.5397 142.48 17.1686 142.773 16.8691C143.073 16.5631 143.503 16.4102 144.063 16.4102C144.616 16.4102 145.039 16.5631 145.332 16.8691C145.632 17.1686 145.781 17.5397 145.781 17.9824C145.781 18.4316 145.632 18.8092 145.332 19.1152C145.033 19.4212 144.606 19.5742 144.053 19.5742C143.499 19.5742 143.073 19.4212 142.773 19.1152C142.48 18.8092 142.334 18.4316 142.334 17.9824ZM147.441 26.0879V25.7754C147.441 24.1868 147.93 22.9271 148.906 21.9961C149.883 21.0586 151.156 20.5898 152.725 20.5898C154.294 20.5898 155.563 21.0586 156.533 21.9961C157.51 22.9271 157.998 24.1868 157.998 25.7754V26.0879C157.998 27.6764 157.51 28.9395 156.533 29.877C155.563 30.8145 154.294 31.2832 152.725 31.2832C151.156 31.2832 149.883 30.8145 148.906 29.877C147.93 28.9395 147.441 27.6764 147.441 26.0879ZM150.469 25.6191V26.2441C150.469 27.1556 150.664 27.8555 151.055 28.3437C151.445 28.8255 152.002 29.0664 152.725 29.0664C153.447 29.0664 154.001 28.8255 154.385 28.3437C154.775 27.8555 154.971 27.1556 154.971 26.2441V25.6191C154.971 24.7077 154.772 24.0111 154.375 23.5293C153.984 23.0475 153.434 22.8066 152.725 22.8066C152.015 22.8066 151.462 23.0475 151.064 23.5293C150.667 24.0111 150.469 24.7077 150.469 25.6191ZM159.873 31V20.8828H162.705L162.764 22.0547H162.813C163.073 21.6445 163.464 21.3125 163.984 21.0586C164.505 20.7982 165.091 20.668 165.742 20.668C166.777 20.668 167.624 20.9642 168.281 21.5566C168.939 22.1426 169.268 23.1647 169.268 24.623V31H166.299V24.6328C166.299 24.0078 166.165 23.5684 165.898 23.3145C165.632 23.0605 165.251 22.9336 164.756 22.9336C164.352 22.9336 163.975 23.0508 163.623 23.2852C163.278 23.5195 163.018 23.8451 162.842 24.2617V31H159.873ZM170.986 27.7969L173.848 27.8164V27.9727C173.848 28.4479 174.007 28.793 174.326 29.0078C174.645 29.2161 175.075 29.3203 175.615 29.3203C176.162 29.3203 176.576 29.2194 176.855 29.0176C177.135 28.8158 177.275 28.5456 177.275 28.207C177.275 27.862 177.126 27.6081 176.826 27.4453C176.527 27.276 175.833 27.0807 174.746 26.8594C173.542 26.612 172.663 26.2344 172.109 25.7266C171.556 25.2122 171.279 24.5449 171.279 23.7246C171.279 22.748 171.67 21.9831 172.451 21.4297C173.239 20.8698 174.303 20.5898 175.645 20.5898C176.979 20.5898 178.044 20.8796 178.838 21.459C179.632 22.0384 180.029 22.8327 180.029 23.8418V23.9687H177.178V23.8027C177.178 23.4121 177.048 23.1094 176.787 22.8945C176.533 22.6797 176.146 22.5723 175.625 22.5723C175.111 22.5723 174.736 22.6602 174.502 22.8359C174.274 23.0052 174.16 23.2363 174.16 23.5293C174.16 23.8223 174.31 24.0534 174.609 24.2227C174.915 24.3919 175.615 24.5905 176.709 24.8184C177.92 25.0527 178.805 25.4173 179.365 25.9121C179.932 26.4069 180.215 27.0905 180.215 27.9629C180.215 29.0111 179.824 29.8281 179.043 30.4141C178.268 30.9935 177.135 31.2832 175.645 31.2832C174.16 31.2832 173.014 30.9935 172.207 30.4141C171.4 29.8281 170.993 28.9948 170.986 27.9141V27.7969Z" fill="white"/>
</svg>
