<svg width="89" height="32" viewBox="0 0 89 32" fill="none" xmlns="http://www.w3.org/2000/svg">
<g clip-path="url(#clip0_1800_20154)">
<mask id="mask0_1800_20154" style="mask-type:luminance" maskUnits="userSpaceOnUse" x="19" y="7" width="10" height="16">
<path d="M19.7305 19.7084V22.9089C22.479 22.9229 25.2316 21.8816 27.3289 19.7844C27.5162 19.5971 27.6949 19.4051 27.8649 19.2077C28.1422 18.8871 28.3962 18.5544 28.6282 18.2111C28.7028 17.7804 28.7548 17.3445 28.7855 16.9038C28.8055 16.6092 28.8155 16.3118 28.8155 16.0132C28.8155 14.1072 28.4015 12.2653 27.6162 10.5893C27.0156 9.30539 26.1976 8.12009 25.1796 7.07812C26.1703 8.11143 26.8309 9.38138 27.1069 10.7587C27.2042 11.242 27.2536 11.7386 27.2536 12.2426C27.2536 14.2366 26.4769 16.1118 25.0663 17.5218C23.6563 18.9324 21.7811 19.7091 19.7871 19.7091C19.7685 19.7091 19.7491 19.7091 19.7305 19.7084Z" fill="white"/>
</mask>
<g mask="url(#mask0_1800_20154)">
<mask id="mask1_1800_20154" style="mask-type:luminance" maskUnits="userSpaceOnUse" x="19" y="6" width="11" height="18">
<path d="M29.1501 6.75H19.3984V23.2475H29.1501V6.75Z" fill="white"/>
</mask>
<g mask="url(#mask1_1800_20154)">
<rect x="19.3838" y="6.73438" width="9.79168" height="16.5435" fill="url(#paint0_linear_1800_20154)"/>
</g>
</g>
<mask id="mask2_1800_20154" style="mask-type:luminance" maskUnits="userSpaceOnUse" x="0" y="0" width="28" height="16">
<path d="M0.0449219 15.1791H3.24949C3.44548 12.0705 4.7501 9.17458 6.97203 6.95266C8.55332 5.37204 10.4746 4.25541 12.5719 3.67143C12.9832 3.55743 13.4012 3.46343 13.8251 3.39077C14.1991 3.13744 14.5851 2.91079 14.9811 2.71013C17.265 1.5555 19.8776 1.27484 22.3209 1.86882C24.1175 2.30414 25.8221 3.21278 27.238 4.5934C25.8221 3.20011 24.2101 2.12414 22.4929 1.36617C16.6251 -1.22641 9.51795 -0.118451 4.70944 4.69006C1.79487 7.60463 0.240249 11.3632 0.0449219 15.1791Z" fill="white"/>
</mask>
<g mask="url(#mask2_1800_20154)">
<mask id="mask3_1800_20154" style="mask-type:luminance" maskUnits="userSpaceOnUse" x="-1" y="-1" width="29" height="17">
<path d="M27.5712 -0.332031H-0.288574V15.5095H27.5712V-0.332031Z" fill="white"/>
</mask>
<g mask="url(#mask3_1800_20154)">
<rect x="-0.320312" y="-0.355469" width="27.9031" height="15.8715" fill="url(#paint1_linear_1800_20154)"/>
</g>
</g>
<path d="M0.288275 18.8938C0.85159 21.979 2.32688 24.9316 4.71213 27.3168C10.9606 33.5653 21.0909 33.5653 27.3387 27.3168C32.1473 22.5083 33.2552 15.4005 30.6626 9.53272C29.904 7.81544 28.828 6.20416 27.4354 4.78821C27.4034 4.75554 27.3714 4.72288 27.3387 4.69021C27.3061 4.65755 27.2734 4.62555 27.2407 4.59355C25.8248 3.21293 24.1202 2.30429 22.3236 1.86897C19.8803 1.27499 17.2677 1.55565 14.9838 2.71028C14.5878 2.91094 14.2018 3.13759 13.8278 3.39092C13.4839 3.62291 13.1505 3.87824 12.8299 4.1549C12.6332 4.32489 12.4412 4.50355 12.2546 4.69021C8.08936 8.85541 8.08936 15.6092 12.2546 19.7744C13.3612 20.881 14.6511 21.6937 16.0258 22.213C17.2204 22.6636 18.4804 22.8923 19.7403 22.899V19.6984C18.4137 19.6891 17.1411 19.3351 16.0258 18.6791C15.4818 18.3604 14.9751 17.9698 14.5172 17.5118C13.1072 16.1018 12.3306 14.2266 12.3306 12.2326C12.3306 10.2387 13.1072 8.36276 14.5172 6.95281C15.9278 5.54285 17.8024 4.76621 19.797 4.76621C20.3016 4.76621 20.7983 4.81621 21.2823 4.91354C22.6582 5.18886 23.9275 5.84951 24.9608 6.83948C24.9995 6.87681 25.0381 6.91481 25.0761 6.95281C25.1141 6.9908 25.1521 7.02947 25.1895 7.06813C26.2074 8.1101 27.0254 9.2954 27.6261 10.5794C28.4114 12.2553 28.8254 14.0972 28.8254 16.0032C28.8254 16.3018 28.8154 16.5992 28.7954 16.8938C28.7647 17.3345 28.7127 17.7705 28.638 18.2011C28.5654 18.6251 28.472 19.0431 28.3574 19.4544C27.7741 21.5517 26.6574 23.4729 25.0761 25.0542C22.6589 27.4715 19.4443 28.8028 16.0258 28.8028C12.6072 28.8028 9.39265 27.4715 6.97473 25.0542C5.25412 23.3336 4.08349 21.209 3.55217 18.8938C3.33684 17.9565 3.22618 16.9885 3.22618 16.0032C3.22618 15.7272 3.23485 15.4525 3.25218 15.1792H0.047616C-0.016382 16.4205 0.0642821 17.6678 0.288275 18.8938Z" fill="#13D659"/>
<path d="M42.743 19.8223L49.2002 26.668H45.2849L40.0987 20.7932V26.668H37.2002V8.66797H40.0987V18.9285L45.1832 12.5891H49.2002L42.743 19.8223Z" fill="white"/>
<path d="M52.6271 25.9007C51.5611 25.3019 50.7231 24.458 50.1139 23.3696C49.5048 22.2813 49.2002 21.0207 49.2002 19.586C49.2002 18.1512 49.5133 16.9123 50.1397 15.8154C50.7653 14.7191 51.6204 13.8752 52.7036 13.2844C53.7868 12.6942 54.9965 12.3984 56.3335 12.3984C57.6705 12.3984 58.8803 12.6935 59.9635 13.2844C61.0467 13.8752 61.9011 14.7185 62.5274 15.8154C63.153 16.9123 63.4669 18.169 63.4669 19.586C63.4669 21.0029 63.1451 22.2602 62.5023 23.3565C61.8589 24.4534 60.9834 25.3013 59.8751 25.9C58.7662 26.4987 57.544 26.7984 56.2069 26.7984C54.8699 26.7984 53.6938 26.4994 52.6278 25.9L52.6271 25.9007ZM58.3008 23.7627C58.9522 23.4084 59.4816 22.8767 59.8877 22.1682C60.2938 21.4597 60.4968 20.5994 60.4968 19.5866C60.4968 18.5738 60.3024 17.7181 59.9127 17.0181C59.5231 16.3182 59.0069 15.7904 58.3641 15.4362C57.7206 15.0819 57.0271 14.9045 56.2821 14.9045C55.5371 14.9045 54.8475 15.0813 54.2133 15.4362C53.5784 15.7904 53.0747 16.3182 52.7029 17.0181C52.3304 17.7187 52.1445 18.5745 52.1445 19.5866C52.1445 21.0884 52.5295 22.2484 53.2996 23.066C54.0696 23.8843 55.0387 24.2937 56.2063 24.2937C56.9506 24.2937 57.6488 24.1163 58.3008 23.762V23.7627Z" fill="white"/>
<path d="M74.5336 23.7549H72.1503C69.8494 23.7549 67.9837 21.8923 67.9837 19.5936V8.66797H65.0669V19.5983C65.0669 23.5027 68.2362 26.668 72.1456 26.668H74.5329V23.7549H74.5336Z" fill="white"/>
<path d="M77.9601 25.9007C76.8941 25.3019 76.0561 24.458 75.447 23.3696C74.8378 22.2813 74.5332 21.0207 74.5332 19.5859C74.5332 18.1512 74.8464 16.9123 75.4727 15.8154C76.0983 14.7191 76.9534 13.8752 78.0366 13.2844C79.1198 12.6942 80.3295 12.3984 81.6665 12.3984C83.0035 12.3984 84.2133 12.6935 85.2965 13.2844C86.3797 13.8752 87.2341 14.7185 87.8604 15.8154C88.4861 16.9123 88.7999 18.169 88.7999 19.5859C88.7999 21.0029 88.4781 22.2602 87.8354 23.3565C87.1919 24.4534 86.3164 25.3013 85.2082 25.9C84.0993 26.4987 82.877 26.7984 81.54 26.7984C80.203 26.7984 79.0268 26.4994 77.9608 25.9L77.9601 25.9007ZM83.6338 23.7627C84.2852 23.4084 84.8146 22.8767 85.2207 22.1682C85.6268 21.4597 85.8298 20.5994 85.8298 19.5866C85.8298 18.5738 85.6354 17.7181 85.2457 17.0181C84.8561 16.3182 84.3399 15.7904 83.6971 15.4362C83.0536 15.0819 82.3601 14.9045 81.6151 14.9045C80.8701 14.9045 80.1805 15.0813 79.5463 15.4362C78.9114 15.7904 78.4078 16.3182 78.0359 17.0181C77.6634 17.7187 77.4775 18.5745 77.4775 19.5866C77.4775 21.0884 77.8625 22.2484 78.6326 23.066C79.4026 23.8843 80.3717 24.2937 81.5393 24.2937C82.2836 24.2937 82.9818 24.1163 83.6338 23.762V23.7627Z" fill="white"/>
</g>
<defs>
<linearGradient id="paint0_linear_1800_20154" x1="29.0089" y1="8.13751" x2="20.3258" y2="21.5706" gradientUnits="userSpaceOnUse">
<stop stop-color="#13D659" stop-opacity="0"/>
<stop offset="1" stop-color="#13D659"/>
</linearGradient>
<linearGradient id="paint1_linear_1800_20154" x1="24.9357" y1="3.41501" x2="2.2595" y2="10.0892" gradientUnits="userSpaceOnUse">
<stop stop-color="#13D659" stop-opacity="0"/>
<stop offset="1" stop-color="#13D659"/>
</linearGradient>
<clipPath id="clip0_1800_20154">
<rect width="91.8" height="32" fill="white" transform="translate(-0.133301)"/>
</clipPath>
</defs>
</svg>
