<svg width="155" height="50" viewBox="0 0 155 50" fill="none" xmlns="http://www.w3.org/2000/svg">
<rect width="155" height="50" rx="25" fill="#4770FF"/>
<path d="M21.4258 31V16.7812H24.4824V28.6562H30.5762V31H21.4258ZM32.1777 31V20.8828H35.1563V31H32.1777ZM31.9434 17.9824C31.9434 17.5397 32.0898 17.1686 32.3828 16.8691C32.6823 16.5631 33.112 16.4102 33.6719 16.4102C34.2253 16.4102 34.6484 16.5631 34.9414 16.8691C35.2409 17.1686 35.3906 17.5397 35.3906 17.9824C35.3906 18.4316 35.2409 18.8092 34.9414 19.1152C34.6419 19.4212 34.2155 19.5742 33.6621 19.5742C33.1087 19.5742 32.6823 19.4212 32.3828 19.1152C32.0898 18.8092 31.9434 18.4316 31.9434 17.9824ZM36.25 20.8828H39.2383L41.2891 26.7617C41.3672 26.9961 41.429 27.2109 41.4746 27.4062C41.5202 27.6016 41.556 27.7871 41.582 27.9629H41.6406C41.6667 27.7871 41.7025 27.6016 41.748 27.4062C41.7936 27.2109 41.8522 26.9961 41.9238 26.7617L43.9844 20.8828H46.6504L42.8125 31H40.1074L36.25 20.8828ZM47.0313 26.0879V25.7754C47.0313 24.2129 47.5065 22.9596 48.457 22.0156C49.4141 21.0651 50.638 20.5898 52.1289 20.5898C53.6328 20.5898 54.8079 21.0358 55.6543 21.9277C56.5072 22.8197 56.9336 24.0469 56.9336 25.6094V26.6348H48.9844V24.8477H54.0137V24.6523C54.0137 24.1055 53.8509 23.6465 53.5254 23.2754C53.1999 22.8978 52.7311 22.709 52.1191 22.709C51.4225 22.709 50.8919 22.9694 50.5273 23.4902C50.1628 24.0111 49.9805 24.7109 49.9805 25.5898V26.2246C49.9805 27.1165 50.1758 27.8229 50.5664 28.3437C50.9635 28.8581 51.543 29.1152 52.3047 29.1152C52.8385 29.1152 53.2975 28.9883 53.6816 28.7344C54.0723 28.474 54.3848 28.1712 54.6191 27.8262L56.7676 29.0762C56.4421 29.7207 55.8952 30.2513 55.127 30.668C54.3587 31.0846 53.4342 31.293 52.3535 31.293C50.6934 31.293 49.3913 30.8177 48.4473 29.8672C47.5033 28.9167 47.0313 27.6569 47.0313 26.0879ZM62.959 27.7969L65.8203 27.8164V27.9727C65.8203 28.4479 65.9798 28.793 66.2988 29.0078C66.6178 29.2161 67.0475 29.3203 67.5879 29.3203C68.1348 29.3203 68.5482 29.2194 68.8281 29.0176C69.1081 28.8158 69.2481 28.5456 69.2481 28.207C69.2481 27.862 69.0983 27.6081 68.7988 27.4453C68.4994 27.276 67.806 27.0807 66.7188 26.8594C65.5143 26.612 64.6354 26.2344 64.082 25.7266C63.5286 25.2122 63.252 24.5449 63.252 23.7246C63.252 22.748 63.6426 21.9831 64.4238 21.4297C65.2116 20.8698 66.276 20.5898 67.6172 20.5898C68.9518 20.5898 70.0163 20.8796 70.8106 21.459C71.6048 22.0384 72.002 22.8327 72.002 23.8418V23.9687H69.1504V23.8027C69.1504 23.4121 69.0202 23.1094 68.7598 22.8945C68.5059 22.6797 68.1185 22.5723 67.5977 22.5723C67.0833 22.5723 66.709 22.6602 66.4746 22.8359C66.2467 23.0052 66.1328 23.2363 66.1328 23.5293C66.1328 23.8223 66.2826 24.0534 66.582 24.2227C66.888 24.3919 67.5879 24.5905 68.6816 24.8184C69.8926 25.0527 70.778 25.4173 71.3379 25.9121C71.9043 26.4069 72.1875 27.0905 72.1875 27.9629C72.1875 29.0111 71.7969 29.8281 71.0156 30.4141C70.2409 30.9935 69.1081 31.2832 67.6172 31.2832C66.1328 31.2832 64.987 30.9935 64.1797 30.4141C63.3724 29.8281 62.9655 28.9948 62.959 27.9141V27.7969ZM73.9844 27.123V20.8828H76.9531V27.1426C76.9531 27.8197 77.0898 28.2917 77.3633 28.5586C77.6432 28.819 78.0208 28.9492 78.4961 28.9492C78.9258 28.9492 79.3099 28.8255 79.6484 28.5781C79.987 28.3242 80.2409 28.0085 80.4102 27.6309V20.8828H83.3691V31H80.5469L80.4785 29.8281H80.4395C80.1465 30.2513 79.7363 30.5866 79.209 30.834C78.6882 31.0814 78.099 31.2051 77.4414 31.2051C76.4323 31.2051 75.6022 30.8926 74.9512 30.2676C74.3066 29.6361 73.9844 28.5879 73.9844 27.123ZM85.7715 35.082V20.8828H88.5645L88.6231 22.0352H88.6719C88.8867 21.6445 89.2546 21.319 89.7754 21.0586C90.3027 20.7982 90.8887 20.668 91.5332 20.668C92.8353 20.668 93.8835 21.1302 94.6777 22.0547C95.4785 22.9727 95.8789 24.2129 95.8789 25.7754V26.0879C95.8789 27.6374 95.485 28.8776 94.6973 29.8086C93.9095 30.7331 92.8809 31.1953 91.6113 31.1953C90.9668 31.1953 90.3906 31.0879 89.8828 30.873C89.375 30.6582 88.9941 30.362 88.7402 29.9844V35.082H85.7715ZM88.7402 27.6113C88.8835 27.9824 89.1374 28.3079 89.502 28.5879C89.8665 28.8613 90.293 28.998 90.7813 28.998C91.4844 28.998 92.0052 28.7572 92.3438 28.2754C92.6823 27.7871 92.8516 27.11 92.8516 26.2441V25.6289C92.8516 24.7565 92.6823 24.0827 92.3438 23.6074C92.0052 23.1257 91.4811 22.8848 90.7715 22.8848C90.2572 22.8848 89.8275 23.0215 89.4824 23.2949C89.1439 23.5618 88.8965 23.8743 88.7402 24.2324V27.6113ZM97.7441 35.082V20.8828H100.537L100.596 22.0352H100.645C100.859 21.6445 101.227 21.319 101.748 21.0586C102.275 20.7982 102.861 20.668 103.506 20.668C104.808 20.668 105.856 21.1302 106.65 22.0547C107.451 22.9727 107.852 24.2129 107.852 25.7754V26.0879C107.852 27.6374 107.458 28.8776 106.67 29.8086C105.882 30.7331 104.854 31.1953 103.584 31.1953C102.939 31.1953 102.363 31.0879 101.855 30.873C101.348 30.6582 100.967 30.362 100.713 29.9844V35.082H97.7441ZM100.713 27.6113C100.856 27.9824 101.11 28.3079 101.475 28.5879C101.839 28.8613 102.266 28.998 102.754 28.998C103.457 28.998 103.978 28.7572 104.316 28.2754C104.655 27.7871 104.824 27.11 104.824 26.2441V25.6289C104.824 24.7565 104.655 24.0827 104.316 23.6074C103.978 23.1257 103.454 22.8848 102.744 22.8848C102.23 22.8848 101.8 23.0215 101.455 23.2949C101.117 23.5618 100.869 23.8743 100.713 24.2324V27.6113ZM109.18 26.0879V25.7754C109.18 24.1868 109.668 22.9271 110.645 21.9961C111.621 21.0586 112.894 20.5898 114.463 20.5898C116.032 20.5898 117.301 21.0586 118.271 21.9961C119.248 22.9271 119.736 24.1868 119.736 25.7754V26.0879C119.736 27.6764 119.248 28.9395 118.271 29.877C117.301 30.8145 116.032 31.2832 114.463 31.2832C112.894 31.2832 111.621 30.8145 110.645 29.877C109.668 28.9395 109.18 27.6764 109.18 26.0879ZM112.207 25.6191V26.2441C112.207 27.1556 112.402 27.8555 112.793 28.3437C113.184 28.8255 113.74 29.0664 114.463 29.0664C115.186 29.0664 115.739 28.8255 116.123 28.3437C116.514 27.8555 116.709 27.1556 116.709 26.2441V25.6191C116.709 24.7077 116.51 24.0111 116.113 23.5293C115.723 23.0475 115.173 22.8066 114.463 22.8066C113.753 22.8066 113.2 23.0475 112.803 23.5293C112.406 24.0111 112.207 24.7077 112.207 25.6191ZM121.611 31V20.8828H124.463L124.521 22.0254H124.57C124.779 21.6348 125.068 21.3027 125.439 21.0293C125.811 20.7559 126.227 20.6191 126.689 20.6191C126.833 20.6191 126.976 20.6354 127.119 20.668C127.262 20.694 127.363 20.7201 127.422 20.7461V23.2461C127.305 23.2135 127.178 23.1908 127.041 23.1777C126.911 23.1582 126.764 23.1484 126.602 23.1484C126.159 23.1484 125.755 23.2819 125.391 23.5488C125.033 23.8158 124.769 24.1543 124.6 24.5645V31H121.611ZM128.184 23.0312V20.8828H134.561V23.0312H128.184ZM129.697 27.9629V21.8887L129.717 21.625V18.373H132.637V27.7969C132.637 28.2917 132.721 28.6302 132.891 28.8125C133.066 28.9883 133.314 29.0762 133.633 29.0762C133.789 29.0762 133.942 29.0599 134.092 29.0273C134.242 28.9883 134.385 28.9395 134.521 28.8809V30.9805C134.365 31.0586 134.141 31.127 133.848 31.1855C133.561 31.2441 133.239 31.2734 132.881 31.2734C131.911 31.2734 131.136 31.0098 130.557 30.4824C129.984 29.9486 129.697 29.1087 129.697 27.9629Z" fill="white"/>
</svg>
