<svg width="199" height="50" viewBox="0 0 199 50" fill="none" xmlns="http://www.w3.org/2000/svg">
<rect width="199" height="50" rx="25" fill="#13D659"/>
<path d="M20.918 24.3301V23.4512C20.918 21.179 21.4974 19.4538 22.6563 18.2754C23.8151 17.097 25.3516 16.5078 27.2656 16.5078C29.0039 16.5078 30.3711 16.9342 31.3672 17.7871C32.3633 18.64 32.8646 19.7142 32.8711 21.0098V21.1953H29.834V21.0684C29.834 20.4434 29.6094 19.916 29.1602 19.4863C28.7109 19.0501 28.0404 18.832 27.1484 18.832C26.2109 18.832 25.459 19.1836 24.8926 19.8867C24.3327 20.5833 24.0527 21.6413 24.0527 23.0605V24.7207C24.0527 26.166 24.3555 27.237 24.9609 27.9336C25.5664 28.6302 26.3965 28.9785 27.4512 28.9785C27.9785 28.9785 28.431 28.9232 28.8086 28.8125C29.1862 28.6953 29.5508 28.5065 29.9023 28.2461V25.7363H27.2559V23.5H32.8809V29.2715C32.4121 29.7598 31.722 30.2155 30.8105 30.6387C29.9056 31.0618 28.7826 31.2734 27.4414 31.2734C25.4167 31.2734 23.8216 30.6842 22.6563 29.5059C21.4974 28.3275 20.918 26.6022 20.918 24.3301ZM34.8828 27.123V20.8828H37.8516V27.1426C37.8516 27.8197 37.9883 28.2917 38.2617 28.5586C38.5417 28.819 38.9193 28.9492 39.3945 28.9492C39.8242 28.9492 40.2083 28.8255 40.5469 28.5781C40.8854 28.3242 41.1393 28.0085 41.3086 27.6309V20.8828H44.2676V31H41.4453L41.377 29.8281H41.3379C41.0449 30.2513 40.6348 30.5866 40.1074 30.834C39.5866 31.0814 38.9974 31.2051 38.3398 31.2051C37.3307 31.2051 36.5007 30.8926 35.8496 30.2676C35.2051 29.6361 34.8828 28.5879 34.8828 27.123ZM46.1719 28.0312C46.1719 26.9115 46.6016 26.0684 47.4609 25.502C48.3268 24.9355 49.4238 24.6491 50.752 24.6426H52.7832V24.0664C52.7832 23.6107 52.666 23.2461 52.4316 22.9727C52.2038 22.6927 51.8001 22.5527 51.2207 22.5527C50.6413 22.5527 50.2279 22.6699 49.9805 22.9043C49.7331 23.1322 49.6094 23.4154 49.6094 23.7539V23.9199L46.7188 23.9102V23.7539C46.7188 22.8359 47.1452 22.0807 47.998 21.4883C48.8574 20.8958 49.9772 20.5996 51.3574 20.5996C52.7376 20.5996 53.8119 20.8828 54.5801 21.4492C55.3548 22.0156 55.7422 22.8978 55.7422 24.0957V28.7246C55.7422 29.1348 55.778 29.5254 55.8496 29.8965C55.9277 30.2676 56.0319 30.5833 56.1621 30.8437V31H53.252C53.1673 30.8503 53.0957 30.6549 53.0371 30.4141C52.9785 30.1732 52.9362 29.9355 52.9102 29.7012C52.7148 30.0853 52.334 30.4303 51.7676 30.7363C51.2077 31.0358 50.5078 31.1855 49.668 31.1855C48.6654 31.1855 47.832 30.9219 47.168 30.3945C46.5039 29.8672 46.1719 29.0794 46.1719 28.0312ZM49.1309 27.7773C49.1309 28.2201 49.2578 28.5749 49.5117 28.8418C49.7721 29.1022 50.1725 29.2324 50.7129 29.2324C51.3053 29.2324 51.7969 29.0436 52.1875 28.666C52.5846 28.2884 52.7832 27.8424 52.7832 27.3281V26.3809H51.2402C50.5241 26.3809 49.9935 26.5013 49.6484 26.7422C49.3034 26.9766 49.1309 27.3216 49.1309 27.7773ZM58.1934 31V20.8828H61.0449L61.1035 22.0254H61.1523C61.3607 21.6348 61.6504 21.3027 62.0215 21.0293C62.3926 20.7559 62.8092 20.6191 63.2715 20.6191C63.4147 20.6191 63.5579 20.6354 63.7012 20.668C63.8444 20.694 63.9453 20.7201 64.0039 20.7461V23.2461C63.8867 23.2135 63.7598 23.1908 63.6231 23.1777C63.4928 23.1582 63.3464 23.1484 63.1836 23.1484C62.7409 23.1484 62.3372 23.2819 61.9727 23.5488C61.6146 23.8158 61.3509 24.1543 61.1816 24.5645V31H58.1934ZM64.6289 28.0312C64.6289 26.9115 65.0586 26.0684 65.918 25.502C66.7839 24.9355 67.8809 24.6491 69.209 24.6426H71.2402V24.0664C71.2402 23.6107 71.1231 23.2461 70.8887 22.9727C70.6608 22.6927 70.2572 22.5527 69.6777 22.5527C69.0983 22.5527 68.6849 22.6699 68.4375 22.9043C68.1901 23.1322 68.0664 23.4154 68.0664 23.7539V23.9199L65.1758 23.9102V23.7539C65.1758 22.8359 65.6022 22.0807 66.4551 21.4883C67.3145 20.8958 68.4342 20.5996 69.8145 20.5996C71.1947 20.5996 72.2689 20.8828 73.0371 21.4492C73.8119 22.0156 74.1992 22.8978 74.1992 24.0957V28.7246C74.1992 29.1348 74.235 29.5254 74.3066 29.8965C74.3848 30.2676 74.4889 30.5833 74.6191 30.8437V31H71.709C71.6244 30.8503 71.5527 30.6549 71.4941 30.4141C71.4356 30.1732 71.3932 29.9355 71.3672 29.7012C71.1719 30.0853 70.791 30.4303 70.2246 30.7363C69.6647 31.0358 68.9648 31.1855 68.125 31.1855C67.1224 31.1855 66.2891 30.9219 65.625 30.3945C64.9609 29.8672 64.6289 29.0794 64.6289 28.0312ZM67.5879 27.7773C67.5879 28.2201 67.7148 28.5749 67.9688 28.8418C68.2292 29.1022 68.6296 29.2324 69.1699 29.2324C69.7624 29.2324 70.2539 29.0436 70.6445 28.666C71.0417 28.2884 71.2402 27.8424 71.2402 27.3281V26.3809H69.6973C68.9811 26.3809 68.4505 26.5013 68.1055 26.7422C67.7604 26.9766 67.5879 27.3216 67.5879 27.7773ZM76.6504 31V20.8828H79.4824L79.541 22.0547H79.5898C79.8503 21.6445 80.2409 21.3125 80.7617 21.0586C81.2826 20.7982 81.8685 20.668 82.5195 20.668C83.5547 20.668 84.401 20.9642 85.0586 21.5566C85.7162 22.1426 86.0449 23.1647 86.0449 24.623V31L83.0762 31V24.6328C83.0762 24.0078 82.9427 23.5684 82.6758 23.3145C82.4089 23.0605 82.028 22.9336 81.5332 22.9336C81.1296 22.9336 80.752 23.0508 80.4004 23.2852C80.0553 23.5195 79.7949 23.8451 79.6191 24.2617V31H76.6504ZM87.168 23.0312V20.8828H93.5449V23.0312H87.168ZM88.6816 27.9629V21.8887L88.7012 21.625V18.373H91.6211V27.7969C91.6211 28.2917 91.7057 28.6302 91.875 28.8125C92.0508 28.9883 92.2982 29.0762 92.6172 29.0762C92.7734 29.0762 92.9264 29.0599 93.0762 29.0273C93.2259 28.9883 93.3691 28.9395 93.5059 28.8809V30.9805C93.3496 31.0586 93.125 31.127 92.832 31.1855C92.5456 31.2441 92.2233 31.2734 91.8652 31.2734C90.8952 31.2734 90.1205 31.0098 89.541 30.4824C88.9681 29.9486 88.6816 29.1087 88.6816 27.9629ZM94.5899 26.0879V25.7754C94.5899 24.2129 95.0651 22.9596 96.0156 22.0156C96.9727 21.0651 98.1966 20.5898 99.6875 20.5898C101.191 20.5898 102.367 21.0358 103.213 21.9277C104.066 22.8197 104.492 24.0469 104.492 25.6094V26.6348H96.543V24.8477H101.572V24.6523C101.572 24.1055 101.41 23.6465 101.084 23.2754C100.758 22.8978 100.29 22.709 99.6777 22.709C98.9811 22.709 98.4505 22.9694 98.0859 23.4902C97.7214 24.0111 97.5391 24.7109 97.5391 25.5898V26.2246C97.5391 27.1165 97.7344 27.8229 98.125 28.3437C98.5221 28.8581 99.1016 29.1152 99.8633 29.1152C100.397 29.1152 100.856 28.9883 101.24 28.7344C101.631 28.474 101.943 28.1712 102.178 27.8262L104.326 29.0762C104.001 29.7207 103.454 30.2513 102.686 30.668C101.917 31.0846 100.993 31.293 99.9121 31.293C98.252 31.293 96.9499 30.8177 96.0059 29.8672C95.0619 28.9167 94.5899 27.6569 94.5899 26.0879ZM105.703 26.0977V25.7852C105.703 24.2812 106.107 23.0573 106.914 22.1133C107.728 21.1628 108.786 20.6875 110.088 20.6875C110.739 20.6875 111.299 20.8014 111.768 21.0293C112.243 21.2572 112.611 21.5566 112.871 21.9277V16.1465H115.811V31H112.998L112.939 29.7988H112.9C112.679 30.196 112.318 30.528 111.816 30.7949C111.322 31.0618 110.749 31.1953 110.098 31.1953C108.73 31.1953 107.656 30.7233 106.875 29.7793C106.094 28.8288 105.703 27.6016 105.703 26.0977ZM108.73 26.2148C108.73 27.0417 108.906 27.7122 109.258 28.2266C109.616 28.7409 110.15 28.998 110.859 28.998C111.348 28.998 111.761 28.8646 112.1 28.5977C112.438 28.3307 112.689 28.0117 112.852 27.6406V24.2227C112.695 23.8516 112.451 23.5358 112.119 23.2754C111.794 23.015 111.377 22.8848 110.869 22.8848C110.166 22.8848 109.632 23.1419 109.268 23.6562C108.91 24.1706 108.73 24.8411 108.73 25.668V26.2148ZM122.49 27.7969L125.352 27.8164V27.9727C125.352 28.4479 125.511 28.793 125.83 29.0078C126.149 29.2161 126.579 29.3203 127.119 29.3203C127.666 29.3203 128.079 29.2194 128.359 29.0176C128.639 28.8158 128.779 28.5456 128.779 28.207C128.779 27.862 128.63 27.6081 128.33 27.4453C128.031 27.276 127.337 27.0807 126.25 26.8594C125.046 26.612 124.167 26.2344 123.613 25.7266C123.06 25.2122 122.783 24.5449 122.783 23.7246C122.783 22.748 123.174 21.9831 123.955 21.4297C124.743 20.8698 125.807 20.5898 127.148 20.5898C128.483 20.5898 129.548 20.8796 130.342 21.459C131.136 22.0384 131.533 22.8327 131.533 23.8418V23.9687H128.682V23.8027C128.682 23.4121 128.551 23.1094 128.291 22.8945C128.037 22.6797 127.65 22.5723 127.129 22.5723C126.615 22.5723 126.24 22.6602 126.006 22.8359C125.778 23.0052 125.664 23.2363 125.664 23.5293C125.664 23.8223 125.814 24.0534 126.113 24.2227C126.419 24.3919 127.119 24.5905 128.213 24.8184C129.424 25.0527 130.309 25.4173 130.869 25.9121C131.436 26.4069 131.719 27.0905 131.719 27.9629C131.719 29.0111 131.328 29.8281 130.547 30.4141C129.772 30.9935 128.639 31.2832 127.148 31.2832C125.664 31.2832 124.518 30.9935 123.711 30.4141C122.904 29.8281 122.497 28.9948 122.49 27.9141V27.7969ZM133.105 28.0312C133.105 26.9115 133.535 26.0684 134.395 25.502C135.26 24.9355 136.357 24.6491 137.686 24.6426H139.717V24.0664C139.717 23.6107 139.6 23.2461 139.365 22.9727C139.137 22.6927 138.734 22.5527 138.154 22.5527C137.575 22.5527 137.161 22.6699 136.914 22.9043C136.667 23.1322 136.543 23.4154 136.543 23.7539V23.9199L133.652 23.9102V23.7539C133.652 22.8359 134.079 22.0807 134.932 21.4883C135.791 20.8958 136.911 20.5996 138.291 20.5996C139.671 20.5996 140.745 20.8828 141.514 21.4492C142.288 22.0156 142.676 22.8978 142.676 24.0957V28.7246C142.676 29.1348 142.712 29.5254 142.783 29.8965C142.861 30.2676 142.966 30.5833 143.096 30.8437V31H140.186C140.101 30.8503 140.029 30.6549 139.971 30.4141C139.912 30.1732 139.87 29.9355 139.844 29.7012C139.648 30.0853 139.268 30.4303 138.701 30.7363C138.141 31.0358 137.441 31.1855 136.602 31.1855C135.599 31.1855 134.766 30.9219 134.102 30.3945C133.438 29.8672 133.105 29.0794 133.105 28.0312ZM136.064 27.7773C136.064 28.2201 136.191 28.5749 136.445 28.8418C136.706 29.1022 137.106 29.2324 137.646 29.2324C138.239 29.2324 138.73 29.0436 139.121 28.666C139.518 28.2884 139.717 27.8424 139.717 27.3281V26.3809H138.174C137.458 26.3809 136.927 26.5013 136.582 26.7422C136.237 26.9766 136.064 27.3216 136.064 27.7773ZM145.498 31V19.9453C145.498 18.6172 145.872 17.6211 146.621 16.957C147.376 16.2865 148.34 15.9512 149.512 15.9512C149.766 15.9512 150.007 15.9642 150.234 15.9902C150.469 16.0163 150.68 16.0553 150.869 16.1074L150.781 18.2754C150.658 18.2493 150.524 18.2266 150.381 18.207C150.238 18.1875 150.088 18.1777 149.932 18.1777C149.463 18.1777 149.095 18.334 148.828 18.6465C148.568 18.959 148.438 19.4342 148.438 20.0723V21.7129L148.447 21.9082V31H145.498ZM144.121 23.0312V20.8828H146.543H146.885H150.283V23.0312H144.121ZM150.664 26.0879V25.7754C150.664 24.2129 151.139 22.9596 152.09 22.0156C153.047 21.0651 154.271 20.5898 155.762 20.5898C157.266 20.5898 158.441 21.0358 159.287 21.9277C160.14 22.8197 160.566 24.0469 160.566 25.6094V26.6348H152.617V24.8477H157.647V24.6523C157.647 24.1055 157.484 23.6465 157.158 23.2754C156.833 22.8978 156.364 22.709 155.752 22.709C155.055 22.709 154.525 22.9694 154.16 23.4902C153.796 24.0111 153.613 24.7109 153.613 25.5898V26.2246C153.613 27.1165 153.809 27.8229 154.199 28.3437C154.596 28.8581 155.176 29.1152 155.938 29.1152C156.471 29.1152 156.93 28.9883 157.314 28.7344C157.705 28.474 158.018 28.1712 158.252 27.8262L160.4 29.0762C160.075 29.7207 159.528 30.2513 158.76 30.668C157.992 31.0846 157.067 31.293 155.986 31.293C154.326 31.293 153.024 30.8177 152.08 29.8672C151.136 28.9167 150.664 27.6569 150.664 26.0879ZM161.133 23.0312V20.8828H167.51V23.0312H161.133ZM162.646 27.9629V21.8887L162.666 21.625V18.373H165.586V27.7969C165.586 28.2917 165.671 28.6302 165.84 28.8125C166.016 28.9883 166.263 29.0762 166.582 29.0762C166.738 29.0762 166.891 29.0599 167.041 29.0273C167.191 28.9883 167.334 28.9395 167.471 28.8809V30.9805C167.314 31.0586 167.09 31.127 166.797 31.1855C166.51 31.2441 166.188 31.2734 165.83 31.2734C164.86 31.2734 164.085 31.0098 163.506 30.4824C162.933 29.9486 162.646 29.1087 162.646 27.9629ZM168.74 35.0527L168.77 32.9141C168.939 32.9596 169.124 32.9987 169.326 33.0313C169.528 33.0638 169.72 33.0801 169.902 33.0801C170.352 33.0801 170.739 32.9368 171.064 32.6504C171.39 32.3704 171.673 31.8105 171.914 30.9707L171.826 30.9609L167.881 20.8828H170.869L172.9 26.7129C172.979 26.9473 173.04 27.1621 173.086 27.3574C173.132 27.5527 173.174 27.7546 173.213 27.9629H173.281C173.32 27.7546 173.363 27.5527 173.408 27.3574C173.46 27.1621 173.525 26.944 173.604 26.7031L175.586 20.8828H178.242L174.102 32.0938C173.704 33.1615 173.187 33.9557 172.549 34.4766C171.911 34.9974 171.123 35.2578 170.186 35.2578C169.867 35.2578 169.593 35.2415 169.365 35.209C169.137 35.1764 168.929 35.1243 168.74 35.0527Z" fill="white"/>
</svg>
