<svg width="50" height="50" viewBox="0 0 50 50" fill="none" xmlns="http://www.w3.org/2000/svg">
<rect width="50" height="50" rx="25" fill="#3E5C98"/>
<path d="M23.8216 26.4248L21.7826 33.3003H32.6886C32.7609 33.2978 32.8329 33.3095 32.9006 33.3348C32.9683 33.3601 33.0304 33.3986 33.0832 33.4479C33.1361 33.4972 33.1787 33.5565 33.2086 33.6223C33.2385 33.6881 33.2552 33.7591 33.2576 33.8314V34.0116L32.3093 37.2834C32.2675 37.4381 32.1743 37.574 32.0451 37.6688C31.9158 37.7636 31.7582 37.8116 31.598 37.8049H14.9071L17.7047 28.2741L14.5752 29.2224L15.2865 27.0412L18.416 26.0929L22.3516 12.7212C22.395 12.5673 22.4885 12.4324 22.6174 12.3378C22.7463 12.2433 22.9031 12.1946 23.0629 12.1996H27.2831C27.3553 12.197 27.4273 12.2088 27.495 12.2341C27.5627 12.2594 27.6248 12.2978 27.6776 12.3472C27.7305 12.3965 27.7731 12.4557 27.803 12.5215C27.8329 12.5873 27.8496 12.6584 27.8521 12.7306V12.9108L24.5328 24.1962L27.6624 23.2478L26.9985 25.5238L23.8216 26.4248Z" fill="white"/>
</svg>
