<svg width="50" height="50" viewBox="0 0 50 50" fill="none" xmlns="http://www.w3.org/2000/svg">
<rect width="50" height="50" rx="25" fill="#E8BB41"/>
<path fill-rule="evenodd" clip-rule="evenodd" d="M33.1148 23.6201L33.0984 20.0907H33.1112L30.1144 18.326L24.9792 21.3549L19.875 18.326L16.88 20.0907V23.6201L22.0153 26.6344V32.6774L24.9974 34.4257L27.9796 32.6774V26.6344L33.1148 23.6201ZM24.981 9.28516L16.8782 14.0641L19.8604 15.8288L24.981 12.7999L30.1162 15.8288L33.0984 14.0641L24.981 9.28516ZM14.6441 31.0692L14.6276 25.0767L11.6473 23.3243V32.8397L19.7647 37.5738V34.0655L14.6441 31.0692ZM14.6276 22.5762V19.0842L17.6244 17.33L14.6276 15.5758L11.6455 17.33V20.822L14.6276 22.5762ZM24.8853 15.5758L21.9031 17.33L24.8853 19.0842L27.8821 17.33L24.8853 15.5758ZM19.8767 28.147L16.8782 26.3825V29.9116L19.8767 31.6597V28.147ZM25.0254 37.2037L22.0269 35.4391V38.9518L25.0254 40.7164L28.0386 38.9518V35.4391L25.0254 37.2037ZM35.3374 15.5758L32.3389 17.3404L35.3374 19.105V22.6177L38.3506 20.8531V17.3404L35.3374 15.5758ZM38.3524 23.3684L35.3539 25.133L35.3374 31.161L30.1906 34.1732V37.7024L38.3524 32.9402V23.3684ZM33.123 29.548L29.9804 31.283V27.7967L33.123 26.0454V29.548Z" fill="white"/>
</svg>
