<svg width="50" height="50" viewBox="0 0 50 50" fill="none" xmlns="http://www.w3.org/2000/svg">
<rect width="50" height="50" rx="10" fill="#0088CC"/>
<path fill-rule="evenodd" clip-rule="evenodd" d="M16.5559 14.336L33.5763 14.3359C34.1785 14.3359 34.7802 14.4244 35.409 14.7175C36.1628 15.0689 36.5625 15.6227 36.8426 16.0323C36.8643 16.0642 36.8847 16.097 36.9036 16.1306C37.2328 16.7167 37.4026 17.3496 37.4026 18.0303C37.4026 18.6771 37.2487 19.3818 36.9036 19.996C36.9003 20.0019 36.897 20.0077 36.8936 20.0135L26.1404 38.4853C25.9032 38.8927 25.4668 39.1425 24.9954 39.1409C24.5241 39.1392 24.0894 38.8862 23.8552 38.4772L13.2994 20.0449C13.2964 20.0399 13.2933 20.0349 13.2903 20.0298C13.0487 19.6317 12.6751 19.0161 12.6098 18.2217C12.5497 17.4911 12.7139 16.7591 13.081 16.1244C13.4481 15.4896 14.0007 14.9822 14.6654 14.6716C15.3781 14.3385 16.1004 14.336 16.5559 14.336ZM23.6807 16.9748H16.5559C16.0878 16.9748 15.9081 17.0036 15.7825 17.0623C15.6087 17.1434 15.4629 17.2768 15.3653 17.4455C15.2678 17.6142 15.2237 17.8097 15.2397 18.0055C15.2489 18.1176 15.2947 18.246 15.5644 18.6909C15.5701 18.7002 15.5756 18.7096 15.581 18.719L23.6807 32.8625V16.9748ZM26.3195 16.9748V32.9324L34.6068 18.6966C34.7003 18.5267 34.7637 18.2811 34.7637 18.0303C34.7637 17.8269 34.7216 17.6502 34.6273 17.4681C34.5283 17.3258 34.4681 17.2505 34.4177 17.1989C34.3744 17.1548 34.3412 17.1312 34.2941 17.1093C34.0982 17.0179 33.8977 16.9748 33.5763 16.9748H26.3195Z" fill="white"/>
</svg>
