<svg width="179" height="50" viewBox="0 0 179 50" fill="none" xmlns="http://www.w3.org/2000/svg">
<rect width="179" height="50" rx="25" fill="#13D659"/>
<path d="M21.4258 31V16.7812H24.6484L29.5508 25.4629C29.6549 25.6582 29.7493 25.847 29.834 26.0293C29.9186 26.2116 29.9935 26.4036 30.0586 26.6055H30.1367C30.1302 26.3906 30.1237 26.1823 30.1172 25.9805C30.1172 25.7786 30.1172 25.5671 30.1172 25.3457V16.7812H32.7539V31H29.4824L24.6094 22.377C24.4987 22.1816 24.4043 21.9896 24.3262 21.8008C24.248 21.6055 24.1732 21.4069 24.1016 21.2051H24.0332C24.0462 21.4264 24.0527 21.6478 24.0527 21.8691C24.0592 22.0905 24.0625 22.3086 24.0625 22.5234V31H21.4258ZM34.8438 26.0879V25.7754C34.8438 24.1868 35.332 22.9271 36.3086 21.9961C37.2852 21.0586 38.5579 20.5898 40.127 20.5898C41.696 20.5898 42.9655 21.0586 43.9355 21.9961C44.9121 22.9271 45.4004 24.1868 45.4004 25.7754V26.0879C45.4004 27.6764 44.9121 28.9395 43.9355 29.877C42.9655 30.8145 41.696 31.2832 40.127 31.2832C38.5579 31.2832 37.2852 30.8145 36.3086 29.877C35.332 28.9395 34.8438 27.6764 34.8438 26.0879ZM37.8711 25.6191V26.2441C37.8711 27.1556 38.0664 27.8555 38.457 28.3437C38.8477 28.8255 39.4043 29.0664 40.127 29.0664C40.8496 29.0664 41.403 28.8255 41.7871 28.3437C42.1777 27.8555 42.373 27.1556 42.373 26.2441V25.6191C42.373 24.7077 42.1745 24.0111 41.7773 23.5293C41.3867 23.0475 40.8366 22.8066 40.127 22.8066C39.4173 22.8066 38.8639 23.0475 38.4668 23.5293C38.0697 24.0111 37.8711 24.7077 37.8711 25.6191ZM52.1387 31V16.1465H55.0977V22.2207C55.3906 21.765 55.791 21.3939 56.2988 21.1074C56.8132 20.8145 57.4447 20.668 58.1934 20.668C59.1504 20.668 59.9382 20.9707 60.5566 21.5762C61.1751 22.1751 61.4844 23.1517 61.4844 24.5059V31H58.5254V24.7305C58.5254 24.0794 58.3822 23.6172 58.0957 23.3437C57.8092 23.0703 57.4219 22.9336 56.9336 22.9336C56.4974 22.9336 56.123 23.0573 55.8105 23.3047C55.5046 23.5456 55.2702 23.8906 55.1074 24.3398V31H52.1387ZM63.877 31V20.8828H66.8555V31H63.877ZM63.6426 17.9824C63.6426 17.5397 63.7891 17.1686 64.082 16.8691C64.3815 16.5631 64.8112 16.4102 65.3711 16.4102C65.9245 16.4102 66.3477 16.5631 66.6406 16.8691C66.9401 17.1686 67.0898 17.5397 67.0898 17.9824C67.0898 18.4316 66.9401 18.8092 66.6406 19.1152C66.3411 19.4212 65.9147 19.5742 65.3613 19.5742C64.8079 19.5742 64.3815 19.4212 64.082 19.1152C63.7891 18.8092 63.6426 18.4316 63.6426 17.9824ZM68.75 26.0977V25.7852C68.75 24.2812 69.1536 23.0573 69.9609 22.1133C70.7747 21.1628 71.8327 20.6875 73.1348 20.6875C73.7858 20.6875 74.3457 20.8014 74.8145 21.0293C75.2897 21.2572 75.6576 21.5566 75.918 21.9277V16.1465H78.8574V31H76.0449L75.9863 29.7988H75.9473C75.7259 30.196 75.3646 30.528 74.8633 30.7949C74.3685 31.0618 73.7956 31.1953 73.1445 31.1953C71.7773 31.1953 70.7031 30.7233 69.9219 29.7793C69.1406 28.8288 68.75 27.6016 68.75 26.0977ZM71.7773 26.2148C71.7773 27.0417 71.9531 27.7122 72.3047 28.2266C72.6628 28.7409 73.1966 28.998 73.9063 28.998C74.3945 28.998 74.8079 28.8646 75.1465 28.5977C75.485 28.3307 75.7357 28.0117 75.8984 27.6406V24.2227C75.7422 23.8516 75.498 23.5358 75.166 23.2754C74.8405 23.015 74.4238 22.8848 73.916 22.8848C73.2129 22.8848 72.679 23.1419 72.3145 23.6562C71.9564 24.1706 71.7773 24.8411 71.7773 25.668V26.2148ZM80.7227 26.0977V25.7852C80.7227 24.2812 81.1263 23.0573 81.9336 22.1133C82.7474 21.1628 83.8053 20.6875 85.1074 20.6875C85.7585 20.6875 86.3184 20.8014 86.7871 21.0293C87.2624 21.2572 87.6302 21.5566 87.8906 21.9277V16.1465H90.8301V31H88.0176L87.959 29.7988H87.9199C87.6986 30.196 87.3372 30.528 86.8359 30.7949C86.3411 31.0618 85.7682 31.1953 85.1172 31.1953C83.75 31.1953 82.6758 30.7233 81.8945 29.7793C81.1133 28.8288 80.7227 27.6016 80.7227 26.0977ZM83.75 26.2148C83.75 27.0417 83.9258 27.7122 84.2773 28.2266C84.6354 28.7409 85.1693 28.998 85.8789 28.998C86.3672 28.998 86.7806 28.8646 87.1191 28.5977C87.4577 28.3307 87.7083 28.0117 87.8711 27.6406V24.2227C87.7148 23.8516 87.4707 23.5358 87.1387 23.2754C86.8132 23.015 86.3965 22.8848 85.8887 22.8848C85.1855 22.8848 84.6517 23.1419 84.2871 23.6562C83.929 24.1706 83.75 24.8411 83.75 25.668V26.2148ZM92.6953 26.0879V25.7754C92.6953 24.2129 93.1706 22.9596 94.1211 22.0156C95.0781 21.0651 96.3021 20.5898 97.793 20.5898C99.2969 20.5898 100.472 21.0358 101.318 21.9277C102.171 22.8197 102.598 24.0469 102.598 25.6094V26.6348H94.6484V24.8477H99.6777V24.6523C99.6777 24.1055 99.515 23.6465 99.1895 23.2754C98.8639 22.8978 98.3952 22.709 97.7832 22.709C97.0866 22.709 96.556 22.9694 96.1914 23.4902C95.8268 24.0111 95.6445 24.7109 95.6445 25.5898V26.2246C95.6445 27.1165 95.8398 27.8229 96.2305 28.3437C96.6276 28.8581 97.207 29.1152 97.9688 29.1152C98.5026 29.1152 98.9616 28.9883 99.3457 28.7344C99.7363 28.474 100.049 28.1712 100.283 27.8262L102.432 29.0762C102.106 29.7207 101.559 30.2513 100.791 30.668C100.023 31.0846 99.0983 31.293 98.0176 31.293C96.3574 31.293 95.0553 30.8177 94.1113 29.8672C93.1673 28.9167 92.6953 27.6569 92.6953 26.0879ZM104.346 31V20.8828H107.178L107.236 22.0547H107.285C107.546 21.6445 107.936 21.3125 108.457 21.0586C108.978 20.7982 109.564 20.668 110.215 20.668C111.25 20.668 112.096 20.9642 112.754 21.5566C113.411 22.1426 113.74 23.1647 113.74 24.623V31H110.771V24.6328C110.771 24.0078 110.638 23.5684 110.371 23.3145C110.104 23.0605 109.723 22.9336 109.229 22.9336C108.825 22.9336 108.447 23.0508 108.096 23.2852C107.751 23.5195 107.49 23.8451 107.314 24.2617V31H104.346ZM121.279 31V19.9453C121.279 18.6172 121.654 17.6211 122.402 16.957C123.158 16.2865 124.121 15.9512 125.293 15.9512C125.547 15.9512 125.788 15.9642 126.016 15.9902C126.25 16.0163 126.462 16.0553 126.65 16.1074L126.563 18.2754C126.439 18.2493 126.305 18.2266 126.162 18.207C126.019 18.1875 125.869 18.1777 125.713 18.1777C125.244 18.1777 124.876 18.334 124.609 18.6465C124.349 18.959 124.219 19.4342 124.219 20.0723V21.7129L124.229 21.9082V31H121.279ZM119.902 23.0312V20.8828H122.324H122.666H126.064V23.0312H119.902ZM126.445 26.0879V25.7754C126.445 24.2129 126.921 22.9596 127.871 22.0156C128.828 21.0651 130.052 20.5898 131.543 20.5898C133.047 20.5898 134.222 21.0358 135.068 21.9277C135.921 22.8197 136.348 24.0469 136.348 25.6094V26.6348H128.398V24.8477H133.428V24.6523C133.428 24.1055 133.265 23.6465 132.939 23.2754C132.614 22.8978 132.145 22.709 131.533 22.709C130.837 22.709 130.306 22.9694 129.941 23.4902C129.577 24.0111 129.395 24.7109 129.395 25.5898V26.2246C129.395 27.1165 129.59 27.8229 129.98 28.3437C130.378 28.8581 130.957 29.1152 131.719 29.1152C132.253 29.1152 132.712 28.9883 133.096 28.7344C133.486 28.474 133.799 28.1712 134.033 27.8262L136.182 29.0762C135.856 29.7207 135.309 30.2513 134.541 30.668C133.773 31.0846 132.848 31.293 131.768 31.293C130.107 31.293 128.805 30.8177 127.861 29.8672C126.917 28.9167 126.445 27.6569 126.445 26.0879ZM137.559 26.0879V25.7754C137.559 24.2129 138.034 22.9596 138.984 22.0156C139.941 21.0651 141.165 20.5898 142.656 20.5898C144.16 20.5898 145.335 21.0358 146.182 21.9277C147.035 22.8197 147.461 24.0469 147.461 25.6094V26.6348H139.512V24.8477H144.541V24.6523C144.541 24.1055 144.378 23.6465 144.053 23.2754C143.727 22.8978 143.258 22.709 142.646 22.709C141.95 22.709 141.419 22.9694 141.055 23.4902C140.69 24.0111 140.508 24.7109 140.508 25.5898V26.2246C140.508 27.1165 140.703 27.8229 141.094 28.3437C141.491 28.8581 142.07 29.1152 142.832 29.1152C143.366 29.1152 143.825 28.9883 144.209 28.7344C144.6 28.474 144.912 28.1712 145.146 27.8262L147.295 29.0762C146.969 29.7207 146.423 30.2513 145.654 30.668C144.886 31.0846 143.962 31.293 142.881 31.293C141.221 31.293 139.919 30.8177 138.975 29.8672C138.031 28.9167 137.559 27.6569 137.559 26.0879ZM148.623 27.7969L151.484 27.8164V27.9727C151.484 28.4479 151.644 28.793 151.963 29.0078C152.282 29.2161 152.712 29.3203 153.252 29.3203C153.799 29.3203 154.212 29.2194 154.492 29.0176C154.772 28.8158 154.912 28.5456 154.912 28.207C154.912 27.862 154.762 27.6081 154.463 27.4453C154.163 27.276 153.47 27.0807 152.383 26.8594C151.178 26.612 150.299 26.2344 149.746 25.7266C149.193 25.2122 148.916 24.5449 148.916 23.7246C148.916 22.748 149.307 21.9831 150.088 21.4297C150.876 20.8698 151.94 20.5898 153.281 20.5898C154.616 20.5898 155.68 20.8796 156.475 21.459C157.269 22.0384 157.666 22.8327 157.666 23.8418V23.9687H154.814V23.8027C154.814 23.4121 154.684 23.1094 154.424 22.8945C154.17 22.6797 153.783 22.5723 153.262 22.5723C152.747 22.5723 152.373 22.6602 152.139 22.8359C151.911 23.0052 151.797 23.2363 151.797 23.5293C151.797 23.8223 151.947 24.0534 152.246 24.2227C152.552 24.3919 153.252 24.5905 154.346 24.8184C155.557 25.0527 156.442 25.4173 157.002 25.9121C157.568 26.4069 157.852 27.0905 157.852 27.9629C157.852 29.0111 157.461 29.8281 156.68 30.4141C155.905 30.9935 154.772 31.2832 153.281 31.2832C151.797 31.2832 150.651 30.9935 149.844 30.4141C149.036 29.8281 148.63 28.9948 148.623 27.9141V27.7969Z" fill="white"/>
</svg>
