<svg width="76" height="28" viewBox="0 0 76 28" fill="none" xmlns="http://www.w3.org/2000/svg">
<path fill-rule="evenodd" clip-rule="evenodd" d="M50.0858 15.5029L50.7292 15.6927C50.687 15.872 50.6237 16.0302 50.5182 16.1462C50.4338 16.2728 50.3073 16.3571 50.1807 16.4204C50.0331 16.4837 49.8643 16.5259 49.6534 16.5259C49.3897 16.5259 49.1683 16.4837 49.0101 16.3993C48.8347 16.3127 48.6882 16.1772 48.5882 16.0091C48.4548 15.7866 48.3888 15.5301 48.3984 15.2708C48.3984 14.8806 48.5038 14.5853 48.7148 14.3744C48.9257 14.1634 49.221 14.058 49.6112 14.058C49.9171 14.058 50.1491 14.1107 50.3284 14.2373C50.4971 14.3533 50.6237 14.5431 50.7081 14.7962L50.0542 14.9333C50.0345 14.8366 49.9814 14.7499 49.9044 14.6882C49.8273 14.6265 49.731 14.5939 49.6323 14.5959C49.5543 14.5925 49.4768 14.6103 49.4081 14.6475C49.3394 14.6846 49.282 14.7397 49.2421 14.8068C49.1631 14.9481 49.1265 15.1092 49.1366 15.2708C49.1366 15.5345 49.1788 15.7243 49.2632 15.8193C49.3476 15.9247 49.453 15.9669 49.6007 15.9669C49.7483 15.9669 49.8538 15.9247 49.9171 15.8509C50.0032 15.7519 50.0615 15.6318 50.0858 15.5029V15.5029ZM51.0034 15.2919C51.0034 14.9017 51.1088 14.5959 51.3198 14.3744C51.5412 14.1634 51.8471 14.058 52.2373 14.058C52.6381 14.058 52.9439 14.1634 53.1548 14.3744C53.3658 14.5853 53.4818 14.8806 53.4818 15.2708C53.4818 15.545 53.4396 15.7771 53.3447 15.9458C53.253 16.1245 53.1097 16.2715 52.9334 16.3677C52.7541 16.4731 52.5326 16.5153 52.2689 16.5153C51.9947 16.5153 51.7733 16.4731 51.594 16.3888C51.4157 16.2965 51.2688 16.1533 51.1721 15.9774C51.0561 15.7982 51.0034 15.5556 51.0034 15.2814V15.2919ZM51.7416 15.2919C51.7416 15.5239 51.7838 15.7032 51.8787 15.8087C51.9631 15.9142 52.0897 15.9669 52.2373 15.9669C52.406 15.9669 52.5221 15.9142 52.6064 15.8087C52.7013 15.7032 52.7435 15.5239 52.7435 15.2603C52.7435 15.0283 52.7013 14.8701 52.6064 14.7646C52.5607 14.7123 52.5038 14.6709 52.4399 14.6435C52.376 14.6161 52.3068 14.6034 52.2373 14.6064C52.1695 14.6043 52.1021 14.6174 52.04 14.6448C51.978 14.6721 51.9229 14.7131 51.8787 14.7646C51.7838 14.8701 51.7416 15.0494 51.7416 15.2919ZM53.872 14.0896H54.8528L55.222 15.545L55.6016 14.0896H56.5719V16.4731H55.9708V14.6591L55.4962 16.4731H54.9478L54.4837 14.6591V16.4731H53.872V14.1002V14.0896ZM57.036 14.0896H58.2699C58.5441 14.0896 58.7445 14.1529 58.8816 14.2795C59.0082 14.406 59.082 14.5959 59.082 14.8279C59.0864 14.9314 59.0689 15.0346 59.0307 15.1309C58.9926 15.2272 58.9346 15.3144 58.8605 15.3868C58.7129 15.5239 58.4914 15.5978 58.1961 15.5978H57.7848V16.4731H57.0465V14.1002L57.036 14.0896ZM57.7848 15.1126H57.9641C58.1117 15.1126 58.2066 15.081 58.2699 15.0388C58.3226 14.9861 58.3543 14.9228 58.3543 14.849C58.3552 14.814 58.3491 14.7792 58.3364 14.7466C58.3238 14.714 58.3047 14.6843 58.2805 14.6591C58.2277 14.6064 58.1328 14.5748 57.9957 14.5748H57.7848V15.1021V15.1126ZM59.4722 14.0896H60.2105V15.8931H61.3706V16.4837H59.4722V14.1002V14.0896ZM61.7292 14.0896H62.4674V16.4731H61.7292V14.1002V14.0896ZM64.4713 16.0829H63.6275L63.5221 16.4731H62.7627L63.6592 14.0896H64.4713L65.3677 16.4731H64.5978L64.4818 16.0829H64.4713ZM64.3236 15.5661L64.0599 14.7119L63.7963 15.5661H64.3236ZM65.6103 14.0896H66.3064L67.2134 15.4079V14.1002H67.9094V16.4837H67.2134L66.3169 15.1759V16.4837H65.6103V14.1002V14.0896ZM68.2364 14.0896H70.4828V14.6802H69.734V16.4731H68.9957V14.6802H68.2364V14.0896Z" fill="black"/>
<path d="M41.1011 17.8916L43.2632 17.2272L42.5565 15.698C42.0398 16.3307 41.523 17.1428 41.1011 17.8916V17.8916ZM29.289 19.2205C29.4156 19.8849 29.7531 20.5915 30.2171 21.256L13.6485 26.371L5.02148 3.35853L36.1126 1.62891L40.3629 10.8887C39.8777 11.5426 38.4329 13.4937 37.0724 15.4132V9.26458H33.2229V17.512C32.7325 17.1685 32.1756 16.9314 31.5882 16.8159V16.4046C31.5882 16.3729 31.5671 16.3624 31.5354 16.3835C31.5354 16.3835 31.1136 16.7104 29.289 16.8897C28.7722 16.9424 28.5297 16.9108 28.3398 16.8897C25.7454 16.4573 25.6188 14.5906 25.6188 14.5906V13.7785C25.6169 13.7434 25.6169 13.7082 25.6188 13.673C25.6188 13.673 25.7981 11.6692 28.3398 11.4583H29.289C30.4175 11.6059 31.314 12.1543 31.314 12.1543C31.3456 12.1649 31.3667 12.1543 31.3667 12.1227V9.61262C31.3655 9.5953 31.3601 9.57854 31.3509 9.56382C31.3417 9.54911 31.329 9.53689 31.314 9.52825C31.314 9.52825 30.8077 9.21185 29.2679 9.11693C29.1836 9.07475 27.8441 9.0642 27.475 9.11693C21.8643 9.55989 21.6533 13.5359 21.6533 13.7152V14.6749C21.6533 14.8015 21.6533 18.8619 27.4645 19.2205C28.034 19.2627 29.1519 19.2205 29.2574 19.2205H29.289V19.2205ZM35.1634 8.32594C36.4607 8.32594 37.5153 7.34512 37.5153 6.14282C37.5153 4.94051 36.4607 3.97023 35.1634 3.97023C33.8557 3.97023 32.801 4.94051 32.801 6.14282C32.801 7.34512 33.8557 8.32594 35.1634 8.32594ZM10.9592 19.0834C10.9592 19.115 10.9908 19.1467 11.0225 19.1467H14.777C14.8087 19.1467 14.8297 19.115 14.8297 19.0834V16.2253C14.8297 16.1936 14.8614 16.1726 14.893 16.1726C14.893 16.1726 20.8834 16.5944 20.8834 12.65C20.8834 9.54934 17.1183 9.2013 15.8844 9.26458H11.0225C11.0147 9.263 11.0067 9.26318 10.999 9.26511C10.9914 9.26704 10.9842 9.27067 10.9781 9.27574C10.9721 9.2808 10.9672 9.28717 10.9639 9.29437C10.9606 9.30156 10.959 9.30941 10.9592 9.31732V19.0834Z" fill="black"/>
<path d="M35.2593 23.8856C35.5757 23.8856 35.8077 23.8856 36.2085 23.7168C37.5795 23.0102 42.1778 11.9891 47.0397 8.60365C47.0754 8.58035 47.1073 8.55192 47.1347 8.51928C47.1663 8.46655 47.1663 8.42436 47.1663 8.42436C47.1663 8.42436 47.1663 8.19234 46.4491 8.19234C42.1251 8.08687 37.6217 16.967 35.2593 20.479C35.2276 20.5212 35.0589 20.479 35.0589 20.479C35.0589 20.479 33.4769 18.6439 32.1059 17.9479C31.9948 17.9063 31.8762 17.8884 31.7578 17.8951C31.6524 17.8951 31.009 18.0217 30.7032 18.3275C30.3551 18.6967 30.3551 18.8971 30.3657 19.34C30.3657 19.3822 30.3868 19.5298 30.429 19.6037C30.7665 20.1732 32.3062 22.2403 33.5613 23.4004C33.7617 23.527 34.057 23.8856 35.2487 23.8856H35.2593Z" fill="black"/>
<path fill-rule="evenodd" clip-rule="evenodd" d="M14.7637 13.9937V11.4098H15.6812C15.6812 11.4098 17.0206 11.4731 17.1261 12.359C17.1472 12.4328 17.1366 12.8652 17.1261 12.8863C16.9468 13.941 15.7867 13.9937 15.7867 13.9937H14.7637V13.9937Z" fill="black"/>
</svg>
