<svg width="76" height="28" viewBox="0 0 76 28" fill="none" xmlns="http://www.w3.org/2000/svg">
<g clip-path="url(#clip0_2390_10248)">
<path fill-rule="evenodd" clip-rule="evenodd" d="M54.1761 18.1124C54.1155 18.5801 54.0324 19.0445 53.9268 19.5042C53.4907 19.3727 52.9923 19.1563 52.2758 19.1949C51.8552 19.2258 51.3568 19.3805 51.3412 19.7439C51.3412 20.1537 52.0421 20.3934 52.4237 20.5635C53.1247 20.8805 53.8645 21.3057 53.9268 22.1717C53.9736 22.8289 53.6465 23.4088 53.2804 23.7413C52.3069 24.615 50.1418 24.7078 48.6621 24.1511C48.7556 23.6794 48.8412 23.2 48.9113 22.7129C49.4876 22.9449 50.2742 23.2542 51.1309 23.1614C51.5203 23.115 52.0032 22.8908 51.9876 22.5119C51.972 22.048 51.053 21.7619 50.5935 21.5222C50.0562 21.2361 49.4487 20.7722 49.4175 20.0532C49.3942 19.5738 49.5889 19.1253 49.8459 18.8238C50.6091 17.9269 52.5717 17.6021 54.1761 18.1124V18.1124ZM36.6295 8.97332H38.5999L37.385 16.2722H35.4146L36.6295 8.97332V8.97332ZM31.5205 10.4269L31.209 12.2594H31.7853C32.3383 12.2594 32.8679 11.8419 32.9535 11.3393C33.0392 10.8367 32.6576 10.4269 32.0969 10.4269H31.5205ZM29.7916 8.97332H32.8134C34.737 8.97332 35.2277 10.0326 35.0252 11.2929C34.8461 12.3444 34.0517 13.048 33.0236 13.2955L34.9395 16.2722H32.4629L31.0221 13.4114L30.547 16.2722H28.5766L29.7916 8.97332V8.97332ZM45.6403 8.97332H47.6185L46.4036 16.2722H44.4254L45.6403 8.97332V8.97332ZM49.1138 8.97332H53.4518L53.187 10.5584H50.8272L50.6169 11.8109H52.8599L52.6029 13.396H50.3521L50.1418 14.6872H52.5016L52.2368 16.2722H47.8911L49.106 8.97332H49.1138ZM24.2776 8.97332H28.6156L28.3508 10.5584H25.991L25.7807 11.8109H28.0237L27.7589 13.396H25.5159L25.3057 14.6872H27.6654L27.4006 16.2722H23.0627L24.2776 8.97332V8.97332ZM40.103 8.97332H44.4799L44.2151 10.5584H41.8008L41.5983 11.8109H43.7868L43.522 13.396H41.3335L40.8507 16.2722H38.8803L40.103 8.97332ZM56.3256 10.5584H56.7306C58.2414 10.5584 58.8333 11.579 58.6698 12.5532C58.5961 13.1557 58.2978 13.709 57.8336 14.104C57.3694 14.499 56.7731 14.7071 56.162 14.6872H55.6402L56.3256 10.5584V10.5584ZM54.6122 8.97332H57.1823C60.2508 8.97332 60.9517 11.1846 60.7103 12.6228C60.3676 14.6872 58.4361 16.2722 55.9673 16.2722H53.3973L54.6122 8.97332V8.97332ZM15.0254 7.98364H18.678L19.1141 13.28C21.5284 9.29806 23.9817 5.47076 26.4583 1.70532H27.6499C25.0124 6.52811 22.4421 11.3868 19.9397 16.28H17.2606L16.6064 10.4347C16.4428 8.97332 16.1391 8.35477 15.0254 8.20013V7.98364Z" fill="black"/>
<path fill-rule="evenodd" clip-rule="evenodd" d="M29.206 17.9927H30.4832L30.0549 20.8689C30.4209 20.5365 30.8648 20.3277 31.3633 20.3277C32.3913 20.3277 33.0611 21.2633 32.882 22.4308C32.7028 23.5906 31.7293 24.5339 30.7013 24.5339C30.2029 24.5339 29.8446 24.3174 29.5954 23.954L29.5253 24.4102H28.248L29.206 17.9927ZM30.8025 21.503C31.2698 21.503 31.5969 21.9128 31.519 22.4308C31.4412 22.9334 30.9972 23.3432 30.5222 23.3432C30.0549 23.3432 29.7356 22.9334 29.8057 22.4231C29.8835 21.9128 30.3275 21.503 30.8025 21.503Z" fill="black"/>
<path fill-rule="evenodd" clip-rule="evenodd" d="M16.4101 4.97195L19.5254 6.22452L19.7902 9.53378H20.0238L22.8509 4.97195V4.73999H16.4023V4.97195H16.4101Z" fill="black"/>
<path fill-rule="evenodd" clip-rule="evenodd" d="M32.9921 20.4147H34.5263L35.2117 22.4559L36.5357 20.4147H38.0232L34.1292 26.3683H32.6494L34.2927 23.8554L32.9921 20.4147ZM45.6399 24.3967L46.7692 17.9792H48.5994L47.4779 24.3967H45.6399ZM44.1057 17.9714H46.0371C45.1026 20.1286 44.1057 22.224 43.1789 24.3889H41.2085L39.573 18.8374C40.268 19.2223 40.8879 19.7277 41.4032 20.3297L41.4266 20.3606C41.7381 20.7472 41.9717 21.157 42.1197 21.5977L42.0886 21.4508V21.4585L42.2833 22.309C42.9297 20.9018 43.4748 19.3941 44.1057 17.9792V17.9714ZM40.64 17.9714C41.0528 17.9714 41.3876 18.157 41.4733 18.6132L42.1197 21.6054C41.5512 19.8116 39.3627 18.4354 37.6338 18.1106V17.9714H40.64ZM57.5791 19.7498L56.6445 22.1312H58.1554L57.5791 19.7498ZM60.3672 24.4199H58.685C58.5759 24.1106 58.5448 23.7317 58.4357 23.4302H56.146L55.7177 24.4199H53.7785L56.2862 18.9302C56.3953 18.6828 56.5978 18.358 56.6756 18.2111C56.808 17.9869 57.2987 17.9792 57.509 17.9792H58.903L60.3672 24.4199Z" fill="black"/>
<path fill-rule="evenodd" clip-rule="evenodd" d="M40.64 17.9714C41.0528 17.9714 41.3876 18.157 41.4733 18.6132L42.1197 21.6054C41.5512 19.8116 39.3627 18.4354 37.6338 18.1106V17.9714H40.64Z" fill="black"/>
</g>
<defs>
<clipPath id="clip0_2390_10248">
<rect width="45.9497" height="24.7421" fill="white" transform="translate(15.0254 1.62891)"/>
</clipPath>
</defs>
</svg>
