<svg width="76" height="28" viewBox="0 0 76 28" fill="none" xmlns="http://www.w3.org/2000/svg">
<g clip-path="url(#clip0_2390_10244)">
<path fill-rule="evenodd" clip-rule="evenodd" d="M14.1972 16.8415C13.7752 16.5698 13.2786 16.4287 12.7726 16.4366C12.0787 16.4366 11.5237 16.5716 11.5237 17.2734C11.5237 18.524 14.0399 18.0561 14.0399 20.7193C14.0399 23.1485 12.3748 23.7783 10.8668 23.7783C10.2008 23.7783 9.43294 23.5624 8.85938 23.3195L9.26642 21.538C9.73056 21.8685 10.2916 22.0451 10.8668 22.0419C11.4127 22.0419 12.2545 21.8979 12.2545 20.9982C12.2545 19.5856 9.72897 20.1165 9.72897 17.6423C9.72897 15.375 11.2091 14.7002 12.6245 14.7002C13.4294 14.7002 14.1787 14.8172 14.6228 15.0961L14.1972 16.8415ZM19.2668 23.4724C18.684 23.6613 18.1197 23.7603 17.5091 23.7603C15.6034 23.7603 14.6043 22.6807 14.6043 20.6203C14.6043 18.2181 15.8717 16.4456 17.5923 16.4456C19.0077 16.4456 19.9051 17.4353 19.9051 18.9918C19.9051 19.5137 19.8496 20.0085 19.7016 20.7193H16.2787V20.9442C16.2787 21.754 16.7875 22.1678 17.7774 22.1678C18.3879 22.1678 18.943 22.0329 19.5536 21.718L19.2668 23.4724ZM18.3139 19.3067V18.9468C18.3139 18.38 18.0179 18.0471 17.5091 18.0471C16.9633 18.0471 16.584 18.497 16.4175 19.3067H18.3139ZM24.2808 23.4724C23.9293 23.6344 23.4482 23.7423 22.7637 23.7423C21.265 23.7423 20.3306 22.3028 20.3306 20.5663C20.3306 18.2901 21.6813 16.4726 23.661 16.4726C24.0866 16.4726 24.7434 16.6526 25.2614 16.9405L24.8821 18.605C24.5445 18.3768 24.146 18.2486 23.735 18.2361C22.8192 18.2361 22.1623 19.0368 22.1623 20.4674C22.1623 21.2951 22.6434 21.9789 23.3927 21.9789C23.8368 21.9789 24.1513 21.8889 24.5399 21.673L24.2808 23.4724ZM30.6825 21.718C30.59 22.3208 30.516 22.9056 30.4698 23.5354H28.8138L28.9526 22.4017H28.9433C28.4253 23.1665 27.8887 23.6973 26.9544 23.6973C25.9183 23.6973 25.3632 22.6537 25.3632 21.2951C25.3632 20.8272 25.391 20.5573 25.502 19.8286L25.9645 16.5896H27.8055L27.3059 19.8376C27.2597 20.1885 27.1857 20.5303 27.1857 20.8902C27.1857 21.3041 27.3799 21.718 27.8795 21.7C28.6288 21.7 29.0821 20.8093 29.2024 19.7836L29.7112 16.5896H31.4781L30.6825 21.718ZM35.3173 16.5176C35.2598 16.5042 35.2007 16.4981 35.1415 16.4996C34.5865 16.4996 34.2627 16.8055 33.7446 17.6423L33.8926 16.5806H32.3385L31.2931 23.5804H33.0045C33.6244 19.2977 33.7909 18.56 34.605 18.56H34.7345C34.8825 17.7232 35.0953 17.1024 35.3821 16.5356L35.3173 16.5176ZM39.6283 23.4724C39.0455 23.6613 38.4812 23.7603 37.8706 23.7603C35.9649 23.7603 34.9658 22.6807 34.9658 20.6203C34.9658 18.2181 36.2332 16.4456 37.9538 16.4456C39.3693 16.4456 40.2666 17.4353 40.2666 18.9918C40.2666 19.5137 40.2111 20.0085 40.0538 20.7193H36.6495L36.6309 20.9442C36.6309 21.754 37.1398 22.1678 38.1389 22.1678C38.7494 22.1678 39.3045 22.0329 39.9151 21.718L39.6375 23.4724H39.6283ZM38.6662 19.3067C38.6847 19.1628 38.6847 19.0368 38.6847 18.9468C38.6847 18.38 38.3794 18.0471 37.8798 18.0471C37.3248 18.0471 36.9455 18.497 36.779 19.3067H38.6662ZM46.6591 15.24L46.3815 17.1024C45.9221 16.8153 45.3916 16.6537 44.8459 16.6346C43.56 16.6346 42.6719 17.9752 42.6719 19.8646C42.6719 21.1691 43.2639 21.9609 44.263 21.9609C44.6886 21.9609 45.1604 21.8259 45.7247 21.511L45.4287 23.4904C44.7904 23.6703 44.3741 23.7333 43.9115 23.7333C42.0613 23.7333 40.9142 22.3028 40.9142 20.0175C40.9142 16.9405 42.4961 14.7902 44.7719 14.7902C45.0679 14.7902 45.3269 14.8262 45.5397 14.8801L46.2428 15.0691L46.6591 15.24ZM50.1374 19.5766C50.1374 21.1691 49.6194 22.1048 48.8145 22.1048C48.2225 22.1228 47.8617 21.493 47.8617 20.5483C47.8617 19.4327 48.389 18.1731 49.2308 18.1731C49.9062 18.1731 50.1374 18.8569 50.1374 19.5856V19.5766ZM51.9414 19.6126C51.9414 17.8492 51.0255 16.4816 49.3141 16.4816C47.3436 16.4816 46.0762 18.1461 46.0762 20.6023C46.0762 22.3658 46.8163 23.8053 48.685 23.8053C50.5722 23.8053 51.9414 22.5277 51.9414 19.6126ZM57.677 23.4994H56.0673L56.1506 22.8156C55.6788 23.3554 55.1885 23.5984 54.5594 23.5984C53.3105 23.5984 52.4872 22.4377 52.4872 20.6923C52.4872 18.362 53.7731 16.3917 55.281 16.3917C55.9471 16.3917 56.4559 16.6976 56.9184 17.3544L57.2977 14.8981H58.9814L57.6863 23.4994H57.677ZM55.1515 21.8529C55.9563 21.8529 56.5114 20.8812 56.5114 19.4957C56.5114 18.605 56.1969 18.1281 55.6048 18.1281C54.8277 18.1281 54.2727 19.0998 54.2727 20.4854C54.2727 21.3851 54.5687 21.8529 55.1515 21.8529ZM63.5237 23.4724C62.9316 23.6613 62.3673 23.7603 61.766 23.7603C59.851 23.7603 58.8519 22.6807 58.8519 20.6203C58.8519 18.2181 60.1285 16.4456 61.8492 16.4456C63.2554 16.4456 64.162 17.4353 64.162 18.9918C64.162 19.5137 64.0972 20.0085 63.9492 20.7193H60.5356L60.5263 20.9442C60.5263 21.754 61.0352 22.1678 62.025 22.1678C62.6448 22.1678 63.1906 22.0329 63.8105 21.718L63.5237 23.4724ZM62.5616 19.3067L62.5708 18.9468C62.5708 18.38 62.2748 18.0471 61.766 18.0471C61.2109 18.0471 60.8316 18.497 60.6744 19.3067H62.5616ZM65.2351 23.4454H64.9576V22.2848H64.5505V22.0419H65.6329V22.2848H65.2351V23.4544V23.4454ZM67.0668 23.4454H66.8078V22.2758L66.558 23.4454H66.2805L66.0492 22.2758V23.4454H65.7809V22.0419H66.188L66.4285 23.1485L66.669 22.0419H67.0668V23.4454Z" fill="black"/>
<path fill-rule="evenodd" clip-rule="evenodd" d="M16.565 12.9819H14.7333L15.7972 6.36896L13.4382 12.9819H12.1893L12.032 6.40495L10.9219 12.9729H9.21973L10.6444 4.37159H13.2809L13.3549 9.6979L15.1496 4.37159H17.9989L16.565 12.9819ZM21.2923 9.85985L20.876 9.83286C19.8399 9.83286 19.3126 10.1927 19.3126 10.9035C19.3126 11.3354 19.5716 11.6143 19.9694 11.6143C20.7095 11.6143 21.2646 10.8945 21.2923 9.85985ZM22.6245 12.9819H21.1073L21.135 12.2531C20.6725 12.8289 20.0527 13.0988 19.2108 13.0988C18.221 13.0988 17.5456 12.3251 17.5456 11.1914C17.5456 9.48197 18.7298 8.49228 20.7558 8.49228C20.9685 8.49228 21.2368 8.51028 21.5051 8.54627C21.5606 8.31234 21.5791 8.21337 21.5791 8.09641C21.5791 7.62856 21.2553 7.45761 20.4042 7.45761C19.8862 7.45761 19.2941 7.52959 18.8778 7.65555L18.6188 7.72753L18.4615 7.77251L18.7113 6.19801C19.6364 5.9281 20.2284 5.82013 20.913 5.82013C22.4857 5.82013 23.3183 6.5399 23.3183 7.87148C23.3183 8.23137 23.2905 8.48329 23.1703 9.26604L22.7817 11.7402L22.7355 12.1991L22.6892 12.559L22.6522 12.8019L22.6337 12.9819H22.6245ZM23.9289 8.19538C23.9289 9.0771 24.3544 9.6889 25.3165 10.1478C26.0566 10.4986 26.1769 10.5976 26.1769 10.9125C26.1769 11.3534 25.8438 11.5513 25.1222 11.5513C24.5764 11.5513 24.0676 11.4613 23.4848 11.2724L23.235 12.8919L23.3183 12.9009L23.6513 12.9729C23.7623 12.9909 23.9196 13.0178 24.1324 13.0358C24.5672 13.0718 24.9002 13.0898 25.1407 13.0898C27.065 13.0898 27.953 12.3521 27.953 10.7506C27.953 9.79687 27.583 9.23005 26.6579 8.80718C25.8993 8.45629 25.8161 8.37532 25.8161 8.05142C25.8161 7.67354 26.1121 7.47561 26.7042 7.47561C27.065 7.47561 27.5553 7.52059 28.0178 7.58357L28.2768 5.96409C27.7958 5.89211 27.0927 5.82913 26.6672 5.82913C24.6319 5.82913 23.9196 6.90879 23.9289 8.19538ZM31.1539 12.8919C30.7323 13.0397 30.2884 13.1187 29.8403 13.1258C28.9059 13.1258 28.3971 12.586 28.3971 11.5873C28.3971 11.3894 28.4063 11.1824 28.4434 10.9575L28.5636 10.2737L28.6469 9.71589L29.4425 4.94741H31.2649L31.0521 5.98208H31.9865L31.7367 7.68254H30.7839L30.3028 10.6066L30.2751 10.8945C30.2751 11.2544 30.4601 11.4074 30.8949 11.4074C31.1076 11.4074 31.2649 11.3894 31.3944 11.3444L31.1447 12.8919H31.1539ZM36.9635 12.8289C36.3345 13.0178 35.7332 13.1168 35.0763 13.1168C33.0411 13.1168 31.968 12.0372 31.968 9.97681C31.968 7.57457 33.3279 5.80214 35.1688 5.80214C36.6768 5.80214 37.6481 6.79182 37.6481 8.34833C37.6481 8.87016 37.5834 9.374 37.4168 10.0758H33.7719L33.7534 10.2917C33.7534 11.1105 34.3085 11.5243 35.3631 11.5243C36.0199 11.5243 36.612 11.3894 37.2688 11.0745L36.9635 12.8289ZM35.9367 8.66323L35.9459 8.30334C35.9459 7.73652 35.6222 7.40363 35.0763 7.40363C34.4935 7.40363 34.0772 7.85349 33.9107 8.66323H35.9367ZM42.1349 5.9191C42.0736 5.91064 42.0117 5.90763 41.9498 5.9101C41.3393 5.9101 40.997 6.20701 40.4419 7.04374L40.5992 5.98208H38.934L37.8146 12.9819H39.6648C40.3124 8.69922 40.4789 7.96145 41.367 7.96145L41.4965 7.97045C41.6631 7.12472 41.8851 6.50391 42.1904 5.94609L42.1349 5.9191ZM48.2128 4.64151L47.9168 6.51291C47.4199 6.22707 46.8564 6.06914 46.2793 6.05406C44.9102 6.05406 43.9481 7.37664 43.9481 9.26604C43.9481 10.5796 44.5956 11.3624 45.6595 11.3624C46.2064 11.3384 46.7393 11.1872 47.2137 10.9215L46.8991 12.8829C46.2238 13.0718 45.789 13.1348 45.2802 13.1348C43.3005 13.1348 42.0701 11.7133 42.0701 9.42799C42.0701 6.34197 43.7723 4.19165 46.1961 4.19165C46.5106 4.19165 46.7881 4.22764 47.0287 4.28162L47.7687 4.47956C48 4.56953 48.0463 4.56953 48.2128 4.64151ZM51.3766 9.85985L50.9696 9.83286C49.9242 9.83286 49.3969 10.1927 49.3969 10.9035C49.3969 11.3354 49.656 11.6143 50.0537 11.6143C50.8031 11.6143 51.3489 10.8945 51.3766 9.85985ZM52.7088 12.9819H51.1916L51.2286 12.2531C50.7661 12.8289 50.1463 13.0988 49.3044 13.0988C48.3053 13.0988 47.6207 12.3251 47.6207 11.1914C47.6207 9.48197 48.8141 8.49228 50.8493 8.49228C51.0529 8.49228 51.3211 8.51028 51.5894 8.54627C51.6542 8.31234 51.6634 8.21337 51.6634 8.09641C51.6634 7.62856 51.3489 7.45761 50.4885 7.45761C49.9728 7.45429 49.459 7.52091 48.9621 7.65555L48.7031 7.72753L48.5458 7.77251L48.8049 6.19801C49.7207 5.9281 50.322 5.82013 50.9973 5.82013C52.57 5.82013 53.4026 6.5399 53.4026 7.87148C53.4026 8.23137 53.3749 8.48329 53.2546 9.26604L52.8661 11.7402L52.8106 12.1901L52.7643 12.55L52.7273 12.7929L52.7088 12.9729V12.9819ZM57.8339 5.9191C57.7726 5.91009 57.7107 5.90707 57.6488 5.9101C57.0475 5.9101 56.696 6.20701 56.1317 7.04374L56.2982 5.98208H54.633L53.5229 12.9819H55.3546C56.0114 8.69922 56.1872 7.96145 57.066 7.96145L57.1955 7.97045C57.3621 7.12472 57.5841 6.50391 57.8894 5.94609L57.8339 5.9191ZM62.8202 12.9819H61.081L61.1735 12.2981C60.6739 12.8379 60.1559 13.0718 59.4805 13.0718C58.1391 13.0718 57.2603 11.9202 57.2603 10.1658C57.2603 7.83549 58.6294 5.87412 60.2484 5.87412C60.9607 5.87412 61.4973 6.17102 62.0061 6.82781L62.4039 4.37159H64.2171L62.8202 12.9819ZM60.1096 11.3354C60.97 11.3354 61.5713 10.3637 61.5713 8.97813C61.5713 8.07841 61.229 7.60157 60.5907 7.60157C59.7581 7.60157 59.1753 8.57326 59.1753 9.94982C59.1753 10.8675 59.4898 11.3354 60.1096 11.3354ZM63.884 11.9652C63.884 11.3534 64.3743 10.8675 64.9756 10.8675C65.5862 10.8675 66.0765 11.3534 66.0765 11.9652C66.079 12.1077 66.0524 12.2493 65.9983 12.3818C65.9441 12.5143 65.8636 12.635 65.7612 12.7371C65.6589 12.8391 65.5368 12.9205 65.4019 12.9764C65.2671 13.0323 65.1222 13.0617 64.9756 13.0628C64.8299 13.0605 64.686 13.0302 64.5522 12.9738C64.4184 12.9174 64.2974 12.8359 64.196 12.7339C64.0947 12.632 64.0149 12.5116 63.9614 12.3797C63.9079 12.2478 63.8816 12.107 63.884 11.9652ZM64.9756 12.8019C65.4382 12.8019 65.8082 12.424 65.8082 11.9652C65.8082 11.5063 65.4382 11.1284 64.9756 11.1284C64.5131 11.1284 64.1431 11.5063 64.1431 11.9652C64.1431 12.424 64.5131 12.8019 64.9756 12.8019ZM64.8276 12.442H64.6056V11.4793H65.0127C65.0959 11.4793 65.1884 11.4793 65.2624 11.5333C65.3364 11.5873 65.3827 11.6773 65.3827 11.7762C65.3827 11.8842 65.3179 11.9832 65.2162 12.0192L65.3919 12.451H65.1422L64.9942 12.0641H64.8276V12.451V12.442ZM64.8276 11.9022H64.9571C65.0034 11.9022 65.0497 11.9022 65.0959 11.8842C65.1329 11.8572 65.1514 11.8122 65.1514 11.7672C65.1514 11.7313 65.1237 11.6863 65.0959 11.6773C65.0589 11.6503 64.9942 11.6593 64.9479 11.6593H64.8276V11.9022Z" fill="black"/>
</g>
<defs>
<clipPath id="clip0_2390_10244">
<rect width="58.2815" height="19.7937" fill="white" transform="translate(8.85938 4.10352)"/>
</clipPath>
</defs>
</svg>
