<svg width="464" height="571" viewBox="0 0 464 571" fill="none" xmlns="http://www.w3.org/2000/svg">
<rect width="464" height="571" rx="28" fill="black" fill-opacity="0.03"/>
<rect x="0.5" y="0.5" width="463" height="570" rx="27.5" stroke="black" stroke-opacity="0.03"/>
<rect x="443.625" y="188.625" width="20.3711" height="20.3711" fill="#097E61"/>
<rect x="255" width="20.3711" height="20.3711" fill="#097E61"/>
<path fill-rule="evenodd" clip-rule="evenodd" d="M323.68 0H268.008V12H261.008L452.008 203V193H464V140.32L323.68 0ZM464 214.992V213H462.008L464 214.992Z" fill="black" fill-opacity="0.03"/>
<g clip-path="url(#clip0_1909_62164)">
<rect width="440" height="547" transform="translate(12 12)" fill="white"/>
<path d="M36.752 55.0449V54.752H39.3789V54.9961C39.3789 55.7513 39.6198 56.3177 40.1016 56.6953C40.5833 57.0729 41.2572 57.2617 42.123 57.2617C42.9889 57.2617 43.6497 57.0794 44.1055 56.7148C44.5677 56.3503 44.7988 55.8685 44.7988 55.2695C44.7988 54.6836 44.5775 54.2246 44.1348 53.8926C43.6921 53.554 42.7806 53.1927 41.4004 52.8086C39.903 52.3919 38.793 51.8613 38.0703 51.2168C37.3477 50.5723 36.9863 49.6771 36.9863 48.5312C36.9863 47.3268 37.4388 46.3568 38.3438 45.6211C39.2487 44.8789 40.4792 44.5078 42.0352 44.5078C43.5846 44.5078 44.8249 44.8887 45.7559 45.6504C46.6868 46.4056 47.1523 47.4115 47.1523 48.668V48.9219H44.5547V48.707C44.5547 48.056 44.3431 47.5319 43.9199 47.1348C43.4967 46.7376 42.8717 46.5391 42.0449 46.5391C41.2116 46.5391 40.5996 46.7018 40.209 47.0273C39.8184 47.3529 39.623 47.7956 39.623 48.3555C39.623 48.8893 39.8346 49.3027 40.2578 49.5957C40.681 49.8887 41.5859 50.2272 42.9727 50.6113C44.444 51.028 45.554 51.5749 46.3027 52.252C47.0514 52.9225 47.4258 53.873 47.4258 55.1035C47.4258 56.3926 46.944 57.4115 45.9805 58.1602C45.0234 58.9023 43.7409 59.2734 42.1328 59.2734C40.5378 59.2734 39.2422 58.9089 38.2461 58.1797C37.25 57.444 36.752 56.3991 36.752 55.0449ZM48.2656 48.8926H50.7852L52.3965 54.8594C52.4616 55.1133 52.5137 55.3379 52.5527 55.5332C52.5983 55.7285 52.6439 55.9466 52.6895 56.1875H52.748C52.7871 55.9466 52.8262 55.7285 52.8652 55.5332C52.9043 55.3379 52.9629 55.1133 53.041 54.8594L54.877 48.8926H57.2598L59.1543 54.8594C59.2324 55.1133 59.2943 55.3411 59.3398 55.543C59.3854 55.7383 59.431 55.9564 59.4766 56.1973H59.5352C59.5742 55.9499 59.6133 55.7285 59.6523 55.5332C59.6914 55.3379 59.7402 55.1133 59.7988 54.8594L61.4004 48.8926H63.6465L60.5996 59H58.2461L56.3223 53.0332C56.2441 52.7988 56.1758 52.5612 56.1172 52.3203C56.0586 52.0729 56.0033 51.8288 55.9512 51.5879H55.9023C55.8568 51.8288 55.8014 52.0729 55.7363 52.3203C55.6777 52.5612 55.6126 52.7988 55.541 53.0332L53.6855 59H51.3125L48.2656 48.8926ZM64.5449 56.0312C64.5449 54.9505 64.9648 54.127 65.8047 53.5605C66.651 52.9876 67.7253 52.6979 69.0273 52.6914H71.1465V52.0664C71.1465 51.5586 71.0163 51.1517 70.7559 50.8457C70.4954 50.5332 70.043 50.377 69.3984 50.377C68.7539 50.377 68.2917 50.5072 68.0117 50.7676C67.7318 51.0215 67.5918 51.334 67.5918 51.7051V51.8418L65.1016 51.832V51.6953C65.1016 50.8229 65.5052 50.0905 66.3125 49.498C67.1198 48.9056 68.1842 48.6094 69.5059 48.6094C70.8275 48.6094 71.8561 48.8926 72.5918 49.459C73.3275 50.0254 73.6953 50.901 73.6953 52.0859V56.7051C73.6953 57.1152 73.7311 57.5091 73.8027 57.8867C73.8743 58.2578 73.972 58.5768 74.0957 58.8438V59H71.6055C71.5208 58.8438 71.446 58.6419 71.3809 58.3945C71.3158 58.1471 71.2702 57.903 71.2441 57.6621C71.0358 58.0592 70.6549 58.4141 70.1016 58.7266C69.5482 59.0326 68.8548 59.1855 68.0215 59.1855C67.0319 59.1855 66.2051 58.9219 65.541 58.3945C64.877 57.8607 64.5449 57.0729 64.5449 56.0312ZM67.084 55.8359C67.084 56.3242 67.224 56.7116 67.5039 56.998C67.7904 57.2845 68.2331 57.4277 68.832 57.4277C69.4635 57.4277 70.0072 57.2194 70.4629 56.8027C70.9186 56.3861 71.1465 55.9108 71.1465 55.377V54.2637H69.418C68.6367 54.2637 68.0508 54.4004 67.6602 54.6738C67.276 54.9473 67.084 55.3346 67.084 55.8359ZM76.2539 63.0918V48.8926H78.6367L78.6953 50.1035H78.7441C78.972 49.6999 79.3496 49.3646 79.877 49.0977C80.4108 48.8242 81.0098 48.6875 81.6738 48.6875C82.9629 48.6875 83.998 49.153 84.7793 50.084C85.5671 51.015 85.9609 52.2454 85.9609 53.7754V54.0879C85.9609 55.6178 85.5736 56.8516 84.7988 57.7891C84.0241 58.7266 82.9987 59.1953 81.7227 59.1953C81.0586 59.1953 80.4727 59.0814 79.9648 58.8535C79.4635 58.6257 79.0762 58.3132 78.8027 57.916V63.0918H76.2539ZM78.8027 55.748C78.9655 56.1452 79.2422 56.4967 79.6328 56.8027C80.0299 57.1087 80.502 57.2617 81.0488 57.2617C81.8366 57.2617 82.4193 56.9818 82.7969 56.4219C83.1745 55.862 83.3633 55.1198 83.3633 54.1953V53.6777C83.3633 52.7533 83.1745 52.0143 82.7969 51.4609C82.4193 50.9076 81.8333 50.6309 81.0391 50.6309C80.4792 50.6309 80.0072 50.7806 79.623 51.0801C79.2454 51.3796 78.972 51.7246 78.8027 52.1152V55.748ZM92.9727 59V44.7812H98.0605C99.5645 44.7812 100.736 45.0872 101.576 45.6992C102.423 46.3047 102.846 47.2454 102.846 48.5215C102.846 49.3092 102.66 49.957 102.289 50.4648C101.924 50.9661 101.469 51.3112 100.922 51.5V51.5391C101.592 51.7344 102.146 52.1152 102.582 52.6816C103.018 53.248 103.236 53.9967 103.236 54.9277C103.236 56.2168 102.79 57.2194 101.898 57.9355C101.007 58.6452 99.8216 59 98.3438 59H92.9727ZM95.5605 57.0859H98.2266C99.0534 57.0859 99.6589 56.8809 100.043 56.4707C100.427 56.0605 100.619 55.5039 100.619 54.8008C100.619 54.1042 100.427 53.5508 100.043 53.1406C99.6589 52.7305 99.0534 52.5254 98.2266 52.5254H95.5605V57.0859ZM95.5605 50.7285H97.9531C98.7734 50.7285 99.3626 50.5527 99.7207 50.2012C100.079 49.8431 100.258 49.3418 100.258 48.6973C100.258 48.0592 100.079 47.571 99.7207 47.2324C99.3626 46.8874 98.7734 46.7148 97.9531 46.7148H95.5605V50.7285ZM104.135 46.832V44.7812H115.316V46.832H111.049V59H108.412V46.832H104.135ZM116.283 52.3301V51.4512C116.283 49.179 116.853 47.4538 117.992 46.2754C119.132 45.097 120.6 44.5078 122.396 44.5078C124.128 44.5078 125.492 44.9668 126.488 45.8848C127.491 46.7962 127.992 47.9648 127.992 49.3906V49.6543H125.365V49.3418C125.365 48.4759 125.118 47.7956 124.623 47.3008C124.135 46.7995 123.389 46.5488 122.387 46.5488C121.371 46.5488 120.551 46.9167 119.926 47.6523C119.301 48.388 118.988 49.5632 118.988 51.1777V52.6035C118.988 54.1139 119.298 55.263 119.916 56.0508C120.535 56.8385 121.368 57.2324 122.416 57.2324C123.367 57.2324 124.079 56.9753 124.555 56.4609C125.036 55.9466 125.303 55.263 125.355 54.4102L125.365 54.1367H127.992L127.982 54.4297C127.911 55.8229 127.396 56.9785 126.439 57.8965C125.482 58.8145 124.135 59.2734 122.396 59.2734C120.58 59.2734 119.105 58.681 117.973 57.4961C116.846 56.3047 116.283 54.5827 116.283 52.3301Z" fill="#1E1E1E"/>
<rect x="396" y="36" width="32" height="32" rx="16" fill="#E2F8E3"/>
<path fill-rule="evenodd" clip-rule="evenodd" d="M409.844 49.3047C409.844 48.1138 410.809 47.1484 412 47.1484C413.191 47.1484 414.156 48.1138 414.156 49.3047C414.156 50.4956 413.191 51.461 412 51.461C410.809 51.461 409.844 50.4956 409.844 49.3047ZM412 45.6484C409.981 45.6484 408.344 47.2854 408.344 49.3047C408.344 51.324 409.981 52.961 412 52.961C414.019 52.961 415.656 51.324 415.656 49.3047C415.656 47.2854 414.019 45.6484 412 45.6484ZM408.391 57.6089C408.391 57.1351 408.679 56.6144 409.333 56.1779C409.983 55.7448 410.924 55.4526 412 55.4526C413.076 55.4526 414.017 55.7448 414.667 56.1779C415.321 56.6144 415.609 57.1351 415.609 57.6089C415.609 58.0231 415.945 58.3589 416.359 58.3589C416.774 58.3589 417.109 58.0231 417.109 57.6089C417.109 56.4775 416.422 55.5451 415.499 54.9298C414.57 54.311 413.331 53.9526 412 53.9526C410.669 53.9526 409.43 54.311 408.501 54.9298C407.578 55.5451 406.891 56.4775 406.891 57.6089C406.891 58.0231 407.226 58.3589 407.641 58.3589C408.055 58.3589 408.391 58.0231 408.391 57.6089Z" fill="#63D369"/>
<g clip-path="url(#clip1_1909_62164)">
<rect x="36" y="94" width="392" height="84" rx="8" fill="#F5F4F6"/>
<path d="M51.4727 119V115.35L48.0273 109.047H49.791L51.9238 113.094C51.9967 113.226 52.0605 113.351 52.1152 113.47C52.1745 113.584 52.2292 113.702 52.2793 113.825H52.3203C52.3659 113.702 52.4183 113.584 52.4775 113.47C52.5368 113.351 52.6006 113.226 52.6689 113.094L54.8359 109.047H56.4697L53.0518 115.309V119H51.4727ZM56.0869 115.507V115.288C56.0869 114.19 56.4059 113.301 57.0439 112.622C57.6865 111.938 58.5342 111.597 59.5869 111.597C60.6396 111.597 61.485 111.938 62.123 112.622C62.7611 113.301 63.0801 114.19 63.0801 115.288V115.507C63.0801 116.61 62.7611 117.503 62.123 118.187C61.485 118.866 60.6396 119.205 59.5869 119.205C58.5342 119.205 57.6865 118.866 57.0439 118.187C56.4059 117.503 56.0869 116.61 56.0869 115.507ZM57.6455 115.254V115.548C57.6455 116.268 57.8096 116.856 58.1377 117.312C58.4658 117.767 58.9489 117.995 59.5869 117.995C60.2204 117.995 60.7012 117.767 61.0293 117.312C61.3574 116.856 61.5215 116.268 61.5215 115.548V115.254C61.5215 114.534 61.3551 113.946 61.0225 113.49C60.6943 113.03 60.2158 112.8 59.5869 112.8C58.9535 112.8 58.4704 113.03 58.1377 113.49C57.8096 113.946 57.6455 114.534 57.6455 115.254ZM64.543 116.361V111.802H66.0674V116.396C66.0674 116.942 66.1859 117.332 66.4229 117.564C66.6644 117.792 67.0016 117.906 67.4346 117.906C67.8083 117.906 68.1387 117.804 68.4258 117.599C68.7129 117.394 68.9339 117.129 69.0889 116.806V111.802H70.6133V119H69.2051L69.1572 118.118H69.1162C68.8747 118.433 68.5671 118.681 68.1934 118.863C67.8197 119.046 67.4049 119.137 66.9492 119.137C66.2246 119.137 65.6413 118.925 65.1992 118.501C64.7617 118.073 64.543 117.359 64.543 116.361ZM75.877 120.955L76.7041 119.902C76.8955 120.112 77.1758 120.303 77.5449 120.477C77.9141 120.65 78.3265 120.736 78.7822 120.736C79.3564 120.736 79.8122 120.568 80.1494 120.23C80.4912 119.893 80.6621 119.406 80.6621 118.768V118.187C80.4661 118.478 80.1927 118.711 79.8418 118.884C79.4954 119.052 79.0785 119.137 78.5908 119.137C77.6748 119.137 76.9388 118.799 76.3828 118.125C75.8314 117.446 75.5557 116.573 75.5557 115.507V115.288C75.5557 114.226 75.8314 113.358 76.3828 112.684C76.9388 112.005 77.6748 111.665 78.5908 111.665C79.0739 111.665 79.5 111.765 79.8691 111.966C80.2428 112.166 80.5163 112.412 80.6895 112.704H80.7305L80.7783 111.802H82.1865V118.754C82.1865 119.793 81.8743 120.59 81.25 121.146C80.6257 121.702 79.8213 121.98 78.8369 121.98C78.2308 121.98 77.6725 121.882 77.1621 121.687C76.6517 121.495 76.2233 121.251 75.877 120.955ZM77.1143 115.541C77.1143 116.225 77.2624 116.794 77.5586 117.25C77.8594 117.706 78.3265 117.934 78.96 117.934C79.3792 117.934 79.7347 117.817 80.0264 117.585C80.3226 117.348 80.5345 117.079 80.6621 116.778V114.037C80.5299 113.723 80.3158 113.449 80.0195 113.217C79.7279 112.984 79.3701 112.868 78.9463 112.868C78.3219 112.868 77.8594 113.096 77.5586 113.552C77.2624 114.007 77.1143 114.577 77.1143 115.261V115.541ZM84.1826 119V111.802H85.7139V119H84.1826ZM84.0186 109.689C84.0186 109.443 84.0983 109.236 84.2578 109.067C84.4173 108.899 84.6475 108.814 84.9482 108.814C85.2445 108.814 85.4723 108.899 85.6318 109.067C85.7913 109.236 85.8711 109.443 85.8711 109.689C85.8711 109.931 85.7913 110.136 85.6318 110.305C85.4723 110.473 85.2445 110.558 84.9482 110.558C84.6475 110.558 84.4173 110.473 84.2578 110.305C84.0983 110.136 84.0186 109.931 84.0186 109.689ZM86.6982 111.802H88.2021L89.8564 116.409C89.9202 116.591 89.9704 116.76 90.0068 116.915C90.0479 117.065 90.0775 117.193 90.0957 117.298H90.1367C90.1549 117.193 90.1823 117.065 90.2188 116.915C90.2598 116.76 90.3099 116.591 90.3691 116.409L92.0098 111.802H93.4248L90.6904 119H89.4326L86.6982 111.802ZM93.8486 115.507V115.288C93.8486 114.194 94.1585 113.306 94.7783 112.622C95.3981 111.938 96.2093 111.597 97.2119 111.597C98.2145 111.597 98.9915 111.918 99.543 112.561C100.094 113.199 100.37 114.067 100.37 115.165V115.76H94.833V114.659H98.8525V114.502C98.8525 114.023 98.7135 113.618 98.4355 113.285C98.1576 112.948 97.7611 112.779 97.2461 112.779C96.6263 112.779 96.1615 113.014 95.8516 113.483C95.5417 113.948 95.3867 114.538 95.3867 115.254V115.548C95.3867 116.254 95.5508 116.842 95.8789 117.312C96.2116 117.776 96.7152 118.009 97.3896 118.009C97.8226 118.009 98.194 117.911 98.5039 117.715C98.8184 117.519 99.0736 117.289 99.2695 117.024L100.295 117.77C100.067 118.143 99.7025 118.476 99.2012 118.768C98.7044 119.059 98.1051 119.205 97.4033 119.205C96.2686 119.205 95.3913 118.863 94.7715 118.18C94.1562 117.496 93.8486 116.605 93.8486 115.507Z" fill="#828282"/>
<path d="M49.0527 151.355V144.738C49.0527 142.587 49.627 140.883 50.7754 139.625C51.9238 138.358 53.5508 137.725 55.6562 137.725C57.7526 137.725 59.3796 138.354 60.5371 139.611C61.6947 140.869 62.2734 142.578 62.2734 144.738V151.355C62.2734 153.525 61.6855 155.238 60.5098 156.496C59.3431 157.745 57.7253 158.369 55.6562 158.369C53.5508 158.36 51.9238 157.731 50.7754 156.482C49.627 155.234 49.0527 153.525 49.0527 151.355ZM52.7988 151.793C52.7988 152.941 53.0267 153.862 53.4824 154.555C53.9473 155.247 54.6719 155.594 55.6562 155.594C56.6497 155.594 57.3743 155.247 57.8301 154.555C58.2949 153.862 58.5273 152.941 58.5273 151.793V144.328C58.5273 143.171 58.2949 142.25 57.8301 141.566C57.3743 140.874 56.6497 140.527 55.6562 140.527C54.6719 140.527 53.9473 140.874 53.4824 141.566C53.0267 142.25 52.7988 143.171 52.7988 144.328V151.793ZM65.1992 156.154C65.1992 155.553 65.3906 155.047 65.7734 154.637C66.1654 154.227 66.7214 154.021 67.4414 154.021C68.1706 154.021 68.7266 154.227 69.1094 154.637C69.5013 155.047 69.6973 155.553 69.6973 156.154C69.6973 156.747 69.5013 157.253 69.1094 157.672C68.7266 158.082 68.1706 158.287 67.4414 158.287C66.7214 158.287 66.1654 158.082 65.7734 157.672C65.3906 157.253 65.1992 156.747 65.1992 156.154ZM72.6777 151.355V144.738C72.6777 142.587 73.252 140.883 74.4004 139.625C75.5488 138.358 77.1758 137.725 79.2812 137.725C81.3776 137.725 83.0046 138.354 84.1621 139.611C85.3197 140.869 85.8984 142.578 85.8984 144.738V151.355C85.8984 153.525 85.3105 155.238 84.1348 156.496C82.9681 157.745 81.3503 158.369 79.2812 158.369C77.1758 158.36 75.5488 157.731 74.4004 156.482C73.252 155.234 72.6777 153.525 72.6777 151.355ZM76.4238 151.793C76.4238 152.941 76.6517 153.862 77.1074 154.555C77.5723 155.247 78.2969 155.594 79.2812 155.594C80.2747 155.594 80.9993 155.247 81.4551 154.555C81.9199 153.862 82.1523 152.941 82.1523 151.793V144.328C82.1523 143.171 81.9199 142.25 81.4551 141.566C80.9993 140.874 80.2747 140.527 79.2812 140.527C78.2969 140.527 77.5723 140.874 77.1074 141.566C76.6517 142.25 76.4238 143.171 76.4238 144.328V151.793ZM87.9492 158V155.648L94.8398 147.965C95.6055 147.108 96.2116 146.315 96.6582 145.586C97.1048 144.848 97.3281 144.082 97.3281 143.289C97.3281 142.451 97.0866 141.781 96.6035 141.279C96.1296 140.769 95.4642 140.514 94.6074 140.514C93.7415 140.514 93.0306 140.801 92.4746 141.375C91.9186 141.94 91.6406 142.829 91.6406 144.041V144.396H87.9219V143.863C87.9219 142.04 88.5417 140.564 89.7812 139.434C91.0208 138.294 92.6341 137.725 94.6211 137.725C96.681 137.725 98.2669 138.235 99.3789 139.256C100.5 140.268 101.061 141.557 101.061 143.125C101.061 144.41 100.737 145.559 100.09 146.57C99.4427 147.582 98.6133 148.639 97.6016 149.742L92.9121 155.033H101.525V158H87.9492ZM103.084 152.695V152.326H106.748V152.654C106.748 153.611 107.021 154.345 107.568 154.855C108.124 155.357 108.89 155.607 109.865 155.607C110.859 155.607 111.633 155.275 112.189 154.609C112.755 153.935 113.037 152.923 113.037 151.574C113.037 150.234 112.755 149.255 112.189 148.635C111.624 148.015 110.877 147.705 109.947 147.705C109.245 147.705 108.635 147.846 108.115 148.129C107.596 148.411 107.149 148.785 106.775 149.25L103.754 148.17L104.766 138.094H115.717V141.074L107.664 141.047L107.158 146.037C107.568 145.736 108.074 145.486 108.676 145.285C109.286 145.076 109.961 144.971 110.699 144.971C112.404 144.971 113.835 145.522 114.992 146.625C116.159 147.728 116.742 149.332 116.742 151.438C116.742 153.589 116.127 155.284 114.896 156.523C113.675 157.754 112.007 158.369 109.893 158.369C107.732 158.369 106.055 157.85 104.861 156.811C103.676 155.762 103.084 154.391 103.084 152.695Z" fill="#181718"/>
<rect x="345" y="130" width="71" height="36" rx="6" fill="white"/>
<path d="M354.227 153V141.625H358.305C359.518 141.625 360.469 141.87 361.156 142.359C361.849 142.844 362.195 143.599 362.195 144.625C362.195 145.255 362.047 145.771 361.75 146.172C361.453 146.568 361.086 146.844 360.648 147V147.031C361.185 147.188 361.628 147.492 361.977 147.945C362.331 148.398 362.508 148.992 362.508 149.727C362.508 150.763 362.143 151.568 361.414 152.141C360.685 152.714 359.724 153 358.531 153H354.227ZM356.297 151.461H358.477C359.143 151.461 359.633 151.297 359.945 150.969C360.258 150.641 360.414 150.198 360.414 149.641C360.414 149.083 360.258 148.643 359.945 148.32C359.633 147.992 359.143 147.828 358.477 147.828H356.297V151.461ZM356.297 146.367H358.25C358.917 146.367 359.396 146.227 359.688 145.945C359.979 145.659 360.125 145.26 360.125 144.75C360.125 144.245 359.979 143.857 359.688 143.586C359.396 143.31 358.917 143.172 358.25 143.172H356.297V146.367ZM363.242 143.258V141.625H372.25V143.258H368.797V153H366.695V143.258H363.242ZM373.07 147.664V146.961C373.07 145.159 373.529 143.781 374.445 142.828C375.367 141.875 376.555 141.398 378.008 141.398C379.409 141.398 380.513 141.771 381.32 142.516C382.133 143.255 382.539 144.193 382.539 145.328V145.492H380.43V145.297C380.43 144.604 380.227 144.057 379.82 143.656C379.419 143.25 378.81 143.047 377.992 143.047C377.169 143.047 376.503 143.344 375.992 143.938C375.482 144.526 375.227 145.471 375.227 146.773V147.859C375.227 149.062 375.479 149.984 375.984 150.625C376.49 151.26 377.167 151.578 378.016 151.578C378.792 151.578 379.375 151.37 379.766 150.953C380.156 150.531 380.375 149.984 380.422 149.312L380.43 149.133H382.539L382.531 149.32C382.464 150.435 382.042 151.365 381.266 152.109C380.495 152.854 379.409 153.227 378.008 153.227C376.549 153.227 375.362 152.747 374.445 151.789C373.529 150.831 373.07 149.456 373.07 147.664Z" fill="#181718"/>
<g clip-path="url(#clip2_1909_62164)">
<rect width="20" height="20" transform="translate(388 138)" fill="#F7931A"/>
<path d="M400.509 147.641C401.121 147.335 401.478 146.825 401.427 145.908C401.325 144.685 400.254 144.277 398.929 144.124V142.442H397.909V144.073C397.655 144.073 397.349 144.073 397.094 144.073V142.391H396.074V144.073C395.87 144.073 395.616 144.073 395.412 144.073H393.984V145.194H394.749C395.157 145.194 395.31 145.449 395.361 145.653V147.59C395.412 147.59 395.412 147.59 395.463 147.59C395.412 147.59 395.412 147.59 395.361 147.59V150.292C395.361 150.445 395.259 150.649 394.953 150.649H394.188L393.984 151.872H395.31C395.565 151.872 395.819 151.872 396.023 151.872V153.605H397.043V151.923C397.349 151.923 397.604 151.923 397.859 151.923V153.605H398.878V151.872C400.611 151.77 401.835 151.362 401.988 149.731C402.14 148.508 401.529 147.896 400.509 147.641ZM397.094 145.347C397.655 145.347 399.49 145.194 399.49 146.418C399.49 147.59 397.655 147.437 397.094 147.437V145.347ZM397.043 150.7V148.406C397.757 148.406 399.949 148.202 399.949 149.578C399.949 150.853 397.757 150.7 397.043 150.7Z" fill="white"/>
</g>
<rect x="388.25" y="138.25" width="19.5" height="19.5" rx="9.75" stroke="#1B1A1C" stroke-opacity="0.08" stroke-width="0.5"/>
<rect x="36.75" y="180.75" width="390.5" height="58.5" rx="7.25" fill="#F5F4F6"/>
<rect x="36.75" y="180.75" width="390.5" height="58.5" rx="7.25" stroke="#F5F4F6" stroke-width="1.5"/>
<rect x="48.75" y="192.75" width="161.5" height="34.5" rx="5.25" fill="white"/>
<rect x="48.75" y="192.75" width="161.5" height="34.5" rx="5.25" stroke="#63D369" stroke-width="1.5"/>
<g clip-path="url(#clip3_1909_62164)">
<rect width="20" height="20" transform="translate(56 200)" fill="#F7931A"/>
<path d="M68.5092 209.641C69.1209 209.335 69.4778 208.825 69.4268 207.908C69.3249 206.685 68.2544 206.277 66.929 206.124V204.442H65.9095V206.073C65.6546 206.073 65.3488 206.073 65.0939 206.073V204.391H64.0744V206.073C63.8705 206.073 63.6156 206.073 63.4117 206.073H61.9844V207.194H62.749C63.1568 207.194 63.3097 207.449 63.3607 207.653V209.59C63.4117 209.59 63.4117 209.59 63.4627 209.59C63.4117 209.59 63.4117 209.59 63.3607 209.59V212.292C63.3607 212.445 63.2588 212.649 62.9529 212.649H62.1883L61.9844 213.872H63.3097C63.5646 213.872 63.8195 213.872 64.0234 213.872V215.605H65.0429V213.923C65.3488 213.923 65.6036 213.923 65.8585 213.923V215.605H66.878V213.872C68.6112 213.77 69.8346 213.362 69.9875 211.731C70.1405 210.508 69.5288 209.896 68.5092 209.641ZM65.0939 207.347C65.6546 207.347 67.4897 207.194 67.4897 208.418C67.4897 209.59 65.6546 209.437 65.0939 209.437V207.347ZM65.0429 212.7V210.406C65.7566 210.406 67.9485 210.202 67.9485 211.578C67.9485 212.853 65.7566 212.7 65.0429 212.7Z" fill="white"/>
</g>
<rect x="56.25" y="200.25" width="19.5" height="19.5" rx="3.75" stroke="black" stroke-opacity="0.08" stroke-width="0.5"/>
<path d="M82 209.107V207.795H86.3271V209.107H82ZM83.1416 212.977V208.506L83.1484 208.301V206.072H84.9189V212.949C84.9189 213.273 84.9805 213.498 85.1035 213.626C85.2266 213.754 85.4066 213.817 85.6436 213.817C85.7529 213.817 85.8623 213.806 85.9717 213.783C86.0856 213.756 86.1973 213.722 86.3066 213.681V214.993C86.1973 215.048 86.0446 215.096 85.8486 215.137C85.6572 215.182 85.4476 215.205 85.2197 215.205C84.5954 215.205 84.0918 215.025 83.709 214.665C83.3307 214.305 83.1416 213.742 83.1416 212.977ZM87.0244 211.507V211.288C87.0244 210.167 87.3548 209.271 88.0156 208.602C88.681 207.927 89.5514 207.59 90.627 207.59C91.707 207.59 92.5775 207.927 93.2383 208.602C93.9036 209.271 94.2363 210.167 94.2363 211.288V211.507C94.2363 212.623 93.9036 213.519 93.2383 214.193C92.5775 214.868 91.707 215.205 90.627 215.205C89.5514 215.205 88.681 214.868 88.0156 214.193C87.3548 213.519 87.0244 212.623 87.0244 211.507ZM88.8428 211.213V211.582C88.8428 212.275 88.9954 212.824 89.3008 213.229C89.6061 213.631 90.0482 213.831 90.627 213.831C91.2057 213.831 91.6478 213.631 91.9531 213.229C92.2585 212.824 92.4111 212.275 92.4111 211.582V211.213C92.4111 210.516 92.2562 209.966 91.9463 209.565C91.641 209.164 91.2012 208.964 90.627 208.964C90.0573 208.964 89.6175 209.164 89.3076 209.565C88.9977 209.966 88.8428 210.516 88.8428 211.213ZM99.2812 215V205.047H102.85C103.916 205.047 104.755 205.261 105.365 205.689C105.976 206.113 106.281 206.776 106.281 207.679C106.281 208.226 106.151 208.674 105.892 209.025C105.632 209.372 105.311 209.613 104.928 209.75V209.777C105.397 209.914 105.785 210.181 106.09 210.577C106.395 210.969 106.548 211.486 106.548 212.129C106.548 213.04 106.227 213.747 105.584 214.248C104.946 214.749 104.101 215 103.048 215H99.2812ZM101.093 213.653H103.021C103.608 213.653 104.039 213.51 104.312 213.223C104.586 212.936 104.723 212.546 104.723 212.054C104.723 211.571 104.586 211.188 104.312 210.905C104.039 210.618 103.608 210.475 103.021 210.475H101.093V213.653ZM101.093 209.183H102.822C103.406 209.183 103.825 209.06 104.08 208.813C104.34 208.567 104.47 208.223 104.47 207.781C104.47 207.339 104.34 207 104.08 206.763C103.825 206.521 103.406 206.4 102.822 206.4H101.093V209.183ZM108.147 215V207.795H109.932V215H108.147ZM107.983 205.737C107.983 205.459 108.075 205.227 108.257 205.04C108.439 204.853 108.701 204.76 109.043 204.76C109.38 204.76 109.64 204.853 109.822 205.04C110.009 205.227 110.103 205.459 110.103 205.737C110.103 206.015 110.009 206.25 109.822 206.441C109.64 206.628 109.378 206.722 109.036 206.722C108.699 206.722 108.439 206.628 108.257 206.441C108.075 206.25 107.983 206.015 107.983 205.737ZM110.902 209.107V207.795H115.229V209.107H110.902ZM112.044 212.977V208.506L112.051 208.301V206.072H113.821V212.949C113.821 213.273 113.883 213.498 114.006 213.626C114.129 213.754 114.309 213.817 114.546 213.817C114.655 213.817 114.765 213.806 114.874 213.783C114.988 213.756 115.1 213.722 115.209 213.681V214.993C115.1 215.048 114.947 215.096 114.751 215.137C114.56 215.182 114.35 215.205 114.122 215.205C113.498 215.205 112.994 215.025 112.611 214.665C112.233 214.305 112.044 213.742 112.044 212.977ZM116.063 211.507V211.288C116.063 210.167 116.385 209.271 117.027 208.602C117.67 207.927 118.531 207.59 119.611 207.59C120.628 207.59 121.402 207.85 121.936 208.369C122.469 208.889 122.747 209.495 122.77 210.188L122.776 210.276H121.047V210.208C121.047 209.857 120.928 209.559 120.691 209.312C120.459 209.062 120.097 208.937 119.604 208.937C119.026 208.937 118.593 209.148 118.306 209.572C118.023 209.992 117.882 210.538 117.882 211.213V211.582C117.882 212.252 118.021 212.799 118.299 213.223C118.581 213.646 119.014 213.858 119.598 213.858C120.122 213.858 120.493 213.731 120.712 213.476C120.935 213.216 121.047 212.917 121.047 212.58V212.519H122.776V212.587C122.776 213.275 122.503 213.883 121.956 214.412C121.414 214.941 120.632 215.205 119.611 215.205C118.531 215.205 117.67 214.868 117.027 214.193C116.385 213.519 116.063 212.623 116.063 211.507ZM123.679 211.507V211.288C123.679 210.167 124.009 209.271 124.67 208.602C125.335 207.927 126.206 207.59 127.281 207.59C128.361 207.59 129.232 207.927 129.893 208.602C130.558 209.271 130.891 210.167 130.891 211.288V211.507C130.891 212.623 130.558 213.519 129.893 214.193C129.232 214.868 128.361 215.205 127.281 215.205C126.206 215.205 125.335 214.868 124.67 214.193C124.009 213.519 123.679 212.623 123.679 211.507ZM125.497 211.213V211.582C125.497 212.275 125.65 212.824 125.955 213.229C126.26 213.631 126.702 213.831 127.281 213.831C127.86 213.831 128.302 213.631 128.607 213.229C128.913 212.824 129.065 212.275 129.065 211.582V211.213C129.065 210.516 128.91 209.966 128.601 209.565C128.295 209.164 127.855 208.964 127.281 208.964C126.712 208.964 126.272 209.164 125.962 209.565C125.652 209.966 125.497 210.516 125.497 211.213ZM132.388 215V207.795H134.172V215H132.388ZM132.224 205.737C132.224 205.459 132.315 205.227 132.497 205.04C132.679 204.853 132.941 204.76 133.283 204.76C133.62 204.76 133.88 204.853 134.062 205.04C134.249 205.227 134.343 205.459 134.343 205.737C134.343 206.015 134.249 206.25 134.062 206.441C133.88 206.628 133.618 206.722 133.276 206.722C132.939 206.722 132.679 206.628 132.497 206.441C132.315 206.25 132.224 206.015 132.224 205.737ZM136.072 215V207.795H137.74L137.788 208.643H137.829C138.039 208.346 138.328 208.107 138.697 207.925C139.066 207.743 139.474 207.651 139.921 207.651C140.659 207.651 141.256 207.861 141.712 208.28C142.168 208.695 142.396 209.417 142.396 210.447V215H140.618V210.399C140.618 209.907 140.509 209.561 140.29 209.36C140.076 209.155 139.771 209.053 139.374 209.053C139.046 209.053 138.745 209.144 138.472 209.326C138.203 209.508 137.995 209.759 137.85 210.078V215H136.072ZM147.235 212.881C147.235 212.097 147.538 211.505 148.145 211.104C148.755 210.698 149.523 210.495 150.448 210.495H151.918V210.058C151.918 209.702 151.825 209.413 151.638 209.189C151.455 208.962 151.132 208.848 150.667 208.848C150.202 208.848 149.872 208.941 149.676 209.128C149.484 209.315 149.389 209.536 149.389 209.791V209.873H147.632V209.791C147.632 209.171 147.917 208.649 148.486 208.226C149.056 207.802 149.806 207.59 150.735 207.59C151.665 207.59 152.39 207.795 152.909 208.205C153.433 208.611 153.695 209.23 153.695 210.064V213.373C153.695 213.669 153.72 213.95 153.771 214.214C153.821 214.474 153.889 214.699 153.976 214.891V215H152.239C152.18 214.891 152.128 214.749 152.082 214.576C152.036 214.403 152.007 214.232 151.993 214.063C151.843 214.341 151.574 214.59 151.187 214.809C150.799 215.027 150.309 215.137 149.717 215.137C149.02 215.137 148.432 214.948 147.953 214.569C147.475 214.187 147.235 213.624 147.235 212.881ZM149.02 212.737C149.02 213.084 149.12 213.362 149.32 213.571C149.521 213.776 149.838 213.879 150.271 213.879C150.722 213.879 151.109 213.731 151.433 213.435C151.756 213.138 151.918 212.799 151.918 212.416V211.616H150.681C150.125 211.616 149.708 211.714 149.43 211.91C149.156 212.106 149.02 212.382 149.02 212.737ZM155.165 211.507V211.288C155.165 210.222 155.45 209.351 156.02 208.677C156.589 207.998 157.334 207.658 158.255 207.658C158.724 207.658 159.128 207.743 159.465 207.911C159.802 208.075 160.064 208.294 160.251 208.567V204.521H162.028V215H160.36L160.312 214.132H160.278C160.114 214.419 159.852 214.658 159.492 214.85C159.137 215.041 158.727 215.137 158.262 215.137C157.305 215.137 156.548 214.799 155.992 214.125C155.441 213.446 155.165 212.573 155.165 211.507ZM156.983 211.575C156.983 212.213 157.122 212.74 157.4 213.154C157.678 213.564 158.102 213.77 158.672 213.77C159.059 213.77 159.387 213.665 159.656 213.455C159.925 213.241 160.123 212.993 160.251 212.71V210.085C160.128 209.798 159.934 209.549 159.67 209.34C159.406 209.13 159.073 209.025 158.672 209.025C158.107 209.025 157.683 209.233 157.4 209.647C157.122 210.058 156.983 210.582 156.983 211.22V211.575ZM163.478 211.507V211.288C163.478 210.222 163.762 209.351 164.332 208.677C164.902 207.998 165.647 207.658 166.567 207.658C167.037 207.658 167.44 207.743 167.777 207.911C168.115 208.075 168.377 208.294 168.563 208.567V204.521H170.341V215H168.673L168.625 214.132H168.591C168.427 214.419 168.165 214.658 167.805 214.85C167.449 215.041 167.039 215.137 166.574 215.137C165.617 215.137 164.861 214.799 164.305 214.125C163.753 213.446 163.478 212.573 163.478 211.507ZM165.296 211.575C165.296 212.213 165.435 212.74 165.713 213.154C165.991 213.564 166.415 213.77 166.984 213.77C167.372 213.77 167.7 213.665 167.969 213.455C168.238 213.241 168.436 212.993 168.563 212.71V210.085C168.44 209.798 168.247 209.549 167.982 209.34C167.718 209.13 167.385 209.025 166.984 209.025C166.419 209.025 165.995 209.233 165.713 209.647C165.435 210.058 165.296 210.582 165.296 211.22V211.575ZM172.193 215V207.795H173.868L173.916 208.629H173.95C174.105 208.351 174.317 208.109 174.586 207.904C174.855 207.699 175.165 207.597 175.516 207.597C175.611 207.597 175.709 207.608 175.81 207.631C175.91 207.654 175.98 207.674 176.021 207.692V209.251C175.939 209.233 175.851 209.219 175.755 209.21C175.664 209.201 175.563 209.196 175.454 209.196C175.108 209.196 174.805 209.294 174.545 209.49C174.285 209.682 174.096 209.925 173.978 210.222V215H172.193ZM176.644 211.507V211.288C176.644 210.181 176.965 209.287 177.607 208.608C178.255 207.929 179.091 207.59 180.116 207.59C181.142 207.59 181.941 207.909 182.516 208.547C183.094 209.18 183.384 210.053 183.384 211.165V211.821H177.826V210.646H181.613V210.481C181.618 210.044 181.49 209.673 181.23 209.367C180.975 209.062 180.608 208.909 180.13 208.909C179.565 208.909 179.139 209.121 178.852 209.545C178.564 209.969 178.421 210.525 178.421 211.213V211.575C178.421 212.25 178.574 212.799 178.879 213.223C179.189 213.646 179.651 213.858 180.267 213.858C180.677 213.858 181.03 213.763 181.326 213.571C181.627 213.375 181.868 213.147 182.051 212.888L183.274 213.735C183.047 214.136 182.673 214.483 182.153 214.774C181.634 215.062 181.014 215.205 180.294 215.205C179.146 215.205 178.25 214.866 177.607 214.187C176.965 213.503 176.644 212.61 176.644 211.507ZM184.313 212.778L186.07 212.785V212.867C186.07 213.232 186.196 213.501 186.446 213.674C186.701 213.847 187.043 213.934 187.472 213.934C187.905 213.934 188.237 213.852 188.47 213.688C188.702 213.519 188.818 213.298 188.818 213.024C188.818 212.751 188.709 212.548 188.49 212.416C188.271 212.279 187.768 212.124 186.979 211.951C186.159 211.773 185.544 211.509 185.134 211.158C184.724 210.807 184.519 210.342 184.519 209.764C184.519 209.107 184.783 208.581 185.312 208.185C185.845 207.788 186.56 207.59 187.458 207.59C188.356 207.59 189.074 207.793 189.611 208.198C190.154 208.604 190.425 209.158 190.425 209.859V209.921H188.682V209.825C188.682 209.529 188.581 209.297 188.381 209.128C188.18 208.955 187.87 208.868 187.451 208.868C187.036 208.868 186.733 208.941 186.542 209.087C186.355 209.233 186.262 209.422 186.262 209.654C186.262 209.887 186.376 210.071 186.604 210.208C186.836 210.34 187.349 210.493 188.142 210.666C188.957 210.839 189.566 211.101 189.967 211.452C190.372 211.799 190.575 212.284 190.575 212.908C190.575 213.61 190.313 214.168 189.789 214.583C189.265 214.998 188.495 215.205 187.479 215.205C186.467 215.205 185.685 214.998 185.134 214.583C184.587 214.164 184.313 213.583 184.313 212.84V212.778ZM191.56 212.778L193.316 212.785V212.867C193.316 213.232 193.442 213.501 193.692 213.674C193.948 213.847 194.289 213.934 194.718 213.934C195.151 213.934 195.483 213.852 195.716 213.688C195.948 213.519 196.064 213.298 196.064 213.024C196.064 212.751 195.955 212.548 195.736 212.416C195.518 212.279 195.014 212.124 194.226 211.951C193.405 211.773 192.79 211.509 192.38 211.158C191.97 210.807 191.765 210.342 191.765 209.764C191.765 209.107 192.029 208.581 192.558 208.185C193.091 207.788 193.806 207.59 194.704 207.59C195.602 207.59 196.32 207.793 196.857 208.198C197.4 208.604 197.671 209.158 197.671 209.859V209.921H195.928V209.825C195.928 209.529 195.827 209.297 195.627 209.128C195.426 208.955 195.117 208.868 194.697 208.868C194.283 208.868 193.979 208.941 193.788 209.087C193.601 209.233 193.508 209.422 193.508 209.654C193.508 209.887 193.622 210.071 193.85 210.208C194.082 210.34 194.595 210.493 195.388 210.666C196.203 210.839 196.812 211.101 197.213 211.452C197.618 211.799 197.821 212.284 197.821 212.908C197.821 213.61 197.559 214.168 197.035 214.583C196.511 214.998 195.741 215.205 194.725 215.205C193.713 215.205 192.931 214.998 192.38 214.583C191.833 214.164 191.56 213.583 191.56 212.84V212.778Z" fill="#1E1E1E"/>
<g clip-path="url(#clip4_1909_62164)">
<rect x="200" y="195" width="8" height="8" rx="4" fill="#63D369"/>
<path fill-rule="evenodd" clip-rule="evenodd" d="M206.036 197.584C206.231 197.779 206.231 198.096 206.036 198.291L203.914 200.412C203.82 200.506 203.693 200.559 203.561 200.559C203.428 200.559 203.301 200.506 203.207 200.412L202.146 199.352C201.951 199.156 201.951 198.84 202.146 198.645C202.342 198.449 202.658 198.449 202.854 198.645L203.561 199.352L205.328 197.584C205.524 197.389 205.84 197.389 206.036 197.584Z" fill="white"/>
</g>
</g>
<rect x="36" y="256" width="16" height="16" rx="8" fill="#F5F4F6"/>
<path fill-rule="evenodd" clip-rule="evenodd" d="M44.5331 266.52C44.2402 266.813 43.7654 266.813 43.4725 266.52L40.2409 263.288C39.948 262.995 39.948 262.52 40.2409 262.227C40.5338 261.935 41.0087 261.935 41.3016 262.227L44.0028 264.929L46.704 262.227C46.9969 261.935 47.4718 261.935 47.7647 262.227C48.0576 262.52 48.0576 262.995 47.7647 263.288L44.5331 266.52Z" fill="#8B8A8C"/>
<path d="M56.7178 264.338V263.709C56.7178 262.141 57.1211 260.938 57.9277 260.1C58.7389 259.261 59.7826 258.842 61.0586 258.842C62.2891 258.842 63.2598 259.17 63.9707 259.826C64.6862 260.478 65.0439 261.298 65.0439 262.287V262.424H63.1982V262.273C63.1982 261.663 63.0205 261.18 62.665 260.824C62.3096 260.469 61.7695 260.291 61.0449 260.291C60.3203 260.291 59.7301 260.551 59.2744 261.07C58.8232 261.585 58.5977 262.415 58.5977 263.559V264.488C58.5977 265.546 58.821 266.354 59.2676 266.915C59.7142 267.476 60.3112 267.756 61.0586 267.756C61.7467 267.756 62.264 267.571 62.6104 267.202C62.9567 266.833 63.1504 266.354 63.1914 265.767L63.1982 265.63H65.0439L65.0371 265.767C64.9779 266.746 64.6064 267.564 63.9229 268.221C63.2438 268.877 62.2891 269.205 61.0586 269.205C59.778 269.205 58.7344 268.784 57.9277 267.94C57.1211 267.097 56.7178 265.896 56.7178 264.338ZM66.042 266.881C66.042 266.097 66.3451 265.505 66.9512 265.104C67.5618 264.698 68.3298 264.495 69.2549 264.495H70.7246V264.058C70.7246 263.702 70.6312 263.413 70.4443 263.189C70.262 262.962 69.9385 262.848 69.4736 262.848C69.0088 262.848 68.6784 262.941 68.4824 263.128C68.291 263.315 68.1953 263.536 68.1953 263.791V263.873H66.4385V263.791C66.4385 263.171 66.7233 262.649 67.293 262.226C67.8626 261.802 68.6123 261.59 69.542 261.59C70.4717 261.59 71.1963 261.795 71.7158 262.205C72.2399 262.611 72.502 263.23 72.502 264.064V267.373C72.502 267.669 72.527 267.95 72.5771 268.214C72.6273 268.474 72.6956 268.699 72.7822 268.891V269H71.0459C70.9867 268.891 70.9342 268.749 70.8887 268.576C70.8431 268.403 70.8135 268.232 70.7998 268.063C70.6494 268.341 70.3805 268.59 69.9932 268.809C69.6058 269.027 69.1159 269.137 68.5234 269.137C67.8262 269.137 67.2383 268.948 66.7598 268.569C66.2812 268.187 66.042 267.624 66.042 266.881ZM67.8262 266.737C67.8262 267.084 67.9264 267.362 68.127 267.571C68.3275 267.776 68.6442 267.879 69.0771 267.879C69.5283 267.879 69.9157 267.731 70.2393 267.435C70.5628 267.138 70.7246 266.799 70.7246 266.416V265.616H69.4873C68.9313 265.616 68.5143 265.714 68.2363 265.91C67.9629 266.106 67.8262 266.382 67.8262 266.737ZM74.4023 269V258.521H76.1865V269H74.4023ZM77.6768 265.507V265.288C77.6768 264.167 77.998 263.271 78.6406 262.602C79.2832 261.927 80.1445 261.59 81.2246 261.59C82.2409 261.59 83.0156 261.85 83.5488 262.369C84.082 262.889 84.36 263.495 84.3828 264.188L84.3896 264.276H82.6602V264.208C82.6602 263.857 82.5417 263.559 82.3047 263.312C82.0723 263.062 81.71 262.937 81.2178 262.937C80.639 262.937 80.2061 263.148 79.9189 263.572C79.6364 263.992 79.4951 264.538 79.4951 265.213V265.582C79.4951 266.252 79.6341 266.799 79.9121 267.223C80.1947 267.646 80.6276 267.858 81.2109 267.858C81.735 267.858 82.1064 267.731 82.3252 267.476C82.5485 267.216 82.6602 266.917 82.6602 266.58V266.519H84.3896V266.587C84.3896 267.275 84.1162 267.883 83.5693 268.412C83.027 268.941 82.2454 269.205 81.2246 269.205C80.1445 269.205 79.2832 268.868 78.6406 268.193C77.998 267.519 77.6768 266.623 77.6768 265.507ZM85.627 266.279V261.795H87.4043V266.327C87.4043 266.851 87.5137 267.218 87.7324 267.428C87.9557 267.637 88.2611 267.742 88.6484 267.742C88.9902 267.742 89.2933 267.646 89.5576 267.455C89.8265 267.259 90.0316 267.015 90.1729 266.724V261.795H91.9502V269H90.2822L90.2344 268.152H90.1934C89.9655 268.458 89.667 268.699 89.2979 268.877C88.9287 269.05 88.5163 269.137 88.0605 269.137C87.3405 269.137 86.7549 268.918 86.3037 268.48C85.8525 268.043 85.627 267.309 85.627 266.279ZM93.8438 269V258.521H95.6279V269H93.8438ZM97.1455 266.881C97.1455 266.097 97.4486 265.505 98.0547 265.104C98.6654 264.698 99.4333 264.495 100.358 264.495H101.828V264.058C101.828 263.702 101.735 263.413 101.548 263.189C101.366 262.962 101.042 262.848 100.577 262.848C100.112 262.848 99.7819 262.941 99.5859 263.128C99.3945 263.315 99.2988 263.536 99.2988 263.791V263.873H97.542V263.791C97.542 263.171 97.8268 262.649 98.3965 262.226C98.9661 261.802 99.7158 261.59 100.646 261.59C101.575 261.59 102.3 261.795 102.819 262.205C103.343 262.611 103.605 263.23 103.605 264.064V267.373C103.605 267.669 103.631 267.95 103.681 268.214C103.731 268.474 103.799 268.699 103.886 268.891V269H102.149C102.09 268.891 102.038 268.749 101.992 268.576C101.947 268.403 101.917 268.232 101.903 268.063C101.753 268.341 101.484 268.59 101.097 268.809C100.709 269.027 100.219 269.137 99.627 269.137C98.9297 269.137 98.3418 268.948 97.8633 268.569C97.3848 268.187 97.1455 267.624 97.1455 266.881ZM98.9297 266.737C98.9297 267.084 99.0299 267.362 99.2305 267.571C99.431 267.776 99.7477 267.879 100.181 267.879C100.632 267.879 101.019 267.731 101.343 267.435C101.666 267.138 101.828 266.799 101.828 266.416V265.616H100.591C100.035 265.616 99.6178 265.714 99.3398 265.91C99.0664 266.106 98.9297 266.382 98.9297 266.737ZM104.549 263.107V261.795H108.876V263.107H104.549ZM105.69 266.977V262.506L105.697 262.301V260.072H107.468V266.949C107.468 267.273 107.529 267.498 107.652 267.626C107.775 267.754 107.955 267.817 108.192 267.817C108.302 267.817 108.411 267.806 108.521 267.783C108.634 267.756 108.746 267.722 108.855 267.681V268.993C108.746 269.048 108.593 269.096 108.397 269.137C108.206 269.182 107.996 269.205 107.769 269.205C107.144 269.205 106.641 269.025 106.258 268.665C105.88 268.305 105.69 267.742 105.69 266.977ZM110.147 269V261.795H111.932V269H110.147ZM109.983 259.737C109.983 259.459 110.075 259.227 110.257 259.04C110.439 258.853 110.701 258.76 111.043 258.76C111.38 258.76 111.64 258.853 111.822 259.04C112.009 259.227 112.103 259.459 112.103 259.737C112.103 260.015 112.009 260.25 111.822 260.441C111.64 260.628 111.378 260.722 111.036 260.722C110.699 260.722 110.439 260.628 110.257 260.441C110.075 260.25 109.983 260.015 109.983 259.737ZM113.429 265.507V265.288C113.429 264.167 113.759 263.271 114.42 262.602C115.085 261.927 115.956 261.59 117.031 261.59C118.111 261.59 118.982 261.927 119.643 262.602C120.308 263.271 120.641 264.167 120.641 265.288V265.507C120.641 266.623 120.308 267.519 119.643 268.193C118.982 268.868 118.111 269.205 117.031 269.205C115.956 269.205 115.085 268.868 114.42 268.193C113.759 267.519 113.429 266.623 113.429 265.507ZM115.247 265.213V265.582C115.247 266.275 115.4 266.824 115.705 267.229C116.01 267.631 116.452 267.831 117.031 267.831C117.61 267.831 118.052 267.631 118.357 267.229C118.663 266.824 118.815 266.275 118.815 265.582V265.213C118.815 264.516 118.66 263.966 118.351 263.565C118.045 263.164 117.605 262.964 117.031 262.964C116.462 262.964 116.022 263.164 115.712 263.565C115.402 263.966 115.247 264.516 115.247 265.213ZM122.104 269V261.795H123.771L123.819 262.643H123.86C124.07 262.346 124.359 262.107 124.729 261.925C125.098 261.743 125.506 261.651 125.952 261.651C126.69 261.651 127.287 261.861 127.743 262.28C128.199 262.695 128.427 263.417 128.427 264.447V269H126.649V264.399C126.649 263.907 126.54 263.561 126.321 263.36C126.107 263.155 125.802 263.053 125.405 263.053C125.077 263.053 124.776 263.144 124.503 263.326C124.234 263.508 124.027 263.759 123.881 264.078V269H122.104Z" fill="#8B8A8C"/>
<g clip-path="url(#clip5_1909_62164)">
<rect width="392" height="146" transform="translate(36 288)" fill="white"/>
<rect x="36" y="288" width="392" height="84" rx="8" fill="#F5F4F6"/>
<path d="M51.4727 313V309.35L48.0273 303.047H49.791L51.9238 307.094C51.9967 307.226 52.0605 307.351 52.1152 307.47C52.1745 307.584 52.2292 307.702 52.2793 307.825H52.3203C52.3659 307.702 52.4183 307.584 52.4775 307.47C52.5368 307.351 52.6006 307.226 52.6689 307.094L54.8359 303.047H56.4697L53.0518 309.309V313H51.4727ZM56.0869 309.507V309.288C56.0869 308.19 56.4059 307.301 57.0439 306.622C57.6865 305.938 58.5342 305.597 59.5869 305.597C60.6396 305.597 61.485 305.938 62.123 306.622C62.7611 307.301 63.0801 308.19 63.0801 309.288V309.507C63.0801 310.61 62.7611 311.503 62.123 312.187C61.485 312.866 60.6396 313.205 59.5869 313.205C58.5342 313.205 57.6865 312.866 57.0439 312.187C56.4059 311.503 56.0869 310.61 56.0869 309.507ZM57.6455 309.254V309.548C57.6455 310.268 57.8096 310.856 58.1377 311.312C58.4658 311.767 58.9489 311.995 59.5869 311.995C60.2204 311.995 60.7012 311.767 61.0293 311.312C61.3574 310.856 61.5215 310.268 61.5215 309.548V309.254C61.5215 308.534 61.3551 307.946 61.0225 307.49C60.6943 307.03 60.2158 306.8 59.5869 306.8C58.9535 306.8 58.4704 307.03 58.1377 307.49C57.8096 307.946 57.6455 308.534 57.6455 309.254ZM64.543 310.361V305.802H66.0674V310.396C66.0674 310.942 66.1859 311.332 66.4229 311.564C66.6644 311.792 67.0016 311.906 67.4346 311.906C67.8083 311.906 68.1387 311.804 68.4258 311.599C68.7129 311.394 68.9339 311.129 69.0889 310.806V305.802H70.6133V313H69.2051L69.1572 312.118H69.1162C68.8747 312.433 68.5671 312.681 68.1934 312.863C67.8197 313.046 67.4049 313.137 66.9492 313.137C66.2246 313.137 65.6413 312.925 65.1992 312.501C64.7617 312.073 64.543 311.359 64.543 310.361ZM75.877 314.955L76.7041 313.902C76.8955 314.112 77.1758 314.303 77.5449 314.477C77.9141 314.65 78.3265 314.736 78.7822 314.736C79.3564 314.736 79.8122 314.568 80.1494 314.23C80.4912 313.893 80.6621 313.406 80.6621 312.768V312.187C80.4661 312.478 80.1927 312.711 79.8418 312.884C79.4954 313.052 79.0785 313.137 78.5908 313.137C77.6748 313.137 76.9388 312.799 76.3828 312.125C75.8314 311.446 75.5557 310.573 75.5557 309.507V309.288C75.5557 308.226 75.8314 307.358 76.3828 306.684C76.9388 306.005 77.6748 305.665 78.5908 305.665C79.0739 305.665 79.5 305.765 79.8691 305.966C80.2428 306.166 80.5163 306.412 80.6895 306.704H80.7305L80.7783 305.802H82.1865V312.754C82.1865 313.793 81.8743 314.59 81.25 315.146C80.6257 315.702 79.8213 315.98 78.8369 315.98C78.2308 315.98 77.6725 315.882 77.1621 315.687C76.6517 315.495 76.2233 315.251 75.877 314.955ZM77.1143 309.541C77.1143 310.225 77.2624 310.794 77.5586 311.25C77.8594 311.706 78.3265 311.934 78.96 311.934C79.3792 311.934 79.7347 311.817 80.0264 311.585C80.3226 311.348 80.5345 311.079 80.6621 310.778V308.037C80.5299 307.723 80.3158 307.449 80.0195 307.217C79.7279 306.984 79.3701 306.868 78.9463 306.868C78.3219 306.868 77.8594 307.096 77.5586 307.552C77.2624 308.007 77.1143 308.577 77.1143 309.261V309.541ZM83.7178 309.507V309.288C83.7178 308.194 84.0277 307.306 84.6475 306.622C85.2673 305.938 86.0785 305.597 87.0811 305.597C88.0837 305.597 88.8607 305.918 89.4121 306.561C89.9635 307.199 90.2393 308.067 90.2393 309.165V309.76H84.7021V308.659H88.7217V308.502C88.7217 308.023 88.5827 307.618 88.3047 307.285C88.0267 306.948 87.6302 306.779 87.1152 306.779C86.4954 306.779 86.0306 307.014 85.7207 307.483C85.4108 307.948 85.2559 308.538 85.2559 309.254V309.548C85.2559 310.254 85.4199 310.842 85.748 311.312C86.0807 311.776 86.5843 312.009 87.2588 312.009C87.6917 312.009 88.0632 311.911 88.373 311.715C88.6875 311.519 88.9427 311.289 89.1387 311.024L90.1641 311.77C89.9362 312.143 89.5716 312.476 89.0703 312.768C88.5736 313.059 87.9743 313.205 87.2725 313.205C86.1377 313.205 85.2604 312.863 84.6406 312.18C84.0254 311.496 83.7178 310.605 83.7178 309.507ZM90.7383 306.943V305.802H94.9492V306.943H90.7383ZM91.9551 311.1V306.451V306.246V304.052H93.4727V311.086C93.4727 311.405 93.5365 311.633 93.6641 311.77C93.7917 311.902 93.9808 311.968 94.2314 311.968C94.3545 311.968 94.473 311.954 94.5869 311.927C94.7054 311.899 94.8239 311.863 94.9424 311.817V313C94.8285 313.055 94.6758 313.103 94.4844 313.144C94.293 313.185 94.0833 313.205 93.8555 313.205C93.2767 313.205 92.8141 313.036 92.4678 312.699C92.126 312.357 91.9551 311.824 91.9551 311.1Z" fill="#828282"/>
<path d="M51.2812 352L58.377 335.115H48.6562V332.094H62.2051V334.527L55.1504 352H51.2812ZM64.1191 346.695V346.326H67.7832V346.654C67.7832 347.611 68.0566 348.345 68.6035 348.855C69.1595 349.357 69.9251 349.607 70.9004 349.607C71.8939 349.607 72.6686 349.275 73.2246 348.609C73.7897 347.935 74.0723 346.923 74.0723 345.574C74.0723 344.234 73.7897 343.255 73.2246 342.635C72.6595 342.015 71.9121 341.705 70.9824 341.705C70.2806 341.705 69.6699 341.846 69.1504 342.129C68.6309 342.411 68.1842 342.785 67.8105 343.25L64.7891 342.17L65.8008 332.094H76.752V335.074L68.6992 335.047L68.1934 340.037C68.6035 339.736 69.1094 339.486 69.7109 339.285C70.3216 339.076 70.9961 338.971 71.7344 338.971C73.4388 338.971 74.8698 339.522 76.0273 340.625C77.194 341.728 77.7773 343.332 77.7773 345.438C77.7773 347.589 77.1621 349.284 75.9316 350.523C74.7103 351.754 73.0423 352.369 70.9277 352.369C68.7676 352.369 67.0905 351.85 65.8965 350.811C64.7116 349.762 64.1191 348.391 64.1191 346.695ZM79.6641 352V349.648L86.5547 341.965C87.3203 341.108 87.9264 340.315 88.373 339.586C88.8197 338.848 89.043 338.082 89.043 337.289C89.043 336.451 88.8014 335.781 88.3184 335.279C87.8444 334.769 87.179 334.514 86.3223 334.514C85.4564 334.514 84.7454 334.801 84.1895 335.375C83.6335 335.94 83.3555 336.829 83.3555 338.041V338.396H79.6367V337.863C79.6367 336.04 80.2565 334.564 81.4961 333.434C82.7357 332.294 84.349 331.725 86.3359 331.725C88.3958 331.725 89.9818 332.235 91.0938 333.256C92.2148 334.268 92.7754 335.557 92.7754 337.125C92.7754 338.41 92.4518 339.559 91.8047 340.57C91.1576 341.582 90.3281 342.639 89.3164 343.742L84.627 349.033H93.2402V352H79.6641ZM95.8789 350.154C95.8789 349.553 96.0703 349.047 96.4531 348.637C96.8451 348.227 97.401 348.021 98.1211 348.021C98.8503 348.021 99.4062 348.227 99.7891 348.637C100.181 349.047 100.377 349.553 100.377 350.154C100.377 350.747 100.181 351.253 99.7891 351.672C99.4062 352.082 98.8503 352.287 98.1211 352.287C97.401 352.287 96.8451 352.082 96.4531 351.672C96.0703 351.253 95.8789 350.747 95.8789 350.154ZM111.328 352V346.682L111.369 346.148V337.193H111.232L106.352 344.795H112.408L113.201 344.754H117.221V347.625H102.674V345.137L111.52 332.094H114.855V352H111.328ZM118.424 346.695V346.326H122.088V346.654C122.088 347.611 122.361 348.345 122.908 348.855C123.464 349.357 124.23 349.607 125.205 349.607C126.199 349.607 126.973 349.275 127.529 348.609C128.094 347.935 128.377 346.923 128.377 345.574C128.377 344.234 128.094 343.255 127.529 342.635C126.964 342.015 126.217 341.705 125.287 341.705C124.585 341.705 123.975 341.846 123.455 342.129C122.936 342.411 122.489 342.785 122.115 343.25L119.094 342.17L120.105 332.094H131.057V335.074L123.004 335.047L122.498 340.037C122.908 339.736 123.414 339.486 124.016 339.285C124.626 339.076 125.301 338.971 126.039 338.971C127.743 338.971 129.174 339.522 130.332 340.625C131.499 341.728 132.082 343.332 132.082 345.438C132.082 347.589 131.467 349.284 130.236 350.523C129.015 351.754 127.347 352.369 125.232 352.369C123.072 352.369 121.395 351.85 120.201 350.811C119.016 349.762 118.424 348.391 118.424 346.695Z" fill="#181718"/>
<rect x="321" y="324" width="95" height="36" rx="6" fill="white"/>
<path fill-rule="evenodd" clip-rule="evenodd" d="M333.171 343.608C332.878 343.315 332.403 343.315 332.11 343.608C331.817 343.901 331.817 344.376 332.11 344.669L334.466 347.024L334.996 347.555L335.527 347.024L337.882 344.669C338.175 344.376 338.175 343.901 337.882 343.608C337.589 343.315 337.114 343.315 336.821 343.608L334.996 345.433L333.171 343.608ZM333.171 340.399C332.878 340.692 332.403 340.692 332.11 340.399C331.817 340.106 331.817 339.631 332.11 339.338L334.466 336.983L334.996 336.452L335.527 336.983L337.882 339.338C338.175 339.631 338.175 340.106 337.882 340.399C337.589 340.692 337.114 340.692 336.821 340.399L334.996 338.574L333.171 340.399Z" fill="#8B8A8C"/>
<path d="M344.102 342.992V335.625H346.195V343.086C346.195 343.982 346.401 344.622 346.812 345.008C347.229 345.388 347.773 345.578 348.445 345.578C349.117 345.578 349.659 345.388 350.07 345.008C350.482 344.622 350.688 343.982 350.688 343.086V335.625H352.75V342.992C352.75 344.44 352.333 345.508 351.5 346.195C350.672 346.883 349.648 347.227 348.43 347.227C347.211 347.227 346.185 346.883 345.352 346.195C344.518 345.508 344.102 344.44 344.102 342.992ZM354.469 343.82V343.633H356.594V343.789C356.594 344.393 356.789 344.846 357.18 345.148C357.57 345.451 358.117 345.602 358.82 345.602C359.523 345.602 360.06 345.456 360.43 345.164C360.805 344.872 360.992 344.487 360.992 344.008C360.992 343.534 360.812 343.164 360.453 342.898C360.099 342.633 359.357 342.346 358.227 342.039C357.023 341.711 356.13 341.289 355.547 340.773C354.964 340.258 354.669 339.542 354.664 338.625C354.664 337.661 355.031 336.883 355.766 336.289C356.5 335.695 357.495 335.398 358.75 335.398C360.005 335.398 361.008 335.708 361.758 336.328C362.508 336.943 362.883 337.753 362.883 338.758V338.93H360.797V338.781C360.797 338.255 360.625 337.833 360.281 337.516C359.938 337.193 359.43 337.031 358.758 337.031C358.081 337.031 357.583 337.164 357.266 337.43C356.948 337.69 356.789 338.044 356.789 338.492C356.789 338.919 356.958 339.247 357.297 339.477C357.635 339.706 358.37 339.977 359.5 340.289C360.688 340.617 361.586 341.049 362.195 341.586C362.805 342.122 363.109 342.888 363.109 343.883C363.109 344.914 362.719 345.729 361.938 346.328C361.161 346.927 360.125 347.227 358.828 347.227C357.536 347.227 356.487 346.932 355.68 346.344C354.872 345.75 354.469 344.909 354.469 343.82ZM364.883 347V335.625H368.547C370.047 335.625 371.297 336.099 372.297 337.047C373.302 337.99 373.805 339.292 373.805 340.953V341.664C373.805 343.331 373.305 344.638 372.305 345.586C371.305 346.529 370.052 347 368.547 347H364.883ZM366.977 345.398H368.516C369.469 345.398 370.232 345.083 370.805 344.453C371.383 343.818 371.672 342.904 371.672 341.711V340.914C371.672 339.721 371.383 338.81 370.805 338.18C370.227 337.549 369.464 337.234 368.516 337.234H366.977V345.398ZM374.57 337.258V335.625H383.578V337.258H380.125V347H378.023V337.258H374.57Z" fill="#181718"/>
<g clip-path="url(#clip6_1909_62164)">
<rect width="20" height="20" transform="translate(388 332)" fill="#26A17B"/>
<path d="M398.912 342.378C398.858 342.378 398.534 342.378 397.832 342.378C397.292 342.378 396.914 342.378 396.752 342.378C394.646 342.27 393.026 341.893 393.026 341.461C393.026 341.029 394.592 340.651 396.752 340.543V342C396.914 342 397.292 342.054 397.832 342.054C398.48 342.054 398.804 342 398.858 342V340.543C400.964 340.651 402.583 341.029 402.583 341.461C402.637 341.893 401.018 342.27 398.912 342.378ZM398.912 340.381V339.085H401.882V337.141H393.836V339.085H396.806V340.381C394.376 340.489 392.594 340.975 392.594 341.515C392.594 342.054 394.376 342.54 396.806 342.648V346.86H398.966V342.702C401.342 342.594 403.177 342.108 403.177 341.569C403.123 340.975 401.342 340.489 398.912 340.381Z" fill="white"/>
</g>
<rect x="388.25" y="332.25" width="19.5" height="19.5" rx="9.75" stroke="#1B1A1C" stroke-opacity="0.08" stroke-width="0.5"/>
<rect x="36.75" y="374.75" width="390.5" height="58.5" rx="7.25" fill="#F5F4F6"/>
<rect x="36.75" y="374.75" width="390.5" height="58.5" rx="7.25" stroke="#F5F4F6" stroke-width="1.5"/>
<rect x="48" y="386" width="36" height="36" rx="6" fill="white"/>
<g clip-path="url(#clip7_1909_62164)">
<rect width="20" height="20" transform="translate(56 394)" fill="#EAF0F0"/>
<path d="M62.0938 404.867L65.9711 410.365V407.182L62.0938 404.867Z" fill="#8C8C8C"/>
<path d="M65.9688 407.182V410.365L69.904 404.867L65.9688 407.182Z" fill="#343434"/>
<path d="M65.9688 397.633V406.429L69.904 404.114L65.9688 397.633Z" fill="#343434"/>
<path d="M65.9711 397.633V406.429L62.0938 404.114L65.9711 397.633Z" fill="#8C8C8C"/>
<path d="M65.9711 402.32L62.0938 404.114L65.9711 406.429V402.32Z" fill="#393939"/>
<path d="M65.9688 402.32V406.429L69.904 404.114L65.9688 402.32Z" fill="#151515"/>
</g>
<rect x="56.25" y="394.25" width="19.5" height="19.5" rx="3.75" stroke="black" stroke-opacity="0.08" stroke-width="0.5"/>
<rect x="88.75" y="386.75" width="144.5" height="34.5" rx="5.25" fill="white"/>
<rect x="88.75" y="386.75" width="144.5" height="34.5" rx="5.25" stroke="#63D369" stroke-width="1.5"/>
<g clip-path="url(#clip8_1909_62164)">
<rect width="20" height="20" transform="translate(96 394)" fill="#E30026"/>
<path fill-rule="evenodd" clip-rule="evenodd" d="M100.625 398.344L109.036 399.945L111.451 402.11L105.065 410.027L100.625 398.344ZM102.632 400.733L104.995 406.953L105.519 403.204L102.632 400.733ZM106.521 403.44L105.991 407.236L109.473 402.92L106.521 403.44ZM109.602 401.841L107.693 402.177L108.81 401.131L109.602 401.841ZM107.704 400.751L103.253 399.903L106.051 402.298L107.704 400.751Z" fill="white"/>
</g>
<rect x="96.25" y="394.25" width="19.5" height="19.5" rx="3.75" stroke="black" stroke-opacity="0.08" stroke-width="0.5"/>
<path d="M122 403.107V401.795H126.327V403.107H122ZM123.142 406.977V402.506L123.148 402.301V400.072H124.919V406.949C124.919 407.273 124.98 407.498 125.104 407.626C125.227 407.754 125.407 407.817 125.644 407.817C125.753 407.817 125.862 407.806 125.972 407.783C126.086 407.756 126.197 407.722 126.307 407.681V408.993C126.197 409.048 126.045 409.096 125.849 409.137C125.657 409.182 125.448 409.205 125.22 409.205C124.595 409.205 124.092 409.025 123.709 408.665C123.331 408.305 123.142 407.742 123.142 406.977ZM127.024 405.507V405.288C127.024 404.167 127.355 403.271 128.016 402.602C128.681 401.927 129.551 401.59 130.627 401.59C131.707 401.59 132.577 401.927 133.238 402.602C133.904 403.271 134.236 404.167 134.236 405.288V405.507C134.236 406.623 133.904 407.519 133.238 408.193C132.577 408.868 131.707 409.205 130.627 409.205C129.551 409.205 128.681 408.868 128.016 408.193C127.355 407.519 127.024 406.623 127.024 405.507ZM128.843 405.213V405.582C128.843 406.275 128.995 406.824 129.301 407.229C129.606 407.631 130.048 407.831 130.627 407.831C131.206 407.831 131.648 407.631 131.953 407.229C132.258 406.824 132.411 406.275 132.411 405.582V405.213C132.411 404.516 132.256 403.966 131.946 403.565C131.641 403.164 131.201 402.964 130.627 402.964C130.057 402.964 129.618 403.164 129.308 403.565C128.998 403.966 128.843 404.516 128.843 405.213ZM138.071 400.469V399.047H145.987V400.469H142.952V409H141.113V400.469H138.071ZM146.227 409V401.795H147.901L147.949 402.629H147.983C148.138 402.351 148.35 402.109 148.619 401.904C148.888 401.699 149.198 401.597 149.549 401.597C149.645 401.597 149.743 401.608 149.843 401.631C149.943 401.654 150.014 401.674 150.055 401.692V403.251C149.973 403.233 149.884 403.219 149.788 403.21C149.697 403.201 149.597 403.196 149.487 403.196C149.141 403.196 148.838 403.294 148.578 403.49C148.318 403.682 148.129 403.925 148.011 404.222V409H146.227ZM150.677 405.507V405.288C150.677 404.167 151.007 403.271 151.668 402.602C152.333 401.927 153.204 401.59 154.279 401.59C155.359 401.59 156.23 401.927 156.891 402.602C157.556 403.271 157.889 404.167 157.889 405.288V405.507C157.889 406.623 157.556 407.519 156.891 408.193C156.23 408.868 155.359 409.205 154.279 409.205C153.204 409.205 152.333 408.868 151.668 408.193C151.007 407.519 150.677 406.623 150.677 405.507ZM152.495 405.213V405.582C152.495 406.275 152.648 406.824 152.953 407.229C153.258 407.631 153.701 407.831 154.279 407.831C154.858 407.831 155.3 407.631 155.605 407.229C155.911 406.824 156.063 406.275 156.063 405.582V405.213C156.063 404.516 155.909 403.966 155.599 403.565C155.293 403.164 154.854 402.964 154.279 402.964C153.71 402.964 153.27 403.164 152.96 403.565C152.65 403.966 152.495 404.516 152.495 405.213ZM159.352 409V401.795H161.02L161.067 402.643H161.108C161.318 402.346 161.607 402.107 161.977 401.925C162.346 401.743 162.754 401.651 163.2 401.651C163.938 401.651 164.535 401.861 164.991 402.28C165.447 402.695 165.675 403.417 165.675 404.447V409H163.897V404.399C163.897 403.907 163.788 403.561 163.569 403.36C163.355 403.155 163.05 403.053 162.653 403.053C162.325 403.053 162.024 403.144 161.751 403.326C161.482 403.508 161.275 403.759 161.129 404.078V409H159.352ZM170.515 406.881C170.515 406.097 170.818 405.505 171.424 405.104C172.035 404.698 172.802 404.495 173.728 404.495H175.197V404.058C175.197 403.702 175.104 403.413 174.917 403.189C174.735 402.962 174.411 402.848 173.946 402.848C173.481 402.848 173.151 402.941 172.955 403.128C172.764 403.315 172.668 403.536 172.668 403.791V403.873H170.911V403.791C170.911 403.171 171.196 402.649 171.766 402.226C172.335 401.802 173.085 401.59 174.015 401.59C174.944 401.59 175.669 401.795 176.188 402.205C176.713 402.611 176.975 403.23 176.975 404.064V407.373C176.975 407.669 177 407.95 177.05 408.214C177.1 408.474 177.168 408.699 177.255 408.891V409H175.519C175.459 408.891 175.407 408.749 175.361 408.576C175.316 408.403 175.286 408.232 175.272 408.063C175.122 408.341 174.853 408.59 174.466 408.809C174.078 409.027 173.589 409.137 172.996 409.137C172.299 409.137 171.711 408.948 171.232 408.569C170.754 408.187 170.515 407.624 170.515 406.881ZM172.299 406.737C172.299 407.084 172.399 407.362 172.6 407.571C172.8 407.776 173.117 407.879 173.55 407.879C174.001 407.879 174.388 407.731 174.712 407.435C175.035 407.138 175.197 406.799 175.197 406.416V405.616H173.96C173.404 405.616 172.987 405.714 172.709 405.91C172.436 406.106 172.299 406.382 172.299 406.737ZM178.444 405.507V405.288C178.444 404.222 178.729 403.351 179.299 402.677C179.868 401.998 180.614 401.658 181.534 401.658C182.004 401.658 182.407 401.743 182.744 401.911C183.081 402.075 183.343 402.294 183.53 402.567V398.521H185.308V409H183.64L183.592 408.132H183.558C183.394 408.419 183.132 408.658 182.771 408.85C182.416 409.041 182.006 409.137 181.541 409.137C180.584 409.137 179.827 408.799 179.271 408.125C178.72 407.446 178.444 406.573 178.444 405.507ZM180.263 405.575C180.263 406.213 180.402 406.74 180.68 407.154C180.958 407.564 181.382 407.77 181.951 407.77C182.339 407.77 182.667 407.665 182.936 407.455C183.204 407.241 183.403 406.993 183.53 406.71V404.085C183.407 403.798 183.214 403.549 182.949 403.34C182.685 403.13 182.352 403.025 181.951 403.025C181.386 403.025 180.962 403.233 180.68 403.647C180.402 404.058 180.263 404.582 180.263 405.22V405.575ZM186.757 405.507V405.288C186.757 404.222 187.042 403.351 187.611 402.677C188.181 401.998 188.926 401.658 189.847 401.658C190.316 401.658 190.719 401.743 191.057 401.911C191.394 402.075 191.656 402.294 191.843 402.567V398.521H193.62V409H191.952L191.904 408.132H191.87C191.706 408.419 191.444 408.658 191.084 408.85C190.729 409.041 190.318 409.137 189.854 409.137C188.896 409.137 188.14 408.799 187.584 408.125C187.033 407.446 186.757 406.573 186.757 405.507ZM188.575 405.575C188.575 406.213 188.714 406.74 188.992 407.154C189.27 407.564 189.694 407.77 190.264 407.77C190.651 407.77 190.979 407.665 191.248 407.455C191.517 407.241 191.715 406.993 191.843 406.71V404.085C191.72 403.798 191.526 403.549 191.262 403.34C190.997 403.13 190.665 403.025 190.264 403.025C189.699 403.025 189.275 403.233 188.992 403.647C188.714 404.058 188.575 404.582 188.575 405.22V405.575ZM195.473 409V401.795H197.147L197.195 402.629H197.229C197.384 402.351 197.596 402.109 197.865 401.904C198.134 401.699 198.444 401.597 198.795 401.597C198.891 401.597 198.989 401.608 199.089 401.631C199.189 401.654 199.26 401.674 199.301 401.692V403.251C199.219 403.233 199.13 403.219 199.034 403.21C198.943 403.201 198.843 403.196 198.733 403.196C198.387 403.196 198.084 403.294 197.824 403.49C197.564 403.682 197.375 403.925 197.257 404.222V409H195.473ZM199.923 405.507V405.288C199.923 404.181 200.244 403.287 200.887 402.608C201.534 401.929 202.37 401.59 203.396 401.59C204.421 401.59 205.221 401.909 205.795 402.547C206.374 403.18 206.663 404.053 206.663 405.165V405.821H201.105V404.646H204.893V404.481C204.897 404.044 204.77 403.673 204.51 403.367C204.255 403.062 203.888 402.909 203.409 402.909C202.844 402.909 202.418 403.121 202.131 403.545C201.844 403.969 201.7 404.525 201.7 405.213V405.575C201.7 406.25 201.853 406.799 202.158 407.223C202.468 407.646 202.931 407.858 203.546 407.858C203.956 407.858 204.309 407.763 204.605 407.571C204.906 407.375 205.148 407.147 205.33 406.888L206.554 407.735C206.326 408.136 205.952 408.483 205.433 408.774C204.913 409.062 204.293 409.205 203.573 409.205C202.425 409.205 201.529 408.866 200.887 408.187C200.244 407.503 199.923 406.61 199.923 405.507ZM207.593 406.778L209.35 406.785V406.867C209.35 407.232 209.475 407.501 209.726 407.674C209.981 407.847 210.323 407.934 210.751 407.934C211.184 407.934 211.517 407.852 211.749 407.688C211.981 407.519 212.098 407.298 212.098 407.024C212.098 406.751 211.988 406.548 211.77 406.416C211.551 406.279 211.047 406.124 210.259 405.951C209.438 405.773 208.823 405.509 208.413 405.158C208.003 404.807 207.798 404.342 207.798 403.764C207.798 403.107 208.062 402.581 208.591 402.185C209.124 401.788 209.84 401.59 210.737 401.59C211.635 401.59 212.353 401.793 212.891 402.198C213.433 402.604 213.704 403.158 213.704 403.859V403.921H211.961V403.825C211.961 403.529 211.861 403.297 211.66 403.128C211.46 402.955 211.15 402.868 210.73 402.868C210.316 402.868 210.013 402.941 209.821 403.087C209.634 403.233 209.541 403.422 209.541 403.654C209.541 403.887 209.655 404.071 209.883 404.208C210.115 404.34 210.628 404.493 211.421 404.666C212.237 404.839 212.845 405.101 213.246 405.452C213.652 405.799 213.854 406.284 213.854 406.908C213.854 407.61 213.592 408.168 213.068 408.583C212.544 408.998 211.774 409.205 210.758 409.205C209.746 409.205 208.965 408.998 208.413 408.583C207.866 408.164 207.593 407.583 207.593 406.84V406.778ZM214.839 406.778L216.596 406.785V406.867C216.596 407.232 216.721 407.501 216.972 407.674C217.227 407.847 217.569 407.934 217.997 407.934C218.43 407.934 218.763 407.852 218.995 407.688C219.228 407.519 219.344 407.298 219.344 407.024C219.344 406.751 219.234 406.548 219.016 406.416C218.797 406.279 218.293 406.124 217.505 405.951C216.685 405.773 216.069 405.509 215.659 405.158C215.249 404.807 215.044 404.342 215.044 403.764C215.044 403.107 215.308 402.581 215.837 402.185C216.37 401.788 217.086 401.59 217.983 401.59C218.881 401.59 219.599 401.793 220.137 402.198C220.679 402.604 220.95 403.158 220.95 403.859V403.921H219.207V403.825C219.207 403.529 219.107 403.297 218.906 403.128C218.706 402.955 218.396 402.868 217.977 402.868C217.562 402.868 217.259 402.941 217.067 403.087C216.881 403.233 216.787 403.422 216.787 403.654C216.787 403.887 216.901 404.071 217.129 404.208C217.361 404.34 217.874 404.493 218.667 404.666C219.483 404.839 220.091 405.101 220.492 405.452C220.898 405.799 221.101 406.284 221.101 406.908C221.101 407.61 220.839 408.168 220.314 408.583C219.79 408.998 219.02 409.205 218.004 409.205C216.992 409.205 216.211 408.998 215.659 408.583C215.112 408.164 214.839 407.583 214.839 406.84V406.778Z" fill="#1E1E1E"/>
<g clip-path="url(#clip9_1909_62164)">
<rect x="223" y="389" width="8" height="8" rx="4" fill="#63D369"/>
<path fill-rule="evenodd" clip-rule="evenodd" d="M229.036 391.584C229.231 391.779 229.231 392.096 229.036 392.291L226.914 394.412C226.82 394.506 226.693 394.559 226.561 394.559C226.428 394.559 226.301 394.506 226.207 394.412L225.146 393.352C224.951 393.156 224.951 392.84 225.146 392.645C225.342 392.449 225.658 392.449 225.854 392.645L226.561 393.352L228.328 391.584C228.524 391.389 228.84 391.389 229.036 391.584Z" fill="white"/>
</g>
</g>
<rect width="392" height="52" transform="translate(36 458)" fill="white"/>
<g clip-path="url(#clip10_1909_62164)">
<rect x="36" y="458" width="392" height="52" rx="8" fill="black"/>
<path d="M200.344 483.672V482.953C200.344 481.177 200.797 479.807 201.703 478.844C202.609 477.88 203.76 477.398 205.156 477.398C206.531 477.398 207.612 477.768 208.398 478.508C209.185 479.247 209.578 480.164 209.578 481.258V481.383H207.781V481.242C207.781 480.529 207.562 479.953 207.125 479.516C206.693 479.073 206.036 478.852 205.156 478.852C204.276 478.852 203.557 479.177 203 479.828C202.443 480.474 202.164 481.484 202.164 482.859V483.766C202.164 485.042 202.44 486.029 202.992 486.727C203.544 487.424 204.268 487.773 205.164 487.773C205.997 487.773 206.625 487.549 207.047 487.102C207.474 486.648 207.719 486.073 207.781 485.375V485.242H209.578L209.57 485.383C209.487 486.461 209.073 487.372 208.328 488.117C207.589 488.857 206.531 489.227 205.156 489.227C203.755 489.227 202.602 488.745 201.695 487.781C200.794 486.812 200.344 485.443 200.344 483.672ZM210.781 485.031V484.781C210.781 483.531 211.143 482.521 211.867 481.75C212.591 480.974 213.552 480.586 214.75 480.586C215.948 480.586 216.909 480.974 217.633 481.75C218.362 482.521 218.727 483.531 218.727 484.781V485.031C218.727 486.286 218.362 487.302 217.633 488.078C216.909 488.849 215.948 489.234 214.75 489.234C213.552 489.234 212.591 488.849 211.867 488.078C211.143 487.302 210.781 486.286 210.781 485.031ZM212.547 484.742V485.078C212.547 485.896 212.732 486.565 213.102 487.086C213.477 487.607 214.026 487.867 214.75 487.867C215.474 487.867 216.023 487.607 216.398 487.086C216.773 486.565 216.961 485.896 216.961 485.078V484.742C216.961 483.924 216.773 483.258 216.398 482.742C216.023 482.221 215.474 481.961 214.75 481.961C214.031 481.961 213.484 482.221 213.109 482.742C212.734 483.258 212.547 483.924 212.547 484.742ZM220.453 489V480.82H222.055L222.109 481.836H222.156C222.422 481.477 222.768 481.193 223.195 480.984C223.622 480.771 224.094 480.664 224.609 480.664C225.438 480.664 226.102 480.901 226.602 481.375C227.107 481.844 227.359 482.641 227.359 483.766V489H225.625V483.742C225.625 483.138 225.49 482.708 225.219 482.453C224.953 482.193 224.573 482.062 224.078 482.062C223.661 482.062 223.286 482.177 222.953 482.406C222.62 482.635 222.365 482.938 222.188 483.312V489H220.453ZM228.375 482.117V480.82H233.172V482.117H228.375ZM229.758 486.836V481.547V481.32V478.789H231.484V486.805C231.484 487.185 231.555 487.451 231.695 487.602C231.841 487.753 232.06 487.828 232.352 487.828C232.492 487.828 232.628 487.812 232.758 487.781C232.893 487.75 233.026 487.711 233.156 487.664V489C233.026 489.057 232.852 489.109 232.633 489.156C232.414 489.203 232.174 489.227 231.914 489.227C231.263 489.227 230.74 489.036 230.344 488.656C229.953 488.271 229.758 487.664 229.758 486.836ZM234.68 489V480.82H236.414V489H234.68ZM234.5 478.391C234.5 478.115 234.589 477.883 234.766 477.695C234.948 477.503 235.208 477.406 235.547 477.406C235.885 477.406 236.146 477.503 236.328 477.695C236.51 477.883 236.602 478.115 236.602 478.391C236.602 478.672 236.51 478.909 236.328 479.102C236.146 479.289 235.885 479.383 235.547 479.383C235.208 479.383 234.948 479.289 234.766 479.102C234.589 478.909 234.5 478.672 234.5 478.391ZM238.656 489V480.82H240.258L240.312 481.836H240.359C240.625 481.477 240.971 481.193 241.398 480.984C241.826 480.771 242.297 480.664 242.812 480.664C243.641 480.664 244.305 480.901 244.805 481.375C245.31 481.844 245.562 482.641 245.562 483.766V489H243.828V483.742C243.828 483.138 243.693 482.708 243.422 482.453C243.156 482.193 242.776 482.062 242.281 482.062C241.865 482.062 241.49 482.177 241.156 482.406C240.823 482.635 240.568 482.938 240.391 483.312V489H238.656ZM247.594 486.016V480.82H249.328V486.047C249.328 486.672 249.464 487.115 249.734 487.375C250.005 487.635 250.385 487.766 250.875 487.766C251.302 487.766 251.68 487.648 252.008 487.414C252.336 487.174 252.589 486.872 252.766 486.508V480.82H254.5V489H252.898L252.844 487.984H252.797C252.521 488.349 252.169 488.635 251.742 488.844C251.32 489.052 250.849 489.156 250.328 489.156C249.505 489.156 248.844 488.917 248.344 488.438C247.844 487.953 247.594 487.146 247.594 486.016ZM256.219 485.031V484.781C256.219 483.542 256.57 482.534 257.273 481.758C257.977 480.977 258.898 480.586 260.039 480.586C261.18 480.586 262.062 480.951 262.688 481.68C263.312 482.404 263.625 483.393 263.625 484.648V485.312H257.32V484.07H261.898V483.891C261.904 483.349 261.747 482.888 261.43 482.508C261.117 482.122 260.664 481.93 260.07 481.93C259.367 481.93 258.839 482.195 258.484 482.727C258.135 483.258 257.961 483.93 257.961 484.742V485.07C257.961 485.883 258.148 486.555 258.523 487.086C258.898 487.617 259.469 487.883 260.234 487.883C260.729 487.883 261.154 487.771 261.508 487.547C261.862 487.323 262.148 487.06 262.367 486.758L263.539 487.594C263.279 488.021 262.865 488.401 262.297 488.734C261.734 489.068 261.052 489.234 260.25 489.234C258.964 489.234 257.969 488.846 257.266 488.07C256.568 487.289 256.219 486.276 256.219 485.031Z" fill="white"/>
</g>
</g>
<path fill-rule="evenodd" clip-rule="evenodd" d="M452 209L255 12H329.672L452 134.328V209Z" fill="black" fill-opacity="0.03"/>
<path fill-rule="evenodd" clip-rule="evenodd" d="M464 209L255 0H329.672L464 134.328V209Z" fill="#48B74D"/>
<path d="M314.377 30.0952L321.809 18.0863L323.865 20.1421L318.815 28.0394C318.704 28.2123 318.609 28.3521 318.529 28.4585C318.453 28.5605 318.349 28.6914 318.216 28.851L318.269 28.9043C318.434 28.7756 318.567 28.6736 318.669 28.5982C318.775 28.5184 318.915 28.423 319.088 28.3121L327.125 23.4021L329.367 25.6442L324.49 33.7012C324.384 33.8786 324.288 34.0183 324.204 34.1203C324.124 34.2268 324.02 34.3621 323.891 34.5262L323.945 34.5794C324.104 34.4463 324.237 34.3399 324.344 34.26C324.455 34.1846 324.594 34.0893 324.763 33.974L332.6 28.8777L334.43 30.7073L322.468 38.1854L320.192 35.91L325.036 27.7932C325.147 27.6202 325.251 27.4628 325.348 27.3208C325.446 27.1789 325.561 27.0281 325.694 26.8684L325.641 26.8152C325.481 26.9482 325.331 27.0636 325.189 27.1611C325.051 27.2632 324.894 27.3674 324.716 27.4738L316.606 32.324L314.377 30.0952ZM328.515 37.4602L328.728 37.2473C329.797 36.1784 330.979 35.6439 332.274 35.6439C333.569 35.6439 334.727 36.154 335.747 37.1741C336.772 38.1987 337.266 39.3053 337.231 40.494C337.204 41.6827 336.656 42.8115 335.588 43.8805L334.889 44.579L329.473 39.1634L330.691 37.9459L334.117 41.3722L334.257 41.2325C334.634 40.8644 334.838 40.4386 334.869 39.9551C334.904 39.4761 334.714 39.0281 334.297 38.6112C333.818 38.1322 333.274 37.9481 332.667 38.059C332.064 38.1654 331.46 38.5203 330.857 39.1235L330.425 39.5559C329.817 40.1636 329.467 40.7801 329.373 41.4055C329.289 42.0309 329.509 42.6053 330.032 43.1287C330.396 43.4924 330.797 43.7164 331.236 43.8006C331.68 43.8893 332.103 43.896 332.507 43.8206L333.093 46.1359C332.436 46.3576 331.704 46.3488 330.897 46.1093C330.094 45.8653 329.325 45.3752 328.588 44.6389C327.457 43.5079 326.894 42.297 326.899 41.0063C326.903 39.7156 327.442 38.5336 328.515 37.4602ZM342.607 44.446L344.616 46.4552L341.802 51.2921C341.673 51.5094 341.551 51.7023 341.436 51.8709C341.325 52.0439 341.201 52.2257 341.063 52.4164L341.103 52.4564C341.289 52.3144 341.464 52.1836 341.629 52.0638C341.797 51.9485 341.992 51.8287 342.214 51.7045L347.171 49.01L349.093 50.9328L346.432 55.9359C346.312 56.1621 346.195 56.3595 346.08 56.5281C345.969 56.7011 345.847 56.8851 345.714 57.0803L345.747 57.1135C345.938 56.976 346.117 56.8496 346.286 56.7343C346.454 56.619 346.645 56.4948 346.858 56.3617L351.701 53.5408L353.458 55.2972L344.483 60.1341L342.553 58.2047L345.181 53.1549C345.292 52.9465 345.41 52.7402 345.534 52.5362C345.667 52.3322 345.8 52.137 345.933 51.9507L345.9 51.9175C345.714 52.0505 345.516 52.1814 345.308 52.31C345.104 52.4342 344.9 52.5539 344.696 52.6693L339.712 55.3638L337.77 53.4211L342.607 44.446ZM347.51 63.1612L354.416 56.2553L356.438 58.2778L349.532 65.1838L347.51 63.1612ZM356.226 54.113C356.527 53.8114 356.882 53.6606 357.29 53.6606C357.703 53.6561 358.097 53.8424 358.474 54.2194C358.851 54.5964 359.035 54.989 359.027 55.397C359.027 55.8051 358.876 56.1599 358.574 56.4615C358.268 56.7676 357.909 56.9228 357.496 56.9273C357.088 56.9361 356.693 56.7498 356.312 56.3684C355.935 55.9914 355.749 55.5966 355.753 55.1841C355.762 54.7761 355.919 54.419 356.226 54.113ZM351.222 66.8737L361.348 56.7476L363.371 58.7702L353.245 68.8962L351.222 66.8737ZM354.922 70.5728L365.048 60.4468L367.07 62.4693L356.944 72.5954L354.922 70.5728ZM361.934 77.5852L372.06 67.4592L374.083 69.4817L363.956 79.6078L361.934 77.5852ZM367.31 78.9026C368.073 78.1397 368.942 77.8602 369.918 78.0643C370.898 78.2639 371.843 78.8139 372.752 79.7142L374.129 81.0914L374.522 80.6989C374.828 80.3929 374.996 80.0646 375.027 79.7142C375.063 79.3683 374.881 78.9957 374.482 78.5965C374.087 78.2018 373.725 78 373.397 77.9911C373.073 77.9778 372.796 78.0864 372.566 78.3171L372.459 78.4235L370.497 76.4609L370.603 76.3544C371.228 75.729 372.033 75.505 373.018 75.6824C374.012 75.8599 374.976 76.4165 375.912 77.3524C376.857 78.2971 377.396 79.2263 377.529 80.14C377.671 81.0537 377.334 81.9186 376.518 82.7348L373.351 85.9017C373.071 86.1811 372.83 86.4716 372.626 86.7732C372.426 87.0793 372.28 87.3631 372.186 87.6248L372.08 87.7313L370.104 85.7553C370.153 85.6 370.237 85.4182 370.357 85.2097C370.481 85.0057 370.616 84.8172 370.763 84.6442C370.363 84.7684 369.867 84.7418 369.272 84.5644C368.687 84.387 368.11 84.0144 367.543 83.4466C366.859 82.7636 366.469 82.014 366.372 81.1979C366.278 80.3862 366.591 79.6211 367.31 78.9026ZM369.492 80.7388C369.19 81.0404 369.035 81.3687 369.026 81.7235C369.022 82.0828 369.206 82.4487 369.578 82.8213C369.982 83.2249 370.446 83.4311 370.969 83.44C371.497 83.4533 371.938 83.2825 372.293 82.9277L372.938 82.2824L371.887 81.2312C371.399 80.7433 370.953 80.4616 370.55 80.3862C370.155 80.3108 369.802 80.4283 369.492 80.7388ZM376.072 86.4272L380.33 82.1692L382.346 84.1851L378.074 88.4565C377.609 88.9222 377.378 89.3391 377.382 89.7072C377.391 90.0798 377.56 90.4302 377.888 90.7584C378.181 91.0512 378.529 91.2264 378.933 91.284C379.336 91.3417 379.724 91.2996 380.097 91.1576L384.708 86.547L386.723 88.5629L379.818 95.4689L377.895 93.5461L378.653 92.7078L378.62 92.6745C378.132 92.7632 377.626 92.7145 377.103 92.5282C376.58 92.3419 376.092 92.0225 375.639 91.5701C374.952 90.8826 374.599 90.1042 374.582 89.2349C374.573 88.3655 375.069 87.4297 376.072 86.4272ZM381.468 97.1188L388.373 90.2129L390.296 92.1356L389.544 92.9673L389.578 93.0005C390.03 92.903 390.52 92.9451 391.048 93.127C391.58 93.3044 392.068 93.6149 392.512 94.0584C393.221 94.7681 393.596 95.5465 393.636 96.3936C393.685 97.2408 393.21 98.1634 392.212 99.1613L387.861 103.512L385.852 101.503L390.203 97.1521C390.629 96.7263 390.835 96.3338 390.822 95.9745C390.813 95.6197 390.64 95.2737 390.303 94.9366C390.028 94.6616 389.691 94.4842 389.292 94.4044C388.897 94.3201 388.498 94.36 388.094 94.5241L383.483 99.1347L381.468 97.1188ZM392.439 101.383L392.651 101.171C393.743 100.079 394.927 99.5384 396.204 99.5472C397.49 99.5561 398.668 100.095 399.737 101.164C400.757 102.184 401.285 103.213 401.32 104.251C401.36 105.284 401.041 106.176 400.362 106.926L400.256 107.059L398.293 105.096L398.38 105.009C398.704 104.686 398.865 104.315 398.865 103.898C398.87 103.477 398.664 103.058 398.247 102.641C397.759 102.153 397.213 101.962 396.61 102.069C396.011 102.171 395.412 102.521 394.814 103.12L394.388 103.546C393.789 104.145 393.432 104.741 393.317 105.335C393.206 105.934 393.401 106.484 393.902 106.985C394.355 107.438 394.787 107.649 395.2 107.617C395.617 107.582 395.976 107.413 396.277 107.112L396.357 107.032L398.313 108.988L398.22 109.081C397.51 109.782 396.623 110.11 395.559 110.066C394.494 110.021 393.452 109.489 392.432 108.469C391.367 107.405 390.828 106.231 390.815 104.95C390.806 103.663 391.347 102.475 392.439 101.383ZM396.956 112.607L407.082 102.481L409.091 104.491L404.96 108.622C405.474 108.516 406.002 108.538 406.543 108.689C407.089 108.835 407.617 109.163 408.127 109.673C408.779 110.325 409.109 111.068 409.118 111.902C409.136 112.736 408.681 113.616 407.754 114.543L403.323 118.974L401.307 116.958L405.592 112.674C406.035 112.23 406.253 111.818 406.244 111.436C406.235 111.055 406.062 110.696 405.725 110.359C405.428 110.061 405.088 109.891 404.707 109.846C404.334 109.802 403.94 109.877 403.523 110.072L398.972 114.623L396.956 112.607ZM410.029 121.316L411.972 123.272L411.866 123.379C411.542 123.703 411.415 124.046 411.486 124.41C411.557 124.774 411.779 125.142 412.152 125.514C412.524 125.887 412.875 126.1 413.203 126.153C413.531 126.206 413.813 126.115 414.048 125.88C414.283 125.645 414.354 125.37 414.261 125.055C414.172 124.736 413.835 124.128 413.25 123.232C412.593 122.248 412.249 121.394 412.218 120.671C412.192 119.944 412.46 119.298 413.023 118.735C413.689 118.07 414.478 117.812 415.392 117.963C416.306 118.114 417.219 118.646 418.133 119.56C419.042 120.469 419.568 121.394 419.71 122.334C419.861 123.275 419.59 124.091 418.898 124.783L418.818 124.862L416.875 122.92L416.989 122.807C417.255 122.54 417.372 122.246 417.341 121.922C417.315 121.602 417.122 121.263 416.762 120.904C416.412 120.553 416.097 120.358 415.818 120.318C415.547 120.278 415.312 120.358 415.112 120.558C414.913 120.757 414.855 121.019 414.939 121.343C415.033 121.667 415.376 122.281 415.971 123.186C416.627 124.17 416.978 125.022 417.022 125.741C417.071 126.464 416.798 127.122 416.204 127.717C415.494 128.426 414.673 128.715 413.742 128.582C412.815 128.453 411.844 127.881 410.828 126.865C409.821 125.858 409.24 124.878 409.085 123.924C408.934 122.975 409.222 122.132 409.95 121.396L410.029 121.316ZM418.412 127.357L418.625 127.144C419.708 126.062 420.901 125.534 422.205 125.561C423.513 125.583 424.702 126.129 425.771 127.198C426.84 128.267 427.385 129.455 427.407 130.764C427.434 132.068 426.906 133.261 425.824 134.343L425.611 134.556C424.524 135.643 423.329 136.173 422.025 136.146C420.721 136.119 419.535 135.572 418.466 134.503C417.392 133.429 416.842 132.241 416.816 130.937C416.793 129.637 417.326 128.444 418.412 127.357ZM420.788 129.094L420.362 129.52C419.736 130.145 419.39 130.757 419.324 131.356C419.262 131.95 419.479 132.496 419.976 132.993C420.468 133.485 421.012 133.7 421.606 133.638C422.205 133.571 422.817 133.225 423.442 132.6L423.868 132.174C424.493 131.549 424.835 130.937 424.893 130.338C424.95 129.739 424.737 129.198 424.254 128.715C423.766 128.227 423.223 128.012 422.624 128.069C422.025 128.127 421.413 128.468 420.788 129.094ZM426.529 135.474L426.742 135.261C427.824 134.179 429.017 133.651 430.321 133.678C431.63 133.7 432.819 134.246 433.888 135.314C434.956 136.383 435.502 137.572 435.524 138.881C435.551 140.185 435.023 141.378 433.941 142.46L433.728 142.673C432.641 143.76 431.446 144.29 430.142 144.263C428.838 144.236 427.651 143.689 426.582 142.62C425.509 141.546 424.959 140.358 424.932 139.054C424.91 137.754 425.443 136.561 426.529 135.474ZM428.904 137.211L428.479 137.636C427.853 138.262 427.507 138.874 427.441 139.473C427.379 140.067 427.596 140.613 428.093 141.109C428.585 141.602 429.128 141.817 429.723 141.755C430.321 141.688 430.934 141.342 431.559 140.717L431.985 140.291C432.61 139.666 432.952 139.054 433.009 138.455C433.067 137.856 432.854 137.315 432.371 136.831C431.883 136.343 431.339 136.128 430.741 136.186C430.142 136.244 429.53 136.585 428.904 137.211ZM431.659 147.31L438.565 140.404L440.487 142.327L439.736 143.159L439.769 143.192C440.221 143.094 440.711 143.136 441.239 143.318C441.772 143.496 442.259 143.806 442.703 144.25C443.413 144.959 443.787 145.738 443.827 146.585C443.876 147.432 443.402 148.355 442.404 149.353L438.052 153.704L436.043 151.694L440.394 147.343C440.82 146.918 441.026 146.525 441.013 146.166C441.004 145.811 440.831 145.465 440.494 145.128C440.219 144.853 439.882 144.675 439.483 144.596C439.088 144.511 438.689 144.551 438.285 144.715L433.675 149.326L431.659 147.31Z" fill="white"/>
<defs>
<clipPath id="clip0_1909_62164">
<rect x="12" y="12" width="440" height="547" rx="16" fill="white"/>
</clipPath>
<clipPath id="clip1_1909_62164">
<rect width="392" height="146" fill="white" transform="translate(36 94)"/>
</clipPath>
<clipPath id="clip2_1909_62164">
<rect x="388" y="138" width="20" height="20" rx="10" fill="white"/>
</clipPath>
<clipPath id="clip3_1909_62164">
<rect x="56" y="200" width="20" height="20" rx="4" fill="white"/>
</clipPath>
<clipPath id="clip4_1909_62164">
<rect x="200" y="195" width="8" height="8" rx="4" fill="white"/>
</clipPath>
<clipPath id="clip5_1909_62164">
<rect width="392" height="146" fill="white" transform="translate(36 288)"/>
</clipPath>
<clipPath id="clip6_1909_62164">
<rect x="388" y="332" width="20" height="20" rx="10" fill="white"/>
</clipPath>
<clipPath id="clip7_1909_62164">
<rect x="56" y="394" width="20" height="20" rx="4" fill="white"/>
</clipPath>
<clipPath id="clip8_1909_62164">
<rect x="96" y="394" width="20" height="20" rx="4" fill="white"/>
</clipPath>
<clipPath id="clip9_1909_62164">
<rect x="223" y="389" width="8" height="8" rx="4" fill="white"/>
</clipPath>
<clipPath id="clip10_1909_62164">
<rect x="36" y="458" width="392" height="52" rx="8" fill="white"/>
</clipPath>
</defs>
</svg>
