<svg width="464" height="571" viewBox="0 0 464 571" fill="none" xmlns="http://www.w3.org/2000/svg">
<rect width="464" height="571" rx="28" fill="black" fill-opacity="0.03"/>
<rect x="0.5" y="0.5" width="463" height="570" rx="27.5" stroke="black" stroke-opacity="0.03"/>
<rect x="443.625" y="188.625" width="20.3711" height="20.3711" fill="#097E61"/>
<rect x="255" width="20.3711" height="20.3711" fill="#097E61"/>
<path fill-rule="evenodd" clip-rule="evenodd" d="M323.68 0H268.008V12H261.008L452.008 203V193H464V140.32L323.68 0ZM464 214.992V213H462.008L464 214.992Z" fill="black" fill-opacity="0.03"/>
<g clip-path="url(#clip0_1909_62124)">
<rect width="440" height="547" transform="translate(12 12)" fill="white"/>
<path d="M37.4844 59V44.7812H42.5723C44.0762 44.7812 45.248 45.0872 46.0879 45.6992C46.9342 46.3047 47.3574 47.2454 47.3574 48.5215C47.3574 49.3092 47.1719 49.957 46.8008 50.4648C46.4362 50.9661 45.9805 51.3112 45.4336 51.5V51.5391C46.1042 51.7344 46.6576 52.1152 47.0938 52.6816C47.5299 53.248 47.748 53.9967 47.748 54.9277C47.748 56.2168 47.3021 57.2194 46.4102 57.9355C45.5182 58.6452 44.3333 59 42.8555 59H37.4844ZM40.0723 57.0859H42.7383C43.5651 57.0859 44.1706 56.8809 44.5547 56.4707C44.9388 56.0605 45.1309 55.5039 45.1309 54.8008C45.1309 54.1042 44.9388 53.5508 44.5547 53.1406C44.1706 52.7305 43.5651 52.5254 42.7383 52.5254H40.0723V57.0859ZM40.0723 50.7285H42.4648C43.2852 50.7285 43.8743 50.5527 44.2324 50.2012C44.5905 49.8431 44.7695 49.3418 44.7695 48.6973C44.7695 48.0592 44.5905 47.571 44.2324 47.2324C43.8743 46.8874 43.2852 46.7148 42.4648 46.7148H40.0723V50.7285ZM49.7793 55.2305V48.8926H52.3184V55.25C52.3184 55.9792 52.4714 56.4902 52.7773 56.7832C53.0898 57.0762 53.5163 57.2227 54.0566 57.2227C54.5384 57.2227 54.9648 57.0859 55.3359 56.8125C55.707 56.5391 55.9902 56.194 56.1855 55.7773V48.8926H58.7344V59H56.332L56.2637 57.7793H56.2148C55.9023 58.2155 55.4824 58.5638 54.9551 58.8242C54.4277 59.0781 53.8385 59.2051 53.1875 59.2051C52.1719 59.2051 51.3483 58.8991 50.7168 58.2871C50.0918 57.6751 49.7793 56.6562 49.7793 55.2305ZM60.7168 63.0527L60.7461 61.1387C60.9089 61.1908 61.0911 61.2298 61.293 61.2559C61.5013 61.2884 61.6999 61.3047 61.8887 61.3047C62.3314 61.3112 62.7188 61.1582 63.0508 60.8457C63.3828 60.5332 63.6888 59.9082 63.9688 58.9707L63.9102 58.9609L60.0234 48.8926H62.5723L64.7402 55.0254C64.8249 55.2663 64.8932 55.4909 64.9453 55.6992C64.9974 55.901 65.0462 56.1029 65.0918 56.3047H65.1504C65.2025 56.1029 65.2546 55.901 65.3066 55.6992C65.3652 55.4909 65.4336 55.263 65.5117 55.0156L67.6016 48.8926H69.916L65.7754 60.1816C65.3978 61.2038 64.9095 61.972 64.3105 62.4863C63.7181 63.0007 62.9824 63.2578 62.1035 63.2578C61.804 63.2578 61.5436 63.2415 61.3223 63.209C61.1074 63.1764 60.9056 63.1243 60.7168 63.0527ZM76.1758 59V44.7812H81.2637C82.7676 44.7812 83.9395 45.0872 84.7793 45.6992C85.6257 46.3047 86.0488 47.2454 86.0488 48.5215C86.0488 49.3092 85.8633 49.957 85.4922 50.4648C85.1276 50.9661 84.6719 51.3112 84.125 51.5V51.5391C84.7956 51.7344 85.349 52.1152 85.7852 52.6816C86.2214 53.248 86.4395 53.9967 86.4395 54.9277C86.4395 56.2168 85.9935 57.2194 85.1016 57.9355C84.2096 58.6452 83.0247 59 81.5469 59H76.1758ZM78.7637 57.0859H81.4297C82.2565 57.0859 82.862 56.8809 83.2461 56.4707C83.6302 56.0605 83.8223 55.5039 83.8223 54.8008C83.8223 54.1042 83.6302 53.5508 83.2461 53.1406C82.862 52.7305 82.2565 52.5254 81.4297 52.5254H78.7637V57.0859ZM78.7637 50.7285H81.1562C81.9766 50.7285 82.5658 50.5527 82.9238 50.2012C83.2819 49.8431 83.4609 49.3418 83.4609 48.6973C83.4609 48.0592 83.2819 47.571 82.9238 47.2324C82.5658 46.8874 81.9766 46.7148 81.1562 46.7148H78.7637V50.7285ZM87.3379 46.832V44.7812H98.5195V46.832H94.252V59H91.6152V46.832H87.3379ZM99.4863 52.3301V51.4512C99.4863 49.179 100.056 47.4538 101.195 46.2754C102.335 45.097 103.803 44.5078 105.6 44.5078C107.331 44.5078 108.695 44.9668 109.691 45.8848C110.694 46.7962 111.195 47.9648 111.195 49.3906V49.6543H108.568V49.3418C108.568 48.4759 108.321 47.7956 107.826 47.3008C107.338 46.7995 106.592 46.5488 105.59 46.5488C104.574 46.5488 103.754 46.9167 103.129 47.6523C102.504 48.388 102.191 49.5632 102.191 51.1777V52.6035C102.191 54.1139 102.501 55.263 103.119 56.0508C103.738 56.8385 104.571 57.2324 105.619 57.2324C106.57 57.2324 107.283 56.9753 107.758 56.4609C108.24 55.9466 108.507 55.263 108.559 54.4102L108.568 54.1367H111.195L111.186 54.4297C111.114 55.8229 110.6 56.9785 109.643 57.8965C108.686 58.8145 107.338 59.2734 105.6 59.2734C103.783 59.2734 102.309 58.681 101.176 57.4961C100.049 56.3047 99.4863 54.5827 99.4863 52.3301Z" fill="#1E1E1E"/>
<rect x="396" y="36" width="32" height="32" rx="16" fill="#E2F8E3"/>
<path fill-rule="evenodd" clip-rule="evenodd" d="M409.844 49.3047C409.844 48.1138 410.809 47.1484 412 47.1484C413.191 47.1484 414.156 48.1138 414.156 49.3047C414.156 50.4956 413.191 51.461 412 51.461C410.809 51.461 409.844 50.4956 409.844 49.3047ZM412 45.6484C409.981 45.6484 408.344 47.2854 408.344 49.3047C408.344 51.324 409.981 52.961 412 52.961C414.019 52.961 415.656 51.324 415.656 49.3047C415.656 47.2854 414.019 45.6484 412 45.6484ZM408.391 57.6089C408.391 57.1351 408.679 56.6144 409.333 56.1779C409.983 55.7448 410.924 55.4526 412 55.4526C413.076 55.4526 414.017 55.7448 414.667 56.1779C415.321 56.6144 415.609 57.1351 415.609 57.6089C415.609 58.0231 415.945 58.3589 416.359 58.3589C416.774 58.3589 417.109 58.0231 417.109 57.6089C417.109 56.4775 416.422 55.5451 415.499 54.9298C414.57 54.311 413.331 53.9526 412 53.9526C410.669 53.9526 409.43 54.311 408.501 54.9298C407.578 55.5451 406.891 56.4775 406.891 57.6089C406.891 58.0231 407.226 58.3589 407.641 58.3589C408.055 58.3589 408.391 58.0231 408.391 57.6089Z" fill="#63D369"/>
<g clip-path="url(#clip1_1909_62124)">
<rect x="36" y="94" width="392" height="84" rx="8" fill="#F5F4F6"/>
<path d="M51.4727 119V115.35L48.0273 109.047H49.791L51.9238 113.094C51.9967 113.226 52.0605 113.351 52.1152 113.47C52.1745 113.584 52.2292 113.702 52.2793 113.825H52.3203C52.3659 113.702 52.4183 113.584 52.4775 113.47C52.5368 113.351 52.6006 113.226 52.6689 113.094L54.8359 109.047H56.4697L53.0518 115.309V119H51.4727ZM56.0869 115.507V115.288C56.0869 114.19 56.4059 113.301 57.0439 112.622C57.6865 111.938 58.5342 111.597 59.5869 111.597C60.6396 111.597 61.485 111.938 62.123 112.622C62.7611 113.301 63.0801 114.19 63.0801 115.288V115.507C63.0801 116.61 62.7611 117.503 62.123 118.187C61.485 118.866 60.6396 119.205 59.5869 119.205C58.5342 119.205 57.6865 118.866 57.0439 118.187C56.4059 117.503 56.0869 116.61 56.0869 115.507ZM57.6455 115.254V115.548C57.6455 116.268 57.8096 116.856 58.1377 117.312C58.4658 117.767 58.9489 117.995 59.5869 117.995C60.2204 117.995 60.7012 117.767 61.0293 117.312C61.3574 116.856 61.5215 116.268 61.5215 115.548V115.254C61.5215 114.534 61.3551 113.946 61.0225 113.49C60.6943 113.03 60.2158 112.8 59.5869 112.8C58.9535 112.8 58.4704 113.03 58.1377 113.49C57.8096 113.946 57.6455 114.534 57.6455 115.254ZM64.543 116.361V111.802H66.0674V116.396C66.0674 116.942 66.1859 117.332 66.4229 117.564C66.6644 117.792 67.0016 117.906 67.4346 117.906C67.8083 117.906 68.1387 117.804 68.4258 117.599C68.7129 117.394 68.9339 117.129 69.0889 116.806V111.802H70.6133V119H69.2051L69.1572 118.118H69.1162C68.8747 118.433 68.5671 118.681 68.1934 118.863C67.8197 119.046 67.4049 119.137 66.9492 119.137C66.2246 119.137 65.6413 118.925 65.1992 118.501C64.7617 118.073 64.543 117.359 64.543 116.361ZM75.877 120.955L76.7041 119.902C76.8955 120.112 77.1758 120.303 77.5449 120.477C77.9141 120.65 78.3265 120.736 78.7822 120.736C79.3564 120.736 79.8122 120.568 80.1494 120.23C80.4912 119.893 80.6621 119.406 80.6621 118.768V118.187C80.4661 118.478 80.1927 118.711 79.8418 118.884C79.4954 119.052 79.0785 119.137 78.5908 119.137C77.6748 119.137 76.9388 118.799 76.3828 118.125C75.8314 117.446 75.5557 116.573 75.5557 115.507V115.288C75.5557 114.226 75.8314 113.358 76.3828 112.684C76.9388 112.005 77.6748 111.665 78.5908 111.665C79.0739 111.665 79.5 111.765 79.8691 111.966C80.2428 112.166 80.5163 112.412 80.6895 112.704H80.7305L80.7783 111.802H82.1865V118.754C82.1865 119.793 81.8743 120.59 81.25 121.146C80.6257 121.702 79.8213 121.98 78.8369 121.98C78.2308 121.98 77.6725 121.882 77.1621 121.687C76.6517 121.495 76.2233 121.251 75.877 120.955ZM77.1143 115.541C77.1143 116.225 77.2624 116.794 77.5586 117.25C77.8594 117.706 78.3265 117.934 78.96 117.934C79.3792 117.934 79.7347 117.817 80.0264 117.585C80.3226 117.348 80.5345 117.079 80.6621 116.778V114.037C80.5299 113.723 80.3158 113.449 80.0195 113.217C79.7279 112.984 79.3701 112.868 78.9463 112.868C78.3219 112.868 77.8594 113.096 77.5586 113.552C77.2624 114.007 77.1143 114.577 77.1143 115.261V115.541ZM84.1826 119V111.802H85.7139V119H84.1826ZM84.0186 109.689C84.0186 109.443 84.0983 109.236 84.2578 109.067C84.4173 108.899 84.6475 108.814 84.9482 108.814C85.2445 108.814 85.4723 108.899 85.6318 109.067C85.7913 109.236 85.8711 109.443 85.8711 109.689C85.8711 109.931 85.7913 110.136 85.6318 110.305C85.4723 110.473 85.2445 110.558 84.9482 110.558C84.6475 110.558 84.4173 110.473 84.2578 110.305C84.0983 110.136 84.0186 109.931 84.0186 109.689ZM86.6982 111.802H88.2021L89.8564 116.409C89.9202 116.591 89.9704 116.76 90.0068 116.915C90.0479 117.065 90.0775 117.193 90.0957 117.298H90.1367C90.1549 117.193 90.1823 117.065 90.2188 116.915C90.2598 116.76 90.3099 116.591 90.3691 116.409L92.0098 111.802H93.4248L90.6904 119H89.4326L86.6982 111.802ZM93.8486 115.507V115.288C93.8486 114.194 94.1585 113.306 94.7783 112.622C95.3981 111.938 96.2093 111.597 97.2119 111.597C98.2145 111.597 98.9915 111.918 99.543 112.561C100.094 113.199 100.37 114.067 100.37 115.165V115.76H94.833V114.659H98.8525V114.502C98.8525 114.023 98.7135 113.618 98.4355 113.285C98.1576 112.948 97.7611 112.779 97.2461 112.779C96.6263 112.779 96.1615 113.014 95.8516 113.483C95.5417 113.948 95.3867 114.538 95.3867 115.254V115.548C95.3867 116.254 95.5508 116.842 95.8789 117.312C96.2116 117.776 96.7152 118.009 97.3896 118.009C97.8226 118.009 98.194 117.911 98.5039 117.715C98.8184 117.519 99.0736 117.289 99.2695 117.024L100.295 117.77C100.067 118.143 99.7025 118.476 99.2012 118.768C98.7044 119.059 98.1051 119.205 97.4033 119.205C96.2686 119.205 95.3913 118.863 94.7715 118.18C94.1562 117.496 93.8486 116.605 93.8486 115.507Z" fill="#828282"/>
<path d="M51.2812 158L58.377 141.115H48.6562V138.094H62.2051V140.527L55.1504 158H51.2812ZM64.1191 152.695V152.326H67.7832V152.654C67.7832 153.611 68.0566 154.345 68.6035 154.855C69.1595 155.357 69.9251 155.607 70.9004 155.607C71.8939 155.607 72.6686 155.275 73.2246 154.609C73.7897 153.935 74.0723 152.923 74.0723 151.574C74.0723 150.234 73.7897 149.255 73.2246 148.635C72.6595 148.015 71.9121 147.705 70.9824 147.705C70.2806 147.705 69.6699 147.846 69.1504 148.129C68.6309 148.411 68.1842 148.785 67.8105 149.25L64.7891 148.17L65.8008 138.094H76.752V141.074L68.6992 141.047L68.1934 146.037C68.6035 145.736 69.1094 145.486 69.7109 145.285C70.3216 145.076 70.9961 144.971 71.7344 144.971C73.4388 144.971 74.8698 145.522 76.0273 146.625C77.194 147.728 77.7773 149.332 77.7773 151.438C77.7773 153.589 77.1621 155.284 75.9316 156.523C74.7103 157.754 73.0423 158.369 70.9277 158.369C68.7676 158.369 67.0905 157.85 65.8965 156.811C64.7116 155.762 64.1191 154.391 64.1191 152.695ZM79.7324 151.355V144.738C79.7324 142.587 80.3066 140.883 81.4551 139.625C82.6035 138.358 84.2305 137.725 86.3359 137.725C88.4323 137.725 90.0592 138.354 91.2168 139.611C92.3743 140.869 92.9531 142.578 92.9531 144.738V151.355C92.9531 153.525 92.3652 155.238 91.1895 156.496C90.0228 157.745 88.4049 158.369 86.3359 158.369C84.2305 158.36 82.6035 157.731 81.4551 156.482C80.3066 155.234 79.7324 153.525 79.7324 151.355ZM83.4785 151.793C83.4785 152.941 83.7064 153.862 84.1621 154.555C84.627 155.247 85.3516 155.594 86.3359 155.594C87.3294 155.594 88.054 155.247 88.5098 154.555C88.9746 153.862 89.207 152.941 89.207 151.793V144.328C89.207 143.171 88.9746 142.25 88.5098 141.566C88.054 140.874 87.3294 140.527 86.3359 140.527C85.3516 140.527 84.627 140.874 84.1621 141.566C83.7064 142.25 83.4785 143.171 83.4785 144.328V151.793Z" fill="#181718"/>
<rect x="330" y="130" width="86" height="36" rx="6" fill="white"/>
<path fill-rule="evenodd" clip-rule="evenodd" d="M342.171 149.608C341.878 149.315 341.403 149.315 341.11 149.608C340.817 149.901 340.817 150.376 341.11 150.669L343.466 153.024L343.996 153.555L344.527 153.024L346.882 150.669C347.175 150.376 347.175 149.901 346.882 149.608C346.589 149.315 346.114 149.315 345.821 149.608L343.996 151.433L342.171 149.608ZM342.171 146.399C341.878 146.692 341.403 146.692 341.11 146.399C340.817 146.106 340.817 145.631 341.11 145.338L343.466 142.983L343.996 142.452L344.527 142.983L346.882 145.338C347.175 145.631 347.175 146.106 346.882 146.399C346.589 146.692 346.114 146.692 345.821 146.399L343.996 144.574L342.171 146.399Z" fill="#8B8A8C"/>
<path d="M353.102 148.992V141.625H355.195V149.086C355.195 149.982 355.401 150.622 355.812 151.008C356.229 151.388 356.773 151.578 357.445 151.578C358.117 151.578 358.659 151.388 359.07 151.008C359.482 150.622 359.688 149.982 359.688 149.086V141.625H361.75V148.992C361.75 150.44 361.333 151.508 360.5 152.195C359.672 152.883 358.648 153.227 357.43 153.227C356.211 153.227 355.185 152.883 354.352 152.195C353.518 151.508 353.102 150.44 353.102 148.992ZM363.469 149.82V149.633H365.594V149.789C365.594 150.393 365.789 150.846 366.18 151.148C366.57 151.451 367.117 151.602 367.82 151.602C368.523 151.602 369.06 151.456 369.43 151.164C369.805 150.872 369.992 150.487 369.992 150.008C369.992 149.534 369.812 149.164 369.453 148.898C369.099 148.633 368.357 148.346 367.227 148.039C366.023 147.711 365.13 147.289 364.547 146.773C363.964 146.258 363.669 145.542 363.664 144.625C363.664 143.661 364.031 142.883 364.766 142.289C365.5 141.695 366.495 141.398 367.75 141.398C369.005 141.398 370.008 141.708 370.758 142.328C371.508 142.943 371.883 143.753 371.883 144.758V144.93H369.797V144.781C369.797 144.255 369.625 143.833 369.281 143.516C368.938 143.193 368.43 143.031 367.758 143.031C367.081 143.031 366.583 143.164 366.266 143.43C365.948 143.69 365.789 144.044 365.789 144.492C365.789 144.919 365.958 145.247 366.297 145.477C366.635 145.706 367.37 145.977 368.5 146.289C369.688 146.617 370.586 147.049 371.195 147.586C371.805 148.122 372.109 148.888 372.109 149.883C372.109 150.914 371.719 151.729 370.938 152.328C370.161 152.927 369.125 153.227 367.828 153.227C366.536 153.227 365.487 152.932 364.68 152.344C363.872 151.75 363.469 150.909 363.469 149.82ZM373.883 153V141.625H377.547C379.047 141.625 380.297 142.099 381.297 143.047C382.302 143.99 382.805 145.292 382.805 146.953V147.664C382.805 149.331 382.305 150.638 381.305 151.586C380.305 152.529 379.052 153 377.547 153H373.883ZM375.977 151.398H377.516C378.469 151.398 379.232 151.083 379.805 150.453C380.383 149.818 380.672 148.904 380.672 147.711V146.914C380.672 145.721 380.383 144.81 379.805 144.18C379.227 143.549 378.464 143.234 377.516 143.234H375.977V151.398Z" fill="#181718"/>
<g clip-path="url(#clip2_1909_62124)">
<g clip-path="url(#clip3_1909_62124)">
<rect width="20" height="20" transform="translate(388 138)" fill="white"/>
<path fill-rule="evenodd" clip-rule="evenodd" d="M379.414 134.539H398.413V148.001H379.414V134.539Z" fill="#0D58B1"/>
<path fill-rule="evenodd" clip-rule="evenodd" d="M373.015 129.258L373.276 130.046H374.101L373.435 130.531L373.688 131.327L373.015 130.835L372.349 131.32L372.603 130.531L371.93 130.046H372.769L373.015 129.258ZM377.711 129.258L377.965 130.046H378.797L378.124 130.531L378.377 131.327L377.711 130.835L377.038 131.32L377.292 130.531L376.626 130.046H377.451L377.711 129.258ZM382.401 129.258L382.661 130.047H383.479L382.813 130.531L383.066 131.327L382.393 130.835L381.728 131.32L381.981 130.531L381.308 130.047H382.14L382.401 129.258ZM387.097 129.258L387.35 130.047H388.182L387.509 130.531L387.77 131.327L387.097 130.835L386.424 131.32L386.684 130.531L386.011 130.047H386.836L387.097 129.258ZM391.786 129.258L392.046 130.047H392.871L392.206 130.531L392.459 131.327L391.786 130.835L391.12 131.32L391.373 130.531L390.708 130.047H391.533L391.786 129.258ZM396.482 129.258L396.735 130.047H397.568L396.895 130.531L397.155 131.327L396.482 130.835L395.809 131.32L396.07 130.531L395.397 130.047H396.229L396.482 129.258ZM375.367 131.255L375.62 132.044H376.452L375.779 132.528L376.025 133.317L375.374 132.832L374.701 133.317L374.94 132.529L374.289 132.044H375.114L375.367 131.255ZM380.056 131.255L380.316 132.044H381.141L380.468 132.528L380.729 133.317L380.056 132.832L379.383 133.317L379.643 132.529L378.97 132.044H379.803L380.056 131.255ZM384.752 131.255L385.005 132.044H385.838L385.165 132.528L385.418 133.317L384.752 132.832L384.079 133.317L384.333 132.529L383.667 132.044H384.492L384.752 131.255ZM389.441 131.255L389.702 132.044H390.527L389.854 132.528L390.114 133.317L389.441 132.832L388.776 133.317L389.029 132.529L388.356 132.044H389.195L389.441 131.255ZM394.138 131.255L394.391 132.044H395.223L394.55 132.528L394.803 133.317L394.138 132.832L393.465 133.317L393.718 132.529L393.052 132.044H393.877L394.138 131.255ZM373.015 133.245L373.276 134.048H374.101L373.435 134.533L373.688 135.322L373.015 134.83L372.349 135.322L372.603 134.526L371.93 134.041H372.769L373.015 133.245ZM377.711 133.245L377.965 134.041H378.797L378.124 134.526L378.377 135.314L377.711 134.822L377.038 135.314L377.292 134.518L376.626 134.034H377.451L377.711 133.245ZM382.401 133.245L382.661 134.041H383.479L382.813 134.526L383.066 135.315L382.393 134.823L381.728 135.315L381.981 134.519L381.308 134.034H382.14L382.401 133.245ZM387.097 133.245L387.35 134.041H388.182L387.509 134.526L387.77 135.315L387.097 134.823L386.424 135.315L386.684 134.519L386.011 134.034H386.836L387.097 133.245ZM391.786 133.245L392.046 134.041H392.871L392.206 134.526L392.459 135.315L391.786 134.822L391.12 135.314L391.373 134.519L390.708 134.034H391.533L391.786 133.245ZM396.482 133.245L396.735 134.041H397.568L396.895 134.526L397.155 135.315L396.482 134.823L395.809 135.315L396.07 134.519L395.397 134.034H396.229L396.482 133.245ZM375.367 135.242L375.62 136.031H376.452L375.779 136.516L376.033 137.312L375.367 136.82L374.694 137.304L374.947 136.516L374.281 136.031H375.106L375.367 135.242ZM380.056 135.242L380.316 136.031H381.141L380.468 136.516L380.729 137.312L380.056 136.82L379.383 137.304L379.643 136.516L378.97 136.031H379.803L380.056 135.242ZM384.752 135.242L385.005 136.031H385.838L385.165 136.516L385.418 137.312L384.752 136.82L384.079 137.304L384.333 136.516L383.667 136.031H384.492L384.752 135.242ZM389.441 135.242L389.702 136.031H390.527L389.861 136.516L390.114 137.312L389.441 136.82L388.776 137.304L389.029 136.516L388.356 136.031H389.195L389.441 135.242ZM394.138 135.242L394.391 136.031H395.223L394.55 136.516L394.803 137.312L394.138 136.82L393.465 137.304L393.718 136.516L393.052 136.031H393.877L394.138 135.242ZM373.015 137.239L373.276 138.028H374.101L373.435 138.513L373.688 139.309L373.015 138.817L372.349 139.302L372.603 138.513L371.93 138.028H372.769L373.015 137.239ZM377.711 137.239L377.965 138.028H378.797L378.124 138.513L378.377 139.302L377.711 138.817L377.038 139.302L377.292 138.513L376.626 138.028H377.451L377.711 137.239ZM382.401 137.239L382.661 138.028H383.479L382.813 138.513L383.066 139.309L382.393 138.817L381.728 139.302L381.981 138.513L381.308 138.028H382.14L382.401 137.239ZM387.097 137.239L387.35 138.028H388.182L387.509 138.513L387.77 139.309L387.097 138.817L386.424 139.302L386.684 138.513L386.011 138.028H386.836L387.097 137.239ZM391.786 137.239L392.046 138.028H392.871L392.206 138.513L392.459 139.309L391.786 138.817L391.12 139.302L391.373 138.513L390.708 138.028H391.533L391.786 137.239ZM396.482 137.239L396.735 138.028H397.568L396.895 138.513L397.155 139.309L396.482 138.817L395.809 139.302L396.07 138.513L395.397 138.028H396.229L396.482 137.239ZM375.367 139.237L375.62 140.025H376.452L375.779 140.51L376.033 141.299L375.367 140.807L374.694 141.299L374.947 140.503L374.281 140.018H375.106L375.367 139.237ZM380.056 139.237L380.316 140.025H381.141L380.468 140.51L380.729 141.299L380.056 140.807L379.383 141.299L379.643 140.503L378.97 140.018H379.803L380.056 139.237ZM384.752 139.237L385.005 140.025H385.838L385.165 140.51L385.418 141.299L384.752 140.807L384.079 141.299L384.333 140.503L383.667 140.018H384.492L384.752 139.237ZM389.441 139.237L389.702 140.025H390.527L389.861 140.51L390.114 141.299L389.441 140.807L388.776 141.299L389.029 140.503L388.356 140.018H389.195L389.441 139.237ZM394.138 139.237L394.391 140.025H395.223L394.55 140.51L394.803 141.299L394.138 140.807L393.465 141.299L393.718 140.503L393.052 140.018H393.877L394.138 139.237ZM373.015 141.227L373.276 142.023H374.101L373.435 142.507L373.688 143.289L373.015 142.804L372.349 143.289L372.603 142.5L371.93 142.015H372.769L373.015 141.227ZM377.711 141.227L377.965 142.023H378.797L378.124 142.507L378.384 143.289L377.711 142.804L377.038 143.289L377.299 142.5L376.626 142.015H377.451L377.711 141.227ZM382.401 141.227L382.661 142.023H383.479L382.813 142.507L383.066 143.289L382.393 142.804L381.728 143.289L381.981 142.5L381.308 142.015H382.14L382.401 141.227ZM387.097 141.227L387.35 142.023H388.182L387.509 142.507L387.77 143.289L387.097 142.804L386.424 143.289L386.684 142.5L386.011 142.015H386.836L387.097 141.227ZM391.786 141.227L392.046 142.023H392.871L392.206 142.507L392.459 143.289L391.786 142.804L391.12 143.289L391.373 142.5L390.708 142.015H391.533L391.786 141.227ZM396.482 141.227L396.735 142.023H397.568L396.895 142.507L397.155 143.289L396.482 142.804L395.809 143.289L396.07 142.5L395.397 142.015H396.229L396.482 141.227ZM375.367 143.224L375.62 144.013H376.452L375.779 144.497L376.033 145.293L375.367 144.801L374.694 145.286L374.947 144.497L374.281 144.013H375.106L375.367 143.224ZM380.056 143.224L380.316 144.013H381.141L380.468 144.497L380.729 145.293L380.056 144.801L379.383 145.286L379.643 144.497L378.97 144.013H379.803L380.056 143.224ZM384.752 143.224L385.005 144.013H385.838L385.165 144.497L385.418 145.293L384.752 144.801L384.079 145.286L384.333 144.497L383.667 144.013H384.492L384.752 143.224ZM389.441 143.224L389.702 144.013H390.527L389.861 144.497L390.114 145.293L389.441 144.801L388.776 145.286L389.029 144.497L388.356 144.013H389.195L389.441 143.224ZM394.138 143.224L394.391 144.013H395.223L394.55 144.497L394.803 145.293L394.138 144.801L393.465 145.286L393.718 144.497L393.052 144.013H393.877L394.138 143.224ZM373.015 145.221L373.276 146.01H374.101L373.435 146.495L373.688 147.283L373.015 146.798L372.349 147.283L372.603 146.487L371.93 146.002H372.769L373.015 145.221ZM377.711 145.221L377.965 146.01H378.797L378.124 146.495L378.384 147.283L377.711 146.798L377.038 147.283L377.299 146.487L376.626 146.002H377.451L377.711 145.221ZM382.401 145.221L382.661 146.01H383.479L382.827 146.495L383.081 147.283L382.408 146.798L381.742 147.283L381.995 146.487L381.322 146.002H382.154L382.401 145.221ZM387.097 145.221L387.35 146.01H388.182L387.509 146.495L387.77 147.283L387.097 146.798L386.424 147.283L386.684 146.487L386.011 146.002H386.836L387.097 145.221ZM391.786 145.221L392.046 146.01H392.871L392.206 146.495L392.459 147.283L391.786 146.798L391.12 147.283L391.373 146.487L390.708 146.002H391.533L391.786 145.221ZM396.482 145.221L396.735 146.01H397.568L396.895 146.495L397.155 147.283L396.482 146.798L395.809 147.283L396.07 146.487L395.397 146.002H396.229L396.482 145.221Z" fill="white"/>
<rect x="398.414" y="146.078" width="9.58435" height="1.91935" fill="#D30B30"/>
<rect x="388" y="150.117" width="20" height="1.91935" fill="#D30B30"/>
<rect x="388" y="154.164" width="20" height="1.91935" fill="#D30B30"/>
<rect x="398.414" y="142.039" width="9.58435" height="1.91935" fill="#D30B30"/>
<rect x="398.414" y="138" width="9.58435" height="1.91935" fill="#D30B30"/>
</g>
</g>
<rect x="388.25" y="138.25" width="19.5" height="19.5" rx="9.75" stroke="#1B1A1C" stroke-opacity="0.08" stroke-width="0.5"/>
<rect x="36.75" y="180.75" width="390.5" height="58.5" rx="7.25" fill="#F5F4F6"/>
<rect x="36.75" y="180.75" width="390.5" height="58.5" rx="7.25" stroke="#F5F4F6" stroke-width="1.5"/>
<rect x="48.75" y="192.75" width="107.5" height="34.5" rx="5.25" fill="white"/>
<rect x="48.75" y="192.75" width="107.5" height="34.5" rx="5.25" stroke="#63D369" stroke-width="1.5"/>
<path d="M64.83 207H63L64.14 202H66L64.83 207Z" fill="#1A337A"/>
<path d="M62.5806 202L61.3333 205.432L61.1828 204.691L60.7312 202.445C60.7312 202.445 60.6882 202 60.1075 202H58.0215L58 202.085C58 202.085 58.6452 202.212 59.3763 202.657L60.5376 207H61.914L64 202H62.5806Z" fill="#1A337A"/>
<path d="M72.7097 207H74L72.871 202H71.7419C71.212 202 71.0968 202.383 71.0968 202.383L69 207H70.4747L70.7742 206.255H72.5714L72.7097 207ZM71.1659 205.213L71.9032 203.34L72.318 205.213H71.1659V205.213Z" fill="#1A337A"/>
<path d="M69.7541 203.255L70 202.206C70 202.206 69.2623 202 68.4973 202C67.6776 202 65.6831 202.267 65.6831 203.605C65.6831 204.86 68.0055 204.881 68.0055 205.519C68.0055 206.177 65.929 206.053 65.2459 205.642L65 206.733C65 206.733 65.7377 207 66.8852 207C68.0328 207 69.7541 206.547 69.7541 205.333C69.7541 204.078 67.4044 203.955 67.4044 203.42C67.4317 202.885 69.0437 202.967 69.7541 203.255Z" fill="#1A337A"/>
<path d="M61 205L60.5743 202.496C60.5743 202.496 60.5338 202 59.9865 202H58.0203L58 202.094C58 202.094 58.9324 202.331 59.8446 203.181C60.7162 203.984 61 205 61 205Z" fill="#1A337A"/>
<path d="M69 209.5H63V217.5H69V209.5Z" fill="#ED6A2C"/>
<path d="M64.1114 213.499C64.1108 212.742 64.2806 211.995 64.6077 211.314C64.9349 210.633 65.411 210.036 66 209.569C65.2705 208.989 64.3945 208.629 63.472 208.529C62.5496 208.428 61.6179 208.593 60.7834 209.003C59.949 209.413 59.2454 210.052 58.7532 210.847C58.261 211.643 58 212.562 58 213.5C58 214.438 58.261 215.357 58.7532 216.153C59.2454 216.948 59.949 217.587 60.7834 217.997C61.6179 218.407 62.5496 218.572 63.472 218.471C64.3945 218.371 65.2705 218.011 66 217.431C65.4109 216.964 64.9347 216.367 64.6074 215.685C64.2802 215.004 64.1106 214.257 64.1114 213.499V213.499Z" fill="#D82E2B"/>
<path d="M74 213.501C74 214.439 73.7389 215.358 73.2467 216.153C72.7544 216.948 72.0509 217.587 71.2164 217.997C70.3819 218.407 69.4502 218.572 68.5277 218.471C67.6053 218.371 66.7293 218.011 66 217.431C66.5887 216.963 67.0646 216.366 67.3918 215.685C67.7191 215.004 67.8891 214.257 67.8891 213.5C67.8891 212.743 67.7191 211.996 67.3918 211.315C67.0646 210.634 66.5887 210.037 66 209.569C66.7294 208.989 67.6055 208.629 68.5281 208.529C69.4506 208.428 70.3825 208.593 71.217 209.003C72.0515 209.413 72.7551 210.052 73.2472 210.848C73.7394 211.643 74.0002 212.562 74 213.501Z" fill="#EAA240"/>
<path d="M83.1895 215V207.07C83.1895 206.182 83.4355 205.512 83.9277 205.061C84.4245 204.609 85.0648 204.384 85.8486 204.384C86.0127 204.384 86.1722 204.393 86.3271 204.411C86.4867 204.429 86.6325 204.457 86.7646 204.493L86.7031 205.833C86.612 205.815 86.514 205.799 86.4092 205.785C86.3044 205.771 86.1973 205.765 86.0879 205.765C85.7324 205.765 85.4567 205.876 85.2607 206.1C85.0648 206.318 84.9668 206.651 84.9668 207.098V208.342V208.492V215H83.1895ZM82.1641 209.107V207.795H83.8662H84.1465H86.3477V209.107H82.1641ZM87.2227 215V207.795H88.8975L88.9453 208.629H88.9795C89.1344 208.351 89.3464 208.109 89.6152 207.904C89.8841 207.699 90.194 207.597 90.5449 207.597C90.6406 207.597 90.7386 207.608 90.8389 207.631C90.9391 207.654 91.0098 207.674 91.0508 207.692V209.251C90.9688 209.233 90.8799 209.219 90.7842 209.21C90.693 209.201 90.5928 209.196 90.4834 209.196C90.137 209.196 89.834 209.294 89.5742 209.49C89.3145 209.682 89.1253 209.925 89.0068 210.222V215H87.2227ZM91.6729 211.507V211.288C91.6729 210.167 92.0033 209.271 92.6641 208.602C93.3294 207.927 94.1999 207.59 95.2754 207.59C96.3555 207.59 97.2259 207.927 97.8867 208.602C98.5521 209.271 98.8848 210.167 98.8848 211.288V211.507C98.8848 212.623 98.5521 213.519 97.8867 214.193C97.2259 214.868 96.3555 215.205 95.2754 215.205C94.1999 215.205 93.3294 214.868 92.6641 214.193C92.0033 213.519 91.6729 212.623 91.6729 211.507ZM93.4912 211.213V211.582C93.4912 212.275 93.6439 212.824 93.9492 213.229C94.2546 213.631 94.6966 213.831 95.2754 213.831C95.8542 213.831 96.2962 213.631 96.6016 213.229C96.9069 212.824 97.0596 212.275 97.0596 211.582V211.213C97.0596 210.516 96.9046 209.966 96.5947 209.565C96.2894 209.164 95.8496 208.964 95.2754 208.964C94.7057 208.964 94.266 209.164 93.9561 209.565C93.6462 209.966 93.4912 210.516 93.4912 211.213ZM100.348 215V207.795H102.016L102.063 208.649H102.104C102.328 208.335 102.619 208.091 102.979 207.918C103.34 207.745 103.729 207.658 104.148 207.658C104.645 207.658 105.076 207.761 105.44 207.966C105.805 208.166 106.074 208.474 106.247 208.889H106.281C106.541 208.474 106.871 208.166 107.272 207.966C107.678 207.761 108.116 207.658 108.585 207.658C109.319 207.658 109.902 207.879 110.335 208.321C110.772 208.759 110.991 209.493 110.991 210.522V215H109.214V210.434C109.214 209.955 109.114 209.606 108.913 209.388C108.713 209.164 108.419 209.053 108.031 209.053C107.699 209.048 107.407 209.139 107.156 209.326C106.906 209.513 106.707 209.766 106.562 210.085V215H104.777V210.447C104.777 209.96 104.675 209.606 104.47 209.388C104.269 209.164 103.975 209.053 103.588 209.053C103.251 209.053 102.959 209.144 102.713 209.326C102.467 209.508 102.271 209.761 102.125 210.085V215H100.348ZM115.804 211.507V211.288C115.804 210.167 116.125 209.271 116.768 208.602C117.41 207.927 118.271 207.59 119.352 207.59C120.368 207.59 121.143 207.85 121.676 208.369C122.209 208.889 122.487 209.495 122.51 210.188L122.517 210.276H120.787V210.208C120.787 209.857 120.669 209.559 120.432 209.312C120.199 209.062 119.837 208.937 119.345 208.937C118.766 208.937 118.333 209.148 118.046 209.572C117.763 209.992 117.622 210.538 117.622 211.213V211.582C117.622 212.252 117.761 212.799 118.039 213.223C118.322 213.646 118.755 213.858 119.338 213.858C119.862 213.858 120.233 213.731 120.452 213.476C120.675 213.216 120.787 212.917 120.787 212.58V212.519H122.517V212.587C122.517 213.275 122.243 213.883 121.696 214.412C121.154 214.941 120.372 215.205 119.352 215.205C118.271 215.205 117.41 214.868 116.768 214.193C116.125 213.519 115.804 212.623 115.804 211.507ZM123.446 212.881C123.446 212.097 123.749 211.505 124.355 211.104C124.966 210.698 125.734 210.495 126.659 210.495H128.129V210.058C128.129 209.702 128.035 209.413 127.849 209.189C127.666 208.962 127.343 208.848 126.878 208.848C126.413 208.848 126.083 208.941 125.887 209.128C125.695 209.315 125.6 209.536 125.6 209.791V209.873H123.843V209.791C123.843 209.171 124.128 208.649 124.697 208.226C125.267 207.802 126.017 207.59 126.946 207.59C127.876 207.59 128.601 207.795 129.12 208.205C129.644 208.611 129.906 209.23 129.906 210.064V213.373C129.906 213.669 129.931 213.95 129.981 214.214C130.032 214.474 130.1 214.699 130.187 214.891V215H128.45C128.391 214.891 128.339 214.749 128.293 214.576C128.247 214.403 128.218 214.232 128.204 214.063C128.054 214.341 127.785 214.59 127.397 214.809C127.01 215.027 126.52 215.137 125.928 215.137C125.23 215.137 124.643 214.948 124.164 214.569C123.686 214.187 123.446 213.624 123.446 212.881ZM125.23 212.737C125.23 213.084 125.331 213.362 125.531 213.571C125.732 213.776 126.049 213.879 126.481 213.879C126.933 213.879 127.32 213.731 127.644 213.435C127.967 213.138 128.129 212.799 128.129 212.416V211.616H126.892C126.336 211.616 125.919 211.714 125.641 211.91C125.367 212.106 125.23 212.382 125.23 212.737ZM131.779 215V207.795H133.454L133.502 208.629H133.536C133.691 208.351 133.903 208.109 134.172 207.904C134.441 207.699 134.751 207.597 135.102 207.597C135.197 207.597 135.295 207.608 135.396 207.631C135.496 207.654 135.566 207.674 135.607 207.692V209.251C135.525 209.233 135.437 209.219 135.341 209.21C135.25 209.201 135.149 209.196 135.04 209.196C134.694 209.196 134.391 209.294 134.131 209.49C133.871 209.682 133.682 209.925 133.563 210.222V215H131.779ZM136.229 211.507V211.288C136.229 210.222 136.514 209.351 137.084 208.677C137.654 207.998 138.399 207.658 139.319 207.658C139.789 207.658 140.192 207.743 140.529 207.911C140.867 208.075 141.129 208.294 141.315 208.567V204.521H143.093V215H141.425L141.377 214.132H141.343C141.179 214.419 140.917 214.658 140.557 214.85C140.201 215.041 139.791 215.137 139.326 215.137C138.369 215.137 137.613 214.799 137.057 214.125C136.505 213.446 136.229 212.573 136.229 211.507ZM138.048 211.575C138.048 212.213 138.187 212.74 138.465 213.154C138.743 213.564 139.167 213.77 139.736 213.77C140.124 213.77 140.452 213.665 140.721 213.455C140.99 213.241 141.188 212.993 141.315 212.71V210.085C141.192 209.798 140.999 209.549 140.734 209.34C140.47 209.13 140.137 209.025 139.736 209.025C139.171 209.025 138.747 209.233 138.465 209.647C138.187 210.058 138.048 210.582 138.048 211.22V211.575Z" fill="#181718"/>
<g clip-path="url(#clip4_1909_62124)">
<rect x="146" y="195" width="8" height="8" rx="4" fill="#63D369"/>
<path fill-rule="evenodd" clip-rule="evenodd" d="M152.036 197.584C152.231 197.779 152.231 198.096 152.036 198.291L149.914 200.412C149.82 200.506 149.693 200.559 149.561 200.559C149.428 200.559 149.301 200.506 149.207 200.412L148.146 199.352C147.951 199.156 147.951 198.84 148.146 198.645C148.342 198.449 148.658 198.449 148.854 198.645L149.561 199.352L151.328 197.584C151.524 197.389 151.84 197.389 152.036 197.584Z" fill="white"/>
</g>
<rect x="161" y="192" width="36" height="36" rx="6" fill="white"/>
<g clip-path="url(#clip5_1909_62124)">
<rect width="20" height="20" transform="translate(169 200)" fill="#00B182"/>
<path fill-rule="evenodd" clip-rule="evenodd" d="M173.5 209.999C173.5 206.962 175.962 204.5 178.999 204.5C182.036 204.5 184.498 206.962 184.498 209.999C184.498 213.036 182.036 215.498 178.999 215.498C175.962 215.498 173.5 213.036 173.5 209.999ZM183.651 209.999C183.651 207.429 181.568 205.346 178.998 205.346C176.429 205.346 174.346 207.429 174.346 209.999C174.346 212.569 176.429 214.652 178.998 214.652C181.568 214.652 183.651 212.569 183.651 209.999Z" fill="white"/>
<path fill-rule="evenodd" clip-rule="evenodd" d="M176.25 209.999C176.25 206.992 177.408 204.5 179.002 204.5C180.597 204.5 181.755 206.992 181.755 209.999C181.755 213.006 180.597 215.498 179.002 215.498C177.408 215.498 176.25 213.006 176.25 209.999ZM180.905 209.999C180.905 207.399 179.982 205.346 179.003 205.346C178.025 205.346 177.102 207.399 177.102 209.999C177.102 212.598 178.025 214.652 179.003 214.652C179.982 214.652 180.905 212.598 180.905 209.999Z" fill="white"/>
<path d="M174.344 208.307V207.461H183.649V208.307H174.344Z" fill="white"/>
<path d="M174.344 212.533V211.688H183.649V212.533H174.344Z" fill="white"/>
</g>
<rect x="169.25" y="200.25" width="19.5" height="19.5" rx="3.75" stroke="black" stroke-opacity="0.08" stroke-width="0.5"/>
</g>
<rect x="36" y="256" width="16" height="16" rx="8" fill="#F5F4F6"/>
<path fill-rule="evenodd" clip-rule="evenodd" d="M44.5331 266.52C44.2402 266.813 43.7654 266.813 43.4725 266.52L40.2409 263.288C39.948 262.995 39.948 262.52 40.2409 262.227C40.5338 261.935 41.0087 261.935 41.3016 262.227L44.0028 264.929L46.704 262.227C46.9969 261.935 47.4718 261.935 47.7647 262.227C48.0576 262.52 48.0576 262.995 47.7647 263.288L44.5331 266.52Z" fill="#8B8A8C"/>
<path d="M56.7178 264.338V263.709C56.7178 262.141 57.1211 260.938 57.9277 260.1C58.7389 259.261 59.7826 258.842 61.0586 258.842C62.2891 258.842 63.2598 259.17 63.9707 259.826C64.6862 260.478 65.0439 261.298 65.0439 262.287V262.424H63.1982V262.273C63.1982 261.663 63.0205 261.18 62.665 260.824C62.3096 260.469 61.7695 260.291 61.0449 260.291C60.3203 260.291 59.7301 260.551 59.2744 261.07C58.8232 261.585 58.5977 262.415 58.5977 263.559V264.488C58.5977 265.546 58.821 266.354 59.2676 266.915C59.7142 267.476 60.3112 267.756 61.0586 267.756C61.7467 267.756 62.264 267.571 62.6104 267.202C62.9567 266.833 63.1504 266.354 63.1914 265.767L63.1982 265.63H65.0439L65.0371 265.767C64.9779 266.746 64.6064 267.564 63.9229 268.221C63.2438 268.877 62.2891 269.205 61.0586 269.205C59.778 269.205 58.7344 268.784 57.9277 267.94C57.1211 267.097 56.7178 265.896 56.7178 264.338ZM66.042 266.881C66.042 266.097 66.3451 265.505 66.9512 265.104C67.5618 264.698 68.3298 264.495 69.2549 264.495H70.7246V264.058C70.7246 263.702 70.6312 263.413 70.4443 263.189C70.262 262.962 69.9385 262.848 69.4736 262.848C69.0088 262.848 68.6784 262.941 68.4824 263.128C68.291 263.315 68.1953 263.536 68.1953 263.791V263.873H66.4385V263.791C66.4385 263.171 66.7233 262.649 67.293 262.226C67.8626 261.802 68.6123 261.59 69.542 261.59C70.4717 261.59 71.1963 261.795 71.7158 262.205C72.2399 262.611 72.502 263.23 72.502 264.064V267.373C72.502 267.669 72.527 267.95 72.5771 268.214C72.6273 268.474 72.6956 268.699 72.7822 268.891V269H71.0459C70.9867 268.891 70.9342 268.749 70.8887 268.576C70.8431 268.403 70.8135 268.232 70.7998 268.063C70.6494 268.341 70.3805 268.59 69.9932 268.809C69.6058 269.027 69.1159 269.137 68.5234 269.137C67.8262 269.137 67.2383 268.948 66.7598 268.569C66.2812 268.187 66.042 267.624 66.042 266.881ZM67.8262 266.737C67.8262 267.084 67.9264 267.362 68.127 267.571C68.3275 267.776 68.6442 267.879 69.0771 267.879C69.5283 267.879 69.9157 267.731 70.2393 267.435C70.5628 267.138 70.7246 266.799 70.7246 266.416V265.616H69.4873C68.9313 265.616 68.5143 265.714 68.2363 265.91C67.9629 266.106 67.8262 266.382 67.8262 266.737ZM74.4023 269V258.521H76.1865V269H74.4023ZM77.6768 265.507V265.288C77.6768 264.167 77.998 263.271 78.6406 262.602C79.2832 261.927 80.1445 261.59 81.2246 261.59C82.2409 261.59 83.0156 261.85 83.5488 262.369C84.082 262.889 84.36 263.495 84.3828 264.188L84.3896 264.276H82.6602V264.208C82.6602 263.857 82.5417 263.559 82.3047 263.312C82.0723 263.062 81.71 262.937 81.2178 262.937C80.639 262.937 80.2061 263.148 79.9189 263.572C79.6364 263.992 79.4951 264.538 79.4951 265.213V265.582C79.4951 266.252 79.6341 266.799 79.9121 267.223C80.1947 267.646 80.6276 267.858 81.2109 267.858C81.735 267.858 82.1064 267.731 82.3252 267.476C82.5485 267.216 82.6602 266.917 82.6602 266.58V266.519H84.3896V266.587C84.3896 267.275 84.1162 267.883 83.5693 268.412C83.027 268.941 82.2454 269.205 81.2246 269.205C80.1445 269.205 79.2832 268.868 78.6406 268.193C77.998 267.519 77.6768 266.623 77.6768 265.507ZM85.627 266.279V261.795H87.4043V266.327C87.4043 266.851 87.5137 267.218 87.7324 267.428C87.9557 267.637 88.2611 267.742 88.6484 267.742C88.9902 267.742 89.2933 267.646 89.5576 267.455C89.8265 267.259 90.0316 267.015 90.1729 266.724V261.795H91.9502V269H90.2822L90.2344 268.152H90.1934C89.9655 268.458 89.667 268.699 89.2979 268.877C88.9287 269.05 88.5163 269.137 88.0605 269.137C87.3405 269.137 86.7549 268.918 86.3037 268.48C85.8525 268.043 85.627 267.309 85.627 266.279ZM93.8438 269V258.521H95.6279V269H93.8438ZM97.1455 266.881C97.1455 266.097 97.4486 265.505 98.0547 265.104C98.6654 264.698 99.4333 264.495 100.358 264.495H101.828V264.058C101.828 263.702 101.735 263.413 101.548 263.189C101.366 262.962 101.042 262.848 100.577 262.848C100.112 262.848 99.7819 262.941 99.5859 263.128C99.3945 263.315 99.2988 263.536 99.2988 263.791V263.873H97.542V263.791C97.542 263.171 97.8268 262.649 98.3965 262.226C98.9661 261.802 99.7158 261.59 100.646 261.59C101.575 261.59 102.3 261.795 102.819 262.205C103.343 262.611 103.605 263.23 103.605 264.064V267.373C103.605 267.669 103.631 267.95 103.681 268.214C103.731 268.474 103.799 268.699 103.886 268.891V269H102.149C102.09 268.891 102.038 268.749 101.992 268.576C101.947 268.403 101.917 268.232 101.903 268.063C101.753 268.341 101.484 268.59 101.097 268.809C100.709 269.027 100.219 269.137 99.627 269.137C98.9297 269.137 98.3418 268.948 97.8633 268.569C97.3848 268.187 97.1455 267.624 97.1455 266.881ZM98.9297 266.737C98.9297 267.084 99.0299 267.362 99.2305 267.571C99.431 267.776 99.7477 267.879 100.181 267.879C100.632 267.879 101.019 267.731 101.343 267.435C101.666 267.138 101.828 266.799 101.828 266.416V265.616H100.591C100.035 265.616 99.6178 265.714 99.3398 265.91C99.0664 266.106 98.9297 266.382 98.9297 266.737ZM104.549 263.107V261.795H108.876V263.107H104.549ZM105.69 266.977V262.506L105.697 262.301V260.072H107.468V266.949C107.468 267.273 107.529 267.498 107.652 267.626C107.775 267.754 107.955 267.817 108.192 267.817C108.302 267.817 108.411 267.806 108.521 267.783C108.634 267.756 108.746 267.722 108.855 267.681V268.993C108.746 269.048 108.593 269.096 108.397 269.137C108.206 269.182 107.996 269.205 107.769 269.205C107.144 269.205 106.641 269.025 106.258 268.665C105.88 268.305 105.69 267.742 105.69 266.977ZM110.147 269V261.795H111.932V269H110.147ZM109.983 259.737C109.983 259.459 110.075 259.227 110.257 259.04C110.439 258.853 110.701 258.76 111.043 258.76C111.38 258.76 111.64 258.853 111.822 259.04C112.009 259.227 112.103 259.459 112.103 259.737C112.103 260.015 112.009 260.25 111.822 260.441C111.64 260.628 111.378 260.722 111.036 260.722C110.699 260.722 110.439 260.628 110.257 260.441C110.075 260.25 109.983 260.015 109.983 259.737ZM113.429 265.507V265.288C113.429 264.167 113.759 263.271 114.42 262.602C115.085 261.927 115.956 261.59 117.031 261.59C118.111 261.59 118.982 261.927 119.643 262.602C120.308 263.271 120.641 264.167 120.641 265.288V265.507C120.641 266.623 120.308 267.519 119.643 268.193C118.982 268.868 118.111 269.205 117.031 269.205C115.956 269.205 115.085 268.868 114.42 268.193C113.759 267.519 113.429 266.623 113.429 265.507ZM115.247 265.213V265.582C115.247 266.275 115.4 266.824 115.705 267.229C116.01 267.631 116.452 267.831 117.031 267.831C117.61 267.831 118.052 267.631 118.357 267.229C118.663 266.824 118.815 266.275 118.815 265.582V265.213C118.815 264.516 118.66 263.966 118.351 263.565C118.045 263.164 117.605 262.964 117.031 262.964C116.462 262.964 116.022 263.164 115.712 263.565C115.402 263.966 115.247 264.516 115.247 265.213ZM122.104 269V261.795H123.771L123.819 262.643H123.86C124.07 262.346 124.359 262.107 124.729 261.925C125.098 261.743 125.506 261.651 125.952 261.651C126.69 261.651 127.287 261.861 127.743 262.28C128.199 262.695 128.427 263.417 128.427 264.447V269H126.649V264.399C126.649 263.907 126.54 263.561 126.321 263.36C126.107 263.155 125.802 263.053 125.405 263.053C125.077 263.053 124.776 263.144 124.503 263.326C124.234 263.508 124.027 263.759 123.881 264.078V269H122.104Z" fill="#8B8A8C"/>
<g clip-path="url(#clip6_1909_62124)">
<rect width="392" height="146" transform="translate(36 288)" fill="white"/>
<rect x="36" y="288" width="392" height="84" rx="8" fill="#F5F4F6"/>
<path d="M51.4727 313V309.35L48.0273 303.047H49.791L51.9238 307.094C51.9967 307.226 52.0605 307.351 52.1152 307.47C52.1745 307.584 52.2292 307.702 52.2793 307.825H52.3203C52.3659 307.702 52.4183 307.584 52.4775 307.47C52.5368 307.351 52.6006 307.226 52.6689 307.094L54.8359 303.047H56.4697L53.0518 309.309V313H51.4727ZM56.0869 309.507V309.288C56.0869 308.19 56.4059 307.301 57.0439 306.622C57.6865 305.938 58.5342 305.597 59.5869 305.597C60.6396 305.597 61.485 305.938 62.123 306.622C62.7611 307.301 63.0801 308.19 63.0801 309.288V309.507C63.0801 310.61 62.7611 311.503 62.123 312.187C61.485 312.866 60.6396 313.205 59.5869 313.205C58.5342 313.205 57.6865 312.866 57.0439 312.187C56.4059 311.503 56.0869 310.61 56.0869 309.507ZM57.6455 309.254V309.548C57.6455 310.268 57.8096 310.856 58.1377 311.312C58.4658 311.767 58.9489 311.995 59.5869 311.995C60.2204 311.995 60.7012 311.767 61.0293 311.312C61.3574 310.856 61.5215 310.268 61.5215 309.548V309.254C61.5215 308.534 61.3551 307.946 61.0225 307.49C60.6943 307.03 60.2158 306.8 59.5869 306.8C58.9535 306.8 58.4704 307.03 58.1377 307.49C57.8096 307.946 57.6455 308.534 57.6455 309.254ZM64.543 310.361V305.802H66.0674V310.396C66.0674 310.942 66.1859 311.332 66.4229 311.564C66.6644 311.792 67.0016 311.906 67.4346 311.906C67.8083 311.906 68.1387 311.804 68.4258 311.599C68.7129 311.394 68.9339 311.129 69.0889 310.806V305.802H70.6133V313H69.2051L69.1572 312.118H69.1162C68.8747 312.433 68.5671 312.681 68.1934 312.863C67.8197 313.046 67.4049 313.137 66.9492 313.137C66.2246 313.137 65.6413 312.925 65.1992 312.501C64.7617 312.073 64.543 311.359 64.543 310.361ZM75.877 314.955L76.7041 313.902C76.8955 314.112 77.1758 314.303 77.5449 314.477C77.9141 314.65 78.3265 314.736 78.7822 314.736C79.3564 314.736 79.8122 314.568 80.1494 314.23C80.4912 313.893 80.6621 313.406 80.6621 312.768V312.187C80.4661 312.478 80.1927 312.711 79.8418 312.884C79.4954 313.052 79.0785 313.137 78.5908 313.137C77.6748 313.137 76.9388 312.799 76.3828 312.125C75.8314 311.446 75.5557 310.573 75.5557 309.507V309.288C75.5557 308.226 75.8314 307.358 76.3828 306.684C76.9388 306.005 77.6748 305.665 78.5908 305.665C79.0739 305.665 79.5 305.765 79.8691 305.966C80.2428 306.166 80.5163 306.412 80.6895 306.704H80.7305L80.7783 305.802H82.1865V312.754C82.1865 313.793 81.8743 314.59 81.25 315.146C80.6257 315.702 79.8213 315.98 78.8369 315.98C78.2308 315.98 77.6725 315.882 77.1621 315.687C76.6517 315.495 76.2233 315.251 75.877 314.955ZM77.1143 309.541C77.1143 310.225 77.2624 310.794 77.5586 311.25C77.8594 311.706 78.3265 311.934 78.96 311.934C79.3792 311.934 79.7347 311.817 80.0264 311.585C80.3226 311.348 80.5345 311.079 80.6621 310.778V308.037C80.5299 307.723 80.3158 307.449 80.0195 307.217C79.7279 306.984 79.3701 306.868 78.9463 306.868C78.3219 306.868 77.8594 307.096 77.5586 307.552C77.2624 308.007 77.1143 308.577 77.1143 309.261V309.541ZM83.7178 309.507V309.288C83.7178 308.194 84.0277 307.306 84.6475 306.622C85.2673 305.938 86.0785 305.597 87.0811 305.597C88.0837 305.597 88.8607 305.918 89.4121 306.561C89.9635 307.199 90.2393 308.067 90.2393 309.165V309.76H84.7021V308.659H88.7217V308.502C88.7217 308.023 88.5827 307.618 88.3047 307.285C88.0267 306.948 87.6302 306.779 87.1152 306.779C86.4954 306.779 86.0306 307.014 85.7207 307.483C85.4108 307.948 85.2559 308.538 85.2559 309.254V309.548C85.2559 310.254 85.4199 310.842 85.748 311.312C86.0807 311.776 86.5843 312.009 87.2588 312.009C87.6917 312.009 88.0632 311.911 88.373 311.715C88.6875 311.519 88.9427 311.289 89.1387 311.024L90.1641 311.77C89.9362 312.143 89.5716 312.476 89.0703 312.768C88.5736 313.059 87.9743 313.205 87.2725 313.205C86.1377 313.205 85.2604 312.863 84.6406 312.18C84.0254 311.496 83.7178 310.605 83.7178 309.507ZM90.7383 306.943V305.802H94.9492V306.943H90.7383ZM91.9551 311.1V306.451V306.246V304.052H93.4727V311.086C93.4727 311.405 93.5365 311.633 93.6641 311.77C93.7917 311.902 93.9808 311.968 94.2314 311.968C94.3545 311.968 94.473 311.954 94.5869 311.927C94.7054 311.899 94.8239 311.863 94.9424 311.817V313C94.8285 313.055 94.6758 313.103 94.4844 313.144C94.293 313.185 94.0833 313.205 93.8555 313.205C93.2767 313.205 92.8141 313.036 92.4678 312.699C92.126 312.357 91.9551 311.824 91.9551 311.1Z" fill="#828282"/>
<path d="M49.0527 345.355V338.738C49.0527 336.587 49.627 334.883 50.7754 333.625C51.9238 332.358 53.5508 331.725 55.6562 331.725C57.7526 331.725 59.3796 332.354 60.5371 333.611C61.6947 334.869 62.2734 336.578 62.2734 338.738V345.355C62.2734 347.525 61.6855 349.238 60.5098 350.496C59.3431 351.745 57.7253 352.369 55.6562 352.369C53.5508 352.36 51.9238 351.731 50.7754 350.482C49.627 349.234 49.0527 347.525 49.0527 345.355ZM52.7988 345.793C52.7988 346.941 53.0267 347.862 53.4824 348.555C53.9473 349.247 54.6719 349.594 55.6562 349.594C56.6497 349.594 57.3743 349.247 57.8301 348.555C58.2949 347.862 58.5273 346.941 58.5273 345.793V338.328C58.5273 337.171 58.2949 336.25 57.8301 335.566C57.3743 334.874 56.6497 334.527 55.6562 334.527C54.6719 334.527 53.9473 334.874 53.4824 335.566C53.0267 336.25 52.7988 337.171 52.7988 338.328V345.793ZM65.1992 350.154C65.1992 349.553 65.3906 349.047 65.7734 348.637C66.1654 348.227 66.7214 348.021 67.4414 348.021C68.1706 348.021 68.7266 348.227 69.1094 348.637C69.5013 349.047 69.6973 349.553 69.6973 350.154C69.6973 350.747 69.5013 351.253 69.1094 351.672C68.7266 352.082 68.1706 352.287 67.4414 352.287C66.7214 352.287 66.1654 352.082 65.7734 351.672C65.3906 351.253 65.1992 350.747 65.1992 350.154ZM72.6777 345.355V338.738C72.6777 336.587 73.252 334.883 74.4004 333.625C75.5488 332.358 77.1758 331.725 79.2812 331.725C81.3776 331.725 83.0046 332.354 84.1621 333.611C85.3197 334.869 85.8984 336.578 85.8984 338.738V345.355C85.8984 347.525 85.3105 349.238 84.1348 350.496C82.9681 351.745 81.3503 352.369 79.2812 352.369C77.1758 352.36 75.5488 351.731 74.4004 350.482C73.252 349.234 72.6777 347.525 72.6777 345.355ZM76.4238 345.793C76.4238 346.941 76.6517 347.862 77.1074 348.555C77.5723 349.247 78.2969 349.594 79.2812 349.594C80.2747 349.594 80.9993 349.247 81.4551 348.555C81.9199 347.862 82.1523 346.941 82.1523 345.793V338.328C82.1523 337.171 81.9199 336.25 81.4551 335.566C80.9993 334.874 80.2747 334.527 79.2812 334.527C78.2969 334.527 77.5723 334.874 77.1074 335.566C76.6517 336.25 76.4238 337.171 76.4238 338.328V345.793ZM87.9492 352V349.648L94.8398 341.965C95.6055 341.108 96.2116 340.315 96.6582 339.586C97.1048 338.848 97.3281 338.082 97.3281 337.289C97.3281 336.451 97.0866 335.781 96.6035 335.279C96.1296 334.769 95.4642 334.514 94.6074 334.514C93.7415 334.514 93.0306 334.801 92.4746 335.375C91.9186 335.94 91.6406 336.829 91.6406 338.041V338.396H87.9219V337.863C87.9219 336.04 88.5417 334.564 89.7812 333.434C91.0208 332.294 92.6341 331.725 94.6211 331.725C96.681 331.725 98.2669 332.235 99.3789 333.256C100.5 334.268 101.061 335.557 101.061 337.125C101.061 338.41 100.737 339.559 100.09 340.57C99.4427 341.582 98.6133 342.639 97.6016 343.742L92.9121 349.033H101.525V352H87.9492ZM103.125 343.688V343.113C103.125 339.65 104.077 336.902 105.982 334.869C107.896 332.837 110.64 331.82 114.213 331.82H114.719V334.746H114.254C111.884 334.746 110.025 335.411 108.676 336.742C107.336 338.073 106.666 340.26 106.666 343.305L106.789 343.852C106.789 346.048 107.099 347.561 107.719 348.391C108.348 349.211 109.173 349.621 110.193 349.621C111.196 349.621 111.962 349.288 112.49 348.623C113.028 347.958 113.297 346.923 113.297 345.52C113.297 344.262 113.033 343.291 112.504 342.607C111.975 341.915 111.201 341.568 110.18 341.568C109.232 341.568 108.425 341.915 107.76 342.607C107.094 343.3 106.762 344.225 106.762 345.383L105.654 345.369C105.654 343.492 106.16 341.96 107.172 340.775C108.184 339.581 109.523 338.984 111.191 338.984C112.978 338.984 114.391 339.577 115.43 340.762C116.469 341.938 116.988 343.523 116.988 345.52C116.988 347.579 116.368 349.238 115.129 350.496C113.889 351.745 112.244 352.369 110.193 352.369C108.143 352.369 106.452 351.686 105.121 350.318C103.79 348.951 103.125 346.741 103.125 343.688ZM118.314 346.586V346.176H121.951V346.531C121.951 347.525 122.234 348.286 122.799 348.814C123.364 349.343 124.134 349.607 125.109 349.607C126.094 349.607 126.864 349.343 127.42 348.814C127.985 348.277 128.268 347.434 128.268 346.285C128.268 345.155 127.944 344.316 127.297 343.77C126.659 343.223 125.775 342.949 124.645 342.949H122.799V340.379H124.535C125.52 340.379 126.285 340.124 126.832 339.613C127.388 339.094 127.666 338.324 127.666 337.303C127.666 336.355 127.438 335.648 126.982 335.184C126.527 334.719 125.88 334.486 125.041 334.486C124.166 334.486 123.496 334.728 123.031 335.211C122.576 335.694 122.348 336.391 122.348 337.303V337.576H118.738V337.275C118.729 335.653 119.308 334.322 120.475 333.283C121.641 332.244 123.191 331.725 125.123 331.725C127.092 331.725 128.623 332.212 129.717 333.188C130.82 334.154 131.371 335.389 131.371 336.893C131.371 337.977 131.12 338.921 130.619 339.723C130.118 340.525 129.366 341.126 128.363 341.527V341.582C129.43 341.837 130.3 342.384 130.975 343.223C131.658 344.061 132 345.132 132 346.436C132 348.24 131.376 349.68 130.127 350.756C128.878 351.831 127.197 352.369 125.082 352.369C122.94 352.369 121.277 351.84 120.092 350.783C118.907 349.717 118.314 348.318 118.314 346.586ZM133.791 346.695C133.791 345.41 134.151 344.344 134.871 343.496C135.591 342.639 136.421 342.056 137.359 341.746V341.691C136.53 341.318 135.828 340.748 135.254 339.982C134.689 339.208 134.406 338.246 134.406 337.098C134.406 335.484 134.971 334.186 136.102 333.201C137.232 332.217 138.74 331.725 140.627 331.725C142.514 331.725 144.022 332.221 145.152 333.215C146.283 334.208 146.848 335.503 146.848 337.098C146.848 338.255 146.57 339.221 146.014 339.996C145.467 340.762 144.774 341.327 143.936 341.691V341.746C144.893 342.038 145.717 342.612 146.41 343.469C147.112 344.326 147.463 345.401 147.463 346.695C147.463 348.482 146.829 349.876 145.562 350.879C144.296 351.872 142.65 352.369 140.627 352.369C138.604 352.369 136.958 351.872 135.691 350.879C134.424 349.876 133.791 348.482 133.791 346.695ZM137.496 346.381C137.496 347.42 137.77 348.231 138.316 348.814C138.872 349.389 139.643 349.676 140.627 349.676C141.611 349.676 142.377 349.384 142.924 348.801C143.48 348.217 143.758 347.415 143.758 346.395C143.758 345.337 143.48 344.517 142.924 343.934C142.377 343.35 141.611 343.059 140.627 343.059C139.652 343.059 138.886 343.35 138.33 343.934C137.774 344.517 137.496 345.333 137.496 346.381ZM137.975 337.453C137.975 338.392 138.207 339.148 138.672 339.723C139.146 340.288 139.798 340.57 140.627 340.57C141.456 340.57 142.104 340.288 142.568 339.723C143.042 339.148 143.279 338.392 143.279 337.453C143.279 336.533 143.051 335.803 142.596 335.266C142.14 334.719 141.484 334.445 140.627 334.445C139.77 334.445 139.114 334.714 138.658 335.252C138.202 335.781 137.975 336.514 137.975 337.453ZM149.104 346.695V346.326H152.768V346.654C152.768 347.611 153.041 348.345 153.588 348.855C154.144 349.357 154.91 349.607 155.885 349.607C156.878 349.607 157.653 349.275 158.209 348.609C158.774 347.935 159.057 346.923 159.057 345.574C159.057 344.234 158.774 343.255 158.209 342.635C157.644 342.015 156.896 341.705 155.967 341.705C155.265 341.705 154.654 341.846 154.135 342.129C153.615 342.411 153.169 342.785 152.795 343.25L149.773 342.17L150.785 332.094H161.736V335.074L153.684 335.047L153.178 340.037C153.588 339.736 154.094 339.486 154.695 339.285C155.306 339.076 155.98 338.971 156.719 338.971C158.423 338.971 159.854 339.522 161.012 340.625C162.178 341.728 162.762 343.332 162.762 345.438C162.762 347.589 162.146 349.284 160.916 350.523C159.695 351.754 158.027 352.369 155.912 352.369C153.752 352.369 152.075 351.85 150.881 350.811C149.696 349.762 149.104 348.391 149.104 346.695Z" fill="#181718"/>
<rect x="345" y="324" width="71" height="36" rx="6" fill="white"/>
<path d="M354.227 347V335.625H358.305C359.518 335.625 360.469 335.87 361.156 336.359C361.849 336.844 362.195 337.599 362.195 338.625C362.195 339.255 362.047 339.771 361.75 340.172C361.453 340.568 361.086 340.844 360.648 341V341.031C361.185 341.188 361.628 341.492 361.977 341.945C362.331 342.398 362.508 342.992 362.508 343.727C362.508 344.763 362.143 345.568 361.414 346.141C360.685 346.714 359.724 347 358.531 347H354.227ZM356.297 345.461H358.477C359.143 345.461 359.633 345.297 359.945 344.969C360.258 344.641 360.414 344.198 360.414 343.641C360.414 343.083 360.258 342.643 359.945 342.32C359.633 341.992 359.143 341.828 358.477 341.828H356.297V345.461ZM356.297 340.367H358.25C358.917 340.367 359.396 340.227 359.688 339.945C359.979 339.659 360.125 339.26 360.125 338.75C360.125 338.245 359.979 337.857 359.688 337.586C359.396 337.31 358.917 337.172 358.25 337.172H356.297V340.367ZM363.242 337.258V335.625H372.25V337.258H368.797V347H366.695V337.258H363.242ZM373.07 341.664V340.961C373.07 339.159 373.529 337.781 374.445 336.828C375.367 335.875 376.555 335.398 378.008 335.398C379.409 335.398 380.513 335.771 381.32 336.516C382.133 337.255 382.539 338.193 382.539 339.328V339.492H380.43V339.297C380.43 338.604 380.227 338.057 379.82 337.656C379.419 337.25 378.81 337.047 377.992 337.047C377.169 337.047 376.503 337.344 375.992 337.938C375.482 338.526 375.227 339.471 375.227 340.773V341.859C375.227 343.062 375.479 343.984 375.984 344.625C376.49 345.26 377.167 345.578 378.016 345.578C378.792 345.578 379.375 345.37 379.766 344.953C380.156 344.531 380.375 343.984 380.422 343.312L380.43 343.133H382.539L382.531 343.32C382.464 344.435 382.042 345.365 381.266 346.109C380.495 346.854 379.409 347.227 378.008 347.227C376.549 347.227 375.362 346.747 374.445 345.789C373.529 344.831 373.07 343.456 373.07 341.664Z" fill="#181718"/>
<g clip-path="url(#clip7_1909_62124)">
<rect width="20" height="20" transform="translate(388 332)" fill="#F7931A"/>
<path d="M400.509 341.641C401.121 341.335 401.478 340.825 401.427 339.908C401.325 338.685 400.254 338.277 398.929 338.124V336.442H397.909V338.073C397.655 338.073 397.349 338.073 397.094 338.073V336.391H396.074V338.073C395.87 338.073 395.616 338.073 395.412 338.073H393.984V339.194H394.749C395.157 339.194 395.31 339.449 395.361 339.653V341.59C395.412 341.59 395.412 341.59 395.463 341.59C395.412 341.59 395.412 341.59 395.361 341.59V344.292C395.361 344.445 395.259 344.649 394.953 344.649H394.188L393.984 345.872H395.31C395.565 345.872 395.819 345.872 396.023 345.872V347.605H397.043V345.923C397.349 345.923 397.604 345.923 397.859 345.923V347.605H398.878V345.872C400.611 345.77 401.835 345.362 401.988 343.731C402.14 342.508 401.529 341.896 400.509 341.641ZM397.094 339.347C397.655 339.347 399.49 339.194 399.49 340.418C399.49 341.59 397.655 341.437 397.094 341.437V339.347ZM397.043 344.7V342.406C397.757 342.406 399.949 342.202 399.949 343.578C399.949 344.853 397.757 344.7 397.043 344.7Z" fill="white"/>
</g>
<rect x="388.25" y="332.25" width="19.5" height="19.5" rx="9.75" stroke="#1B1A1C" stroke-opacity="0.08" stroke-width="0.5"/>
<rect x="36.75" y="374.75" width="390.5" height="58.5" rx="7.25" fill="#F5F4F6"/>
<rect x="36.75" y="374.75" width="390.5" height="58.5" rx="7.25" stroke="#F5F4F6" stroke-width="1.5"/>
<rect x="48.75" y="386.75" width="161.5" height="34.5" rx="5.25" fill="white"/>
<rect x="48.75" y="386.75" width="161.5" height="34.5" rx="5.25" stroke="#63D369" stroke-width="1.5"/>
<g clip-path="url(#clip8_1909_62124)">
<rect width="20" height="20" transform="translate(56 394)" fill="#F7931A"/>
<path d="M68.5092 403.641C69.1209 403.335 69.4778 402.825 69.4268 401.908C69.3249 400.685 68.2544 400.277 66.929 400.124V398.442H65.9095V400.073C65.6546 400.073 65.3488 400.073 65.0939 400.073V398.391H64.0744V400.073C63.8705 400.073 63.6156 400.073 63.4117 400.073H61.9844V401.194H62.749C63.1568 401.194 63.3097 401.449 63.3607 401.653V403.59C63.4117 403.59 63.4117 403.59 63.4627 403.59C63.4117 403.59 63.4117 403.59 63.3607 403.59V406.292C63.3607 406.445 63.2588 406.649 62.9529 406.649H62.1883L61.9844 407.872H63.3097C63.5646 407.872 63.8195 407.872 64.0234 407.872V409.605H65.0429V407.923C65.3488 407.923 65.6036 407.923 65.8585 407.923V409.605H66.878V407.872C68.6112 407.77 69.8346 407.362 69.9875 405.731C70.1405 404.508 69.5288 403.896 68.5092 403.641ZM65.0939 401.347C65.6546 401.347 67.4897 401.194 67.4897 402.418C67.4897 403.59 65.6546 403.437 65.0939 403.437V401.347ZM65.0429 406.7V404.406C65.7566 404.406 67.9485 404.202 67.9485 405.578C67.9485 406.853 65.7566 406.7 65.0429 406.7Z" fill="white"/>
</g>
<rect x="56.25" y="394.25" width="19.5" height="19.5" rx="3.75" stroke="black" stroke-opacity="0.08" stroke-width="0.5"/>
<path d="M82 403.107V401.795H86.3271V403.107H82ZM83.1416 406.977V402.506L83.1484 402.301V400.072H84.9189V406.949C84.9189 407.273 84.9805 407.498 85.1035 407.626C85.2266 407.754 85.4066 407.817 85.6436 407.817C85.7529 407.817 85.8623 407.806 85.9717 407.783C86.0856 407.756 86.1973 407.722 86.3066 407.681V408.993C86.1973 409.048 86.0446 409.096 85.8486 409.137C85.6572 409.182 85.4476 409.205 85.2197 409.205C84.5954 409.205 84.0918 409.025 83.709 408.665C83.3307 408.305 83.1416 407.742 83.1416 406.977ZM87.0244 405.507V405.288C87.0244 404.167 87.3548 403.271 88.0156 402.602C88.681 401.927 89.5514 401.59 90.627 401.59C91.707 401.59 92.5775 401.927 93.2383 402.602C93.9036 403.271 94.2363 404.167 94.2363 405.288V405.507C94.2363 406.623 93.9036 407.519 93.2383 408.193C92.5775 408.868 91.707 409.205 90.627 409.205C89.5514 409.205 88.681 408.868 88.0156 408.193C87.3548 407.519 87.0244 406.623 87.0244 405.507ZM88.8428 405.213V405.582C88.8428 406.275 88.9954 406.824 89.3008 407.229C89.6061 407.631 90.0482 407.831 90.627 407.831C91.2057 407.831 91.6478 407.631 91.9531 407.229C92.2585 406.824 92.4111 406.275 92.4111 405.582V405.213C92.4111 404.516 92.2562 403.966 91.9463 403.565C91.641 403.164 91.2012 402.964 90.627 402.964C90.0573 402.964 89.6175 403.164 89.3076 403.565C88.9977 403.966 88.8428 404.516 88.8428 405.213ZM99.2812 409V399.047H102.85C103.916 399.047 104.755 399.261 105.365 399.689C105.976 400.113 106.281 400.776 106.281 401.679C106.281 402.226 106.151 402.674 105.892 403.025C105.632 403.372 105.311 403.613 104.928 403.75V403.777C105.397 403.914 105.785 404.181 106.09 404.577C106.395 404.969 106.548 405.486 106.548 406.129C106.548 407.04 106.227 407.747 105.584 408.248C104.946 408.749 104.101 409 103.048 409H99.2812ZM101.093 407.653H103.021C103.608 407.653 104.039 407.51 104.312 407.223C104.586 406.936 104.723 406.546 104.723 406.054C104.723 405.571 104.586 405.188 104.312 404.905C104.039 404.618 103.608 404.475 103.021 404.475H101.093V407.653ZM101.093 403.183H102.822C103.406 403.183 103.825 403.06 104.08 402.813C104.34 402.567 104.47 402.223 104.47 401.781C104.47 401.339 104.34 401 104.08 400.763C103.825 400.521 103.406 400.4 102.822 400.4H101.093V403.183ZM108.147 409V401.795H109.932V409H108.147ZM107.983 399.737C107.983 399.459 108.075 399.227 108.257 399.04C108.439 398.853 108.701 398.76 109.043 398.76C109.38 398.76 109.64 398.853 109.822 399.04C110.009 399.227 110.103 399.459 110.103 399.737C110.103 400.015 110.009 400.25 109.822 400.441C109.64 400.628 109.378 400.722 109.036 400.722C108.699 400.722 108.439 400.628 108.257 400.441C108.075 400.25 107.983 400.015 107.983 399.737ZM110.902 403.107V401.795H115.229V403.107H110.902ZM112.044 406.977V402.506L112.051 402.301V400.072H113.821V406.949C113.821 407.273 113.883 407.498 114.006 407.626C114.129 407.754 114.309 407.817 114.546 407.817C114.655 407.817 114.765 407.806 114.874 407.783C114.988 407.756 115.1 407.722 115.209 407.681V408.993C115.1 409.048 114.947 409.096 114.751 409.137C114.56 409.182 114.35 409.205 114.122 409.205C113.498 409.205 112.994 409.025 112.611 408.665C112.233 408.305 112.044 407.742 112.044 406.977ZM116.063 405.507V405.288C116.063 404.167 116.385 403.271 117.027 402.602C117.67 401.927 118.531 401.59 119.611 401.59C120.628 401.59 121.402 401.85 121.936 402.369C122.469 402.889 122.747 403.495 122.77 404.188L122.776 404.276H121.047V404.208C121.047 403.857 120.928 403.559 120.691 403.312C120.459 403.062 120.097 402.937 119.604 402.937C119.026 402.937 118.593 403.148 118.306 403.572C118.023 403.992 117.882 404.538 117.882 405.213V405.582C117.882 406.252 118.021 406.799 118.299 407.223C118.581 407.646 119.014 407.858 119.598 407.858C120.122 407.858 120.493 407.731 120.712 407.476C120.935 407.216 121.047 406.917 121.047 406.58V406.519H122.776V406.587C122.776 407.275 122.503 407.883 121.956 408.412C121.414 408.941 120.632 409.205 119.611 409.205C118.531 409.205 117.67 408.868 117.027 408.193C116.385 407.519 116.063 406.623 116.063 405.507ZM123.679 405.507V405.288C123.679 404.167 124.009 403.271 124.67 402.602C125.335 401.927 126.206 401.59 127.281 401.59C128.361 401.59 129.232 401.927 129.893 402.602C130.558 403.271 130.891 404.167 130.891 405.288V405.507C130.891 406.623 130.558 407.519 129.893 408.193C129.232 408.868 128.361 409.205 127.281 409.205C126.206 409.205 125.335 408.868 124.67 408.193C124.009 407.519 123.679 406.623 123.679 405.507ZM125.497 405.213V405.582C125.497 406.275 125.65 406.824 125.955 407.229C126.26 407.631 126.702 407.831 127.281 407.831C127.86 407.831 128.302 407.631 128.607 407.229C128.913 406.824 129.065 406.275 129.065 405.582V405.213C129.065 404.516 128.91 403.966 128.601 403.565C128.295 403.164 127.855 402.964 127.281 402.964C126.712 402.964 126.272 403.164 125.962 403.565C125.652 403.966 125.497 404.516 125.497 405.213ZM132.388 409V401.795H134.172V409H132.388ZM132.224 399.737C132.224 399.459 132.315 399.227 132.497 399.04C132.679 398.853 132.941 398.76 133.283 398.76C133.62 398.76 133.88 398.853 134.062 399.04C134.249 399.227 134.343 399.459 134.343 399.737C134.343 400.015 134.249 400.25 134.062 400.441C133.88 400.628 133.618 400.722 133.276 400.722C132.939 400.722 132.679 400.628 132.497 400.441C132.315 400.25 132.224 400.015 132.224 399.737ZM136.072 409V401.795H137.74L137.788 402.643H137.829C138.039 402.346 138.328 402.107 138.697 401.925C139.066 401.743 139.474 401.651 139.921 401.651C140.659 401.651 141.256 401.861 141.712 402.28C142.168 402.695 142.396 403.417 142.396 404.447V409H140.618V404.399C140.618 403.907 140.509 403.561 140.29 403.36C140.076 403.155 139.771 403.053 139.374 403.053C139.046 403.053 138.745 403.144 138.472 403.326C138.203 403.508 137.995 403.759 137.85 404.078V409H136.072ZM147.235 406.881C147.235 406.097 147.538 405.505 148.145 405.104C148.755 404.698 149.523 404.495 150.448 404.495H151.918V404.058C151.918 403.702 151.825 403.413 151.638 403.189C151.455 402.962 151.132 402.848 150.667 402.848C150.202 402.848 149.872 402.941 149.676 403.128C149.484 403.315 149.389 403.536 149.389 403.791V403.873H147.632V403.791C147.632 403.171 147.917 402.649 148.486 402.226C149.056 401.802 149.806 401.59 150.735 401.59C151.665 401.59 152.39 401.795 152.909 402.205C153.433 402.611 153.695 403.23 153.695 404.064V407.373C153.695 407.669 153.72 407.95 153.771 408.214C153.821 408.474 153.889 408.699 153.976 408.891V409H152.239C152.18 408.891 152.128 408.749 152.082 408.576C152.036 408.403 152.007 408.232 151.993 408.063C151.843 408.341 151.574 408.59 151.187 408.809C150.799 409.027 150.309 409.137 149.717 409.137C149.02 409.137 148.432 408.948 147.953 408.569C147.475 408.187 147.235 407.624 147.235 406.881ZM149.02 406.737C149.02 407.084 149.12 407.362 149.32 407.571C149.521 407.776 149.838 407.879 150.271 407.879C150.722 407.879 151.109 407.731 151.433 407.435C151.756 407.138 151.918 406.799 151.918 406.416V405.616H150.681C150.125 405.616 149.708 405.714 149.43 405.91C149.156 406.106 149.02 406.382 149.02 406.737ZM155.165 405.507V405.288C155.165 404.222 155.45 403.351 156.02 402.677C156.589 401.998 157.334 401.658 158.255 401.658C158.724 401.658 159.128 401.743 159.465 401.911C159.802 402.075 160.064 402.294 160.251 402.567V398.521H162.028V409H160.36L160.312 408.132H160.278C160.114 408.419 159.852 408.658 159.492 408.85C159.137 409.041 158.727 409.137 158.262 409.137C157.305 409.137 156.548 408.799 155.992 408.125C155.441 407.446 155.165 406.573 155.165 405.507ZM156.983 405.575C156.983 406.213 157.122 406.74 157.4 407.154C157.678 407.564 158.102 407.77 158.672 407.77C159.059 407.77 159.387 407.665 159.656 407.455C159.925 407.241 160.123 406.993 160.251 406.71V404.085C160.128 403.798 159.934 403.549 159.67 403.34C159.406 403.13 159.073 403.025 158.672 403.025C158.107 403.025 157.683 403.233 157.4 403.647C157.122 404.058 156.983 404.582 156.983 405.22V405.575ZM163.478 405.507V405.288C163.478 404.222 163.762 403.351 164.332 402.677C164.902 401.998 165.647 401.658 166.567 401.658C167.037 401.658 167.44 401.743 167.777 401.911C168.115 402.075 168.377 402.294 168.563 402.567V398.521H170.341V409H168.673L168.625 408.132H168.591C168.427 408.419 168.165 408.658 167.805 408.85C167.449 409.041 167.039 409.137 166.574 409.137C165.617 409.137 164.861 408.799 164.305 408.125C163.753 407.446 163.478 406.573 163.478 405.507ZM165.296 405.575C165.296 406.213 165.435 406.74 165.713 407.154C165.991 407.564 166.415 407.77 166.984 407.77C167.372 407.77 167.7 407.665 167.969 407.455C168.238 407.241 168.436 406.993 168.563 406.71V404.085C168.44 403.798 168.247 403.549 167.982 403.34C167.718 403.13 167.385 403.025 166.984 403.025C166.419 403.025 165.995 403.233 165.713 403.647C165.435 404.058 165.296 404.582 165.296 405.22V405.575ZM172.193 409V401.795H173.868L173.916 402.629H173.95C174.105 402.351 174.317 402.109 174.586 401.904C174.855 401.699 175.165 401.597 175.516 401.597C175.611 401.597 175.709 401.608 175.81 401.631C175.91 401.654 175.98 401.674 176.021 401.692V403.251C175.939 403.233 175.851 403.219 175.755 403.21C175.664 403.201 175.563 403.196 175.454 403.196C175.108 403.196 174.805 403.294 174.545 403.49C174.285 403.682 174.096 403.925 173.978 404.222V409H172.193ZM176.644 405.507V405.288C176.644 404.181 176.965 403.287 177.607 402.608C178.255 401.929 179.091 401.59 180.116 401.59C181.142 401.59 181.941 401.909 182.516 402.547C183.094 403.18 183.384 404.053 183.384 405.165V405.821H177.826V404.646H181.613V404.481C181.618 404.044 181.49 403.673 181.23 403.367C180.975 403.062 180.608 402.909 180.13 402.909C179.565 402.909 179.139 403.121 178.852 403.545C178.564 403.969 178.421 404.525 178.421 405.213V405.575C178.421 406.25 178.574 406.799 178.879 407.223C179.189 407.646 179.651 407.858 180.267 407.858C180.677 407.858 181.03 407.763 181.326 407.571C181.627 407.375 181.868 407.147 182.051 406.888L183.274 407.735C183.047 408.136 182.673 408.483 182.153 408.774C181.634 409.062 181.014 409.205 180.294 409.205C179.146 409.205 178.25 408.866 177.607 408.187C176.965 407.503 176.644 406.61 176.644 405.507ZM184.313 406.778L186.07 406.785V406.867C186.07 407.232 186.196 407.501 186.446 407.674C186.701 407.847 187.043 407.934 187.472 407.934C187.905 407.934 188.237 407.852 188.47 407.688C188.702 407.519 188.818 407.298 188.818 407.024C188.818 406.751 188.709 406.548 188.49 406.416C188.271 406.279 187.768 406.124 186.979 405.951C186.159 405.773 185.544 405.509 185.134 405.158C184.724 404.807 184.519 404.342 184.519 403.764C184.519 403.107 184.783 402.581 185.312 402.185C185.845 401.788 186.56 401.59 187.458 401.59C188.356 401.59 189.074 401.793 189.611 402.198C190.154 402.604 190.425 403.158 190.425 403.859V403.921H188.682V403.825C188.682 403.529 188.581 403.297 188.381 403.128C188.18 402.955 187.87 402.868 187.451 402.868C187.036 402.868 186.733 402.941 186.542 403.087C186.355 403.233 186.262 403.422 186.262 403.654C186.262 403.887 186.376 404.071 186.604 404.208C186.836 404.34 187.349 404.493 188.142 404.666C188.957 404.839 189.566 405.101 189.967 405.452C190.372 405.799 190.575 406.284 190.575 406.908C190.575 407.61 190.313 408.168 189.789 408.583C189.265 408.998 188.495 409.205 187.479 409.205C186.467 409.205 185.685 408.998 185.134 408.583C184.587 408.164 184.313 407.583 184.313 406.84V406.778ZM191.56 406.778L193.316 406.785V406.867C193.316 407.232 193.442 407.501 193.692 407.674C193.948 407.847 194.289 407.934 194.718 407.934C195.151 407.934 195.483 407.852 195.716 407.688C195.948 407.519 196.064 407.298 196.064 407.024C196.064 406.751 195.955 406.548 195.736 406.416C195.518 406.279 195.014 406.124 194.226 405.951C193.405 405.773 192.79 405.509 192.38 405.158C191.97 404.807 191.765 404.342 191.765 403.764C191.765 403.107 192.029 402.581 192.558 402.185C193.091 401.788 193.806 401.59 194.704 401.59C195.602 401.59 196.32 401.793 196.857 402.198C197.4 402.604 197.671 403.158 197.671 403.859V403.921H195.928V403.825C195.928 403.529 195.827 403.297 195.627 403.128C195.426 402.955 195.117 402.868 194.697 402.868C194.283 402.868 193.979 402.941 193.788 403.087C193.601 403.233 193.508 403.422 193.508 403.654C193.508 403.887 193.622 404.071 193.85 404.208C194.082 404.34 194.595 404.493 195.388 404.666C196.203 404.839 196.812 405.101 197.213 405.452C197.618 405.799 197.821 406.284 197.821 406.908C197.821 407.61 197.559 408.168 197.035 408.583C196.511 408.998 195.741 409.205 194.725 409.205C193.713 409.205 192.931 408.998 192.38 408.583C191.833 408.164 191.56 407.583 191.56 406.84V406.778Z" fill="#181718"/>
<g clip-path="url(#clip9_1909_62124)">
<rect x="200" y="389" width="8" height="8" rx="4" fill="#63D369"/>
<path fill-rule="evenodd" clip-rule="evenodd" d="M206.036 391.584C206.231 391.779 206.231 392.096 206.036 392.291L203.914 394.412C203.82 394.506 203.693 394.559 203.561 394.559C203.428 394.559 203.301 394.506 203.207 394.412L202.146 393.352C201.951 393.156 201.951 392.84 202.146 392.645C202.342 392.449 202.658 392.449 202.854 392.645L203.561 393.352L205.328 391.584C205.524 391.389 205.84 391.389 206.036 391.584Z" fill="white"/>
</g>
</g>
<rect width="392" height="52" transform="translate(36 458)" fill="white"/>
<g clip-path="url(#clip10_1909_62124)">
<rect x="36" y="458" width="392" height="52" rx="8" fill="black"/>
<path d="M200.344 483.672V482.953C200.344 481.177 200.797 479.807 201.703 478.844C202.609 477.88 203.76 477.398 205.156 477.398C206.531 477.398 207.612 477.768 208.398 478.508C209.185 479.247 209.578 480.164 209.578 481.258V481.383H207.781V481.242C207.781 480.529 207.562 479.953 207.125 479.516C206.693 479.073 206.036 478.852 205.156 478.852C204.276 478.852 203.557 479.177 203 479.828C202.443 480.474 202.164 481.484 202.164 482.859V483.766C202.164 485.042 202.44 486.029 202.992 486.727C203.544 487.424 204.268 487.773 205.164 487.773C205.997 487.773 206.625 487.549 207.047 487.102C207.474 486.648 207.719 486.073 207.781 485.375V485.242H209.578L209.57 485.383C209.487 486.461 209.073 487.372 208.328 488.117C207.589 488.857 206.531 489.227 205.156 489.227C203.755 489.227 202.602 488.745 201.695 487.781C200.794 486.812 200.344 485.443 200.344 483.672ZM210.781 485.031V484.781C210.781 483.531 211.143 482.521 211.867 481.75C212.591 480.974 213.552 480.586 214.75 480.586C215.948 480.586 216.909 480.974 217.633 481.75C218.362 482.521 218.727 483.531 218.727 484.781V485.031C218.727 486.286 218.362 487.302 217.633 488.078C216.909 488.849 215.948 489.234 214.75 489.234C213.552 489.234 212.591 488.849 211.867 488.078C211.143 487.302 210.781 486.286 210.781 485.031ZM212.547 484.742V485.078C212.547 485.896 212.732 486.565 213.102 487.086C213.477 487.607 214.026 487.867 214.75 487.867C215.474 487.867 216.023 487.607 216.398 487.086C216.773 486.565 216.961 485.896 216.961 485.078V484.742C216.961 483.924 216.773 483.258 216.398 482.742C216.023 482.221 215.474 481.961 214.75 481.961C214.031 481.961 213.484 482.221 213.109 482.742C212.734 483.258 212.547 483.924 212.547 484.742ZM220.453 489V480.82H222.055L222.109 481.836H222.156C222.422 481.477 222.768 481.193 223.195 480.984C223.622 480.771 224.094 480.664 224.609 480.664C225.438 480.664 226.102 480.901 226.602 481.375C227.107 481.844 227.359 482.641 227.359 483.766V489H225.625V483.742C225.625 483.138 225.49 482.708 225.219 482.453C224.953 482.193 224.573 482.062 224.078 482.062C223.661 482.062 223.286 482.177 222.953 482.406C222.62 482.635 222.365 482.938 222.188 483.312V489H220.453ZM228.375 482.117V480.82H233.172V482.117H228.375ZM229.758 486.836V481.547V481.32V478.789H231.484V486.805C231.484 487.185 231.555 487.451 231.695 487.602C231.841 487.753 232.06 487.828 232.352 487.828C232.492 487.828 232.628 487.812 232.758 487.781C232.893 487.75 233.026 487.711 233.156 487.664V489C233.026 489.057 232.852 489.109 232.633 489.156C232.414 489.203 232.174 489.227 231.914 489.227C231.263 489.227 230.74 489.036 230.344 488.656C229.953 488.271 229.758 487.664 229.758 486.836ZM234.68 489V480.82H236.414V489H234.68ZM234.5 478.391C234.5 478.115 234.589 477.883 234.766 477.695C234.948 477.503 235.208 477.406 235.547 477.406C235.885 477.406 236.146 477.503 236.328 477.695C236.51 477.883 236.602 478.115 236.602 478.391C236.602 478.672 236.51 478.909 236.328 479.102C236.146 479.289 235.885 479.383 235.547 479.383C235.208 479.383 234.948 479.289 234.766 479.102C234.589 478.909 234.5 478.672 234.5 478.391ZM238.656 489V480.82H240.258L240.312 481.836H240.359C240.625 481.477 240.971 481.193 241.398 480.984C241.826 480.771 242.297 480.664 242.812 480.664C243.641 480.664 244.305 480.901 244.805 481.375C245.31 481.844 245.562 482.641 245.562 483.766V489H243.828V483.742C243.828 483.138 243.693 482.708 243.422 482.453C243.156 482.193 242.776 482.062 242.281 482.062C241.865 482.062 241.49 482.177 241.156 482.406C240.823 482.635 240.568 482.938 240.391 483.312V489H238.656ZM247.594 486.016V480.82H249.328V486.047C249.328 486.672 249.464 487.115 249.734 487.375C250.005 487.635 250.385 487.766 250.875 487.766C251.302 487.766 251.68 487.648 252.008 487.414C252.336 487.174 252.589 486.872 252.766 486.508V480.82H254.5V489H252.898L252.844 487.984H252.797C252.521 488.349 252.169 488.635 251.742 488.844C251.32 489.052 250.849 489.156 250.328 489.156C249.505 489.156 248.844 488.917 248.344 488.438C247.844 487.953 247.594 487.146 247.594 486.016ZM256.219 485.031V484.781C256.219 483.542 256.57 482.534 257.273 481.758C257.977 480.977 258.898 480.586 260.039 480.586C261.18 480.586 262.062 480.951 262.688 481.68C263.312 482.404 263.625 483.393 263.625 484.648V485.312H257.32V484.07H261.898V483.891C261.904 483.349 261.747 482.888 261.43 482.508C261.117 482.122 260.664 481.93 260.07 481.93C259.367 481.93 258.839 482.195 258.484 482.727C258.135 483.258 257.961 483.93 257.961 484.742V485.07C257.961 485.883 258.148 486.555 258.523 487.086C258.898 487.617 259.469 487.883 260.234 487.883C260.729 487.883 261.154 487.771 261.508 487.547C261.862 487.323 262.148 487.06 262.367 486.758L263.539 487.594C263.279 488.021 262.865 488.401 262.297 488.734C261.734 489.068 261.052 489.234 260.25 489.234C258.964 489.234 257.969 488.846 257.266 488.07C256.568 487.289 256.219 486.276 256.219 485.031Z" fill="white"/>
</g>
</g>
<path fill-rule="evenodd" clip-rule="evenodd" d="M452 209L255 12H329.672L452 134.328V209Z" fill="black" fill-opacity="0.03"/>
<path fill-rule="evenodd" clip-rule="evenodd" d="M464 209L255 0H329.672L464 134.328V209Z" fill="#48B74D"/>
<path d="M314.377 30.0952L321.809 18.0863L323.865 20.1421L318.815 28.0394C318.704 28.2123 318.609 28.3521 318.529 28.4585C318.453 28.5605 318.349 28.6914 318.216 28.851L318.269 28.9043C318.434 28.7756 318.567 28.6736 318.669 28.5982C318.775 28.5184 318.915 28.423 319.088 28.3121L327.125 23.4021L329.367 25.6442L324.49 33.7012C324.384 33.8786 324.288 34.0183 324.204 34.1203C324.124 34.2268 324.02 34.3621 323.891 34.5262L323.945 34.5794C324.104 34.4463 324.237 34.3399 324.344 34.26C324.455 34.1846 324.594 34.0893 324.763 33.974L332.6 28.8777L334.43 30.7073L322.468 38.1854L320.192 35.91L325.036 27.7932C325.147 27.6202 325.251 27.4628 325.348 27.3208C325.446 27.1789 325.561 27.0281 325.694 26.8684L325.641 26.8152C325.481 26.9482 325.331 27.0636 325.189 27.1611C325.051 27.2632 324.894 27.3674 324.716 27.4738L316.606 32.324L314.377 30.0952ZM328.515 37.4602L328.728 37.2473C329.797 36.1784 330.979 35.6439 332.274 35.6439C333.569 35.6439 334.727 36.154 335.747 37.1741C336.772 38.1987 337.266 39.3053 337.231 40.494C337.204 41.6827 336.656 42.8115 335.588 43.8805L334.889 44.579L329.473 39.1634L330.691 37.9459L334.117 41.3722L334.257 41.2325C334.634 40.8644 334.838 40.4386 334.869 39.9551C334.904 39.4761 334.714 39.0281 334.297 38.6112C333.818 38.1322 333.274 37.9481 332.667 38.059C332.064 38.1654 331.46 38.5203 330.857 39.1235L330.425 39.5559C329.817 40.1636 329.467 40.7801 329.373 41.4055C329.289 42.0309 329.509 42.6053 330.032 43.1287C330.396 43.4924 330.797 43.7164 331.236 43.8006C331.68 43.8893 332.103 43.896 332.507 43.8206L333.093 46.1359C332.436 46.3576 331.704 46.3488 330.897 46.1093C330.094 45.8653 329.325 45.3752 328.588 44.6389C327.457 43.5079 326.894 42.297 326.899 41.0063C326.903 39.7156 327.442 38.5336 328.515 37.4602ZM342.607 44.446L344.616 46.4552L341.802 51.2921C341.673 51.5094 341.551 51.7023 341.436 51.8709C341.325 52.0439 341.201 52.2257 341.063 52.4164L341.103 52.4564C341.289 52.3144 341.464 52.1836 341.629 52.0638C341.797 51.9485 341.992 51.8287 342.214 51.7045L347.171 49.01L349.093 50.9328L346.432 55.9359C346.312 56.1621 346.195 56.3595 346.08 56.5281C345.969 56.7011 345.847 56.8851 345.714 57.0803L345.747 57.1135C345.938 56.976 346.117 56.8496 346.286 56.7343C346.454 56.619 346.645 56.4948 346.858 56.3617L351.701 53.5408L353.458 55.2972L344.483 60.1341L342.553 58.2047L345.181 53.1549C345.292 52.9465 345.41 52.7402 345.534 52.5362C345.667 52.3322 345.8 52.137 345.933 51.9507L345.9 51.9175C345.714 52.0505 345.516 52.1814 345.308 52.31C345.104 52.4342 344.9 52.5539 344.696 52.6693L339.712 55.3638L337.77 53.4211L342.607 44.446ZM347.51 63.1612L354.416 56.2553L356.438 58.2778L349.532 65.1838L347.51 63.1612ZM356.226 54.113C356.527 53.8114 356.882 53.6606 357.29 53.6606C357.703 53.6561 358.097 53.8424 358.474 54.2194C358.851 54.5964 359.035 54.989 359.027 55.397C359.027 55.8051 358.876 56.1599 358.574 56.4615C358.268 56.7676 357.909 56.9228 357.496 56.9273C357.088 56.9361 356.693 56.7498 356.312 56.3684C355.935 55.9914 355.749 55.5966 355.753 55.1841C355.762 54.7761 355.919 54.419 356.226 54.113ZM351.222 66.8737L361.348 56.7476L363.371 58.7702L353.245 68.8962L351.222 66.8737ZM354.922 70.5728L365.048 60.4468L367.07 62.4693L356.944 72.5954L354.922 70.5728ZM361.934 77.5852L372.06 67.4592L374.083 69.4817L363.956 79.6078L361.934 77.5852ZM367.31 78.9026C368.073 78.1397 368.942 77.8602 369.918 78.0643C370.898 78.2639 371.843 78.8139 372.752 79.7142L374.129 81.0914L374.522 80.6989C374.828 80.3929 374.996 80.0646 375.027 79.7142C375.063 79.3683 374.881 78.9957 374.482 78.5965C374.087 78.2018 373.725 78 373.397 77.9911C373.073 77.9778 372.796 78.0864 372.566 78.3171L372.459 78.4235L370.497 76.4609L370.603 76.3544C371.228 75.729 372.033 75.505 373.018 75.6824C374.012 75.8599 374.976 76.4165 375.912 77.3524C376.857 78.2971 377.396 79.2263 377.529 80.14C377.671 81.0537 377.334 81.9186 376.518 82.7348L373.351 85.9017C373.071 86.1811 372.83 86.4716 372.626 86.7732C372.426 87.0793 372.28 87.3631 372.186 87.6248L372.08 87.7313L370.104 85.7553C370.153 85.6 370.237 85.4182 370.357 85.2097C370.481 85.0057 370.616 84.8172 370.763 84.6442C370.363 84.7684 369.867 84.7418 369.272 84.5644C368.687 84.387 368.11 84.0144 367.543 83.4466C366.859 82.7636 366.469 82.014 366.372 81.1979C366.278 80.3862 366.591 79.6211 367.31 78.9026ZM369.492 80.7388C369.19 81.0404 369.035 81.3687 369.026 81.7235C369.022 82.0828 369.206 82.4487 369.578 82.8213C369.982 83.2249 370.446 83.4311 370.969 83.44C371.497 83.4533 371.938 83.2825 372.293 82.9277L372.938 82.2824L371.887 81.2312C371.399 80.7433 370.953 80.4616 370.55 80.3862C370.155 80.3108 369.802 80.4283 369.492 80.7388ZM376.072 86.4272L380.33 82.1692L382.346 84.1851L378.074 88.4565C377.609 88.9222 377.378 89.3391 377.382 89.7072C377.391 90.0798 377.56 90.4302 377.888 90.7584C378.181 91.0512 378.529 91.2264 378.933 91.284C379.336 91.3417 379.724 91.2996 380.097 91.1576L384.708 86.547L386.723 88.5629L379.818 95.4689L377.895 93.5461L378.653 92.7078L378.62 92.6745C378.132 92.7632 377.626 92.7145 377.103 92.5282C376.58 92.3419 376.092 92.0225 375.639 91.5701C374.952 90.8826 374.599 90.1042 374.582 89.2349C374.573 88.3655 375.069 87.4297 376.072 86.4272ZM381.468 97.1188L388.373 90.2129L390.296 92.1356L389.544 92.9673L389.578 93.0005C390.03 92.903 390.52 92.9451 391.048 93.127C391.58 93.3044 392.068 93.6149 392.512 94.0584C393.221 94.7681 393.596 95.5465 393.636 96.3936C393.685 97.2408 393.21 98.1634 392.212 99.1613L387.861 103.512L385.852 101.503L390.203 97.1521C390.629 96.7263 390.835 96.3338 390.822 95.9745C390.813 95.6197 390.64 95.2737 390.303 94.9366C390.028 94.6616 389.691 94.4842 389.292 94.4044C388.897 94.3201 388.498 94.36 388.094 94.5241L383.483 99.1347L381.468 97.1188ZM392.439 101.383L392.651 101.171C393.743 100.079 394.927 99.5384 396.204 99.5472C397.49 99.5561 398.668 100.095 399.737 101.164C400.757 102.184 401.285 103.213 401.32 104.251C401.36 105.284 401.041 106.176 400.362 106.926L400.256 107.059L398.293 105.096L398.38 105.009C398.704 104.686 398.865 104.315 398.865 103.898C398.87 103.477 398.664 103.058 398.247 102.641C397.759 102.153 397.213 101.962 396.61 102.069C396.011 102.171 395.412 102.521 394.814 103.12L394.388 103.546C393.789 104.145 393.432 104.741 393.317 105.335C393.206 105.934 393.401 106.484 393.902 106.985C394.355 107.438 394.787 107.649 395.2 107.617C395.617 107.582 395.976 107.413 396.277 107.112L396.357 107.032L398.313 108.988L398.22 109.081C397.51 109.782 396.623 110.11 395.559 110.066C394.494 110.021 393.452 109.489 392.432 108.469C391.367 107.405 390.828 106.231 390.815 104.95C390.806 103.663 391.347 102.475 392.439 101.383ZM396.956 112.607L407.082 102.481L409.091 104.491L404.96 108.622C405.474 108.516 406.002 108.538 406.543 108.689C407.089 108.835 407.617 109.163 408.127 109.673C408.779 110.325 409.109 111.068 409.118 111.902C409.136 112.736 408.681 113.616 407.754 114.543L403.323 118.974L401.307 116.958L405.592 112.674C406.035 112.23 406.253 111.818 406.244 111.436C406.235 111.055 406.062 110.696 405.725 110.359C405.428 110.061 405.088 109.891 404.707 109.846C404.334 109.802 403.94 109.877 403.523 110.072L398.972 114.623L396.956 112.607ZM410.029 121.316L411.972 123.272L411.866 123.379C411.542 123.703 411.415 124.046 411.486 124.41C411.557 124.774 411.779 125.142 412.152 125.514C412.524 125.887 412.875 126.1 413.203 126.153C413.531 126.206 413.813 126.115 414.048 125.88C414.283 125.645 414.354 125.37 414.261 125.055C414.172 124.736 413.835 124.128 413.25 123.232C412.593 122.248 412.249 121.394 412.218 120.671C412.192 119.944 412.46 119.298 413.023 118.735C413.689 118.07 414.478 117.812 415.392 117.963C416.306 118.114 417.219 118.646 418.133 119.56C419.042 120.469 419.568 121.394 419.71 122.334C419.861 123.275 419.59 124.091 418.898 124.783L418.818 124.862L416.875 122.92L416.989 122.807C417.255 122.54 417.372 122.246 417.341 121.922C417.315 121.602 417.122 121.263 416.762 120.904C416.412 120.553 416.097 120.358 415.818 120.318C415.547 120.278 415.312 120.358 415.112 120.558C414.913 120.757 414.855 121.019 414.939 121.343C415.033 121.667 415.376 122.281 415.971 123.186C416.627 124.17 416.978 125.022 417.022 125.741C417.071 126.464 416.798 127.122 416.204 127.717C415.494 128.426 414.673 128.715 413.742 128.582C412.815 128.453 411.844 127.881 410.828 126.865C409.821 125.858 409.24 124.878 409.085 123.924C408.934 122.975 409.222 122.132 409.95 121.396L410.029 121.316ZM418.412 127.357L418.625 127.144C419.708 126.062 420.901 125.534 422.205 125.561C423.513 125.583 424.702 126.129 425.771 127.198C426.84 128.267 427.385 129.455 427.407 130.764C427.434 132.068 426.906 133.261 425.824 134.343L425.611 134.556C424.524 135.643 423.329 136.173 422.025 136.146C420.721 136.119 419.535 135.572 418.466 134.503C417.392 133.429 416.842 132.241 416.816 130.937C416.793 129.637 417.326 128.444 418.412 127.357ZM420.788 129.094L420.362 129.52C419.736 130.145 419.39 130.757 419.324 131.356C419.262 131.95 419.479 132.496 419.976 132.993C420.468 133.485 421.012 133.7 421.606 133.638C422.205 133.571 422.817 133.225 423.442 132.6L423.868 132.174C424.493 131.549 424.835 130.937 424.893 130.338C424.95 129.739 424.737 129.198 424.254 128.715C423.766 128.227 423.223 128.012 422.624 128.069C422.025 128.127 421.413 128.468 420.788 129.094ZM426.529 135.474L426.742 135.261C427.824 134.179 429.017 133.651 430.321 133.678C431.63 133.7 432.819 134.246 433.888 135.314C434.956 136.383 435.502 137.572 435.524 138.881C435.551 140.185 435.023 141.378 433.941 142.46L433.728 142.673C432.641 143.76 431.446 144.29 430.142 144.263C428.838 144.236 427.651 143.689 426.582 142.62C425.509 141.546 424.959 140.358 424.932 139.054C424.91 137.754 425.443 136.561 426.529 135.474ZM428.904 137.211L428.479 137.636C427.853 138.262 427.507 138.874 427.441 139.473C427.379 140.067 427.596 140.613 428.093 141.109C428.585 141.602 429.128 141.817 429.723 141.755C430.321 141.688 430.934 141.342 431.559 140.717L431.985 140.291C432.61 139.666 432.952 139.054 433.009 138.455C433.067 137.856 432.854 137.315 432.371 136.831C431.883 136.343 431.339 136.128 430.741 136.186C430.142 136.244 429.53 136.585 428.904 137.211ZM431.659 147.31L438.565 140.404L440.487 142.327L439.736 143.159L439.769 143.192C440.221 143.094 440.711 143.136 441.239 143.318C441.772 143.496 442.259 143.806 442.703 144.25C443.413 144.959 443.787 145.738 443.827 146.585C443.876 147.432 443.402 148.355 442.404 149.353L438.052 153.704L436.043 151.694L440.394 147.343C440.82 146.918 441.026 146.525 441.013 146.166C441.004 145.811 440.831 145.465 440.494 145.128C440.219 144.853 439.882 144.675 439.483 144.596C439.088 144.511 438.689 144.551 438.285 144.715L433.675 149.326L431.659 147.31Z" fill="white"/>
<defs>
<clipPath id="clip0_1909_62124">
<rect x="12" y="12" width="440" height="547" rx="16" fill="white"/>
</clipPath>
<clipPath id="clip1_1909_62124">
<rect width="392" height="146" fill="white" transform="translate(36 94)"/>
</clipPath>
<clipPath id="clip2_1909_62124">
<rect x="388" y="138" width="20" height="20" rx="10" fill="white"/>
</clipPath>
<clipPath id="clip3_1909_62124">
<rect width="20" height="20" fill="white" transform="translate(388 138)"/>
</clipPath>
<clipPath id="clip4_1909_62124">
<rect x="146" y="195" width="8" height="8" rx="4" fill="white"/>
</clipPath>
<clipPath id="clip5_1909_62124">
<rect x="169" y="200" width="20" height="20" rx="4" fill="white"/>
</clipPath>
<clipPath id="clip6_1909_62124">
<rect width="392" height="146" fill="white" transform="translate(36 288)"/>
</clipPath>
<clipPath id="clip7_1909_62124">
<rect x="388" y="332" width="20" height="20" rx="10" fill="white"/>
</clipPath>
<clipPath id="clip8_1909_62124">
<rect x="56" y="394" width="20" height="20" rx="4" fill="white"/>
</clipPath>
<clipPath id="clip9_1909_62124">
<rect x="200" y="389" width="8" height="8" rx="4" fill="white"/>
</clipPath>
<clipPath id="clip10_1909_62124">
<rect x="36" y="458" width="392" height="52" rx="8" fill="white"/>
</clipPath>
</defs>
</svg>
