<svg width="464" height="571" viewBox="0 0 464 571" fill="none" xmlns="http://www.w3.org/2000/svg">
<rect width="464" height="571" rx="28" fill="black" fill-opacity="0.03"/>
<rect x="0.5" y="0.5" width="463" height="570" rx="27.5" stroke="black" stroke-opacity="0.03"/>
<rect x="443.625" y="188.625" width="20.3711" height="20.3711" fill="#097E61"/>
<rect x="255" width="20.3711" height="20.3711" fill="#097E61"/>
<path fill-rule="evenodd" clip-rule="evenodd" d="M323.68 0H268.008V12H261.008L452.008 203V193H464V140.32L323.68 0ZM464 214.992V213H462.008L464 214.992Z" fill="black" fill-opacity="0.03"/>
<g clip-path="url(#clip0_1909_62204)">
<rect width="440" height="547" transform="translate(12 12)" fill="white"/>
<path d="M36.752 55.0449V54.752H39.3789V54.9961C39.3789 55.7513 39.6198 56.3177 40.1016 56.6953C40.5833 57.0729 41.2572 57.2617 42.123 57.2617C42.9889 57.2617 43.6497 57.0794 44.1055 56.7148C44.5677 56.3503 44.7988 55.8685 44.7988 55.2695C44.7988 54.6836 44.5775 54.2246 44.1348 53.8926C43.6921 53.554 42.7806 53.1927 41.4004 52.8086C39.903 52.3919 38.793 51.8613 38.0703 51.2168C37.3477 50.5723 36.9863 49.6771 36.9863 48.5312C36.9863 47.3268 37.4388 46.3568 38.3438 45.6211C39.2487 44.8789 40.4792 44.5078 42.0352 44.5078C43.5846 44.5078 44.8249 44.8887 45.7559 45.6504C46.6868 46.4056 47.1523 47.4115 47.1523 48.668V48.9219H44.5547V48.707C44.5547 48.056 44.3431 47.5319 43.9199 47.1348C43.4967 46.7376 42.8717 46.5391 42.0449 46.5391C41.2116 46.5391 40.5996 46.7018 40.209 47.0273C39.8184 47.3529 39.623 47.7956 39.623 48.3555C39.623 48.8893 39.8346 49.3027 40.2578 49.5957C40.681 49.8887 41.5859 50.2272 42.9727 50.6113C44.444 51.028 45.554 51.5749 46.3027 52.252C47.0514 52.9225 47.4258 53.873 47.4258 55.1035C47.4258 56.3926 46.944 57.4115 45.9805 58.1602C45.0234 58.9023 43.7409 59.2734 42.1328 59.2734C40.5378 59.2734 39.2422 58.9089 38.2461 58.1797C37.25 57.444 36.752 56.3991 36.752 55.0449ZM48.2656 48.8926H50.7852L52.3965 54.8594C52.4616 55.1133 52.5137 55.3379 52.5527 55.5332C52.5983 55.7285 52.6439 55.9466 52.6895 56.1875H52.748C52.7871 55.9466 52.8262 55.7285 52.8652 55.5332C52.9043 55.3379 52.9629 55.1133 53.041 54.8594L54.877 48.8926H57.2598L59.1543 54.8594C59.2324 55.1133 59.2943 55.3411 59.3398 55.543C59.3854 55.7383 59.431 55.9564 59.4766 56.1973H59.5352C59.5742 55.9499 59.6133 55.7285 59.6523 55.5332C59.6914 55.3379 59.7402 55.1133 59.7988 54.8594L61.4004 48.8926H63.6465L60.5996 59H58.2461L56.3223 53.0332C56.2441 52.7988 56.1758 52.5612 56.1172 52.3203C56.0586 52.0729 56.0033 51.8288 55.9512 51.5879H55.9023C55.8568 51.8288 55.8014 52.0729 55.7363 52.3203C55.6777 52.5612 55.6126 52.7988 55.541 53.0332L53.6855 59H51.3125L48.2656 48.8926ZM64.5449 56.0312C64.5449 54.9505 64.9648 54.127 65.8047 53.5605C66.651 52.9876 67.7253 52.6979 69.0273 52.6914H71.1465V52.0664C71.1465 51.5586 71.0163 51.1517 70.7559 50.8457C70.4954 50.5332 70.043 50.377 69.3984 50.377C68.7539 50.377 68.2917 50.5072 68.0117 50.7676C67.7318 51.0215 67.5918 51.334 67.5918 51.7051V51.8418L65.1016 51.832V51.6953C65.1016 50.8229 65.5052 50.0905 66.3125 49.498C67.1198 48.9056 68.1842 48.6094 69.5059 48.6094C70.8275 48.6094 71.8561 48.8926 72.5918 49.459C73.3275 50.0254 73.6953 50.901 73.6953 52.0859V56.7051C73.6953 57.1152 73.7311 57.5091 73.8027 57.8867C73.8743 58.2578 73.972 58.5768 74.0957 58.8438V59H71.6055C71.5208 58.8438 71.446 58.6419 71.3809 58.3945C71.3158 58.1471 71.2702 57.903 71.2441 57.6621C71.0358 58.0592 70.6549 58.4141 70.1016 58.7266C69.5482 59.0326 68.8548 59.1855 68.0215 59.1855C67.0319 59.1855 66.2051 58.9219 65.541 58.3945C64.877 57.8607 64.5449 57.0729 64.5449 56.0312ZM67.084 55.8359C67.084 56.3242 67.224 56.7116 67.5039 56.998C67.7904 57.2845 68.2331 57.4277 68.832 57.4277C69.4635 57.4277 70.0072 57.2194 70.4629 56.8027C70.9186 56.3861 71.1465 55.9108 71.1465 55.377V54.2637H69.418C68.6367 54.2637 68.0508 54.4004 67.6602 54.6738C67.276 54.9473 67.084 55.3346 67.084 55.8359ZM76.2539 63.0918V48.8926H78.6367L78.6953 50.1035H78.7441C78.972 49.6999 79.3496 49.3646 79.877 49.0977C80.4108 48.8242 81.0098 48.6875 81.6738 48.6875C82.9629 48.6875 83.998 49.153 84.7793 50.084C85.5671 51.015 85.9609 52.2454 85.9609 53.7754V54.0879C85.9609 55.6178 85.5736 56.8516 84.7988 57.7891C84.0241 58.7266 82.9987 59.1953 81.7227 59.1953C81.0586 59.1953 80.4727 59.0814 79.9648 58.8535C79.4635 58.6257 79.0762 58.3132 78.8027 57.916V63.0918H76.2539ZM78.8027 55.748C78.9655 56.1452 79.2422 56.4967 79.6328 56.8027C80.0299 57.1087 80.502 57.2617 81.0488 57.2617C81.8366 57.2617 82.4193 56.9818 82.7969 56.4219C83.1745 55.862 83.3633 55.1198 83.3633 54.1953V53.6777C83.3633 52.7533 83.1745 52.0143 82.7969 51.4609C82.4193 50.9076 81.8333 50.6309 81.0391 50.6309C80.4792 50.6309 80.0072 50.7806 79.623 51.0801C79.2454 51.3796 78.972 51.7246 78.8027 52.1152V55.748ZM92.2012 54.0977V53.7852C92.2012 52.2096 92.6536 50.9531 93.5586 50.0156C94.4635 49.0716 95.6777 48.5996 97.2012 48.5996C98.64 48.5996 99.737 48.9642 100.492 49.6934C101.254 50.416 101.651 51.2786 101.684 52.2812L101.693 52.4277H99.2129V52.3203C99.2129 51.8125 99.0469 51.3861 98.7148 51.041C98.3893 50.696 97.8815 50.5234 97.1914 50.5234C96.3971 50.5234 95.7982 50.8132 95.3945 51.3926C94.9974 51.972 94.7988 52.7337 94.7988 53.6777V54.1953C94.7988 55.1393 94.9941 55.9043 95.3848 56.4902C95.7754 57.0697 96.3776 57.3594 97.1914 57.3594C97.9141 57.3594 98.4316 57.1803 98.7441 56.8223C99.0632 56.4642 99.2227 56.041 99.2227 55.5527V55.4551H101.693V55.5723C101.687 56.5684 101.296 57.4375 100.521 58.1797C99.7533 58.9154 98.6465 59.2832 97.2012 59.2832C95.6777 59.2832 94.4635 58.8145 93.5586 57.877C92.6536 56.9329 92.2012 55.6732 92.2012 54.0977ZM103.48 59V48.8926H105.902L105.961 50.084H106.01C106.238 49.6868 106.544 49.3451 106.928 49.0586C107.318 48.7656 107.764 48.6191 108.266 48.6191C108.409 48.6191 108.552 48.6354 108.695 48.668C108.845 48.7005 108.952 48.7298 109.018 48.7559V50.9434C108.894 50.9173 108.764 50.8978 108.627 50.8848C108.49 50.8652 108.34 50.8555 108.178 50.8555C107.689 50.8555 107.257 50.9954 106.879 51.2754C106.501 51.5553 106.221 51.9069 106.039 52.3301V59H103.48ZM110.209 63.0527L110.238 61.1387C110.401 61.1908 110.583 61.2298 110.785 61.2559C110.993 61.2884 111.192 61.3047 111.381 61.3047C111.824 61.3112 112.211 61.1582 112.543 60.8457C112.875 60.5332 113.181 59.9082 113.461 58.9707L113.402 58.9609L109.516 48.8926H112.064L114.232 55.0254C114.317 55.2663 114.385 55.4909 114.438 55.6992C114.49 55.901 114.538 56.1029 114.584 56.3047H114.643C114.695 56.1029 114.747 55.901 114.799 55.6992C114.857 55.4909 114.926 55.263 115.004 55.0156L117.094 48.8926H119.408L115.268 60.1816C114.89 61.2038 114.402 61.972 113.803 62.4863C113.21 63.0007 112.475 63.2578 111.596 63.2578C111.296 63.2578 111.036 63.2415 110.814 63.209C110.6 63.1764 110.398 63.1243 110.209 63.0527ZM120.648 63.0918V48.8926H123.031L123.09 50.1035H123.139C123.367 49.6999 123.744 49.3646 124.271 49.0977C124.805 48.8242 125.404 48.6875 126.068 48.6875C127.357 48.6875 128.393 49.153 129.174 50.084C129.962 51.015 130.355 52.2454 130.355 53.7754V54.0879C130.355 55.6178 129.968 56.8516 129.193 57.7891C128.419 58.7266 127.393 59.1953 126.117 59.1953C125.453 59.1953 124.867 59.0814 124.359 58.8535C123.858 58.6257 123.471 58.3132 123.197 57.916V63.0918H120.648ZM123.197 55.748C123.36 56.1452 123.637 56.4967 124.027 56.8027C124.424 57.1087 124.896 57.2617 125.443 57.2617C126.231 57.2617 126.814 56.9818 127.191 56.4219C127.569 55.862 127.758 55.1198 127.758 54.1953V53.6777C127.758 52.7533 127.569 52.0143 127.191 51.4609C126.814 50.9076 126.228 50.6309 125.434 50.6309C124.874 50.6309 124.402 50.7806 124.018 51.0801C123.64 51.3796 123.367 51.7246 123.197 52.1152V55.748ZM131.088 50.7676V48.8926H137.25V50.7676H131.088ZM132.699 56.1387V49.8203L132.719 49.5566V46.334H135.238V56.0215C135.238 56.5163 135.326 56.8548 135.502 57.0371C135.678 57.2194 135.938 57.3105 136.283 57.3105C136.439 57.3105 136.596 57.2943 136.752 57.2617C136.915 57.2227 137.071 57.1738 137.221 57.1152V58.9902C137.064 59.0684 136.846 59.1335 136.566 59.1855C136.286 59.2441 135.974 59.2734 135.629 59.2734C134.737 59.2734 134.024 59.0228 133.49 58.5215C132.963 58.0202 132.699 57.2259 132.699 56.1387ZM138.178 54.0977V53.7852C138.178 52.2161 138.643 50.9596 139.574 50.0156C140.512 49.0716 141.742 48.5996 143.266 48.5996C144.796 48.5996 146.026 49.0716 146.957 50.0156C147.895 50.9596 148.363 52.2161 148.363 53.7852V54.0977C148.363 55.6602 147.895 56.9167 146.957 57.8672C146.026 58.8112 144.796 59.2832 143.266 59.2832C141.742 59.2832 140.512 58.8112 139.574 57.8672C138.643 56.9167 138.178 55.6602 138.178 54.0977ZM140.775 53.6777V54.1953C140.775 55.1589 140.987 55.9238 141.41 56.4902C141.84 57.0501 142.458 57.3301 143.266 57.3301C144.079 57.3301 144.698 57.0501 145.121 56.4902C145.551 55.9238 145.766 55.1589 145.766 54.1953V53.6777C145.766 52.7207 145.548 51.9622 145.111 51.4023C144.682 50.8359 144.066 50.5527 143.266 50.5527C142.465 50.5527 141.85 50.8359 141.42 51.4023C140.99 51.9622 140.775 52.7207 140.775 53.6777Z" fill="#1E1E1E"/>
<rect x="396" y="36" width="32" height="32" rx="16" fill="#E2F8E3"/>
<path fill-rule="evenodd" clip-rule="evenodd" d="M409.844 49.3047C409.844 48.1138 410.809 47.1484 412 47.1484C413.191 47.1484 414.156 48.1138 414.156 49.3047C414.156 50.4956 413.191 51.461 412 51.461C410.809 51.461 409.844 50.4956 409.844 49.3047ZM412 45.6484C409.981 45.6484 408.344 47.2854 408.344 49.3047C408.344 51.324 409.981 52.961 412 52.961C414.019 52.961 415.656 51.324 415.656 49.3047C415.656 47.2854 414.019 45.6484 412 45.6484ZM408.391 57.6089C408.391 57.1351 408.679 56.6144 409.333 56.1779C409.983 55.7448 410.924 55.4526 412 55.4526C413.076 55.4526 414.017 55.7448 414.667 56.1779C415.321 56.6144 415.609 57.1351 415.609 57.6089C415.609 58.0231 415.945 58.3589 416.359 58.3589C416.774 58.3589 417.109 58.0231 417.109 57.6089C417.109 56.4775 416.422 55.5451 415.499 54.9298C414.57 54.311 413.331 53.9526 412 53.9526C410.669 53.9526 409.43 54.311 408.501 54.9298C407.578 55.5451 406.891 56.4775 406.891 57.6089C406.891 58.0231 407.226 58.3589 407.641 58.3589C408.055 58.3589 408.391 58.0231 408.391 57.6089Z" fill="#63D369"/>
<g clip-path="url(#clip1_1909_62204)">
<rect x="36" y="94" width="392" height="84" rx="8" fill="#F5F4F6"/>
<path d="M51.4727 119V115.35L48.0273 109.047H49.791L51.9238 113.094C51.9967 113.226 52.0605 113.351 52.1152 113.47C52.1745 113.584 52.2292 113.702 52.2793 113.825H52.3203C52.3659 113.702 52.4183 113.584 52.4775 113.47C52.5368 113.351 52.6006 113.226 52.6689 113.094L54.8359 109.047H56.4697L53.0518 115.309V119H51.4727ZM56.0869 115.507V115.288C56.0869 114.19 56.4059 113.301 57.0439 112.622C57.6865 111.938 58.5342 111.597 59.5869 111.597C60.6396 111.597 61.485 111.938 62.123 112.622C62.7611 113.301 63.0801 114.19 63.0801 115.288V115.507C63.0801 116.61 62.7611 117.503 62.123 118.187C61.485 118.866 60.6396 119.205 59.5869 119.205C58.5342 119.205 57.6865 118.866 57.0439 118.187C56.4059 117.503 56.0869 116.61 56.0869 115.507ZM57.6455 115.254V115.548C57.6455 116.268 57.8096 116.856 58.1377 117.312C58.4658 117.767 58.9489 117.995 59.5869 117.995C60.2204 117.995 60.7012 117.767 61.0293 117.312C61.3574 116.856 61.5215 116.268 61.5215 115.548V115.254C61.5215 114.534 61.3551 113.946 61.0225 113.49C60.6943 113.03 60.2158 112.8 59.5869 112.8C58.9535 112.8 58.4704 113.03 58.1377 113.49C57.8096 113.946 57.6455 114.534 57.6455 115.254ZM64.543 116.361V111.802H66.0674V116.396C66.0674 116.942 66.1859 117.332 66.4229 117.564C66.6644 117.792 67.0016 117.906 67.4346 117.906C67.8083 117.906 68.1387 117.804 68.4258 117.599C68.7129 117.394 68.9339 117.129 69.0889 116.806V111.802H70.6133V119H69.2051L69.1572 118.118H69.1162C68.8747 118.433 68.5671 118.681 68.1934 118.863C67.8197 119.046 67.4049 119.137 66.9492 119.137C66.2246 119.137 65.6413 118.925 65.1992 118.501C64.7617 118.073 64.543 117.359 64.543 116.361ZM75.877 120.955L76.7041 119.902C76.8955 120.112 77.1758 120.303 77.5449 120.477C77.9141 120.65 78.3265 120.736 78.7822 120.736C79.3564 120.736 79.8122 120.568 80.1494 120.23C80.4912 119.893 80.6621 119.406 80.6621 118.768V118.187C80.4661 118.478 80.1927 118.711 79.8418 118.884C79.4954 119.052 79.0785 119.137 78.5908 119.137C77.6748 119.137 76.9388 118.799 76.3828 118.125C75.8314 117.446 75.5557 116.573 75.5557 115.507V115.288C75.5557 114.226 75.8314 113.358 76.3828 112.684C76.9388 112.005 77.6748 111.665 78.5908 111.665C79.0739 111.665 79.5 111.765 79.8691 111.966C80.2428 112.166 80.5163 112.412 80.6895 112.704H80.7305L80.7783 111.802H82.1865V118.754C82.1865 119.793 81.8743 120.59 81.25 121.146C80.6257 121.702 79.8213 121.98 78.8369 121.98C78.2308 121.98 77.6725 121.882 77.1621 121.687C76.6517 121.495 76.2233 121.251 75.877 120.955ZM77.1143 115.541C77.1143 116.225 77.2624 116.794 77.5586 117.25C77.8594 117.706 78.3265 117.934 78.96 117.934C79.3792 117.934 79.7347 117.817 80.0264 117.585C80.3226 117.348 80.5345 117.079 80.6621 116.778V114.037C80.5299 113.723 80.3158 113.449 80.0195 113.217C79.7279 112.984 79.3701 112.868 78.9463 112.868C78.3219 112.868 77.8594 113.096 77.5586 113.552C77.2624 114.007 77.1143 114.577 77.1143 115.261V115.541ZM84.1826 119V111.802H85.7139V119H84.1826ZM84.0186 109.689C84.0186 109.443 84.0983 109.236 84.2578 109.067C84.4173 108.899 84.6475 108.814 84.9482 108.814C85.2445 108.814 85.4723 108.899 85.6318 109.067C85.7913 109.236 85.8711 109.443 85.8711 109.689C85.8711 109.931 85.7913 110.136 85.6318 110.305C85.4723 110.473 85.2445 110.558 84.9482 110.558C84.6475 110.558 84.4173 110.473 84.2578 110.305C84.0983 110.136 84.0186 109.931 84.0186 109.689ZM86.6982 111.802H88.2021L89.8564 116.409C89.9202 116.591 89.9704 116.76 90.0068 116.915C90.0479 117.065 90.0775 117.193 90.0957 117.298H90.1367C90.1549 117.193 90.1823 117.065 90.2188 116.915C90.2598 116.76 90.3099 116.591 90.3691 116.409L92.0098 111.802H93.4248L90.6904 119H89.4326L86.6982 111.802ZM93.8486 115.507V115.288C93.8486 114.194 94.1585 113.306 94.7783 112.622C95.3981 111.938 96.2093 111.597 97.2119 111.597C98.2145 111.597 98.9915 111.918 99.543 112.561C100.094 113.199 100.37 114.067 100.37 115.165V115.76H94.833V114.659H98.8525V114.502C98.8525 114.023 98.7135 113.618 98.4355 113.285C98.1576 112.948 97.7611 112.779 97.2461 112.779C96.6263 112.779 96.1615 113.014 95.8516 113.483C95.5417 113.948 95.3867 114.538 95.3867 115.254V115.548C95.3867 116.254 95.5508 116.842 95.8789 117.312C96.2116 117.776 96.7152 118.009 97.3896 118.009C97.8226 118.009 98.194 117.911 98.5039 117.715C98.8184 117.519 99.0736 117.289 99.2695 117.024L100.295 117.77C100.067 118.143 99.7025 118.476 99.2012 118.768C98.7044 119.059 98.1051 119.205 97.4033 119.205C96.2686 119.205 95.3913 118.863 94.7715 118.18C94.1562 117.496 93.8486 116.605 93.8486 115.507Z" fill="#828282"/>
<path d="M51.2812 158L58.377 141.115H48.6562V138.094H62.2051V140.527L55.1504 158H51.2812ZM64.1191 152.695V152.326H67.7832V152.654C67.7832 153.611 68.0566 154.345 68.6035 154.855C69.1595 155.357 69.9251 155.607 70.9004 155.607C71.8939 155.607 72.6686 155.275 73.2246 154.609C73.7897 153.935 74.0723 152.923 74.0723 151.574C74.0723 150.234 73.7897 149.255 73.2246 148.635C72.6595 148.015 71.9121 147.705 70.9824 147.705C70.2806 147.705 69.6699 147.846 69.1504 148.129C68.6309 148.411 68.1842 148.785 67.8105 149.25L64.7891 148.17L65.8008 138.094H76.752V141.074L68.6992 141.047L68.1934 146.037C68.6035 145.736 69.1094 145.486 69.7109 145.285C70.3216 145.076 70.9961 144.971 71.7344 144.971C73.4388 144.971 74.8698 145.522 76.0273 146.625C77.194 147.728 77.7773 149.332 77.7773 151.438C77.7773 153.589 77.1621 155.284 75.9316 156.523C74.7103 157.754 73.0423 158.369 70.9277 158.369C68.7676 158.369 67.0905 157.85 65.8965 156.811C64.7116 155.762 64.1191 154.391 64.1191 152.695ZM79.7324 151.355V144.738C79.7324 142.587 80.3066 140.883 81.4551 139.625C82.6035 138.358 84.2305 137.725 86.3359 137.725C88.4323 137.725 90.0592 138.354 91.2168 139.611C92.3743 140.869 92.9531 142.578 92.9531 144.738V151.355C92.9531 153.525 92.3652 155.238 91.1895 156.496C90.0228 157.745 88.4049 158.369 86.3359 158.369C84.2305 158.36 82.6035 157.731 81.4551 156.482C80.3066 155.234 79.7324 153.525 79.7324 151.355ZM83.4785 151.793C83.4785 152.941 83.7064 153.862 84.1621 154.555C84.627 155.247 85.3516 155.594 86.3359 155.594C87.3294 155.594 88.054 155.247 88.5098 154.555C88.9746 153.862 89.207 152.941 89.207 151.793V144.328C89.207 143.171 88.9746 142.25 88.5098 141.566C88.054 140.874 87.3294 140.527 86.3359 140.527C85.3516 140.527 84.627 140.874 84.1621 141.566C83.7064 142.25 83.4785 143.171 83.4785 144.328V151.793Z" fill="#181718"/>
<rect x="321" y="130" width="95" height="36" rx="6" fill="white"/>
<path fill-rule="evenodd" clip-rule="evenodd" d="M333.171 149.608C332.878 149.315 332.403 149.315 332.11 149.608C331.817 149.901 331.817 150.376 332.11 150.669L334.466 153.024L334.996 153.555L335.527 153.024L337.882 150.669C338.175 150.376 338.175 149.901 337.882 149.608C337.589 149.315 337.114 149.315 336.821 149.608L334.996 151.433L333.171 149.608ZM333.171 146.399C332.878 146.692 332.403 146.692 332.11 146.399C331.817 146.106 331.817 145.631 332.11 145.338L334.466 142.983L334.996 142.452L335.527 142.983L337.882 145.338C338.175 145.631 338.175 146.106 337.882 146.399C337.589 146.692 337.114 146.692 336.821 146.399L334.996 144.574L333.171 146.399Z" fill="#8B8A8C"/>
<path d="M344.102 148.992V141.625H346.195V149.086C346.195 149.982 346.401 150.622 346.812 151.008C347.229 151.388 347.773 151.578 348.445 151.578C349.117 151.578 349.659 151.388 350.07 151.008C350.482 150.622 350.688 149.982 350.688 149.086V141.625H352.75V148.992C352.75 150.44 352.333 151.508 351.5 152.195C350.672 152.883 349.648 153.227 348.43 153.227C347.211 153.227 346.185 152.883 345.352 152.195C344.518 151.508 344.102 150.44 344.102 148.992ZM354.469 149.82V149.633H356.594V149.789C356.594 150.393 356.789 150.846 357.18 151.148C357.57 151.451 358.117 151.602 358.82 151.602C359.523 151.602 360.06 151.456 360.43 151.164C360.805 150.872 360.992 150.487 360.992 150.008C360.992 149.534 360.812 149.164 360.453 148.898C360.099 148.633 359.357 148.346 358.227 148.039C357.023 147.711 356.13 147.289 355.547 146.773C354.964 146.258 354.669 145.542 354.664 144.625C354.664 143.661 355.031 142.883 355.766 142.289C356.5 141.695 357.495 141.398 358.75 141.398C360.005 141.398 361.008 141.708 361.758 142.328C362.508 142.943 362.883 143.753 362.883 144.758V144.93H360.797V144.781C360.797 144.255 360.625 143.833 360.281 143.516C359.938 143.193 359.43 143.031 358.758 143.031C358.081 143.031 357.583 143.164 357.266 143.43C356.948 143.69 356.789 144.044 356.789 144.492C356.789 144.919 356.958 145.247 357.297 145.477C357.635 145.706 358.37 145.977 359.5 146.289C360.688 146.617 361.586 147.049 362.195 147.586C362.805 148.122 363.109 148.888 363.109 149.883C363.109 150.914 362.719 151.729 361.938 152.328C361.161 152.927 360.125 153.227 358.828 153.227C357.536 153.227 356.487 152.932 355.68 152.344C354.872 151.75 354.469 150.909 354.469 149.82ZM364.883 153V141.625H368.547C370.047 141.625 371.297 142.099 372.297 143.047C373.302 143.99 373.805 145.292 373.805 146.953V147.664C373.805 149.331 373.305 150.638 372.305 151.586C371.305 152.529 370.052 153 368.547 153H364.883ZM366.977 151.398H368.516C369.469 151.398 370.232 151.083 370.805 150.453C371.383 149.818 371.672 148.904 371.672 147.711V146.914C371.672 145.721 371.383 144.81 370.805 144.18C370.227 143.549 369.464 143.234 368.516 143.234H366.977V151.398ZM374.57 143.258V141.625H383.578V143.258H380.125V153H378.023V143.258H374.57Z" fill="#181718"/>
<g clip-path="url(#clip2_1909_62204)">
<rect width="20" height="20" transform="translate(388 138)" fill="#26A17B"/>
<path d="M398.912 148.378C398.858 148.378 398.534 148.378 397.832 148.378C397.292 148.378 396.914 148.378 396.752 148.378C394.646 148.27 393.026 147.893 393.026 147.461C393.026 147.029 394.592 146.651 396.752 146.543V148C396.914 148 397.292 148.054 397.832 148.054C398.48 148.054 398.804 148 398.858 148V146.543C400.964 146.651 402.583 147.029 402.583 147.461C402.637 147.893 401.018 148.27 398.912 148.378ZM398.912 146.381V145.085H401.882V143.141H393.836V145.085H396.806V146.381C394.376 146.489 392.594 146.975 392.594 147.515C392.594 148.054 394.376 148.54 396.806 148.648V152.86H398.966V148.702C401.342 148.594 403.177 148.108 403.177 147.569C403.123 146.975 401.342 146.489 398.912 146.381Z" fill="white"/>
</g>
<rect x="388.25" y="138.25" width="19.5" height="19.5" rx="9.75" stroke="#1B1A1C" stroke-opacity="0.08" stroke-width="0.5"/>
<rect x="36.75" y="180.75" width="390.5" height="58.5" rx="7.25" fill="#F5F4F6"/>
<rect x="36.75" y="180.75" width="390.5" height="58.5" rx="7.25" stroke="#F5F4F6" stroke-width="1.5"/>
<rect x="48" y="192" width="36" height="36" rx="6" fill="white"/>
<g clip-path="url(#clip3_1909_62204)">
<rect width="20" height="20" transform="translate(56 200)" fill="#EAF0F0"/>
<path d="M62.0938 210.867L65.9711 216.365V213.182L62.0938 210.867Z" fill="#8C8C8C"/>
<path d="M65.9688 213.182V216.365L69.904 210.867L65.9688 213.182Z" fill="#343434"/>
<path d="M65.9688 203.633V212.429L69.904 210.114L65.9688 203.633Z" fill="#343434"/>
<path d="M65.9711 203.633V212.429L62.0938 210.114L65.9711 203.633Z" fill="#8C8C8C"/>
<path d="M65.9711 208.32L62.0938 210.114L65.9711 212.429V208.32Z" fill="#393939"/>
<path d="M65.9688 208.32V212.429L69.904 210.114L65.9688 208.32Z" fill="#151515"/>
</g>
<rect x="56.25" y="200.25" width="19.5" height="19.5" rx="3.75" stroke="black" stroke-opacity="0.08" stroke-width="0.5"/>
<rect x="88.75" y="192.75" width="144.5" height="34.5" rx="5.25" fill="white"/>
<rect x="88.75" y="192.75" width="144.5" height="34.5" rx="5.25" stroke="#63D369" stroke-width="1.5"/>
<g clip-path="url(#clip4_1909_62204)">
<rect width="20" height="20" transform="translate(96 200)" fill="#E30026"/>
<path fill-rule="evenodd" clip-rule="evenodd" d="M100.625 204.344L109.036 205.945L111.451 208.11L105.065 216.027L100.625 204.344ZM102.632 206.733L104.995 212.953L105.519 209.204L102.632 206.733ZM106.521 209.44L105.991 213.236L109.473 208.92L106.521 209.44ZM109.602 207.841L107.693 208.177L108.81 207.131L109.602 207.841ZM107.704 206.751L103.253 205.903L106.051 208.298L107.704 206.751Z" fill="white"/>
</g>
<rect x="96.25" y="200.25" width="19.5" height="19.5" rx="3.75" stroke="black" stroke-opacity="0.08" stroke-width="0.5"/>
<path d="M122 209.107V207.795H126.327V209.107H122ZM123.142 212.977V208.506L123.148 208.301V206.072H124.919V212.949C124.919 213.273 124.98 213.498 125.104 213.626C125.227 213.754 125.407 213.817 125.644 213.817C125.753 213.817 125.862 213.806 125.972 213.783C126.086 213.756 126.197 213.722 126.307 213.681V214.993C126.197 215.048 126.045 215.096 125.849 215.137C125.657 215.182 125.448 215.205 125.22 215.205C124.595 215.205 124.092 215.025 123.709 214.665C123.331 214.305 123.142 213.742 123.142 212.977ZM127.024 211.507V211.288C127.024 210.167 127.355 209.271 128.016 208.602C128.681 207.927 129.551 207.59 130.627 207.59C131.707 207.59 132.577 207.927 133.238 208.602C133.904 209.271 134.236 210.167 134.236 211.288V211.507C134.236 212.623 133.904 213.519 133.238 214.193C132.577 214.868 131.707 215.205 130.627 215.205C129.551 215.205 128.681 214.868 128.016 214.193C127.355 213.519 127.024 212.623 127.024 211.507ZM128.843 211.213V211.582C128.843 212.275 128.995 212.824 129.301 213.229C129.606 213.631 130.048 213.831 130.627 213.831C131.206 213.831 131.648 213.631 131.953 213.229C132.258 212.824 132.411 212.275 132.411 211.582V211.213C132.411 210.516 132.256 209.966 131.946 209.565C131.641 209.164 131.201 208.964 130.627 208.964C130.057 208.964 129.618 209.164 129.308 209.565C128.998 209.966 128.843 210.516 128.843 211.213ZM138.071 206.469V205.047H145.987V206.469H142.952V215H141.113V206.469H138.071ZM146.227 215V207.795H147.901L147.949 208.629H147.983C148.138 208.351 148.35 208.109 148.619 207.904C148.888 207.699 149.198 207.597 149.549 207.597C149.645 207.597 149.743 207.608 149.843 207.631C149.943 207.654 150.014 207.674 150.055 207.692V209.251C149.973 209.233 149.884 209.219 149.788 209.21C149.697 209.201 149.597 209.196 149.487 209.196C149.141 209.196 148.838 209.294 148.578 209.49C148.318 209.682 148.129 209.925 148.011 210.222V215H146.227ZM150.677 211.507V211.288C150.677 210.167 151.007 209.271 151.668 208.602C152.333 207.927 153.204 207.59 154.279 207.59C155.359 207.59 156.23 207.927 156.891 208.602C157.556 209.271 157.889 210.167 157.889 211.288V211.507C157.889 212.623 157.556 213.519 156.891 214.193C156.23 214.868 155.359 215.205 154.279 215.205C153.204 215.205 152.333 214.868 151.668 214.193C151.007 213.519 150.677 212.623 150.677 211.507ZM152.495 211.213V211.582C152.495 212.275 152.648 212.824 152.953 213.229C153.258 213.631 153.701 213.831 154.279 213.831C154.858 213.831 155.3 213.631 155.605 213.229C155.911 212.824 156.063 212.275 156.063 211.582V211.213C156.063 210.516 155.909 209.966 155.599 209.565C155.293 209.164 154.854 208.964 154.279 208.964C153.71 208.964 153.27 209.164 152.96 209.565C152.65 209.966 152.495 210.516 152.495 211.213ZM159.352 215V207.795H161.02L161.067 208.643H161.108C161.318 208.346 161.607 208.107 161.977 207.925C162.346 207.743 162.754 207.651 163.2 207.651C163.938 207.651 164.535 207.861 164.991 208.28C165.447 208.695 165.675 209.417 165.675 210.447V215H163.897V210.399C163.897 209.907 163.788 209.561 163.569 209.36C163.355 209.155 163.05 209.053 162.653 209.053C162.325 209.053 162.024 209.144 161.751 209.326C161.482 209.508 161.275 209.759 161.129 210.078V215H159.352ZM170.515 212.881C170.515 212.097 170.818 211.505 171.424 211.104C172.035 210.698 172.802 210.495 173.728 210.495H175.197V210.058C175.197 209.702 175.104 209.413 174.917 209.189C174.735 208.962 174.411 208.848 173.946 208.848C173.481 208.848 173.151 208.941 172.955 209.128C172.764 209.315 172.668 209.536 172.668 209.791V209.873H170.911V209.791C170.911 209.171 171.196 208.649 171.766 208.226C172.335 207.802 173.085 207.59 174.015 207.59C174.944 207.59 175.669 207.795 176.188 208.205C176.713 208.611 176.975 209.23 176.975 210.064V213.373C176.975 213.669 177 213.95 177.05 214.214C177.1 214.474 177.168 214.699 177.255 214.891V215H175.519C175.459 214.891 175.407 214.749 175.361 214.576C175.316 214.403 175.286 214.232 175.272 214.063C175.122 214.341 174.853 214.59 174.466 214.809C174.078 215.027 173.589 215.137 172.996 215.137C172.299 215.137 171.711 214.948 171.232 214.569C170.754 214.187 170.515 213.624 170.515 212.881ZM172.299 212.737C172.299 213.084 172.399 213.362 172.6 213.571C172.8 213.776 173.117 213.879 173.55 213.879C174.001 213.879 174.388 213.731 174.712 213.435C175.035 213.138 175.197 212.799 175.197 212.416V211.616H173.96C173.404 211.616 172.987 211.714 172.709 211.91C172.436 212.106 172.299 212.382 172.299 212.737ZM178.444 211.507V211.288C178.444 210.222 178.729 209.351 179.299 208.677C179.868 207.998 180.614 207.658 181.534 207.658C182.004 207.658 182.407 207.743 182.744 207.911C183.081 208.075 183.343 208.294 183.53 208.567V204.521H185.308V215H183.64L183.592 214.132H183.558C183.394 214.419 183.132 214.658 182.771 214.85C182.416 215.041 182.006 215.137 181.541 215.137C180.584 215.137 179.827 214.799 179.271 214.125C178.72 213.446 178.444 212.573 178.444 211.507ZM180.263 211.575C180.263 212.213 180.402 212.74 180.68 213.154C180.958 213.564 181.382 213.77 181.951 213.77C182.339 213.77 182.667 213.665 182.936 213.455C183.204 213.241 183.403 212.993 183.53 212.71V210.085C183.407 209.798 183.214 209.549 182.949 209.34C182.685 209.13 182.352 209.025 181.951 209.025C181.386 209.025 180.962 209.233 180.68 209.647C180.402 210.058 180.263 210.582 180.263 211.22V211.575ZM186.757 211.507V211.288C186.757 210.222 187.042 209.351 187.611 208.677C188.181 207.998 188.926 207.658 189.847 207.658C190.316 207.658 190.719 207.743 191.057 207.911C191.394 208.075 191.656 208.294 191.843 208.567V204.521H193.62V215H191.952L191.904 214.132H191.87C191.706 214.419 191.444 214.658 191.084 214.85C190.729 215.041 190.318 215.137 189.854 215.137C188.896 215.137 188.14 214.799 187.584 214.125C187.033 213.446 186.757 212.573 186.757 211.507ZM188.575 211.575C188.575 212.213 188.714 212.74 188.992 213.154C189.27 213.564 189.694 213.77 190.264 213.77C190.651 213.77 190.979 213.665 191.248 213.455C191.517 213.241 191.715 212.993 191.843 212.71V210.085C191.72 209.798 191.526 209.549 191.262 209.34C190.997 209.13 190.665 209.025 190.264 209.025C189.699 209.025 189.275 209.233 188.992 209.647C188.714 210.058 188.575 210.582 188.575 211.22V211.575ZM195.473 215V207.795H197.147L197.195 208.629H197.229C197.384 208.351 197.596 208.109 197.865 207.904C198.134 207.699 198.444 207.597 198.795 207.597C198.891 207.597 198.989 207.608 199.089 207.631C199.189 207.654 199.26 207.674 199.301 207.692V209.251C199.219 209.233 199.13 209.219 199.034 209.21C198.943 209.201 198.843 209.196 198.733 209.196C198.387 209.196 198.084 209.294 197.824 209.49C197.564 209.682 197.375 209.925 197.257 210.222V215H195.473ZM199.923 211.507V211.288C199.923 210.181 200.244 209.287 200.887 208.608C201.534 207.929 202.37 207.59 203.396 207.59C204.421 207.59 205.221 207.909 205.795 208.547C206.374 209.18 206.663 210.053 206.663 211.165V211.821H201.105V210.646H204.893V210.481C204.897 210.044 204.77 209.673 204.51 209.367C204.255 209.062 203.888 208.909 203.409 208.909C202.844 208.909 202.418 209.121 202.131 209.545C201.844 209.969 201.7 210.525 201.7 211.213V211.575C201.7 212.25 201.853 212.799 202.158 213.223C202.468 213.646 202.931 213.858 203.546 213.858C203.956 213.858 204.309 213.763 204.605 213.571C204.906 213.375 205.148 213.147 205.33 212.888L206.554 213.735C206.326 214.136 205.952 214.483 205.433 214.774C204.913 215.062 204.293 215.205 203.573 215.205C202.425 215.205 201.529 214.866 200.887 214.187C200.244 213.503 199.923 212.61 199.923 211.507ZM207.593 212.778L209.35 212.785V212.867C209.35 213.232 209.475 213.501 209.726 213.674C209.981 213.847 210.323 213.934 210.751 213.934C211.184 213.934 211.517 213.852 211.749 213.688C211.981 213.519 212.098 213.298 212.098 213.024C212.098 212.751 211.988 212.548 211.77 212.416C211.551 212.279 211.047 212.124 210.259 211.951C209.438 211.773 208.823 211.509 208.413 211.158C208.003 210.807 207.798 210.342 207.798 209.764C207.798 209.107 208.062 208.581 208.591 208.185C209.124 207.788 209.84 207.59 210.737 207.59C211.635 207.59 212.353 207.793 212.891 208.198C213.433 208.604 213.704 209.158 213.704 209.859V209.921H211.961V209.825C211.961 209.529 211.861 209.297 211.66 209.128C211.46 208.955 211.15 208.868 210.73 208.868C210.316 208.868 210.013 208.941 209.821 209.087C209.634 209.233 209.541 209.422 209.541 209.654C209.541 209.887 209.655 210.071 209.883 210.208C210.115 210.34 210.628 210.493 211.421 210.666C212.237 210.839 212.845 211.101 213.246 211.452C213.652 211.799 213.854 212.284 213.854 212.908C213.854 213.61 213.592 214.168 213.068 214.583C212.544 214.998 211.774 215.205 210.758 215.205C209.746 215.205 208.965 214.998 208.413 214.583C207.866 214.164 207.593 213.583 207.593 212.84V212.778ZM214.839 212.778L216.596 212.785V212.867C216.596 213.232 216.721 213.501 216.972 213.674C217.227 213.847 217.569 213.934 217.997 213.934C218.43 213.934 218.763 213.852 218.995 213.688C219.228 213.519 219.344 213.298 219.344 213.024C219.344 212.751 219.234 212.548 219.016 212.416C218.797 212.279 218.293 212.124 217.505 211.951C216.685 211.773 216.069 211.509 215.659 211.158C215.249 210.807 215.044 210.342 215.044 209.764C215.044 209.107 215.308 208.581 215.837 208.185C216.37 207.788 217.086 207.59 217.983 207.59C218.881 207.59 219.599 207.793 220.137 208.198C220.679 208.604 220.95 209.158 220.95 209.859V209.921H219.207V209.825C219.207 209.529 219.107 209.297 218.906 209.128C218.706 208.955 218.396 208.868 217.977 208.868C217.562 208.868 217.259 208.941 217.067 209.087C216.881 209.233 216.787 209.422 216.787 209.654C216.787 209.887 216.901 210.071 217.129 210.208C217.361 210.34 217.874 210.493 218.667 210.666C219.483 210.839 220.091 211.101 220.492 211.452C220.898 211.799 221.101 212.284 221.101 212.908C221.101 213.61 220.839 214.168 220.314 214.583C219.79 214.998 219.02 215.205 218.004 215.205C216.992 215.205 216.211 214.998 215.659 214.583C215.112 214.164 214.839 213.583 214.839 212.84V212.778Z" fill="#181718"/>
<g clip-path="url(#clip5_1909_62204)">
<rect x="223" y="195" width="8" height="8" rx="4" fill="#63D369"/>
<path fill-rule="evenodd" clip-rule="evenodd" d="M229.036 197.584C229.231 197.779 229.231 198.096 229.036 198.291L226.914 200.412C226.82 200.506 226.693 200.559 226.561 200.559C226.428 200.559 226.301 200.506 226.207 200.412L225.146 199.352C224.951 199.156 224.951 198.84 225.146 198.645C225.342 198.449 225.658 198.449 225.854 198.645L226.561 199.352L228.328 197.584C228.524 197.389 228.84 197.389 229.036 197.584Z" fill="white"/>
</g>
</g>
<rect x="36" y="256" width="16" height="16" rx="8" fill="#F5F4F6"/>
<path fill-rule="evenodd" clip-rule="evenodd" d="M44.5331 266.52C44.2402 266.813 43.7654 266.813 43.4725 266.52L40.2409 263.288C39.948 262.995 39.948 262.52 40.2409 262.227C40.5338 261.935 41.0087 261.935 41.3016 262.227L44.0028 264.929L46.704 262.227C46.9969 261.935 47.4718 261.935 47.7647 262.227C48.0576 262.52 48.0576 262.995 47.7647 263.288L44.5331 266.52Z" fill="#8B8A8C"/>
<path d="M56.7178 264.338V263.709C56.7178 262.141 57.1211 260.938 57.9277 260.1C58.7389 259.261 59.7826 258.842 61.0586 258.842C62.2891 258.842 63.2598 259.17 63.9707 259.826C64.6862 260.478 65.0439 261.298 65.0439 262.287V262.424H63.1982V262.273C63.1982 261.663 63.0205 261.18 62.665 260.824C62.3096 260.469 61.7695 260.291 61.0449 260.291C60.3203 260.291 59.7301 260.551 59.2744 261.07C58.8232 261.585 58.5977 262.415 58.5977 263.559V264.488C58.5977 265.546 58.821 266.354 59.2676 266.915C59.7142 267.476 60.3112 267.756 61.0586 267.756C61.7467 267.756 62.264 267.571 62.6104 267.202C62.9567 266.833 63.1504 266.354 63.1914 265.767L63.1982 265.63H65.0439L65.0371 265.767C64.9779 266.746 64.6064 267.564 63.9229 268.221C63.2438 268.877 62.2891 269.205 61.0586 269.205C59.778 269.205 58.7344 268.784 57.9277 267.94C57.1211 267.097 56.7178 265.896 56.7178 264.338ZM66.042 266.881C66.042 266.097 66.3451 265.505 66.9512 265.104C67.5618 264.698 68.3298 264.495 69.2549 264.495H70.7246V264.058C70.7246 263.702 70.6312 263.413 70.4443 263.189C70.262 262.962 69.9385 262.848 69.4736 262.848C69.0088 262.848 68.6784 262.941 68.4824 263.128C68.291 263.315 68.1953 263.536 68.1953 263.791V263.873H66.4385V263.791C66.4385 263.171 66.7233 262.649 67.293 262.226C67.8626 261.802 68.6123 261.59 69.542 261.59C70.4717 261.59 71.1963 261.795 71.7158 262.205C72.2399 262.611 72.502 263.23 72.502 264.064V267.373C72.502 267.669 72.527 267.95 72.5771 268.214C72.6273 268.474 72.6956 268.699 72.7822 268.891V269H71.0459C70.9867 268.891 70.9342 268.749 70.8887 268.576C70.8431 268.403 70.8135 268.232 70.7998 268.063C70.6494 268.341 70.3805 268.59 69.9932 268.809C69.6058 269.027 69.1159 269.137 68.5234 269.137C67.8262 269.137 67.2383 268.948 66.7598 268.569C66.2812 268.187 66.042 267.624 66.042 266.881ZM67.8262 266.737C67.8262 267.084 67.9264 267.362 68.127 267.571C68.3275 267.776 68.6442 267.879 69.0771 267.879C69.5283 267.879 69.9157 267.731 70.2393 267.435C70.5628 267.138 70.7246 266.799 70.7246 266.416V265.616H69.4873C68.9313 265.616 68.5143 265.714 68.2363 265.91C67.9629 266.106 67.8262 266.382 67.8262 266.737ZM74.4023 269V258.521H76.1865V269H74.4023ZM77.6768 265.507V265.288C77.6768 264.167 77.998 263.271 78.6406 262.602C79.2832 261.927 80.1445 261.59 81.2246 261.59C82.2409 261.59 83.0156 261.85 83.5488 262.369C84.082 262.889 84.36 263.495 84.3828 264.188L84.3896 264.276H82.6602V264.208C82.6602 263.857 82.5417 263.559 82.3047 263.312C82.0723 263.062 81.71 262.937 81.2178 262.937C80.639 262.937 80.2061 263.148 79.9189 263.572C79.6364 263.992 79.4951 264.538 79.4951 265.213V265.582C79.4951 266.252 79.6341 266.799 79.9121 267.223C80.1947 267.646 80.6276 267.858 81.2109 267.858C81.735 267.858 82.1064 267.731 82.3252 267.476C82.5485 267.216 82.6602 266.917 82.6602 266.58V266.519H84.3896V266.587C84.3896 267.275 84.1162 267.883 83.5693 268.412C83.027 268.941 82.2454 269.205 81.2246 269.205C80.1445 269.205 79.2832 268.868 78.6406 268.193C77.998 267.519 77.6768 266.623 77.6768 265.507ZM85.627 266.279V261.795H87.4043V266.327C87.4043 266.851 87.5137 267.218 87.7324 267.428C87.9557 267.637 88.2611 267.742 88.6484 267.742C88.9902 267.742 89.2933 267.646 89.5576 267.455C89.8265 267.259 90.0316 267.015 90.1729 266.724V261.795H91.9502V269H90.2822L90.2344 268.152H90.1934C89.9655 268.458 89.667 268.699 89.2979 268.877C88.9287 269.05 88.5163 269.137 88.0605 269.137C87.3405 269.137 86.7549 268.918 86.3037 268.48C85.8525 268.043 85.627 267.309 85.627 266.279ZM93.8438 269V258.521H95.6279V269H93.8438ZM97.1455 266.881C97.1455 266.097 97.4486 265.505 98.0547 265.104C98.6654 264.698 99.4333 264.495 100.358 264.495H101.828V264.058C101.828 263.702 101.735 263.413 101.548 263.189C101.366 262.962 101.042 262.848 100.577 262.848C100.112 262.848 99.7819 262.941 99.5859 263.128C99.3945 263.315 99.2988 263.536 99.2988 263.791V263.873H97.542V263.791C97.542 263.171 97.8268 262.649 98.3965 262.226C98.9661 261.802 99.7158 261.59 100.646 261.59C101.575 261.59 102.3 261.795 102.819 262.205C103.343 262.611 103.605 263.23 103.605 264.064V267.373C103.605 267.669 103.631 267.95 103.681 268.214C103.731 268.474 103.799 268.699 103.886 268.891V269H102.149C102.09 268.891 102.038 268.749 101.992 268.576C101.947 268.403 101.917 268.232 101.903 268.063C101.753 268.341 101.484 268.59 101.097 268.809C100.709 269.027 100.219 269.137 99.627 269.137C98.9297 269.137 98.3418 268.948 97.8633 268.569C97.3848 268.187 97.1455 267.624 97.1455 266.881ZM98.9297 266.737C98.9297 267.084 99.0299 267.362 99.2305 267.571C99.431 267.776 99.7477 267.879 100.181 267.879C100.632 267.879 101.019 267.731 101.343 267.435C101.666 267.138 101.828 266.799 101.828 266.416V265.616H100.591C100.035 265.616 99.6178 265.714 99.3398 265.91C99.0664 266.106 98.9297 266.382 98.9297 266.737ZM104.549 263.107V261.795H108.876V263.107H104.549ZM105.69 266.977V262.506L105.697 262.301V260.072H107.468V266.949C107.468 267.273 107.529 267.498 107.652 267.626C107.775 267.754 107.955 267.817 108.192 267.817C108.302 267.817 108.411 267.806 108.521 267.783C108.634 267.756 108.746 267.722 108.855 267.681V268.993C108.746 269.048 108.593 269.096 108.397 269.137C108.206 269.182 107.996 269.205 107.769 269.205C107.144 269.205 106.641 269.025 106.258 268.665C105.88 268.305 105.69 267.742 105.69 266.977ZM110.147 269V261.795H111.932V269H110.147ZM109.983 259.737C109.983 259.459 110.075 259.227 110.257 259.04C110.439 258.853 110.701 258.76 111.043 258.76C111.38 258.76 111.64 258.853 111.822 259.04C112.009 259.227 112.103 259.459 112.103 259.737C112.103 260.015 112.009 260.25 111.822 260.441C111.64 260.628 111.378 260.722 111.036 260.722C110.699 260.722 110.439 260.628 110.257 260.441C110.075 260.25 109.983 260.015 109.983 259.737ZM113.429 265.507V265.288C113.429 264.167 113.759 263.271 114.42 262.602C115.085 261.927 115.956 261.59 117.031 261.59C118.111 261.59 118.982 261.927 119.643 262.602C120.308 263.271 120.641 264.167 120.641 265.288V265.507C120.641 266.623 120.308 267.519 119.643 268.193C118.982 268.868 118.111 269.205 117.031 269.205C115.956 269.205 115.085 268.868 114.42 268.193C113.759 267.519 113.429 266.623 113.429 265.507ZM115.247 265.213V265.582C115.247 266.275 115.4 266.824 115.705 267.229C116.01 267.631 116.452 267.831 117.031 267.831C117.61 267.831 118.052 267.631 118.357 267.229C118.663 266.824 118.815 266.275 118.815 265.582V265.213C118.815 264.516 118.66 263.966 118.351 263.565C118.045 263.164 117.605 262.964 117.031 262.964C116.462 262.964 116.022 263.164 115.712 263.565C115.402 263.966 115.247 264.516 115.247 265.213ZM122.104 269V261.795H123.771L123.819 262.643H123.86C124.07 262.346 124.359 262.107 124.729 261.925C125.098 261.743 125.506 261.651 125.952 261.651C126.69 261.651 127.287 261.861 127.743 262.28C128.199 262.695 128.427 263.417 128.427 264.447V269H126.649V264.399C126.649 263.907 126.54 263.561 126.321 263.36C126.107 263.155 125.802 263.053 125.405 263.053C125.077 263.053 124.776 263.144 124.503 263.326C124.234 263.508 124.027 263.759 123.881 264.078V269H122.104Z" fill="#8B8A8C"/>
<g clip-path="url(#clip6_1909_62204)">
<rect width="392" height="146" transform="translate(36 288)" fill="white"/>
<rect x="36" y="288" width="392" height="84" rx="8" fill="#F5F4F6"/>
<path d="M51.4727 313V309.35L48.0273 303.047H49.791L51.9238 307.094C51.9967 307.226 52.0605 307.351 52.1152 307.47C52.1745 307.584 52.2292 307.702 52.2793 307.825H52.3203C52.3659 307.702 52.4183 307.584 52.4775 307.47C52.5368 307.351 52.6006 307.226 52.6689 307.094L54.8359 303.047H56.4697L53.0518 309.309V313H51.4727ZM56.0869 309.507V309.288C56.0869 308.19 56.4059 307.301 57.0439 306.622C57.6865 305.938 58.5342 305.597 59.5869 305.597C60.6396 305.597 61.485 305.938 62.123 306.622C62.7611 307.301 63.0801 308.19 63.0801 309.288V309.507C63.0801 310.61 62.7611 311.503 62.123 312.187C61.485 312.866 60.6396 313.205 59.5869 313.205C58.5342 313.205 57.6865 312.866 57.0439 312.187C56.4059 311.503 56.0869 310.61 56.0869 309.507ZM57.6455 309.254V309.548C57.6455 310.268 57.8096 310.856 58.1377 311.312C58.4658 311.767 58.9489 311.995 59.5869 311.995C60.2204 311.995 60.7012 311.767 61.0293 311.312C61.3574 310.856 61.5215 310.268 61.5215 309.548V309.254C61.5215 308.534 61.3551 307.946 61.0225 307.49C60.6943 307.03 60.2158 306.8 59.5869 306.8C58.9535 306.8 58.4704 307.03 58.1377 307.49C57.8096 307.946 57.6455 308.534 57.6455 309.254ZM64.543 310.361V305.802H66.0674V310.396C66.0674 310.942 66.1859 311.332 66.4229 311.564C66.6644 311.792 67.0016 311.906 67.4346 311.906C67.8083 311.906 68.1387 311.804 68.4258 311.599C68.7129 311.394 68.9339 311.129 69.0889 310.806V305.802H70.6133V313H69.2051L69.1572 312.118H69.1162C68.8747 312.433 68.5671 312.681 68.1934 312.863C67.8197 313.046 67.4049 313.137 66.9492 313.137C66.2246 313.137 65.6413 312.925 65.1992 312.501C64.7617 312.073 64.543 311.359 64.543 310.361ZM75.877 314.955L76.7041 313.902C76.8955 314.112 77.1758 314.303 77.5449 314.477C77.9141 314.65 78.3265 314.736 78.7822 314.736C79.3564 314.736 79.8122 314.568 80.1494 314.23C80.4912 313.893 80.6621 313.406 80.6621 312.768V312.187C80.4661 312.478 80.1927 312.711 79.8418 312.884C79.4954 313.052 79.0785 313.137 78.5908 313.137C77.6748 313.137 76.9388 312.799 76.3828 312.125C75.8314 311.446 75.5557 310.573 75.5557 309.507V309.288C75.5557 308.226 75.8314 307.358 76.3828 306.684C76.9388 306.005 77.6748 305.665 78.5908 305.665C79.0739 305.665 79.5 305.765 79.8691 305.966C80.2428 306.166 80.5163 306.412 80.6895 306.704H80.7305L80.7783 305.802H82.1865V312.754C82.1865 313.793 81.8743 314.59 81.25 315.146C80.6257 315.702 79.8213 315.98 78.8369 315.98C78.2308 315.98 77.6725 315.882 77.1621 315.687C76.6517 315.495 76.2233 315.251 75.877 314.955ZM77.1143 309.541C77.1143 310.225 77.2624 310.794 77.5586 311.25C77.8594 311.706 78.3265 311.934 78.96 311.934C79.3792 311.934 79.7347 311.817 80.0264 311.585C80.3226 311.348 80.5345 311.079 80.6621 310.778V308.037C80.5299 307.723 80.3158 307.449 80.0195 307.217C79.7279 306.984 79.3701 306.868 78.9463 306.868C78.3219 306.868 77.8594 307.096 77.5586 307.552C77.2624 308.007 77.1143 308.577 77.1143 309.261V309.541ZM83.7178 309.507V309.288C83.7178 308.194 84.0277 307.306 84.6475 306.622C85.2673 305.938 86.0785 305.597 87.0811 305.597C88.0837 305.597 88.8607 305.918 89.4121 306.561C89.9635 307.199 90.2393 308.067 90.2393 309.165V309.76H84.7021V308.659H88.7217V308.502C88.7217 308.023 88.5827 307.618 88.3047 307.285C88.0267 306.948 87.6302 306.779 87.1152 306.779C86.4954 306.779 86.0306 307.014 85.7207 307.483C85.4108 307.948 85.2559 308.538 85.2559 309.254V309.548C85.2559 310.254 85.4199 310.842 85.748 311.312C86.0807 311.776 86.5843 312.009 87.2588 312.009C87.6917 312.009 88.0632 311.911 88.373 311.715C88.6875 311.519 88.9427 311.289 89.1387 311.024L90.1641 311.77C89.9362 312.143 89.5716 312.476 89.0703 312.768C88.5736 313.059 87.9743 313.205 87.2725 313.205C86.1377 313.205 85.2604 312.863 84.6406 312.18C84.0254 311.496 83.7178 310.605 83.7178 309.507ZM90.7383 306.943V305.802H94.9492V306.943H90.7383ZM91.9551 311.1V306.451V306.246V304.052H93.4727V311.086C93.4727 311.405 93.5365 311.633 93.6641 311.77C93.7917 311.902 93.9808 311.968 94.2314 311.968C94.3545 311.968 94.473 311.954 94.5869 311.927C94.7054 311.899 94.8239 311.863 94.9424 311.817V313C94.8285 313.055 94.6758 313.103 94.4844 313.144C94.293 313.185 94.0833 313.205 93.8555 313.205C93.2767 313.205 92.8141 313.036 92.4678 312.699C92.126 312.357 91.9551 311.824 91.9551 311.1Z" fill="#828282"/>
<path d="M49.0527 345.355V338.738C49.0527 336.587 49.627 334.883 50.7754 333.625C51.9238 332.358 53.5508 331.725 55.6562 331.725C57.7526 331.725 59.3796 332.354 60.5371 333.611C61.6947 334.869 62.2734 336.578 62.2734 338.738V345.355C62.2734 347.525 61.6855 349.238 60.5098 350.496C59.3431 351.745 57.7253 352.369 55.6562 352.369C53.5508 352.36 51.9238 351.731 50.7754 350.482C49.627 349.234 49.0527 347.525 49.0527 345.355ZM52.7988 345.793C52.7988 346.941 53.0267 347.862 53.4824 348.555C53.9473 349.247 54.6719 349.594 55.6562 349.594C56.6497 349.594 57.3743 349.247 57.8301 348.555C58.2949 347.862 58.5273 346.941 58.5273 345.793V338.328C58.5273 337.171 58.2949 336.25 57.8301 335.566C57.3743 334.874 56.6497 334.527 55.6562 334.527C54.6719 334.527 53.9473 334.874 53.4824 335.566C53.0267 336.25 52.7988 337.171 52.7988 338.328V345.793ZM65.1992 350.154C65.1992 349.553 65.3906 349.047 65.7734 348.637C66.1654 348.227 66.7214 348.021 67.4414 348.021C68.1706 348.021 68.7266 348.227 69.1094 348.637C69.5013 349.047 69.6973 349.553 69.6973 350.154C69.6973 350.747 69.5013 351.253 69.1094 351.672C68.7266 352.082 68.1706 352.287 67.4414 352.287C66.7214 352.287 66.1654 352.082 65.7734 351.672C65.3906 351.253 65.1992 350.747 65.1992 350.154ZM72.6777 345.355V338.738C72.6777 336.587 73.252 334.883 74.4004 333.625C75.5488 332.358 77.1758 331.725 79.2812 331.725C81.3776 331.725 83.0046 332.354 84.1621 333.611C85.3197 334.869 85.8984 336.578 85.8984 338.738V345.355C85.8984 347.525 85.3105 349.238 84.1348 350.496C82.9681 351.745 81.3503 352.369 79.2812 352.369C77.1758 352.36 75.5488 351.731 74.4004 350.482C73.252 349.234 72.6777 347.525 72.6777 345.355ZM76.4238 345.793C76.4238 346.941 76.6517 347.862 77.1074 348.555C77.5723 349.247 78.2969 349.594 79.2812 349.594C80.2747 349.594 80.9993 349.247 81.4551 348.555C81.9199 347.862 82.1523 346.941 82.1523 345.793V338.328C82.1523 337.171 81.9199 336.25 81.4551 335.566C80.9993 334.874 80.2747 334.527 79.2812 334.527C78.2969 334.527 77.5723 334.874 77.1074 335.566C76.6517 336.25 76.4238 337.171 76.4238 338.328V345.793ZM87.9492 352V349.648L94.8398 341.965C95.6055 341.108 96.2116 340.315 96.6582 339.586C97.1048 338.848 97.3281 338.082 97.3281 337.289C97.3281 336.451 97.0866 335.781 96.6035 335.279C96.1296 334.769 95.4642 334.514 94.6074 334.514C93.7415 334.514 93.0306 334.801 92.4746 335.375C91.9186 335.94 91.6406 336.829 91.6406 338.041V338.396H87.9219V337.863C87.9219 336.04 88.5417 334.564 89.7812 333.434C91.0208 332.294 92.6341 331.725 94.6211 331.725C96.681 331.725 98.2669 332.235 99.3789 333.256C100.5 334.268 101.061 335.557 101.061 337.125C101.061 338.41 100.737 339.559 100.09 340.57C99.4427 341.582 98.6133 342.639 97.6016 343.742L92.9121 349.033H101.525V352H87.9492ZM103.125 343.688V343.113C103.125 339.65 104.077 336.902 105.982 334.869C107.896 332.837 110.64 331.82 114.213 331.82H114.719V334.746H114.254C111.884 334.746 110.025 335.411 108.676 336.742C107.336 338.073 106.666 340.26 106.666 343.305L106.789 343.852C106.789 346.048 107.099 347.561 107.719 348.391C108.348 349.211 109.173 349.621 110.193 349.621C111.196 349.621 111.962 349.288 112.49 348.623C113.028 347.958 113.297 346.923 113.297 345.52C113.297 344.262 113.033 343.291 112.504 342.607C111.975 341.915 111.201 341.568 110.18 341.568C109.232 341.568 108.425 341.915 107.76 342.607C107.094 343.3 106.762 344.225 106.762 345.383L105.654 345.369C105.654 343.492 106.16 341.96 107.172 340.775C108.184 339.581 109.523 338.984 111.191 338.984C112.978 338.984 114.391 339.577 115.43 340.762C116.469 341.938 116.988 343.523 116.988 345.52C116.988 347.579 116.368 349.238 115.129 350.496C113.889 351.745 112.244 352.369 110.193 352.369C108.143 352.369 106.452 351.686 105.121 350.318C103.79 348.951 103.125 346.741 103.125 343.688ZM118.314 346.586V346.176H121.951V346.531C121.951 347.525 122.234 348.286 122.799 348.814C123.364 349.343 124.134 349.607 125.109 349.607C126.094 349.607 126.864 349.343 127.42 348.814C127.985 348.277 128.268 347.434 128.268 346.285C128.268 345.155 127.944 344.316 127.297 343.77C126.659 343.223 125.775 342.949 124.645 342.949H122.799V340.379H124.535C125.52 340.379 126.285 340.124 126.832 339.613C127.388 339.094 127.666 338.324 127.666 337.303C127.666 336.355 127.438 335.648 126.982 335.184C126.527 334.719 125.88 334.486 125.041 334.486C124.166 334.486 123.496 334.728 123.031 335.211C122.576 335.694 122.348 336.391 122.348 337.303V337.576H118.738V337.275C118.729 335.653 119.308 334.322 120.475 333.283C121.641 332.244 123.191 331.725 125.123 331.725C127.092 331.725 128.623 332.212 129.717 333.188C130.82 334.154 131.371 335.389 131.371 336.893C131.371 337.977 131.12 338.921 130.619 339.723C130.118 340.525 129.366 341.126 128.363 341.527V341.582C129.43 341.837 130.3 342.384 130.975 343.223C131.658 344.061 132 345.132 132 346.436C132 348.24 131.376 349.68 130.127 350.756C128.878 351.831 127.197 352.369 125.082 352.369C122.94 352.369 121.277 351.84 120.092 350.783C118.907 349.717 118.314 348.318 118.314 346.586ZM133.791 346.695C133.791 345.41 134.151 344.344 134.871 343.496C135.591 342.639 136.421 342.056 137.359 341.746V341.691C136.53 341.318 135.828 340.748 135.254 339.982C134.689 339.208 134.406 338.246 134.406 337.098C134.406 335.484 134.971 334.186 136.102 333.201C137.232 332.217 138.74 331.725 140.627 331.725C142.514 331.725 144.022 332.221 145.152 333.215C146.283 334.208 146.848 335.503 146.848 337.098C146.848 338.255 146.57 339.221 146.014 339.996C145.467 340.762 144.774 341.327 143.936 341.691V341.746C144.893 342.038 145.717 342.612 146.41 343.469C147.112 344.326 147.463 345.401 147.463 346.695C147.463 348.482 146.829 349.876 145.562 350.879C144.296 351.872 142.65 352.369 140.627 352.369C138.604 352.369 136.958 351.872 135.691 350.879C134.424 349.876 133.791 348.482 133.791 346.695ZM137.496 346.381C137.496 347.42 137.77 348.231 138.316 348.814C138.872 349.389 139.643 349.676 140.627 349.676C141.611 349.676 142.377 349.384 142.924 348.801C143.48 348.217 143.758 347.415 143.758 346.395C143.758 345.337 143.48 344.517 142.924 343.934C142.377 343.35 141.611 343.059 140.627 343.059C139.652 343.059 138.886 343.35 138.33 343.934C137.774 344.517 137.496 345.333 137.496 346.381ZM137.975 337.453C137.975 338.392 138.207 339.148 138.672 339.723C139.146 340.288 139.798 340.57 140.627 340.57C141.456 340.57 142.104 340.288 142.568 339.723C143.042 339.148 143.279 338.392 143.279 337.453C143.279 336.533 143.051 335.803 142.596 335.266C142.14 334.719 141.484 334.445 140.627 334.445C139.77 334.445 139.114 334.714 138.658 335.252C138.202 335.781 137.975 336.514 137.975 337.453ZM149.104 346.695V346.326H152.768V346.654C152.768 347.611 153.041 348.345 153.588 348.855C154.144 349.357 154.91 349.607 155.885 349.607C156.878 349.607 157.653 349.275 158.209 348.609C158.774 347.935 159.057 346.923 159.057 345.574C159.057 344.234 158.774 343.255 158.209 342.635C157.644 342.015 156.896 341.705 155.967 341.705C155.265 341.705 154.654 341.846 154.135 342.129C153.615 342.411 153.169 342.785 152.795 343.25L149.773 342.17L150.785 332.094H161.736V335.074L153.684 335.047L153.178 340.037C153.588 339.736 154.094 339.486 154.695 339.285C155.306 339.076 155.98 338.971 156.719 338.971C158.423 338.971 159.854 339.522 161.012 340.625C162.178 341.728 162.762 343.332 162.762 345.438C162.762 347.589 162.146 349.284 160.916 350.523C159.695 351.754 158.027 352.369 155.912 352.369C153.752 352.369 152.075 351.85 150.881 350.811C149.696 349.762 149.104 348.391 149.104 346.695Z" fill="#181718"/>
<rect x="331" y="324" width="85" height="36" rx="6" fill="white"/>
<path fill-rule="evenodd" clip-rule="evenodd" d="M343.171 343.608C342.878 343.315 342.403 343.315 342.11 343.608C341.817 343.901 341.817 344.376 342.11 344.669L344.466 347.024L344.996 347.555L345.527 347.024L347.882 344.669C348.175 344.376 348.175 343.901 347.882 343.608C347.589 343.315 347.114 343.315 346.821 343.608L344.996 345.433L343.171 343.608ZM343.171 340.399C342.878 340.692 342.403 340.692 342.11 340.399C341.817 340.106 341.817 339.631 342.11 339.338L344.466 336.983L344.996 336.452L345.527 336.983L347.882 339.338C348.175 339.631 348.175 340.106 347.882 340.399C347.589 340.692 347.114 340.692 346.821 340.399L344.996 338.574L343.171 340.399Z" fill="#8B8A8C"/>
<path d="M354.227 347V335.625H358.305C359.518 335.625 360.469 335.87 361.156 336.359C361.849 336.844 362.195 337.599 362.195 338.625C362.195 339.255 362.047 339.771 361.75 340.172C361.453 340.568 361.086 340.844 360.648 341V341.031C361.185 341.188 361.628 341.492 361.977 341.945C362.331 342.398 362.508 342.992 362.508 343.727C362.508 344.763 362.143 345.568 361.414 346.141C360.685 346.714 359.724 347 358.531 347H354.227ZM356.297 345.461H358.477C359.143 345.461 359.633 345.297 359.945 344.969C360.258 344.641 360.414 344.198 360.414 343.641C360.414 343.083 360.258 342.643 359.945 342.32C359.633 341.992 359.143 341.828 358.477 341.828H356.297V345.461ZM356.297 340.367H358.25C358.917 340.367 359.396 340.227 359.688 339.945C359.979 339.659 360.125 339.26 360.125 338.75C360.125 338.245 359.979 337.857 359.688 337.586C359.396 337.31 358.917 337.172 358.25 337.172H356.297V340.367ZM363.242 337.258V335.625H372.25V337.258H368.797V347H366.695V337.258H363.242ZM373.07 341.664V340.961C373.07 339.159 373.529 337.781 374.445 336.828C375.367 335.875 376.555 335.398 378.008 335.398C379.409 335.398 380.513 335.771 381.32 336.516C382.133 337.255 382.539 338.193 382.539 339.328V339.492H380.43V339.297C380.43 338.604 380.227 338.057 379.82 337.656C379.419 337.25 378.81 337.047 377.992 337.047C377.169 337.047 376.503 337.344 375.992 337.938C375.482 338.526 375.227 339.471 375.227 340.773V341.859C375.227 343.062 375.479 343.984 375.984 344.625C376.49 345.26 377.167 345.578 378.016 345.578C378.792 345.578 379.375 345.37 379.766 344.953C380.156 344.531 380.375 343.984 380.422 343.312L380.43 343.133H382.539L382.531 343.32C382.464 344.435 382.042 345.365 381.266 346.109C380.495 346.854 379.409 347.227 378.008 347.227C376.549 347.227 375.362 346.747 374.445 345.789C373.529 344.831 373.07 343.456 373.07 341.664Z" fill="#181718"/>
<g clip-path="url(#clip7_1909_62204)">
<rect width="20" height="20" transform="translate(388 332)" fill="#F7931A"/>
<path d="M400.509 341.641C401.121 341.335 401.478 340.825 401.427 339.908C401.325 338.685 400.254 338.277 398.929 338.124V336.442H397.909V338.073C397.655 338.073 397.349 338.073 397.094 338.073V336.391H396.074V338.073C395.87 338.073 395.616 338.073 395.412 338.073H393.984V339.194H394.749C395.157 339.194 395.31 339.449 395.361 339.653V341.59C395.412 341.59 395.412 341.59 395.463 341.59C395.412 341.59 395.412 341.59 395.361 341.59V344.292C395.361 344.445 395.259 344.649 394.953 344.649H394.188L393.984 345.872H395.31C395.565 345.872 395.819 345.872 396.023 345.872V347.605H397.043V345.923C397.349 345.923 397.604 345.923 397.859 345.923V347.605H398.878V345.872C400.611 345.77 401.835 345.362 401.988 343.731C402.14 342.508 401.529 341.896 400.509 341.641ZM397.094 339.347C397.655 339.347 399.49 339.194 399.49 340.418C399.49 341.59 397.655 341.437 397.094 341.437V339.347ZM397.043 344.7V342.406C397.757 342.406 399.949 342.202 399.949 343.578C399.949 344.853 397.757 344.7 397.043 344.7Z" fill="white"/>
</g>
<rect x="388.25" y="332.25" width="19.5" height="19.5" rx="9.75" stroke="#1B1A1C" stroke-opacity="0.08" stroke-width="0.5"/>
<rect x="36.75" y="374.75" width="390.5" height="58.5" rx="7.25" fill="#F5F4F6"/>
<rect x="36.75" y="374.75" width="390.5" height="58.5" rx="7.25" stroke="#F5F4F6" stroke-width="1.5"/>
<rect x="48.75" y="386.75" width="161.5" height="34.5" rx="5.25" fill="white"/>
<rect x="48.75" y="386.75" width="161.5" height="34.5" rx="5.25" stroke="#63D369" stroke-width="1.5"/>
<g clip-path="url(#clip8_1909_62204)">
<rect width="20" height="20" transform="translate(56 394)" fill="#F7931A"/>
<path d="M68.5092 403.641C69.1209 403.335 69.4778 402.825 69.4268 401.908C69.3249 400.685 68.2544 400.277 66.929 400.124V398.442H65.9095V400.073C65.6546 400.073 65.3488 400.073 65.0939 400.073V398.391H64.0744V400.073C63.8705 400.073 63.6156 400.073 63.4117 400.073H61.9844V401.194H62.749C63.1568 401.194 63.3097 401.449 63.3607 401.653V403.59C63.4117 403.59 63.4117 403.59 63.4627 403.59C63.4117 403.59 63.4117 403.59 63.3607 403.59V406.292C63.3607 406.445 63.2588 406.649 62.9529 406.649H62.1883L61.9844 407.872H63.3097C63.5646 407.872 63.8195 407.872 64.0234 407.872V409.605H65.0429V407.923C65.3488 407.923 65.6036 407.923 65.8585 407.923V409.605H66.878V407.872C68.6112 407.77 69.8346 407.362 69.9875 405.731C70.1405 404.508 69.5288 403.896 68.5092 403.641ZM65.0939 401.347C65.6546 401.347 67.4897 401.194 67.4897 402.418C67.4897 403.59 65.6546 403.437 65.0939 403.437V401.347ZM65.0429 406.7V404.406C65.7566 404.406 67.9485 404.202 67.9485 405.578C67.9485 406.853 65.7566 406.7 65.0429 406.7Z" fill="white"/>
</g>
<rect x="56.25" y="394.25" width="19.5" height="19.5" rx="3.75" stroke="black" stroke-opacity="0.08" stroke-width="0.5"/>
<path d="M82 403.107V401.795H86.3271V403.107H82ZM83.1416 406.977V402.506L83.1484 402.301V400.072H84.9189V406.949C84.9189 407.273 84.9805 407.498 85.1035 407.626C85.2266 407.754 85.4066 407.817 85.6436 407.817C85.7529 407.817 85.8623 407.806 85.9717 407.783C86.0856 407.756 86.1973 407.722 86.3066 407.681V408.993C86.1973 409.048 86.0446 409.096 85.8486 409.137C85.6572 409.182 85.4476 409.205 85.2197 409.205C84.5954 409.205 84.0918 409.025 83.709 408.665C83.3307 408.305 83.1416 407.742 83.1416 406.977ZM87.0244 405.507V405.288C87.0244 404.167 87.3548 403.271 88.0156 402.602C88.681 401.927 89.5514 401.59 90.627 401.59C91.707 401.59 92.5775 401.927 93.2383 402.602C93.9036 403.271 94.2363 404.167 94.2363 405.288V405.507C94.2363 406.623 93.9036 407.519 93.2383 408.193C92.5775 408.868 91.707 409.205 90.627 409.205C89.5514 409.205 88.681 408.868 88.0156 408.193C87.3548 407.519 87.0244 406.623 87.0244 405.507ZM88.8428 405.213V405.582C88.8428 406.275 88.9954 406.824 89.3008 407.229C89.6061 407.631 90.0482 407.831 90.627 407.831C91.2057 407.831 91.6478 407.631 91.9531 407.229C92.2585 406.824 92.4111 406.275 92.4111 405.582V405.213C92.4111 404.516 92.2562 403.966 91.9463 403.565C91.641 403.164 91.2012 402.964 90.627 402.964C90.0573 402.964 89.6175 403.164 89.3076 403.565C88.9977 403.966 88.8428 404.516 88.8428 405.213ZM99.2812 409V399.047H102.85C103.916 399.047 104.755 399.261 105.365 399.689C105.976 400.113 106.281 400.776 106.281 401.679C106.281 402.226 106.151 402.674 105.892 403.025C105.632 403.372 105.311 403.613 104.928 403.75V403.777C105.397 403.914 105.785 404.181 106.09 404.577C106.395 404.969 106.548 405.486 106.548 406.129C106.548 407.04 106.227 407.747 105.584 408.248C104.946 408.749 104.101 409 103.048 409H99.2812ZM101.093 407.653H103.021C103.608 407.653 104.039 407.51 104.312 407.223C104.586 406.936 104.723 406.546 104.723 406.054C104.723 405.571 104.586 405.188 104.312 404.905C104.039 404.618 103.608 404.475 103.021 404.475H101.093V407.653ZM101.093 403.183H102.822C103.406 403.183 103.825 403.06 104.08 402.813C104.34 402.567 104.47 402.223 104.47 401.781C104.47 401.339 104.34 401 104.08 400.763C103.825 400.521 103.406 400.4 102.822 400.4H101.093V403.183ZM108.147 409V401.795H109.932V409H108.147ZM107.983 399.737C107.983 399.459 108.075 399.227 108.257 399.04C108.439 398.853 108.701 398.76 109.043 398.76C109.38 398.76 109.64 398.853 109.822 399.04C110.009 399.227 110.103 399.459 110.103 399.737C110.103 400.015 110.009 400.25 109.822 400.441C109.64 400.628 109.378 400.722 109.036 400.722C108.699 400.722 108.439 400.628 108.257 400.441C108.075 400.25 107.983 400.015 107.983 399.737ZM110.902 403.107V401.795H115.229V403.107H110.902ZM112.044 406.977V402.506L112.051 402.301V400.072H113.821V406.949C113.821 407.273 113.883 407.498 114.006 407.626C114.129 407.754 114.309 407.817 114.546 407.817C114.655 407.817 114.765 407.806 114.874 407.783C114.988 407.756 115.1 407.722 115.209 407.681V408.993C115.1 409.048 114.947 409.096 114.751 409.137C114.56 409.182 114.35 409.205 114.122 409.205C113.498 409.205 112.994 409.025 112.611 408.665C112.233 408.305 112.044 407.742 112.044 406.977ZM116.063 405.507V405.288C116.063 404.167 116.385 403.271 117.027 402.602C117.67 401.927 118.531 401.59 119.611 401.59C120.628 401.59 121.402 401.85 121.936 402.369C122.469 402.889 122.747 403.495 122.77 404.188L122.776 404.276H121.047V404.208C121.047 403.857 120.928 403.559 120.691 403.312C120.459 403.062 120.097 402.937 119.604 402.937C119.026 402.937 118.593 403.148 118.306 403.572C118.023 403.992 117.882 404.538 117.882 405.213V405.582C117.882 406.252 118.021 406.799 118.299 407.223C118.581 407.646 119.014 407.858 119.598 407.858C120.122 407.858 120.493 407.731 120.712 407.476C120.935 407.216 121.047 406.917 121.047 406.58V406.519H122.776V406.587C122.776 407.275 122.503 407.883 121.956 408.412C121.414 408.941 120.632 409.205 119.611 409.205C118.531 409.205 117.67 408.868 117.027 408.193C116.385 407.519 116.063 406.623 116.063 405.507ZM123.679 405.507V405.288C123.679 404.167 124.009 403.271 124.67 402.602C125.335 401.927 126.206 401.59 127.281 401.59C128.361 401.59 129.232 401.927 129.893 402.602C130.558 403.271 130.891 404.167 130.891 405.288V405.507C130.891 406.623 130.558 407.519 129.893 408.193C129.232 408.868 128.361 409.205 127.281 409.205C126.206 409.205 125.335 408.868 124.67 408.193C124.009 407.519 123.679 406.623 123.679 405.507ZM125.497 405.213V405.582C125.497 406.275 125.65 406.824 125.955 407.229C126.26 407.631 126.702 407.831 127.281 407.831C127.86 407.831 128.302 407.631 128.607 407.229C128.913 406.824 129.065 406.275 129.065 405.582V405.213C129.065 404.516 128.91 403.966 128.601 403.565C128.295 403.164 127.855 402.964 127.281 402.964C126.712 402.964 126.272 403.164 125.962 403.565C125.652 403.966 125.497 404.516 125.497 405.213ZM132.388 409V401.795H134.172V409H132.388ZM132.224 399.737C132.224 399.459 132.315 399.227 132.497 399.04C132.679 398.853 132.941 398.76 133.283 398.76C133.62 398.76 133.88 398.853 134.062 399.04C134.249 399.227 134.343 399.459 134.343 399.737C134.343 400.015 134.249 400.25 134.062 400.441C133.88 400.628 133.618 400.722 133.276 400.722C132.939 400.722 132.679 400.628 132.497 400.441C132.315 400.25 132.224 400.015 132.224 399.737ZM136.072 409V401.795H137.74L137.788 402.643H137.829C138.039 402.346 138.328 402.107 138.697 401.925C139.066 401.743 139.474 401.651 139.921 401.651C140.659 401.651 141.256 401.861 141.712 402.28C142.168 402.695 142.396 403.417 142.396 404.447V409H140.618V404.399C140.618 403.907 140.509 403.561 140.29 403.36C140.076 403.155 139.771 403.053 139.374 403.053C139.046 403.053 138.745 403.144 138.472 403.326C138.203 403.508 137.995 403.759 137.85 404.078V409H136.072ZM147.235 406.881C147.235 406.097 147.538 405.505 148.145 405.104C148.755 404.698 149.523 404.495 150.448 404.495H151.918V404.058C151.918 403.702 151.825 403.413 151.638 403.189C151.455 402.962 151.132 402.848 150.667 402.848C150.202 402.848 149.872 402.941 149.676 403.128C149.484 403.315 149.389 403.536 149.389 403.791V403.873H147.632V403.791C147.632 403.171 147.917 402.649 148.486 402.226C149.056 401.802 149.806 401.59 150.735 401.59C151.665 401.59 152.39 401.795 152.909 402.205C153.433 402.611 153.695 403.23 153.695 404.064V407.373C153.695 407.669 153.72 407.95 153.771 408.214C153.821 408.474 153.889 408.699 153.976 408.891V409H152.239C152.18 408.891 152.128 408.749 152.082 408.576C152.036 408.403 152.007 408.232 151.993 408.063C151.843 408.341 151.574 408.59 151.187 408.809C150.799 409.027 150.309 409.137 149.717 409.137C149.02 409.137 148.432 408.948 147.953 408.569C147.475 408.187 147.235 407.624 147.235 406.881ZM149.02 406.737C149.02 407.084 149.12 407.362 149.32 407.571C149.521 407.776 149.838 407.879 150.271 407.879C150.722 407.879 151.109 407.731 151.433 407.435C151.756 407.138 151.918 406.799 151.918 406.416V405.616H150.681C150.125 405.616 149.708 405.714 149.43 405.91C149.156 406.106 149.02 406.382 149.02 406.737ZM155.165 405.507V405.288C155.165 404.222 155.45 403.351 156.02 402.677C156.589 401.998 157.334 401.658 158.255 401.658C158.724 401.658 159.128 401.743 159.465 401.911C159.802 402.075 160.064 402.294 160.251 402.567V398.521H162.028V409H160.36L160.312 408.132H160.278C160.114 408.419 159.852 408.658 159.492 408.85C159.137 409.041 158.727 409.137 158.262 409.137C157.305 409.137 156.548 408.799 155.992 408.125C155.441 407.446 155.165 406.573 155.165 405.507ZM156.983 405.575C156.983 406.213 157.122 406.74 157.4 407.154C157.678 407.564 158.102 407.77 158.672 407.77C159.059 407.77 159.387 407.665 159.656 407.455C159.925 407.241 160.123 406.993 160.251 406.71V404.085C160.128 403.798 159.934 403.549 159.67 403.34C159.406 403.13 159.073 403.025 158.672 403.025C158.107 403.025 157.683 403.233 157.4 403.647C157.122 404.058 156.983 404.582 156.983 405.22V405.575ZM163.478 405.507V405.288C163.478 404.222 163.762 403.351 164.332 402.677C164.902 401.998 165.647 401.658 166.567 401.658C167.037 401.658 167.44 401.743 167.777 401.911C168.115 402.075 168.377 402.294 168.563 402.567V398.521H170.341V409H168.673L168.625 408.132H168.591C168.427 408.419 168.165 408.658 167.805 408.85C167.449 409.041 167.039 409.137 166.574 409.137C165.617 409.137 164.861 408.799 164.305 408.125C163.753 407.446 163.478 406.573 163.478 405.507ZM165.296 405.575C165.296 406.213 165.435 406.74 165.713 407.154C165.991 407.564 166.415 407.77 166.984 407.77C167.372 407.77 167.7 407.665 167.969 407.455C168.238 407.241 168.436 406.993 168.563 406.71V404.085C168.44 403.798 168.247 403.549 167.982 403.34C167.718 403.13 167.385 403.025 166.984 403.025C166.419 403.025 165.995 403.233 165.713 403.647C165.435 404.058 165.296 404.582 165.296 405.22V405.575ZM172.193 409V401.795H173.868L173.916 402.629H173.95C174.105 402.351 174.317 402.109 174.586 401.904C174.855 401.699 175.165 401.597 175.516 401.597C175.611 401.597 175.709 401.608 175.81 401.631C175.91 401.654 175.98 401.674 176.021 401.692V403.251C175.939 403.233 175.851 403.219 175.755 403.21C175.664 403.201 175.563 403.196 175.454 403.196C175.108 403.196 174.805 403.294 174.545 403.49C174.285 403.682 174.096 403.925 173.978 404.222V409H172.193ZM176.644 405.507V405.288C176.644 404.181 176.965 403.287 177.607 402.608C178.255 401.929 179.091 401.59 180.116 401.59C181.142 401.59 181.941 401.909 182.516 402.547C183.094 403.18 183.384 404.053 183.384 405.165V405.821H177.826V404.646H181.613V404.481C181.618 404.044 181.49 403.673 181.23 403.367C180.975 403.062 180.608 402.909 180.13 402.909C179.565 402.909 179.139 403.121 178.852 403.545C178.564 403.969 178.421 404.525 178.421 405.213V405.575C178.421 406.25 178.574 406.799 178.879 407.223C179.189 407.646 179.651 407.858 180.267 407.858C180.677 407.858 181.03 407.763 181.326 407.571C181.627 407.375 181.868 407.147 182.051 406.888L183.274 407.735C183.047 408.136 182.673 408.483 182.153 408.774C181.634 409.062 181.014 409.205 180.294 409.205C179.146 409.205 178.25 408.866 177.607 408.187C176.965 407.503 176.644 406.61 176.644 405.507ZM184.313 406.778L186.07 406.785V406.867C186.07 407.232 186.196 407.501 186.446 407.674C186.701 407.847 187.043 407.934 187.472 407.934C187.905 407.934 188.237 407.852 188.47 407.688C188.702 407.519 188.818 407.298 188.818 407.024C188.818 406.751 188.709 406.548 188.49 406.416C188.271 406.279 187.768 406.124 186.979 405.951C186.159 405.773 185.544 405.509 185.134 405.158C184.724 404.807 184.519 404.342 184.519 403.764C184.519 403.107 184.783 402.581 185.312 402.185C185.845 401.788 186.56 401.59 187.458 401.59C188.356 401.59 189.074 401.793 189.611 402.198C190.154 402.604 190.425 403.158 190.425 403.859V403.921H188.682V403.825C188.682 403.529 188.581 403.297 188.381 403.128C188.18 402.955 187.87 402.868 187.451 402.868C187.036 402.868 186.733 402.941 186.542 403.087C186.355 403.233 186.262 403.422 186.262 403.654C186.262 403.887 186.376 404.071 186.604 404.208C186.836 404.34 187.349 404.493 188.142 404.666C188.957 404.839 189.566 405.101 189.967 405.452C190.372 405.799 190.575 406.284 190.575 406.908C190.575 407.61 190.313 408.168 189.789 408.583C189.265 408.998 188.495 409.205 187.479 409.205C186.467 409.205 185.685 408.998 185.134 408.583C184.587 408.164 184.313 407.583 184.313 406.84V406.778ZM191.56 406.778L193.316 406.785V406.867C193.316 407.232 193.442 407.501 193.692 407.674C193.948 407.847 194.289 407.934 194.718 407.934C195.151 407.934 195.483 407.852 195.716 407.688C195.948 407.519 196.064 407.298 196.064 407.024C196.064 406.751 195.955 406.548 195.736 406.416C195.518 406.279 195.014 406.124 194.226 405.951C193.405 405.773 192.79 405.509 192.38 405.158C191.97 404.807 191.765 404.342 191.765 403.764C191.765 403.107 192.029 402.581 192.558 402.185C193.091 401.788 193.806 401.59 194.704 401.59C195.602 401.59 196.32 401.793 196.857 402.198C197.4 402.604 197.671 403.158 197.671 403.859V403.921H195.928V403.825C195.928 403.529 195.827 403.297 195.627 403.128C195.426 402.955 195.117 402.868 194.697 402.868C194.283 402.868 193.979 402.941 193.788 403.087C193.601 403.233 193.508 403.422 193.508 403.654C193.508 403.887 193.622 404.071 193.85 404.208C194.082 404.34 194.595 404.493 195.388 404.666C196.203 404.839 196.812 405.101 197.213 405.452C197.618 405.799 197.821 406.284 197.821 406.908C197.821 407.61 197.559 408.168 197.035 408.583C196.511 408.998 195.741 409.205 194.725 409.205C193.713 409.205 192.931 408.998 192.38 408.583C191.833 408.164 191.56 407.583 191.56 406.84V406.778Z" fill="#181718"/>
<g clip-path="url(#clip9_1909_62204)">
<rect x="200" y="389" width="8" height="8" rx="4" fill="#63D369"/>
<path fill-rule="evenodd" clip-rule="evenodd" d="M206.036 391.584C206.231 391.779 206.231 392.096 206.036 392.291L203.914 394.412C203.82 394.506 203.693 394.559 203.561 394.559C203.428 394.559 203.301 394.506 203.207 394.412L202.146 393.352C201.951 393.156 201.951 392.84 202.146 392.645C202.342 392.449 202.658 392.449 202.854 392.645L203.561 393.352L205.328 391.584C205.524 391.389 205.84 391.389 206.036 391.584Z" fill="white"/>
</g>
</g>
<rect width="392" height="52" transform="translate(36 458)" fill="white"/>
<g clip-path="url(#clip10_1909_62204)">
<rect x="36" y="458" width="392" height="52" rx="8" fill="black"/>
<path d="M200.344 483.672V482.953C200.344 481.177 200.797 479.807 201.703 478.844C202.609 477.88 203.76 477.398 205.156 477.398C206.531 477.398 207.612 477.768 208.398 478.508C209.185 479.247 209.578 480.164 209.578 481.258V481.383H207.781V481.242C207.781 480.529 207.562 479.953 207.125 479.516C206.693 479.073 206.036 478.852 205.156 478.852C204.276 478.852 203.557 479.177 203 479.828C202.443 480.474 202.164 481.484 202.164 482.859V483.766C202.164 485.042 202.44 486.029 202.992 486.727C203.544 487.424 204.268 487.773 205.164 487.773C205.997 487.773 206.625 487.549 207.047 487.102C207.474 486.648 207.719 486.073 207.781 485.375V485.242H209.578L209.57 485.383C209.487 486.461 209.073 487.372 208.328 488.117C207.589 488.857 206.531 489.227 205.156 489.227C203.755 489.227 202.602 488.745 201.695 487.781C200.794 486.812 200.344 485.443 200.344 483.672ZM210.781 485.031V484.781C210.781 483.531 211.143 482.521 211.867 481.75C212.591 480.974 213.552 480.586 214.75 480.586C215.948 480.586 216.909 480.974 217.633 481.75C218.362 482.521 218.727 483.531 218.727 484.781V485.031C218.727 486.286 218.362 487.302 217.633 488.078C216.909 488.849 215.948 489.234 214.75 489.234C213.552 489.234 212.591 488.849 211.867 488.078C211.143 487.302 210.781 486.286 210.781 485.031ZM212.547 484.742V485.078C212.547 485.896 212.732 486.565 213.102 487.086C213.477 487.607 214.026 487.867 214.75 487.867C215.474 487.867 216.023 487.607 216.398 487.086C216.773 486.565 216.961 485.896 216.961 485.078V484.742C216.961 483.924 216.773 483.258 216.398 482.742C216.023 482.221 215.474 481.961 214.75 481.961C214.031 481.961 213.484 482.221 213.109 482.742C212.734 483.258 212.547 483.924 212.547 484.742ZM220.453 489V480.82H222.055L222.109 481.836H222.156C222.422 481.477 222.768 481.193 223.195 480.984C223.622 480.771 224.094 480.664 224.609 480.664C225.438 480.664 226.102 480.901 226.602 481.375C227.107 481.844 227.359 482.641 227.359 483.766V489H225.625V483.742C225.625 483.138 225.49 482.708 225.219 482.453C224.953 482.193 224.573 482.062 224.078 482.062C223.661 482.062 223.286 482.177 222.953 482.406C222.62 482.635 222.365 482.938 222.188 483.312V489H220.453ZM228.375 482.117V480.82H233.172V482.117H228.375ZM229.758 486.836V481.547V481.32V478.789H231.484V486.805C231.484 487.185 231.555 487.451 231.695 487.602C231.841 487.753 232.06 487.828 232.352 487.828C232.492 487.828 232.628 487.812 232.758 487.781C232.893 487.75 233.026 487.711 233.156 487.664V489C233.026 489.057 232.852 489.109 232.633 489.156C232.414 489.203 232.174 489.227 231.914 489.227C231.263 489.227 230.74 489.036 230.344 488.656C229.953 488.271 229.758 487.664 229.758 486.836ZM234.68 489V480.82H236.414V489H234.68ZM234.5 478.391C234.5 478.115 234.589 477.883 234.766 477.695C234.948 477.503 235.208 477.406 235.547 477.406C235.885 477.406 236.146 477.503 236.328 477.695C236.51 477.883 236.602 478.115 236.602 478.391C236.602 478.672 236.51 478.909 236.328 479.102C236.146 479.289 235.885 479.383 235.547 479.383C235.208 479.383 234.948 479.289 234.766 479.102C234.589 478.909 234.5 478.672 234.5 478.391ZM238.656 489V480.82H240.258L240.312 481.836H240.359C240.625 481.477 240.971 481.193 241.398 480.984C241.826 480.771 242.297 480.664 242.812 480.664C243.641 480.664 244.305 480.901 244.805 481.375C245.31 481.844 245.562 482.641 245.562 483.766V489H243.828V483.742C243.828 483.138 243.693 482.708 243.422 482.453C243.156 482.193 242.776 482.062 242.281 482.062C241.865 482.062 241.49 482.177 241.156 482.406C240.823 482.635 240.568 482.938 240.391 483.312V489H238.656ZM247.594 486.016V480.82H249.328V486.047C249.328 486.672 249.464 487.115 249.734 487.375C250.005 487.635 250.385 487.766 250.875 487.766C251.302 487.766 251.68 487.648 252.008 487.414C252.336 487.174 252.589 486.872 252.766 486.508V480.82H254.5V489H252.898L252.844 487.984H252.797C252.521 488.349 252.169 488.635 251.742 488.844C251.32 489.052 250.849 489.156 250.328 489.156C249.505 489.156 248.844 488.917 248.344 488.438C247.844 487.953 247.594 487.146 247.594 486.016ZM256.219 485.031V484.781C256.219 483.542 256.57 482.534 257.273 481.758C257.977 480.977 258.898 480.586 260.039 480.586C261.18 480.586 262.062 480.951 262.688 481.68C263.312 482.404 263.625 483.393 263.625 484.648V485.312H257.32V484.07H261.898V483.891C261.904 483.349 261.747 482.888 261.43 482.508C261.117 482.122 260.664 481.93 260.07 481.93C259.367 481.93 258.839 482.195 258.484 482.727C258.135 483.258 257.961 483.93 257.961 484.742V485.07C257.961 485.883 258.148 486.555 258.523 487.086C258.898 487.617 259.469 487.883 260.234 487.883C260.729 487.883 261.154 487.771 261.508 487.547C261.862 487.323 262.148 487.06 262.367 486.758L263.539 487.594C263.279 488.021 262.865 488.401 262.297 488.734C261.734 489.068 261.052 489.234 260.25 489.234C258.964 489.234 257.969 488.846 257.266 488.07C256.568 487.289 256.219 486.276 256.219 485.031Z" fill="white"/>
</g>
</g>
<path fill-rule="evenodd" clip-rule="evenodd" d="M452 209L255 12H329.672L452 134.328V209Z" fill="black" fill-opacity="0.03"/>
<path fill-rule="evenodd" clip-rule="evenodd" d="M464 209L255 0H329.672L464 134.328V209Z" fill="#48B74D"/>
<path d="M314.377 30.0952L321.809 18.0863L323.865 20.1421L318.815 28.0394C318.704 28.2123 318.609 28.3521 318.529 28.4585C318.453 28.5605 318.349 28.6914 318.216 28.851L318.269 28.9043C318.434 28.7756 318.567 28.6736 318.669 28.5982C318.775 28.5184 318.915 28.423 319.088 28.3121L327.125 23.4021L329.367 25.6442L324.49 33.7012C324.384 33.8786 324.288 34.0183 324.204 34.1203C324.124 34.2268 324.02 34.3621 323.891 34.5262L323.945 34.5794C324.104 34.4463 324.237 34.3399 324.344 34.26C324.455 34.1846 324.594 34.0893 324.763 33.974L332.6 28.8777L334.43 30.7073L322.468 38.1854L320.192 35.91L325.036 27.7932C325.147 27.6202 325.251 27.4628 325.348 27.3208C325.446 27.1789 325.561 27.0281 325.694 26.8684L325.641 26.8152C325.481 26.9482 325.331 27.0636 325.189 27.1611C325.051 27.2632 324.894 27.3674 324.716 27.4738L316.606 32.324L314.377 30.0952ZM328.515 37.4602L328.728 37.2473C329.797 36.1784 330.979 35.6439 332.274 35.6439C333.569 35.6439 334.727 36.154 335.747 37.1741C336.772 38.1987 337.266 39.3053 337.231 40.494C337.204 41.6827 336.656 42.8115 335.588 43.8805L334.889 44.579L329.473 39.1634L330.691 37.9459L334.117 41.3722L334.257 41.2325C334.634 40.8644 334.838 40.4386 334.869 39.9551C334.904 39.4761 334.714 39.0281 334.297 38.6112C333.818 38.1322 333.274 37.9481 332.667 38.059C332.064 38.1654 331.46 38.5203 330.857 39.1235L330.425 39.5559C329.817 40.1636 329.467 40.7801 329.373 41.4055C329.289 42.0309 329.509 42.6053 330.032 43.1287C330.396 43.4924 330.797 43.7164 331.236 43.8006C331.68 43.8893 332.103 43.896 332.507 43.8206L333.093 46.1359C332.436 46.3576 331.704 46.3488 330.897 46.1093C330.094 45.8653 329.325 45.3752 328.588 44.6389C327.457 43.5079 326.894 42.297 326.899 41.0063C326.903 39.7156 327.442 38.5336 328.515 37.4602ZM342.607 44.446L344.616 46.4552L341.802 51.2921C341.673 51.5094 341.551 51.7023 341.436 51.8709C341.325 52.0439 341.201 52.2257 341.063 52.4164L341.103 52.4564C341.289 52.3144 341.464 52.1836 341.629 52.0638C341.797 51.9485 341.992 51.8287 342.214 51.7045L347.171 49.01L349.093 50.9328L346.432 55.9359C346.312 56.1621 346.195 56.3595 346.08 56.5281C345.969 56.7011 345.847 56.8851 345.714 57.0803L345.747 57.1135C345.938 56.976 346.117 56.8496 346.286 56.7343C346.454 56.619 346.645 56.4948 346.858 56.3617L351.701 53.5408L353.458 55.2972L344.483 60.1341L342.553 58.2047L345.181 53.1549C345.292 52.9465 345.41 52.7402 345.534 52.5362C345.667 52.3322 345.8 52.137 345.933 51.9507L345.9 51.9175C345.714 52.0505 345.516 52.1814 345.308 52.31C345.104 52.4342 344.9 52.5539 344.696 52.6693L339.712 55.3638L337.77 53.4211L342.607 44.446ZM347.51 63.1612L354.416 56.2553L356.438 58.2778L349.532 65.1838L347.51 63.1612ZM356.226 54.113C356.527 53.8114 356.882 53.6606 357.29 53.6606C357.703 53.6561 358.097 53.8424 358.474 54.2194C358.851 54.5964 359.035 54.989 359.027 55.397C359.027 55.8051 358.876 56.1599 358.574 56.4615C358.268 56.7676 357.909 56.9228 357.496 56.9273C357.088 56.9361 356.693 56.7498 356.312 56.3684C355.935 55.9914 355.749 55.5966 355.753 55.1841C355.762 54.7761 355.919 54.419 356.226 54.113ZM351.222 66.8737L361.348 56.7476L363.371 58.7702L353.245 68.8962L351.222 66.8737ZM354.922 70.5728L365.048 60.4468L367.07 62.4693L356.944 72.5954L354.922 70.5728ZM361.934 77.5852L372.06 67.4592L374.083 69.4817L363.956 79.6078L361.934 77.5852ZM367.31 78.9026C368.073 78.1397 368.942 77.8602 369.918 78.0643C370.898 78.2639 371.843 78.8139 372.752 79.7142L374.129 81.0914L374.522 80.6989C374.828 80.3929 374.996 80.0646 375.027 79.7142C375.063 79.3683 374.881 78.9957 374.482 78.5965C374.087 78.2018 373.725 78 373.397 77.9911C373.073 77.9778 372.796 78.0864 372.566 78.3171L372.459 78.4235L370.497 76.4609L370.603 76.3544C371.228 75.729 372.033 75.505 373.018 75.6824C374.012 75.8599 374.976 76.4165 375.912 77.3524C376.857 78.2971 377.396 79.2263 377.529 80.14C377.671 81.0537 377.334 81.9186 376.518 82.7348L373.351 85.9017C373.071 86.1811 372.83 86.4716 372.626 86.7732C372.426 87.0793 372.28 87.3631 372.186 87.6248L372.08 87.7313L370.104 85.7553C370.153 85.6 370.237 85.4182 370.357 85.2097C370.481 85.0057 370.616 84.8172 370.763 84.6442C370.363 84.7684 369.867 84.7418 369.272 84.5644C368.687 84.387 368.11 84.0144 367.543 83.4466C366.859 82.7636 366.469 82.014 366.372 81.1979C366.278 80.3862 366.591 79.6211 367.31 78.9026ZM369.492 80.7388C369.19 81.0404 369.035 81.3687 369.026 81.7235C369.022 82.0828 369.206 82.4487 369.578 82.8213C369.982 83.2249 370.446 83.4311 370.969 83.44C371.497 83.4533 371.938 83.2825 372.293 82.9277L372.938 82.2824L371.887 81.2312C371.399 80.7433 370.953 80.4616 370.55 80.3862C370.155 80.3108 369.802 80.4283 369.492 80.7388ZM376.072 86.4272L380.33 82.1692L382.346 84.1851L378.074 88.4565C377.609 88.9222 377.378 89.3391 377.382 89.7072C377.391 90.0798 377.56 90.4302 377.888 90.7584C378.181 91.0512 378.529 91.2264 378.933 91.284C379.336 91.3417 379.724 91.2996 380.097 91.1576L384.708 86.547L386.723 88.5629L379.818 95.4689L377.895 93.5461L378.653 92.7078L378.62 92.6745C378.132 92.7632 377.626 92.7145 377.103 92.5282C376.58 92.3419 376.092 92.0225 375.639 91.5701C374.952 90.8826 374.599 90.1042 374.582 89.2349C374.573 88.3655 375.069 87.4297 376.072 86.4272ZM381.468 97.1188L388.373 90.2129L390.296 92.1356L389.544 92.9673L389.578 93.0005C390.03 92.903 390.52 92.9451 391.048 93.127C391.58 93.3044 392.068 93.6149 392.512 94.0584C393.221 94.7681 393.596 95.5465 393.636 96.3936C393.685 97.2408 393.21 98.1634 392.212 99.1613L387.861 103.512L385.852 101.503L390.203 97.1521C390.629 96.7263 390.835 96.3338 390.822 95.9745C390.813 95.6197 390.64 95.2737 390.303 94.9366C390.028 94.6616 389.691 94.4842 389.292 94.4044C388.897 94.3201 388.498 94.36 388.094 94.5241L383.483 99.1347L381.468 97.1188ZM392.439 101.383L392.651 101.171C393.743 100.079 394.927 99.5384 396.204 99.5472C397.49 99.5561 398.668 100.095 399.737 101.164C400.757 102.184 401.285 103.213 401.32 104.251C401.36 105.284 401.041 106.176 400.362 106.926L400.256 107.059L398.293 105.096L398.38 105.009C398.704 104.686 398.865 104.315 398.865 103.898C398.87 103.477 398.664 103.058 398.247 102.641C397.759 102.153 397.213 101.962 396.61 102.069C396.011 102.171 395.412 102.521 394.814 103.12L394.388 103.546C393.789 104.145 393.432 104.741 393.317 105.335C393.206 105.934 393.401 106.484 393.902 106.985C394.355 107.438 394.787 107.649 395.2 107.617C395.617 107.582 395.976 107.413 396.277 107.112L396.357 107.032L398.313 108.988L398.22 109.081C397.51 109.782 396.623 110.11 395.559 110.066C394.494 110.021 393.452 109.489 392.432 108.469C391.367 107.405 390.828 106.231 390.815 104.95C390.806 103.663 391.347 102.475 392.439 101.383ZM396.956 112.607L407.082 102.481L409.091 104.491L404.96 108.622C405.474 108.516 406.002 108.538 406.543 108.689C407.089 108.835 407.617 109.163 408.127 109.673C408.779 110.325 409.109 111.068 409.118 111.902C409.136 112.736 408.681 113.616 407.754 114.543L403.323 118.974L401.307 116.958L405.592 112.674C406.035 112.23 406.253 111.818 406.244 111.436C406.235 111.055 406.062 110.696 405.725 110.359C405.428 110.061 405.088 109.891 404.707 109.846C404.334 109.802 403.94 109.877 403.523 110.072L398.972 114.623L396.956 112.607ZM410.029 121.316L411.972 123.272L411.866 123.379C411.542 123.703 411.415 124.046 411.486 124.41C411.557 124.774 411.779 125.142 412.152 125.514C412.524 125.887 412.875 126.1 413.203 126.153C413.531 126.206 413.813 126.115 414.048 125.88C414.283 125.645 414.354 125.37 414.261 125.055C414.172 124.736 413.835 124.128 413.25 123.232C412.593 122.248 412.249 121.394 412.218 120.671C412.192 119.944 412.46 119.298 413.023 118.735C413.689 118.07 414.478 117.812 415.392 117.963C416.306 118.114 417.219 118.646 418.133 119.56C419.042 120.469 419.568 121.394 419.71 122.334C419.861 123.275 419.59 124.091 418.898 124.783L418.818 124.862L416.875 122.92L416.989 122.807C417.255 122.54 417.372 122.246 417.341 121.922C417.315 121.602 417.122 121.263 416.762 120.904C416.412 120.553 416.097 120.358 415.818 120.318C415.547 120.278 415.312 120.358 415.112 120.558C414.913 120.757 414.855 121.019 414.939 121.343C415.033 121.667 415.376 122.281 415.971 123.186C416.627 124.17 416.978 125.022 417.022 125.741C417.071 126.464 416.798 127.122 416.204 127.717C415.494 128.426 414.673 128.715 413.742 128.582C412.815 128.453 411.844 127.881 410.828 126.865C409.821 125.858 409.24 124.878 409.085 123.924C408.934 122.975 409.222 122.132 409.95 121.396L410.029 121.316ZM418.412 127.357L418.625 127.144C419.708 126.062 420.901 125.534 422.205 125.561C423.513 125.583 424.702 126.129 425.771 127.198C426.84 128.267 427.385 129.455 427.407 130.764C427.434 132.068 426.906 133.261 425.824 134.343L425.611 134.556C424.524 135.643 423.329 136.173 422.025 136.146C420.721 136.119 419.535 135.572 418.466 134.503C417.392 133.429 416.842 132.241 416.816 130.937C416.793 129.637 417.326 128.444 418.412 127.357ZM420.788 129.094L420.362 129.52C419.736 130.145 419.39 130.757 419.324 131.356C419.262 131.95 419.479 132.496 419.976 132.993C420.468 133.485 421.012 133.7 421.606 133.638C422.205 133.571 422.817 133.225 423.442 132.6L423.868 132.174C424.493 131.549 424.835 130.937 424.893 130.338C424.95 129.739 424.737 129.198 424.254 128.715C423.766 128.227 423.223 128.012 422.624 128.069C422.025 128.127 421.413 128.468 420.788 129.094ZM426.529 135.474L426.742 135.261C427.824 134.179 429.017 133.651 430.321 133.678C431.63 133.7 432.819 134.246 433.888 135.314C434.956 136.383 435.502 137.572 435.524 138.881C435.551 140.185 435.023 141.378 433.941 142.46L433.728 142.673C432.641 143.76 431.446 144.29 430.142 144.263C428.838 144.236 427.651 143.689 426.582 142.62C425.509 141.546 424.959 140.358 424.932 139.054C424.91 137.754 425.443 136.561 426.529 135.474ZM428.904 137.211L428.479 137.636C427.853 138.262 427.507 138.874 427.441 139.473C427.379 140.067 427.596 140.613 428.093 141.109C428.585 141.602 429.128 141.817 429.723 141.755C430.321 141.688 430.934 141.342 431.559 140.717L431.985 140.291C432.61 139.666 432.952 139.054 433.009 138.455C433.067 137.856 432.854 137.315 432.371 136.831C431.883 136.343 431.339 136.128 430.741 136.186C430.142 136.244 429.53 136.585 428.904 137.211ZM431.659 147.31L438.565 140.404L440.487 142.327L439.736 143.159L439.769 143.192C440.221 143.094 440.711 143.136 441.239 143.318C441.772 143.496 442.259 143.806 442.703 144.25C443.413 144.959 443.787 145.738 443.827 146.585C443.876 147.432 443.402 148.355 442.404 149.353L438.052 153.704L436.043 151.694L440.394 147.343C440.82 146.918 441.026 146.525 441.013 146.166C441.004 145.811 440.831 145.465 440.494 145.128C440.219 144.853 439.882 144.675 439.483 144.596C439.088 144.511 438.689 144.551 438.285 144.715L433.675 149.326L431.659 147.31Z" fill="white"/>
<defs>
<clipPath id="clip0_1909_62204">
<rect x="12" y="12" width="440" height="547" rx="16" fill="white"/>
</clipPath>
<clipPath id="clip1_1909_62204">
<rect width="392" height="146" fill="white" transform="translate(36 94)"/>
</clipPath>
<clipPath id="clip2_1909_62204">
<rect x="388" y="138" width="20" height="20" rx="10" fill="white"/>
</clipPath>
<clipPath id="clip3_1909_62204">
<rect x="56" y="200" width="20" height="20" rx="4" fill="white"/>
</clipPath>
<clipPath id="clip4_1909_62204">
<rect x="96" y="200" width="20" height="20" rx="4" fill="white"/>
</clipPath>
<clipPath id="clip5_1909_62204">
<rect x="223" y="195" width="8" height="8" rx="4" fill="white"/>
</clipPath>
<clipPath id="clip6_1909_62204">
<rect width="392" height="146" fill="white" transform="translate(36 288)"/>
</clipPath>
<clipPath id="clip7_1909_62204">
<rect x="388" y="332" width="20" height="20" rx="10" fill="white"/>
</clipPath>
<clipPath id="clip8_1909_62204">
<rect x="56" y="394" width="20" height="20" rx="4" fill="white"/>
</clipPath>
<clipPath id="clip9_1909_62204">
<rect x="200" y="389" width="8" height="8" rx="4" fill="white"/>
</clipPath>
<clipPath id="clip10_1909_62204">
<rect x="36" y="458" width="392" height="52" rx="8" fill="white"/>
</clipPath>
</defs>
</svg>
