<svg width="24" height="24" viewBox="0 0 24 24" fill="none" xmlns="http://www.w3.org/2000/svg">
<path fill-rule="evenodd" clip-rule="evenodd" d="M2.38539 10.6776C8.43567 8.20365 12.4701 6.57267 14.4888 5.78466C20.2525 3.53474 21.4501 3.1439 22.2307 3.131C22.4024 3.12816 22.7863 3.16809 23.035 3.35746C23.2449 3.51736 23.3027 3.73335 23.3303 3.88495C23.358 4.03655 23.3924 4.3819 23.365 4.65175C23.0527 7.73172 21.7012 15.206 21.0137 18.6556C20.7228 20.1153 20.1499 20.6047 19.5953 20.6526C18.3901 20.7567 17.4749 19.9051 16.3076 19.1869C14.4809 18.0631 13.449 17.3636 11.6759 16.267C9.6268 14.9997 10.9551 14.3032 12.1229 13.1648C12.4285 12.8669 17.7388 8.33376 17.8416 7.92253C17.8545 7.87109 17.8664 7.67938 17.745 7.57815C17.6237 7.47692 17.4446 7.51154 17.3153 7.53907C17.1321 7.57809 14.214 9.38826 8.56107 12.9696C7.73278 13.5034 6.98254 13.7635 6.31035 13.7498C5.56932 13.7348 4.14387 13.3566 3.08419 13.0333C1.78445 12.6368 0.751446 12.4272 0.841398 11.7537C0.88825 11.403 1.40291 11.0443 2.38539 10.6776Z" fill="white"/>
</svg>
