<svg width="89" height="32" viewBox="0 0 89 32" fill="none" xmlns="http://www.w3.org/2000/svg">
<g clip-path="url(#clip0_927_18955)">
<path d="M0.288275 18.8938C0.85159 21.979 2.32688 24.9316 4.71213 27.3168C10.9606 33.5653 21.0909 33.5653 27.3387 27.3168C32.1473 22.5083 33.2552 15.4005 30.6626 9.53272C29.904 7.81544 28.828 6.20416 27.4354 4.78821C27.4034 4.75554 27.3714 4.72288 27.3387 4.69021C27.3061 4.65755 27.2734 4.62555 27.2407 4.59355C25.8248 3.21293 24.1202 2.30429 22.3236 1.86897C19.8803 1.27499 17.2677 1.55565 14.9838 2.71028C14.5878 2.91094 14.2018 3.13759 13.8278 3.39092C13.4839 3.62291 13.1505 3.87824 12.8299 4.1549C12.6332 4.32489 12.4412 4.50355 12.2546 4.69021C8.08936 8.85541 8.08936 15.6092 12.2546 19.7744C13.3612 20.881 14.6511 21.6937 16.0258 22.213C17.2204 22.6636 18.4804 22.8923 19.7403 22.899V19.6984C18.4137 19.6891 17.1411 19.3351 16.0258 18.6791C15.4818 18.3604 14.9751 17.9698 14.5172 17.5118C13.1072 16.1018 12.3306 14.2266 12.3306 12.2326C12.3306 10.2387 13.1072 8.36276 14.5172 6.95281C15.9278 5.54285 17.8024 4.76621 19.797 4.76621C20.3016 4.76621 20.7983 4.81621 21.2823 4.91354C22.6582 5.18886 23.9275 5.84951 24.9608 6.83948C24.9995 6.87681 25.0381 6.91481 25.0761 6.95281C25.1141 6.9908 25.1521 7.02947 25.1895 7.06813C26.2074 8.1101 27.0254 9.2954 27.6261 10.5794C28.4114 12.2553 28.8254 14.0972 28.8254 16.0032C28.8254 16.3018 28.8154 16.5992 28.7954 16.8938C28.7647 17.3345 28.7127 17.7705 28.638 18.2011C28.5654 18.6251 28.472 19.0431 28.3574 19.4544C27.7741 21.5517 26.6574 23.4729 25.0761 25.0542C22.6589 27.4715 19.4443 28.8028 16.0258 28.8028C12.6072 28.8028 9.39265 27.4715 6.97473 25.0542C5.25412 23.3336 4.08349 21.209 3.55217 18.8938C3.33684 17.9565 3.22618 16.9885 3.22618 16.0032C3.22618 15.7272 3.23485 15.4525 3.25218 15.1792H0.047616C-0.016382 16.4205 0.0642821 17.6678 0.288275 18.8938Z" fill="#13D659"/>
<path d="M42.743 19.8223L49.2002 26.668H45.2849L40.0987 20.7932V26.668H37.2002V8.66797H40.0987V18.9285L45.1832 12.5891H49.2002L42.743 19.8223Z" fill="white"/>
<path d="M52.6271 25.9007C51.5611 25.3019 50.7231 24.458 50.1139 23.3696C49.5048 22.2813 49.2002 21.0207 49.2002 19.586C49.2002 18.1512 49.5133 16.9123 50.1397 15.8154C50.7653 14.7191 51.6204 13.8752 52.7036 13.2844C53.7868 12.6942 54.9965 12.3984 56.3335 12.3984C57.6705 12.3984 58.8803 12.6935 59.9635 13.2844C61.0467 13.8752 61.9011 14.7185 62.5274 15.8154C63.153 16.9123 63.4669 18.169 63.4669 19.586C63.4669 21.0029 63.1451 22.2602 62.5023 23.3565C61.8589 24.4534 60.9834 25.3013 59.8751 25.9C58.7662 26.4987 57.544 26.7984 56.2069 26.7984C54.8699 26.7984 53.6931 26.5001 52.6271 25.9007ZM58.3008 23.7627C58.9522 23.4084 59.4816 22.8767 59.8877 22.1682C60.2938 21.4597 60.4968 20.5994 60.4968 19.5866C60.4968 18.5738 60.3024 17.7181 59.9127 17.0181C59.5231 16.3182 59.0069 15.7904 58.3641 15.4362C57.7206 15.0819 57.0271 14.9045 56.2821 14.9045C55.5371 14.9045 54.8475 15.0813 54.2133 15.4362C53.5784 15.7904 53.0747 16.3182 52.7029 17.0181C52.3304 17.7187 52.1445 18.5745 52.1445 19.5866C52.1445 21.0884 52.5295 22.2484 53.2996 23.066C54.0696 23.8843 55.0387 24.2937 56.2063 24.2937C56.9506 24.2937 57.6488 24.117 58.3008 23.7627Z" fill="white"/>
<path d="M74.5336 23.7549H72.1503C69.8494 23.7549 67.9837 21.8923 67.9837 19.5936V8.66797H65.0669V19.5983C65.0669 23.5027 68.2362 26.668 72.1456 26.668H74.5329L74.5336 23.7549Z" fill="white"/>
<path d="M77.9601 25.9007C76.8941 25.3019 76.0561 24.458 75.447 23.3696C74.8378 22.2813 74.5332 21.0207 74.5332 19.5859C74.5332 18.1512 74.8464 16.9123 75.4727 15.8154C76.0983 14.7191 76.9534 13.8752 78.0366 13.2844C79.1198 12.6942 80.3295 12.3984 81.6665 12.3984C83.0035 12.3984 84.2133 12.6935 85.2965 13.2844C86.3797 13.8752 87.2341 14.7185 87.8604 15.8154C88.4861 16.9123 88.7999 18.169 88.7999 19.5859C88.7999 21.0029 88.4781 22.2602 87.8354 23.3565C87.1919 24.4534 86.3164 25.3013 85.2082 25.9C84.0993 26.4987 82.877 26.7984 81.54 26.7984C80.203 26.7984 79.0261 26.5001 77.9601 25.9007ZM83.6338 23.7627C84.2852 23.4084 84.8146 22.8767 85.2207 22.1682C85.6268 21.4597 85.8298 20.5994 85.8298 19.5866C85.8298 18.5738 85.6354 17.7181 85.2457 17.0181C84.8561 16.3182 84.3399 15.7904 83.6971 15.4362C83.0536 15.0819 82.3601 14.9045 81.6151 14.9045C80.8701 14.9045 80.1805 15.0813 79.5463 15.4362C78.9114 15.7904 78.4078 16.3182 78.0359 17.0181C77.6634 17.7187 77.4775 18.5745 77.4775 19.5866C77.4775 21.0884 77.8625 22.2484 78.6326 23.066C79.4026 23.8843 80.3717 24.2937 81.5393 24.2937C82.2836 24.2937 82.9818 24.117 83.6338 23.7627Z" fill="white"/>
<path d="M0.287555 18.8906C0.850896 21.9758 2.32625 24.9284 4.71162 27.3136C10.9604 33.5621 21.0912 33.5621 27.3393 27.3136C32.148 22.5051 33.256 15.3974 30.6633 9.52955C29.9046 7.81227 28.8286 6.20099 27.4359 4.78503C27.4039 4.75237 27.3719 4.7197 27.3393 4.68704C27.3066 4.65437 27.2739 4.62237 27.2413 4.59037C25.8252 3.20975 24.1206 2.30111 22.3239 1.86579C19.8805 1.27181 17.2678 1.55247 14.9838 2.7071C14.5878 2.90776 14.2017 3.13442 13.8277 3.38775C13.4837 3.61974 13.1504 3.87506 12.8297 4.15172C12.6331 4.32172 12.4411 4.50038 12.2544 4.68704C8.089 8.85224 8.089 15.606 12.2544 19.7712C13.3611 20.8778 14.6511 21.6905 16.0258 22.2098C17.2205 22.6605 18.4805 22.8891 19.7405 22.8958V19.6952C18.4138 19.6859 17.1411 19.3319 16.0258 18.6759C15.4818 18.3573 14.9751 17.9666 14.5171 17.5086C13.1071 16.0987 12.3304 14.2234 12.3304 12.2295C12.3304 10.2355 13.1071 8.35959 14.5171 6.94963C15.9278 5.53968 17.8025 4.76303 19.7972 4.76303C20.3018 4.76303 20.7985 4.81303 21.2825 4.91036C22.6585 5.18569 23.9279 5.84633 24.9612 6.8363C24.9999 6.87363 25.0386 6.91163 25.0766 6.94963C25.1146 6.98763 25.1526 7.02629 25.1899 7.06496C26.2079 8.10693 27.0259 9.29222 27.6266 10.5762C28.4119 12.2521 28.826 14.0941 28.826 16C28.826 16.2987 28.816 16.596 28.796 16.8906C28.7653 17.3313 28.7133 17.7673 28.6386 18.1979C28.5659 18.6219 28.4726 19.0399 28.3579 19.4512C27.7746 21.5485 26.6579 23.4698 25.0766 25.051C22.6592 27.4683 19.4445 28.7996 16.0258 28.7996C12.6071 28.7996 9.39235 27.4683 6.97431 25.051C5.25362 23.3304 4.08294 21.2058 3.5516 18.8906C3.33626 17.9533 3.2256 16.9853 3.2256 16C3.2256 15.724 3.23426 15.4494 3.2516 15.176H0.0468845C-0.0171164 16.4173 0.0635514 17.6646 0.287555 18.8906Z" fill="white"/>
<path d="M19.7302 19.7072V22.9077C22.4789 22.9217 25.2316 21.8804 27.329 19.7832C27.5163 19.5958 27.695 19.4038 27.865 19.2065C28.1423 18.8859 28.3963 18.5532 28.6283 18.2099C28.703 17.7792 28.755 17.3432 28.7857 16.9026C28.8057 16.6079 28.8157 16.3106 28.8157 16.0119C28.8157 14.106 28.4017 12.2641 27.6163 10.5881C27.0157 9.30417 26.1976 8.11887 25.1796 7.0769C26.1703 8.1102 26.831 9.38016 27.107 10.7575C27.2043 11.2408 27.2537 11.7374 27.2537 12.2414C27.2537 14.2353 26.477 16.1106 25.0663 17.5206C23.6563 18.9312 21.7809 19.7078 19.7869 19.7078C19.7682 19.7078 19.7489 19.7078 19.7302 19.7072Z" fill="url(#paint0_radial_927_18955)"/>
<path d="M0.0440674 15.1755H3.24878C3.44478 12.067 4.74947 9.17104 6.9715 6.94911C8.55285 5.3685 10.4742 4.25187 12.5716 3.66789C12.9829 3.55389 13.4009 3.45989 13.8249 3.38723C14.1989 3.1339 14.5849 2.90725 14.9809 2.70659C17.265 1.55196 19.8777 1.2713 22.321 1.86528C24.1177 2.3006 25.8224 3.20924 27.2385 4.58986C25.8224 3.19657 24.2104 2.1206 22.4931 1.36263C16.625 -1.22995 9.51753 -0.121991 4.7088 4.68652C1.79409 7.60109 0.239403 11.3596 0.0440674 15.1755Z" fill="url(#paint1_radial_927_18955)"/>
</g>
<defs>
<radialGradient id="paint0_radial_927_18955" cx="0" cy="0" r="1" gradientUnits="userSpaceOnUse" gradientTransform="translate(19.7339 19.9334) rotate(-51.0347) scale(15.6908 31.3271)">
<stop stop-color="white"/>
<stop offset="1" stop-color="white" stop-opacity="0"/>
</radialGradient>
<radialGradient id="paint1_radial_927_18955" cx="0" cy="0" r="1" gradientUnits="userSpaceOnUse" gradientTransform="translate(23.8673 3.53331) rotate(170.501) scale(33.9335 39.2523)">
<stop stop-color="white" stop-opacity="0"/>
<stop offset="0.5" stop-color="white"/>
</radialGradient>
<clipPath id="clip0_927_18955">
<rect width="89" height="32" fill="white"/>
</clipPath>
</defs>
</svg>
