<svg width="40" height="40" viewBox="0 0 40 40" fill="none" xmlns="http://www.w3.org/2000/svg">
<g clip-path="url(#clip0_8_2)">
<path d="M34.9818 13.9542C34.7538 14.1252 30.7283 16.3178 30.7283 21.1932C30.7283 26.8324 35.8506 28.8274 36.0039 28.8768C35.9803 28.9984 35.1902 31.609 33.3032 34.269C31.6206 36.6098 29.8634 38.9468 27.1902 38.9468C24.517 38.9468 23.829 37.4458 20.743 37.4458C17.7356 37.4458 16.6663 38.9962 14.2211 38.9962C11.7759 38.9962 10.0698 36.8302 8.10811 34.1702C5.83587 31.0466 4 26.194 4 21.5884C4 14.2012 8.96904 10.2834 13.8595 10.2834C16.458 10.2834 18.6241 11.9326 20.2555 11.9326C21.8084 11.9326 24.23 10.1846 27.1862 10.1846C28.3066 10.1846 32.3322 10.2834 34.9818 13.9542ZM25.7828 7.0572C27.0054 5.655 27.8703 3.7094 27.8703 1.7638C27.8703 1.494 27.8467 1.2204 27.7956 1C25.8064 1.0722 23.4398 2.2806 22.0128 3.8804C20.8924 5.1116 19.8467 7.0572 19.8467 9.0294C19.8467 9.3258 19.8978 9.6222 19.9214 9.7172C20.0472 9.74 20.2516 9.7666 20.456 9.7666C22.2408 9.7666 24.4855 8.6114 25.7828 7.0572Z" fill="white"/>
</g>
<defs>
<clipPath id="clip0_8_2">
<rect width="32" height="38" fill="white" transform="translate(4 1)"/>
</clipPath>
</defs>
</svg>
