<svg width="40" height="40" viewBox="0 0 40 40" fill="none" xmlns="http://www.w3.org/2000/svg">
<path fill-rule="evenodd" clip-rule="evenodd" d="M3.53334 18.37C13.4634 14.009 20.074 11.1112 23.3935 9.70534C32.8412 5.71728 34.8272 5.02869 36.104 5C36.3877 5 37.0119 5.05738 37.4374 5.40168C37.7779 5.68859 37.863 6.06157 37.9198 6.34848C37.9765 6.63539 38.0332 7.2379 37.9765 7.69696C37.4658 13.1483 35.2528 26.3749 34.118 32.4574C33.6356 35.0396 32.6994 35.9003 31.7915 35.9864C29.8055 36.1585 28.3018 34.6666 26.4009 33.4042C23.3935 31.4245 21.7196 30.1908 18.7973 28.2398C15.4211 26.0019 17.6057 24.7682 19.5349 22.7598C20.0456 22.2433 28.7557 14.2098 28.926 13.4926C28.9543 13.4065 28.9543 13.0622 28.7557 12.89C28.5571 12.7179 28.2734 12.7753 28.0464 12.8327C27.7343 12.89 22.9679 16.1034 13.6904 22.4442C12.3285 23.391 11.1086 23.85 10.0021 23.8214C8.78209 23.7927 6.45562 23.1328 4.69658 22.5589C2.56871 21.8704 0.866409 21.4974 1.00827 20.2923C1.09338 19.6611 1.94453 19.0299 3.53334 18.37Z" fill="white"/>
</svg>
