<svg width="40" height="40" viewBox="0 0 40 40" fill="none" xmlns="http://www.w3.org/2000/svg">
<g clip-path="url(#clip0_3_4)">
<path d="M19.7 19.2L4.30002 35.3C4.80002 37 6.40002 38.3 8.30002 38.3C9.10002 38.3 9.80002 38.1 10.4 37.7L27.8 27.8L19.7 19.2Z" fill="#EA4335"/>
<path d="M35.3 16.4L27.8 12.1L19.4 19.5L27.9 27.8L35.4 23.6C36.7 22.9 37.6 21.5 37.6 20C37.5 18.5 36.6 17.1 35.3 16.4Z" fill="#FBBC04"/>
<path d="M4.30001 4.7C4.20001 5 4.20001 5.4 4.20001 5.8V34.3C4.20001 34.7 4.20001 35 4.30001 35.4L20.3 19.7L4.30001 4.7Z" fill="#4285F4"/>
<path d="M19.8 20L27.8 12.1L10.5 2.3C9.90002 1.9 9.10002 1.7 8.30002 1.7C6.40002 1.7 4.70002 3 4.30002 4.7L19.8 20Z" fill="#34A853"/>
</g>
<defs>
<clipPath id="clip0_3_4">
<rect width="40" height="40" fill="white"/>
</clipPath>
</defs>
</svg>
