<svg width="33" height="32" viewBox="0 0 33 32" fill="none" xmlns="http://www.w3.org/2000/svg">
<path d="M22.384 11.8035C24.3162 13.184 26.6832 13.9962 29.2398 13.9962V9.07926C28.7559 9.07937 28.2733 9.02894 27.8 8.92871V12.7991C25.2437 12.7991 22.877 11.9868 20.9442 10.6064V20.6405C20.9442 25.6601 16.873 29.729 11.8512 29.729C9.97739 29.729 8.2358 29.1628 6.78906 28.1918C8.44028 29.8793 10.743 30.9261 13.2906 30.9261C18.3128 30.9261 22.3842 26.8572 22.3842 21.8374V11.8035H22.384ZM24.1601 6.84286C23.1726 5.76461 22.5243 4.37117 22.384 2.83067V2.19824H21.0196C21.3631 4.15622 22.5345 5.82901 24.1601 6.84286ZM9.96538 24.3399C9.41367 23.6169 9.11553 22.7324 9.11687 21.823C9.11687 19.5273 10.979 17.6658 13.2764 17.6658C13.7046 17.6657 14.1302 17.7313 14.5382 17.8607V12.8338C14.0614 12.7685 13.5801 12.7407 13.0991 12.7509V16.6636C12.6907 16.5342 12.2649 16.4684 11.8367 16.4689C9.53927 16.4689 7.67721 18.3301 7.67721 20.6262C7.67721 22.2497 8.60799 23.6552 9.96538 24.3399Z" fill="#FF004F"/>
<path d="M20.946 10.6063C22.8788 11.9867 25.2455 12.799 27.8018 12.799V8.9286C26.3749 8.62482 25.1117 7.87952 24.1619 6.84286C22.5361 5.8289 21.3649 4.15612 21.0214 2.19824H17.4376V21.8372C17.4295 24.1267 15.5705 25.9805 13.278 25.9805C11.9271 25.9805 10.727 25.3369 9.96687 24.3399C8.60958 23.6552 7.67881 22.2495 7.67881 20.6263C7.67881 18.3304 9.54087 16.469 11.8383 16.469C12.2784 16.469 12.7027 16.5375 13.1007 16.6637V12.751C8.16704 12.8529 4.19922 16.882 4.19922 21.8373C4.19922 24.3109 5.1873 26.5534 6.79096 28.1919C8.2377 29.1628 9.97929 29.7291 11.8531 29.7291C16.875 29.7291 20.9461 25.66 20.9461 20.6405L20.946 10.6063Z" fill="black"/>
<path d="M27.8 8.92733V7.88082C26.5133 7.88277 25.2518 7.5226 24.1601 6.84149C25.1266 7.89899 26.3991 8.62817 27.8 8.92733ZM21.0197 2.19697C20.9869 2.00989 20.9618 1.82155 20.9443 1.63243V1H15.996V20.6392C15.9881 22.9284 14.1292 24.7822 11.8365 24.7822C11.1634 24.7822 10.5279 24.6225 9.96511 24.3387C10.7252 25.3357 11.9254 25.9792 13.2763 25.9792C15.5685 25.9792 17.4278 24.1255 17.4358 21.836V2.19697H21.0197ZM13.0991 12.7497V11.6356C12.6856 11.5792 12.2688 11.5508 11.8514 11.551C6.82906 11.551 2.75781 15.62 2.75781 20.6392C2.75781 23.7859 4.35788 26.5591 6.78931 28.1904C5.18565 26.552 4.19757 24.3095 4.19757 21.8359C4.19757 16.8808 8.16529 12.8516 13.0991 12.7497Z" fill="#00F2EA"/>
</svg>
