<svg width="78" height="28" viewBox="0 0 78 28" fill="none" xmlns="http://www.w3.org/2000/svg">
<path d="M0.227115 16.5242C0.715598 19.2257 1.9949 21.8111 4.06329 23.8998C9.4817 29.3712 18.2663 29.3712 23.6841 23.8998C27.8539 19.6892 28.8146 13.4653 26.5665 8.32723C25.9086 6.8235 24.9756 5.41259 23.7679 4.17272C23.7402 4.14411 23.7124 4.11551 23.6841 4.08691C23.6558 4.0583 23.6275 4.03028 23.5991 4.00226C22.3713 2.79333 20.8931 1.99769 19.3352 1.6165C17.2165 1.09638 14.951 1.34214 12.9704 2.35319C12.6271 2.52889 12.2924 2.72737 11.968 2.94919C11.6698 3.15233 11.3807 3.37591 11.1027 3.61816C10.9321 3.76702 10.7656 3.92346 10.6038 4.08691C6.99188 7.73414 6.99188 13.6481 10.6038 17.2953C11.5634 18.2643 12.682 18.9759 13.874 19.4306C14.9099 19.8252 16.0025 20.0255 17.0951 20.0313V17.2288C15.9447 17.2206 14.8411 16.9106 13.874 16.3362C13.4023 16.0572 12.9629 15.7151 12.5658 15.3141C11.3431 14.0794 10.6697 12.4374 10.6697 10.6914C10.6697 8.94541 11.3431 7.30276 12.5658 6.06814C13.789 4.83352 15.4146 4.15345 17.1442 4.15345C17.5818 4.15345 18.0125 4.19723 18.4322 4.28246C19.6254 4.52355 20.7261 5.10204 21.6221 5.9689C21.6556 6.00159 21.6891 6.03486 21.7221 6.06814C21.755 6.10141 21.788 6.13527 21.8204 6.16912C22.7031 7.08152 23.4124 8.11942 23.9333 9.24371C24.6143 10.7112 24.9732 12.3241 24.9732 13.9931C24.9732 14.2546 24.9646 14.5149 24.9472 14.7729C24.9206 15.1588 24.8756 15.5406 24.8108 15.9177C24.7478 16.2889 24.6669 16.6549 24.5674 17.0151C24.0616 18.8516 23.0933 20.5339 21.7221 21.9186C19.626 24.0352 16.8384 25.201 13.874 25.201C10.9096 25.201 8.12204 24.0352 6.02532 21.9186C4.53328 20.4119 3.51816 18.5515 3.05742 16.5242C2.8707 15.7034 2.77474 14.8558 2.77474 13.9931C2.77474 13.7514 2.78226 13.5109 2.79729 13.2715H0.018426C-0.0370702 14.3585 0.0328782 15.4507 0.227115 16.5242Z" fill="white"/>
<path d="M2.79415 13.3724C2.77994 13.6051 2.77283 13.839 2.77283 14.074C2.77283 14.336 2.78634 14.5965 2.80389 14.8554H0.0238904C-0.00366096 14.3549 -0.00904613 13.8531 0.0165152 13.3525H0.0175053C0.0435323 12.8529 0.0851052 12.3544 0.163849 11.8594H2.97817C2.87935 12.3553 2.8273 12.8605 2.79534 13.3724H2.79415Z" fill="white"/>
<path d="M17.1158 20.0346C16.7759 20.0328 16.4359 20.0121 16.0977 19.9727V17.1445C16.4284 17.1996 16.7656 17.2291 17.1069 17.2319V17.2317C17.1098 17.2319 17.1127 17.2319 17.1157 17.232C17.1157 17.232 17.1158 17.232 17.1158 17.232C17.1292 17.2323 17.1428 17.2323 17.156 17.2323H17.156C17.498 17.2323 17.836 17.2057 18.1676 17.1535V19.9786C17.8182 20.0172 17.467 20.0358 17.1158 20.0343V20.0346Z" fill="white"/>
<path d="M17.082 17.2042V20.0067C19.4655 20.019 21.8524 19.1072 23.6711 17.2707C23.8335 17.1067 23.9884 16.9386 24.1358 16.7658C24.3763 16.485 24.5966 16.1937 24.7977 15.8931C24.8625 15.516 24.9076 15.1342 24.9342 14.7483C24.9515 14.4903 24.9602 14.23 24.9602 13.9685C24.9602 12.2995 24.6012 10.6866 23.9202 9.21911C23.3994 8.09482 22.69 7.05692 21.8073 6.14453C22.6663 7.04934 23.2392 8.16137 23.4786 9.36738C23.563 9.7906 23.6057 10.2255 23.6057 10.6668C23.6057 12.4128 22.9323 14.0549 21.709 15.2895C20.4864 16.5247 18.8602 17.2047 17.1312 17.2047C17.115 17.2047 17.0982 17.2047 17.082 17.2042Z" fill="white"/>
<path d="M0 13.288H2.77886C2.94882 10.566 4.08013 8.03026 6.00689 6.08464C7.37811 4.70058 9.04416 3.72281 10.8628 3.21145C11.2195 3.11163 11.582 3.02932 11.9496 2.96569C12.2739 2.74387 12.6086 2.54539 12.952 2.36969C14.9325 1.35864 17.1981 1.11289 19.3168 1.633C20.8747 2.01419 22.3529 2.80983 23.5807 4.01877C22.3529 2.79874 20.955 1.85658 19.4659 1.19286C14.3776 -1.07732 8.21461 -0.107141 4.04487 4.10341C1.51748 6.65554 0.169379 9.94669 0 13.288Z" fill="white"/>
<path d="M37.064 17.3187L42.6632 23.3086H39.2682L34.7711 18.1681V23.3086H32.2578V7.55859H34.7711V16.5365L39.1801 10.9896H42.6632L37.064 17.3187Z" fill="white"/>
<path d="M45.6161 22.6894C44.6917 22.1655 43.9651 21.4271 43.4369 20.4748C42.9086 19.5225 42.6445 18.4195 42.6445 17.1641C42.6445 15.9087 42.9161 14.8246 43.4592 13.8648C44.0017 12.9056 44.7431 12.1672 45.6824 11.6502C46.6216 11.1338 47.6706 10.875 48.83 10.875C49.9893 10.875 51.0383 11.1332 51.9776 11.6502C52.9168 12.1672 53.6577 12.905 54.2008 13.8648C54.7433 14.8246 55.0154 15.9242 55.0154 17.1641C55.0154 18.4039 54.7364 19.5041 54.1791 20.4633C53.6211 21.4231 52.8619 22.165 51.901 22.6889C50.9394 23.2128 49.8795 23.475 48.7202 23.475C47.5609 23.475 46.541 23.2133 45.6166 22.6889L45.6161 22.6894ZM50.5358 20.8187C51.1006 20.5087 51.5597 20.0435 51.9118 19.4236C52.264 18.8036 52.44 18.0508 52.44 17.1646C52.44 16.2785 52.2714 15.5297 51.9335 14.9172C51.5957 14.3048 51.1481 13.843 50.5907 13.533C50.0328 13.2231 49.4314 13.0678 48.7854 13.0678C48.1394 13.0678 47.5414 13.2225 46.9915 13.533C46.441 13.843 46.0042 14.3048 45.6818 14.9172C45.3588 15.5303 45.1976 16.279 45.1976 17.1646C45.1976 18.4787 45.5314 19.4937 46.1992 20.2091C46.8669 20.9251 47.7072 21.2834 48.7196 21.2834C49.365 21.2834 49.9704 21.1281 50.5358 20.8181V20.8187Z" fill="white"/>
<path d="M64.615 20.7597H62.5484C60.5532 20.7597 58.9355 19.1298 58.9355 17.1186V7.55859H56.4062V17.1226C56.4062 20.539 59.1544 23.3086 62.5443 23.3086H64.6144V20.7597H64.615Z" fill="white"/>
<path d="M67.6121 22.6894C66.6878 22.1655 65.9612 21.4271 65.433 20.4748C64.9047 19.5225 64.6406 18.4195 64.6406 17.1641C64.6406 15.9087 64.9122 14.8246 65.4553 13.8648C65.9978 12.9056 66.7392 12.1672 67.6785 11.6502C68.6177 11.1338 69.6667 10.875 70.8261 10.875C71.9854 10.875 73.0344 11.1332 73.9737 11.6502C74.9129 12.1672 75.6538 12.905 76.1969 13.8648C76.7394 14.8246 77.0115 15.9242 77.0115 17.1641C77.0115 18.4039 76.7325 19.5041 76.1751 20.4633C75.6172 21.4231 74.858 22.165 73.8971 22.6889C72.9355 23.2128 71.8756 23.475 70.7163 23.475C69.557 23.475 68.5371 23.2133 67.6127 22.6889L67.6121 22.6894ZM72.5319 20.8187C73.0967 20.5087 73.5558 20.0435 73.9079 19.4236C74.2601 18.8036 74.4361 18.0508 74.4361 17.1646C74.4361 16.2785 74.2675 15.5297 73.9296 14.9172C73.5918 14.3048 73.1442 13.843 72.5868 13.533C72.0288 13.2231 71.4275 13.0678 70.7815 13.0678C70.1355 13.0678 69.5375 13.2225 68.9876 13.533C68.4371 13.843 68.0003 14.3048 67.6779 14.9172C67.3549 15.5303 67.1937 16.279 67.1937 17.1646C67.1937 18.4787 67.5275 19.4937 68.1953 20.2091C68.863 20.9251 69.7033 21.2834 70.7157 21.2834C71.3611 21.2834 71.9665 21.1281 72.5319 20.8181V20.8187Z" fill="white"/>
</svg>
