<svg width="124" height="25" viewBox="0 0 124 25" fill="none" xmlns="http://www.w3.org/2000/svg">
<g clip-path="url(#clip0_2977_1340)">
<path d="M12.5 0C9.31812 0 6.26375 1.26506 4.01562 3.51469C1.76518 5.76521 0.500623 8.81734 0.5 12C0.5 15.1813 1.76562 18.2357 4.01562 20.4853C6.26375 22.7349 9.31812 24 12.5 24C15.6819 24 18.7362 22.7349 20.9844 20.4853C23.2344 18.2357 24.5 15.1813 24.5 12C24.5 8.81869 23.2344 5.76431 20.9844 3.51469C18.7362 1.26506 15.6819 0 12.5 0Z" fill="url(#paint0_linear_2977_1340)"/>
<path d="M5.93087 11.8721C9.42962 10.3481 11.7621 9.34326 12.9284 8.85782C16.2621 7.47163 16.954 7.23088 17.4059 7.22273C17.5052 7.22113 17.7265 7.2457 17.8709 7.36241C17.9909 7.46085 18.0246 7.59398 18.0415 7.68745C18.0565 7.78082 18.0771 7.99363 18.0602 8.15976C17.8802 10.0573 17.0984 14.6619 16.7009 16.7872C16.534 17.6864 16.2021 17.9879 15.8815 18.0174C15.184 18.0815 14.6552 17.5569 13.9802 17.1146C12.9246 16.4221 12.3284 15.9913 11.3027 15.3157C10.1177 14.5349 10.8865 14.1058 11.5615 13.4045C11.7377 13.2209 14.809 10.4281 14.8671 10.1748C14.8746 10.1431 14.8821 10.025 14.8109 9.96276C14.7415 9.90032 14.6384 9.9217 14.5634 9.93857C14.4565 9.96257 12.7709 11.0778 9.50087 13.2841C9.02274 13.613 8.58962 13.7733 8.19962 13.7649C7.77212 13.7557 6.94712 13.5226 6.33399 13.3235C5.58399 13.0792 4.98587 12.95 5.03837 12.5351C5.06462 12.3191 5.36274 12.098 5.93087 11.8721Z" fill="white"/>
</g>
<path d="M37.713 9.081C35.994 9.081 34.887 7.83 34.887 5.931V5.769C34.887 3.888 36.084 2.61 37.785 2.61H37.884C38.847 2.61 39.756 3.132 40.242 3.978L39.459 4.473C39.126 3.852 38.595 3.483 37.875 3.483H37.794C36.633 3.483 35.877 4.392 35.877 5.76V5.94C35.877 7.317 36.642 8.208 37.83 8.208H37.911C38.856 8.208 39.54 7.569 39.54 6.705V6.552H38.01V5.715H40.44V9H39.738C39.666 8.847 39.603 8.541 39.585 8.289C39.225 8.757 38.514 9.081 37.785 9.081H37.713ZM43.57 9.072C42.229 9.072 41.329 8.154 41.329 6.786V6.615C41.329 5.211 42.229 4.257 43.561 4.257H43.642C44.866 4.257 45.694 5.13 45.694 6.426V6.984H42.238C42.301 7.767 42.832 8.271 43.624 8.271H43.714C44.308 8.271 44.731 7.983 44.992 7.614L45.568 8.127C45.127 8.721 44.461 9.072 43.669 9.072H43.57ZM42.256 6.291H44.839V6.282C44.803 5.517 44.317 5.022 43.624 5.022H43.534C42.832 5.022 42.355 5.508 42.256 6.291ZM48.1458 9.036C47.3178 9.036 46.8768 8.613 46.8768 7.704V5.085H46.2558V4.464C46.4358 4.401 46.6788 4.338 46.8768 4.32V3.24L47.7678 3.123V4.32H49.0998V5.085H47.7588V7.533C47.7588 8.064 47.9748 8.235 48.3708 8.235C48.5778 8.235 48.9828 8.19 49.1718 8.136V8.874C48.9288 8.982 48.4518 9.036 48.1458 9.036ZM54.4858 9.063C53.1628 9.063 52.2538 8.127 52.2538 6.777V6.534C52.2538 5.193 53.1808 4.257 54.4678 4.257H54.5398C55.3498 4.257 56.0428 4.662 56.4568 5.382L55.7818 5.805C55.5118 5.292 55.0888 5.031 54.5488 5.031H54.4678C53.6848 5.031 53.1808 5.625 53.1808 6.552V6.768C53.1808 7.686 53.7118 8.28 54.5218 8.28H54.6028C55.0978 8.28 55.5118 8.019 55.7908 7.524L56.4748 7.956C56.0338 8.676 55.3678 9.063 54.5668 9.063H54.4858ZM58.6448 9.081C57.7358 9.081 57.1058 8.532 57.1058 7.695V7.623C57.1058 6.615 57.9698 6.111 59.7608 6.111H60.1658V5.85C60.1658 5.346 59.8238 5.031 59.2028 5.031H59.1488C58.6808 5.031 58.1498 5.202 57.7268 5.517L57.3308 4.842C57.8978 4.464 58.5368 4.23 59.2118 4.23H59.2748C60.3728 4.23 61.0298 4.842 61.0298 5.832V8.136C61.0298 8.424 61.1108 8.748 61.1918 9H60.3188C60.2648 8.865 60.2198 8.64 60.1928 8.442C59.7608 8.856 59.2208 9.081 58.6448 9.081ZM58.7888 8.298C59.3378 8.298 59.8328 8.046 60.1658 7.65V6.786H59.8778C58.5458 6.786 57.9788 7.029 57.9788 7.587V7.632C57.9788 8.037 58.3028 8.298 58.7888 8.298ZM62.4041 9V4.32H63.0881C63.1421 4.491 63.2051 4.725 63.2321 4.932C63.5651 4.545 64.0511 4.32 64.6271 4.32H64.7441V5.202C64.6631 5.184 64.5281 5.175 64.4291 5.175C63.6641 5.175 63.2951 5.616 63.2951 6.507V9H62.4041ZM67.4375 9.072C66.2045 9.072 65.3495 8.127 65.3495 6.786V6.534C65.3495 5.193 66.2045 4.248 67.4375 4.248H67.5185C68.1125 4.248 68.6165 4.473 68.9765 4.851V2.52H69.8675V9H69.1655C69.1025 8.856 69.0485 8.622 69.0305 8.415C68.6615 8.829 68.1305 9.072 67.5095 9.072H67.4375ZM67.5905 8.289H67.6625C68.4545 8.289 68.9765 7.668 68.9765 6.768V6.543C68.9765 5.634 68.4455 5.031 67.6625 5.031H67.5905C66.8075 5.031 66.2855 5.634 66.2855 6.543V6.768C66.2855 7.677 66.8075 8.289 67.5905 8.289ZM74.1655 3.627C73.8505 3.627 73.6165 3.411 73.6165 3.105C73.6165 2.799 73.8505 2.574 74.1655 2.574C74.4895 2.574 74.7325 2.799 74.7325 3.105C74.7325 3.411 74.4895 3.627 74.1655 3.627ZM73.7245 9V4.32H74.6155V9H73.7245ZM76.0096 9V4.32H76.7116C76.7656 4.491 76.8286 4.761 76.8466 4.968C77.2336 4.518 77.7916 4.239 78.4396 4.239H78.4936C79.5376 4.239 80.0956 4.869 80.0956 6.003V9H79.2046V6.174C79.2046 5.454 78.9166 5.058 78.2506 5.058H78.1876C77.4226 5.058 76.9006 5.571 76.9006 6.399V9H76.0096Z" fill="black"/>
<path d="M42.0029 14.021H39.1528V22H37.6357V14.021H34.8047V12.7578H42.0029V14.021ZM46.0271 22.127C45.5193 22.127 45.0538 22.0423 44.6306 21.873C44.2116 21.7038 43.8519 21.4689 43.5515 21.1685C43.251 20.8722 43.0183 20.5231 42.8532 20.1211C42.6924 19.7148 42.612 19.2769 42.612 18.8071V18.5469C42.612 18.0094 42.6967 17.5228 42.8659 17.0869C43.0352 16.651 43.268 16.2786 43.5642 15.9697C43.8604 15.6608 44.2032 15.4238 44.5925 15.2588C44.9861 15.0895 45.405 15.0049 45.8493 15.0049C46.3445 15.0049 46.7824 15.0895 47.1633 15.2588C47.5442 15.4238 47.8637 15.6545 48.1218 15.9507C48.3799 16.2511 48.5746 16.6087 48.7058 17.0234C48.837 17.4382 48.9026 17.891 48.9026 18.3818V19.0356H44.1418V19.0674C44.1884 19.3678 44.2603 19.6196 44.3576 19.8228C44.455 20.0259 44.5883 20.2078 44.7575 20.3687C44.9268 20.5379 45.1257 20.6691 45.3542 20.7622C45.587 20.8553 45.8409 20.9019 46.1159 20.9019C46.4926 20.9019 46.8438 20.8299 47.1696 20.686C47.4955 20.5379 47.7642 20.3285 47.9758 20.0576L48.7883 20.8447C48.5598 21.1748 48.2085 21.471 47.7346 21.7334C47.2649 21.9958 46.6957 22.127 46.0271 22.127ZM45.843 16.2363C45.6272 16.2363 45.4262 16.2765 45.24 16.3569C45.058 16.4331 44.8951 16.5431 44.7512 16.687C44.6073 16.8351 44.4867 17.0129 44.3894 17.2202C44.292 17.4276 44.2201 17.6624 44.1736 17.9248H47.4045V17.8232C47.4045 17.6243 47.3685 17.4276 47.2966 17.2329C47.2247 17.034 47.1231 16.8605 46.9919 16.7124C46.865 16.5685 46.7042 16.4543 46.5095 16.3696C46.3191 16.2808 46.0969 16.2363 45.843 16.2363ZM50.4511 12.25H54.1518V20.7432H56.2338V22H50.4511V20.7432H52.622V13.5132H50.4511V12.25ZM60.7023 22.127C60.1945 22.127 59.729 22.0423 59.3058 21.873C58.8869 21.7038 58.5272 21.4689 58.2267 21.1685C57.9263 20.8722 57.6935 20.5231 57.5285 20.1211C57.3677 19.7148 57.2873 19.2769 57.2873 18.8071V18.5469C57.2873 18.0094 57.3719 17.5228 57.5412 17.0869C57.7104 16.651 57.9432 16.2786 58.2394 15.9697C58.5356 15.6608 58.8784 15.4238 59.2677 15.2588C59.6613 15.0895 60.0802 15.0049 60.5246 15.0049C61.0197 15.0049 61.4577 15.0895 61.8385 15.2588C62.2194 15.4238 62.5389 15.6545 62.797 15.9507C63.0552 16.2511 63.2498 16.6087 63.381 17.0234C63.5122 17.4382 63.5778 17.891 63.5778 18.3818V19.0356H58.8171V19.0674C58.8636 19.3678 58.9355 19.6196 59.0329 19.8228C59.1302 20.0259 59.2635 20.2078 59.4328 20.3687C59.602 20.5379 59.8009 20.6691 60.0295 20.7622C60.2622 20.8553 60.5161 20.9019 60.7912 20.9019C61.1678 20.9019 61.519 20.8299 61.8449 20.686C62.1707 20.5379 62.4394 20.3285 62.651 20.0576L63.4635 20.8447C63.235 21.1748 62.8838 21.471 62.4098 21.7334C61.9401 21.9958 61.3709 22.127 60.7023 22.127ZM60.5182 16.2363C60.3024 16.2363 60.1014 16.2765 59.9152 16.3569C59.7332 16.4331 59.5703 16.5431 59.4264 16.687C59.2825 16.8351 59.1619 17.0129 59.0646 17.2202C58.9673 17.4276 58.8953 17.6624 58.8488 17.9248H62.0797V17.8232C62.0797 17.6243 62.0438 17.4276 61.9718 17.2329C61.8999 17.034 61.7983 16.8605 61.6671 16.7124C61.5402 16.5685 61.3794 16.4543 61.1847 16.3696C60.9943 16.2808 60.7721 16.2363 60.5182 16.2363ZM64.6376 18.5151C64.6376 17.9946 64.7011 17.5207 64.828 17.0933C64.955 16.6616 65.139 16.2913 65.3803 15.9824C65.6215 15.6735 65.9113 15.4344 66.2499 15.2651C66.5927 15.0916 66.9777 15.0049 67.4052 15.0049C67.6591 15.0049 67.8897 15.0324 68.0971 15.0874C68.3044 15.1382 68.4927 15.2144 68.662 15.3159C68.772 15.3794 68.8757 15.4556 68.973 15.5444C69.0704 15.6291 69.1613 15.7222 69.246 15.8237L69.3095 15.1318H70.6869V21.8096C70.6869 22.2708 70.6107 22.6792 70.4584 23.0347C70.3103 23.3944 70.1008 23.6991 69.83 23.9487C69.5549 24.1942 69.2248 24.3804 68.8397 24.5073C68.4589 24.6385 68.0378 24.7041 67.5765 24.7041C67.3819 24.7041 67.1682 24.6829 66.9354 24.6406C66.7027 24.5983 66.4699 24.5327 66.2372 24.4438C66.0044 24.355 65.7823 24.2386 65.5707 24.0947C65.3591 23.9508 65.1771 23.7773 65.0248 23.5742L65.7421 22.6538C65.8648 22.8019 65.996 22.9289 66.1356 23.0347C66.2795 23.1447 66.4255 23.2336 66.5736 23.3013C66.7217 23.369 66.872 23.4176 67.0243 23.4473C67.1766 23.4811 67.3311 23.498 67.4877 23.498C67.7585 23.498 67.9976 23.46 68.205 23.3838C68.4166 23.3076 68.5964 23.1976 68.7445 23.0537C68.8799 22.9141 68.9836 22.7427 69.0555 22.5396C69.1317 22.3364 69.1698 22.1058 69.1698 21.8477V21.3716C69.0809 21.4647 68.9878 21.5514 68.8905 21.6318C68.7974 21.7122 68.6958 21.7821 68.5858 21.8413C68.4208 21.9344 68.2388 22.0042 68.0399 22.0508C67.841 22.1016 67.6252 22.127 67.3925 22.127C66.9693 22.127 66.5884 22.0402 66.2499 21.8667C65.9113 21.689 65.6215 21.4435 65.3803 21.1304C65.1433 20.8215 64.9592 20.4554 64.828 20.0322C64.7011 19.6048 64.6376 19.1436 64.6376 18.6484V18.5151ZM66.161 18.6484C66.161 18.9531 66.1906 19.2409 66.2499 19.5117C66.3134 19.7826 66.4128 20.0174 66.5482 20.2163C66.6794 20.4237 66.8466 20.5866 67.0497 20.7051C67.2528 20.8193 67.494 20.8765 67.7733 20.8765C67.9468 20.8765 68.1034 20.8574 68.243 20.8193C68.3869 20.7812 68.516 20.7284 68.6303 20.6606C68.7445 20.5887 68.8461 20.502 68.9349 20.4004C69.0238 20.2988 69.1021 20.1867 69.1698 20.064V17.0552C69.1021 16.9282 69.0196 16.814 68.9222 16.7124C68.8291 16.6108 68.7212 16.5241 68.5985 16.4521C68.4885 16.3929 68.3658 16.3464 68.2304 16.3125C68.0949 16.2744 67.9468 16.2554 67.786 16.2554C67.5025 16.2554 67.2592 16.3146 67.056 16.4331C66.8529 16.5516 66.6858 16.7145 66.5546 16.9219C66.4192 17.1292 66.3197 17.3704 66.2562 17.6455C66.1928 17.9163 66.161 18.2062 66.161 18.5151V18.6484ZM76.92 15.0049C77.1655 15.0049 77.4024 15.0218 77.631 15.0557C77.8637 15.0895 78.0457 15.1297 78.1769 15.1763L77.961 16.6743C77.7283 16.6235 77.4977 16.5854 77.2691 16.5601C77.0449 16.5347 76.8206 16.522 76.5963 16.522C76.3424 16.522 76.1139 16.5474 75.9107 16.5981C75.7076 16.6489 75.5278 16.7272 75.3712 16.833C75.2019 16.9346 75.058 17.0636 74.9396 17.2202C74.8211 17.3768 74.7216 17.5566 74.6412 17.7598V22H73.1241V15.1318H74.546L74.6095 16.084L74.6158 16.2427C74.8951 15.8576 75.2294 15.555 75.6188 15.335C76.0123 15.1149 76.4461 15.0049 76.92 15.0049ZM83.8958 22C83.8493 21.9154 83.8112 21.8138 83.7816 21.6953C83.7562 21.5726 83.7329 21.4456 83.7117 21.3145C83.6059 21.4245 83.4853 21.5303 83.3499 21.6318C83.2187 21.7292 83.0706 21.8138 82.9056 21.8857C82.7405 21.9619 82.5628 22.0212 82.3724 22.0635C82.182 22.1058 81.9767 22.127 81.7567 22.127C81.4012 22.127 81.0753 22.0762 80.7791 21.9746C80.4871 21.8688 80.2375 21.7249 80.0301 21.543C79.8185 21.3652 79.6535 21.1515 79.535 20.9019C79.4207 20.6479 79.3636 20.375 79.3636 20.083C79.3636 19.7064 79.4377 19.3742 79.5858 19.0864C79.7381 18.7944 79.9582 18.5532 80.2459 18.3628C80.5125 18.1851 80.8405 18.0496 81.2298 17.9565C81.6234 17.8634 82.0677 17.8169 82.5628 17.8169H83.6673V17.3535C83.6673 17.1758 83.6356 17.015 83.5721 16.8711C83.5128 16.7272 83.4261 16.6024 83.3118 16.4966C83.1891 16.3908 83.0389 16.3104 82.8612 16.2554C82.6877 16.1961 82.4866 16.1665 82.2581 16.1665C82.0508 16.1665 81.8688 16.1919 81.7122 16.2427C81.5599 16.2935 81.4329 16.3633 81.3314 16.4521C81.2298 16.5326 81.1536 16.632 81.1029 16.7505C81.0563 16.8647 81.033 16.9875 81.033 17.1187H79.5096C79.5138 16.8436 79.5794 16.5791 79.7064 16.3252C79.8333 16.0713 80.0195 15.847 80.265 15.6523C80.5019 15.4535 80.7939 15.2969 81.1409 15.1826C81.4922 15.0641 81.8921 15.0049 82.3406 15.0049C82.7427 15.0049 83.1172 15.0557 83.4642 15.1572C83.8154 15.2546 84.118 15.4006 84.3719 15.5952C84.6258 15.7899 84.8247 16.0374 84.9686 16.3379C85.1125 16.6341 85.1844 16.9769 85.1844 17.3662V20.4194C85.1844 20.7284 85.2056 21.0076 85.2479 21.2573C85.2944 21.5028 85.36 21.7144 85.4446 21.8921V22H83.8958ZM82.0487 20.9082C82.2475 20.9082 82.4316 20.8828 82.6009 20.832C82.7744 20.7812 82.931 20.7157 83.0706 20.6353C83.2103 20.5549 83.3309 20.4639 83.4324 20.3623C83.534 20.2607 83.6123 20.1549 83.6673 20.0449V18.7754H82.6898C82.3597 18.7754 82.074 18.8071 81.8328 18.8706C81.5916 18.9299 81.3991 19.0166 81.2552 19.1309C81.1282 19.2282 81.033 19.3446 80.9696 19.48C80.9103 19.6154 80.8807 19.7677 80.8807 19.937C80.8807 20.0767 80.9061 20.2078 80.9569 20.3306C81.0076 20.4491 81.0817 20.5506 81.179 20.6353C81.2764 20.7199 81.397 20.7876 81.5408 20.8384C81.6847 20.8849 81.854 20.9082 82.0487 20.9082ZM87.7105 15.1318L87.7549 15.8872C87.8861 15.6121 88.066 15.3963 88.2945 15.2397C88.5272 15.0832 88.8065 15.0049 89.1324 15.0049C89.3016 15.0049 89.454 15.0239 89.5894 15.062C89.7248 15.1001 89.8412 15.1593 89.9385 15.2397C90.0147 15.299 90.0824 15.3709 90.1416 15.4556C90.2009 15.536 90.2517 15.6291 90.294 15.7349C90.3532 15.6375 90.4209 15.5465 90.4971 15.4619C90.5733 15.3773 90.6558 15.3053 90.7447 15.2461C90.8589 15.1699 90.9859 15.1107 91.1255 15.0684C91.2694 15.026 91.426 15.0049 91.5953 15.0049C91.8153 15.0049 92.0163 15.043 92.1983 15.1191C92.3845 15.1911 92.5453 15.3032 92.6807 15.4556C92.8161 15.6164 92.9198 15.8258 92.9917 16.084C93.0679 16.3379 93.106 16.6447 93.106 17.0044V22H91.7095V16.9917C91.7095 16.8563 91.6947 16.742 91.6651 16.6489C91.6355 16.5516 91.5931 16.4733 91.5381 16.4141C91.4831 16.359 91.4154 16.3188 91.335 16.2935C91.2588 16.2681 91.1742 16.2554 91.0811 16.2554C90.9838 16.2554 90.8991 16.2681 90.8272 16.2935C90.7552 16.3188 90.6918 16.3548 90.6368 16.4014C90.586 16.4437 90.5437 16.4945 90.5098 16.5537C90.4759 16.6087 90.4506 16.6722 90.4336 16.7441C90.4336 16.7611 90.4336 16.7822 90.4336 16.8076C90.4336 16.8288 90.4336 16.8605 90.4336 16.9028V22H89.0625V16.9854C89.0625 16.8499 89.0477 16.7357 89.0181 16.6426C88.9927 16.5452 88.9525 16.4691 88.8975 16.4141C88.8425 16.359 88.7769 16.3188 88.7007 16.2935C88.6288 16.2681 88.5463 16.2554 88.4532 16.2554C88.3516 16.2554 88.2606 16.2702 88.1802 16.2998C88.104 16.3252 88.0384 16.3654 87.9834 16.4204C87.9411 16.4585 87.903 16.5029 87.8692 16.5537C87.8396 16.6045 87.812 16.6616 87.7867 16.7251V22H86.3902V15.1318H87.7105ZM107.559 18.6357C107.559 18.9531 107.536 19.2557 107.489 19.5435C107.443 19.8312 107.375 20.0978 107.286 20.3433C107.185 20.6353 107.049 20.8997 106.88 21.1367C106.711 21.3737 106.507 21.5705 106.27 21.7271C106.08 21.854 105.866 21.9513 105.629 22.019C105.397 22.091 105.143 22.127 104.868 22.127C104.588 22.127 104.334 22.0931 104.106 22.0254C103.877 21.9577 103.672 21.8582 103.49 21.7271C103.397 21.6593 103.308 21.5874 103.224 21.5112C103.143 21.4308 103.065 21.3441 102.989 21.251L102.919 22H101.548V12.25H103.065V15.8047C103.154 15.6947 103.251 15.5952 103.357 15.5063C103.463 15.4175 103.577 15.3392 103.7 15.2715C103.86 15.1826 104.036 15.117 104.227 15.0747C104.421 15.0282 104.631 15.0049 104.855 15.0049C105.151 15.0049 105.422 15.0451 105.667 15.1255C105.917 15.2017 106.141 15.3117 106.34 15.4556C106.51 15.5741 106.66 15.7201 106.791 15.8936C106.926 16.0628 107.045 16.249 107.146 16.4521C107.282 16.7357 107.383 17.0509 107.451 17.3979C107.523 17.745 107.559 18.1131 107.559 18.5024V18.6357ZM106.042 18.5024C106.042 18.3078 106.029 18.1195 106.004 17.9375C105.983 17.7513 105.951 17.5778 105.909 17.417C105.849 17.2223 105.771 17.0467 105.674 16.8901C105.581 16.7293 105.454 16.5939 105.293 16.4839C105.187 16.4077 105.067 16.3506 104.931 16.3125C104.796 16.2744 104.643 16.2554 104.474 16.2554C104.267 16.2554 104.081 16.285 103.916 16.3442C103.75 16.3993 103.607 16.4797 103.484 16.5854C103.395 16.6574 103.315 16.742 103.243 16.8394C103.175 16.9325 103.116 17.034 103.065 17.144V19.9878C103.124 20.1147 103.194 20.2311 103.274 20.3369C103.359 20.4385 103.454 20.5295 103.56 20.6099C103.679 20.6945 103.814 20.7622 103.966 20.813C104.123 20.8595 104.296 20.8828 104.487 20.8828C104.66 20.8828 104.817 20.8617 104.957 20.8193C105.096 20.7728 105.221 20.7114 105.331 20.6353C105.479 20.5295 105.6 20.3962 105.693 20.2354C105.79 20.0703 105.864 19.8862 105.915 19.6831C105.957 19.5308 105.989 19.3657 106.01 19.188C106.031 19.0103 106.042 18.8262 106.042 18.6357V18.5024ZM108.581 18.5024C108.581 18.0031 108.653 17.5418 108.797 17.1187C108.94 16.6912 109.15 16.321 109.425 16.0078C109.696 15.6947 110.028 15.4492 110.422 15.2715C110.815 15.0938 111.264 15.0049 111.767 15.0049C112.271 15.0049 112.719 15.0938 113.113 15.2715C113.511 15.4492 113.847 15.6947 114.122 16.0078C114.393 16.321 114.6 16.6912 114.744 17.1187C114.888 17.5418 114.96 18.0031 114.96 18.5024V18.6357C114.96 19.1393 114.888 19.6027 114.744 20.0259C114.6 20.4491 114.393 20.8172 114.122 21.1304C113.851 21.4435 113.517 21.689 113.119 21.8667C112.726 22.0444 112.279 22.1333 111.78 22.1333C111.276 22.1333 110.826 22.0444 110.428 21.8667C110.03 21.689 109.696 21.4435 109.425 21.1304C109.15 20.8172 108.94 20.4491 108.797 20.0259C108.653 19.6027 108.581 19.1393 108.581 18.6357V18.5024ZM110.098 18.6357C110.098 18.9447 110.13 19.2367 110.193 19.5117C110.261 19.7868 110.364 20.028 110.504 20.2354C110.64 20.4427 110.813 20.6077 111.025 20.7305C111.236 20.849 111.488 20.9082 111.78 20.9082C112.064 20.9082 112.311 20.849 112.523 20.7305C112.734 20.6077 112.908 20.4427 113.043 20.2354C113.179 20.028 113.278 19.7868 113.342 19.5117C113.409 19.2367 113.443 18.9447 113.443 18.6357V18.5024C113.443 18.202 113.409 17.9142 113.342 17.6392C113.274 17.3641 113.174 17.1229 113.043 16.9155C112.904 16.7082 112.728 16.5431 112.516 16.4204C112.309 16.2977 112.059 16.2363 111.767 16.2363C111.48 16.2363 111.23 16.2977 111.018 16.4204C110.811 16.5431 110.64 16.7082 110.504 16.9155C110.364 17.1229 110.261 17.3641 110.193 17.6392C110.13 17.9142 110.098 18.202 110.098 18.5024V18.6357ZM119.245 13.4561V15.1318H121.828V16.2681H119.245V19.5498C119.245 19.8037 119.274 20.0174 119.333 20.1909C119.397 20.3602 119.484 20.4935 119.594 20.5908C119.704 20.6924 119.835 20.7643 119.987 20.8066C120.14 20.849 120.307 20.8701 120.489 20.8701C120.62 20.8701 120.755 20.8638 120.895 20.8511C121.035 20.8384 121.17 20.8215 121.301 20.8003C121.428 20.7834 121.547 20.7643 121.657 20.7432C121.771 20.7178 121.866 20.6966 121.942 20.6797L122.107 21.7271C121.997 21.7948 121.864 21.854 121.707 21.9048C121.555 21.9513 121.39 21.9915 121.212 22.0254C121.035 22.0592 120.848 22.0846 120.654 22.1016C120.463 22.1227 120.273 22.1333 120.082 22.1333C119.735 22.1333 119.416 22.0868 119.124 21.9937C118.836 21.8963 118.589 21.7461 118.381 21.543C118.174 21.3441 118.011 21.0881 117.893 20.7749C117.778 20.4618 117.721 20.0851 117.721 19.645V16.2681H116.058V15.1318H117.721V13.4561H119.245Z" fill="black"/>
<defs>
<linearGradient id="paint0_linear_2977_1340" x1="1200.5" y1="0" x2="1200.5" y2="2400" gradientUnits="userSpaceOnUse">
<stop stop-color="#2AABEE"/>
<stop offset="1" stop-color="#229ED9"/>
</linearGradient>
<clipPath id="clip0_2977_1340">
<rect width="24" height="24" fill="white" transform="translate(0.5)"/>
</clipPath>
</defs>
</svg>
