<svg width="33" height="32" viewBox="0 0 33 32" fill="none" xmlns="http://www.w3.org/2000/svg">
<path d="M25.6532 25.1536H21.8009V19.1205C21.8009 17.6818 21.7752 15.8298 19.7972 15.8298C17.7908 15.8298 17.4837 17.3974 17.4837 19.0158V25.1532H13.6315V12.7467H17.3297V14.4422H17.3815C17.7516 13.8094 18.2864 13.2888 18.929 12.9358C19.5715 12.5829 20.2978 12.4109 21.0304 12.4381C24.935 12.4381 25.6548 15.0064 25.6548 18.3476L25.6532 25.1536ZM9.28459 11.0509C8.0499 11.0511 7.0488 10.0503 7.04859 8.81563C7.04839 7.58094 8.04909 6.57984 9.28378 6.57963C10.5185 6.57933 11.5196 7.58013 11.5198 8.81482C11.5199 9.40775 11.2845 9.97643 10.8653 10.3958C10.4461 10.8151 9.87752 11.0508 9.28459 11.0509ZM11.2108 25.1537H7.3544V12.7467H11.2107V25.1536L11.2108 25.1537ZM27.5738 3.00189H5.41862C4.37151 2.99011 3.5128 3.82892 3.5 4.87603V27.1236C3.51239 28.1712 4.371 29.0108 5.41852 28.9999H27.5738C28.6235 29.0129 29.4855 28.1732 29.5 27.1236V4.8743C29.4851 3.82516 28.623 2.98645 27.5738 3.00017" fill="#0A66C2"/>
</svg>
