<svg width="33" height="32" viewBox="0 0 33 32" fill="none" xmlns="http://www.w3.org/2000/svg">
<g clip-path="url(#clip0_2940_1608)">
<path d="M31.831 8.24756C31.463 6.86156 30.379 5.77056 29.002 5.39956C26.506 4.72656 16.5 4.72656 16.5 4.72656C16.5 4.72656 6.493 4.72656 3.998 5.39956C2.621 5.76956 1.537 6.86156 1.169 8.24756C0.5 10.7596 0.5 15.9996 0.5 15.9996C0.5 15.9996 0.5 21.2406 1.169 23.7516C1.537 25.1376 2.621 26.2286 3.998 26.5986C6.494 27.2716 16.5 27.2716 16.5 27.2716C16.5 27.2716 26.507 27.2716 29.002 26.5986C30.379 26.2286 31.463 25.1366 31.831 23.7516C32.5 21.2396 32.5 15.9996 32.5 15.9996C32.5 15.9996 32.5 10.7596 31.831 8.24756ZM13.227 20.7576V11.2416L21.591 15.9996L13.227 20.7576Z" fill="black"/>
</g>
<defs>
<clipPath id="clip0_2940_1608">
<rect width="32" height="32" fill="white" transform="translate(0.5)"/>
</clipPath>
</defs>
</svg>
