<svg width="33" height="32" viewBox="0 0 33 32" fill="none" xmlns="http://www.w3.org/2000/svg">
<path d="M25.0601 7.612C23.5521 6.629 22.4631 5.055 22.1241 3.221C22.0511 2.825 22.0101 2.417 22.0101 2H17.1961L17.1881 21.292C17.1071 23.452 15.3291 25.186 13.1491 25.186C12.4721 25.186 11.8341 25.017 11.2721 24.721C9.98406 24.043 9.10306 22.693 9.10306 21.139C9.10306 18.908 10.9181 17.092 13.1491 17.092C13.5661 17.092 13.9651 17.161 14.3431 17.279V12.365C13.9521 12.312 13.5551 12.278 13.1491 12.278C8.26306 12.278 4.28906 16.253 4.28906 21.138C4.28906 24.136 5.78706 26.788 8.07206 28.392C9.51106 29.402 11.2621 29.998 13.1501 29.998C18.0361 29.998 22.0101 26.023 22.0101 21.138V11.356C23.8981 12.711 26.2111 13.51 28.7071 13.51V8.696C27.3621 8.696 26.1101 8.297 25.0601 7.612Z" fill="black"/>
</svg>
