<svg width="33" height="32" viewBox="0 0 33 32" fill="none" xmlns="http://www.w3.org/2000/svg">
<path fill-rule="evenodd" clip-rule="evenodd" d="M26.611 3H6.389C4.794 3 3.5 4.293 3.5 5.889V26.111C3.5 27.706 4.793 29 6.389 29H26.611C28.206 29 29.5 27.707 29.5 26.111V5.889C29.5 4.294 28.207 3 26.611 3ZM11.361 25.389H7.484V12.87H11.361V25.389ZM9.404 11.231C8.137 11.231 7.111 10.197 7.111 8.921C7.111 7.645 8.137 6.611 9.404 6.611C10.671 6.611 11.696 7.645 11.696 8.921C11.696 10.197 10.67 11.231 9.404 11.231ZM25.889 25.389H22.031V18.818C22.031 17.016 21.346 16.009 19.92 16.009C18.369 16.009 17.558 17.057 17.558 18.818V25.389H13.84V12.87H17.558V14.556C17.558 14.556 18.676 12.487 21.333 12.487C23.99 12.487 25.889 14.108 25.889 17.462V25.389Z" fill="black"/>
</svg>
