<svg width="24" height="24" viewBox="0 0 24 24" fill="none" xmlns="http://www.w3.org/2000/svg">
<path fill-rule="evenodd" clip-rule="evenodd" d="M11.9563 16.7617C11.2613 16.7617 10.6953 17.3267 10.6953 18.0227C10.6953 18.7177 11.2613 19.2827 11.9563 19.2827C12.6513 19.2827 13.2173 18.7177 13.2173 18.0227C13.2173 17.3267 12.6513 16.7617 11.9563 16.7617Z" fill="black"/>
<path fill-rule="evenodd" clip-rule="evenodd" d="M11.9563 10.7422C11.2613 10.7422 10.6953 11.3072 10.6953 12.0032C10.6953 12.6982 11.2613 13.2642 11.9563 13.2642C12.6513 13.2642 13.2173 12.6982 13.2173 12.0032C13.2173 11.3072 12.6513 10.7422 11.9563 10.7422Z" fill="black"/>
<path fill-rule="evenodd" clip-rule="evenodd" d="M11.9563 4.71875C11.2613 4.71875 10.6953 5.28375 10.6953 5.97975C10.6953 6.67475 11.2613 7.23975 11.9563 7.23975C12.6513 7.23975 13.2173 6.67475 13.2173 5.97975C13.2173 5.28375 12.6513 4.71875 11.9563 4.71875Z" fill="black"/>
<path fill-rule="evenodd" clip-rule="evenodd" d="M17.9954 16.7617C17.3004 16.7617 16.7344 17.3267 16.7344 18.0227C16.7344 18.7177 17.3004 19.2827 17.9954 19.2827C18.6894 19.2827 19.2554 18.7177 19.2554 18.0227C19.2554 17.3267 18.6894 16.7617 17.9954 16.7617Z" fill="black"/>
<path fill-rule="evenodd" clip-rule="evenodd" d="M17.9954 10.7422C17.3004 10.7422 16.7344 11.3072 16.7344 12.0032C16.7344 12.6982 17.3004 13.2642 17.9954 13.2642C18.6894 13.2642 19.2554 12.6982 19.2554 12.0032C19.2554 11.3072 18.6894 10.7422 17.9954 10.7422Z" fill="black"/>
<path fill-rule="evenodd" clip-rule="evenodd" d="M17.9954 7.23975C18.6894 7.23975 19.2554 6.67475 19.2554 5.97875C19.2554 5.28375 18.6894 4.71875 17.9954 4.71875C17.3004 4.71875 16.7344 5.28375 16.7344 5.97875C16.7344 6.67475 17.3004 7.23975 17.9954 7.23975Z" fill="black"/>
<path fill-rule="evenodd" clip-rule="evenodd" d="M6.00319 16.7617C5.30819 16.7617 4.74219 17.3267 4.74219 18.0227C4.74219 18.7177 5.30819 19.2827 6.00319 19.2827C6.69819 19.2827 7.26419 18.7177 7.26419 18.0227C7.26419 17.3267 6.69819 16.7617 6.00319 16.7617Z" fill="black"/>
<path fill-rule="evenodd" clip-rule="evenodd" d="M6.00319 10.7422C5.30819 10.7422 4.74219 11.3072 4.74219 12.0032C4.74219 12.6982 5.30819 13.2642 6.00319 13.2642C6.69819 13.2642 7.26419 12.6982 7.26419 12.0032C7.26419 11.3072 6.69819 10.7422 6.00319 10.7422Z" fill="black"/>
<path fill-rule="evenodd" clip-rule="evenodd" d="M6.00319 4.71875C5.30819 4.71875 4.74219 5.28375 4.74219 5.97975C4.74219 6.67475 5.30819 7.23975 6.00319 7.23975C6.69819 7.23975 7.26419 6.67475 7.26419 5.97975C7.26419 5.28375 6.69819 4.71875 6.00319 4.71875Z" fill="black"/>
</svg>
