<svg width="33" height="32" viewBox="0 0 33 32" fill="none" xmlns="http://www.w3.org/2000/svg">
<path fill-rule="evenodd" clip-rule="evenodd" d="M16.5 2C8.768 2 2.5 8.268 2.5 16C2.5 23.732 8.768 30 16.5 30C24.232 30 30.5 23.732 30.5 16C30.5 8.268 24.232 2 16.5 2ZM22.989 11.521C22.778 13.735 21.867 19.107 21.403 21.586C21.207 22.635 20.82 22.987 20.446 23.021C19.633 23.096 19.016 22.484 18.228 21.968C16.996 21.16 16.3 20.657 15.104 19.869C13.722 18.958 14.618 18.457 15.406 17.639C15.612 17.425 19.194 14.167 19.264 13.871C19.273 13.834 19.281 13.696 19.199 13.623C19.117 13.55 18.996 13.575 18.909 13.595C18.785 13.623 16.817 14.924 13.004 17.498C12.445 17.882 11.939 18.069 11.486 18.059C10.986 18.048 10.025 17.776 9.31 17.544C8.433 17.259 7.736 17.108 7.797 16.624C7.829 16.372 8.176 16.114 8.839 15.851C12.92 14.073 15.642 12.901 17.003 12.334C20.891 10.717 21.699 10.436 22.225 10.427C22.341 10.425 22.6 10.454 22.768 10.59C22.91 10.705 22.949 10.86 22.967 10.969C22.986 11.078 23.009 11.326 22.99 11.52L22.989 11.521Z" fill="black"/>
</svg>
