<svg width="33" height="32" viewBox="0 0 33 32" fill="none" xmlns="http://www.w3.org/2000/svg">
<path d="M16.5 2C12.7878 2 9.22437 3.47591 6.60156 6.10047C3.97604 8.72607 2.50073 12.2869 2.5 16C2.5 19.7115 3.97656 23.275 6.60156 25.8995C9.22437 28.5241 12.7878 30 16.5 30C20.2122 30 23.7756 28.5241 26.3984 25.8995C29.0234 23.275 30.5 19.7115 30.5 16C30.5 12.2885 29.0234 8.72503 26.3984 6.10047C23.7756 3.47591 20.2122 2 16.5 2Z" fill="url(#paint0_linear_2865_1394)"/>
<path d="M8.94343 15.8511C13.0253 14.0731 15.7466 12.9008 17.1072 12.3345C20.9966 10.7172 21.8037 10.4364 22.3309 10.4268C22.4469 10.425 22.705 10.4536 22.8734 10.5898C23.0134 10.7047 23.0528 10.86 23.0725 10.969C23.09 11.078 23.1141 11.3262 23.0944 11.52C22.8844 13.7338 21.9722 19.1059 21.5084 21.5854C21.3137 22.6345 20.9266 22.9863 20.5525 23.0206C19.7387 23.0954 19.1219 22.4834 18.3344 21.9673C17.1028 21.1595 16.4072 20.6568 15.2106 19.8686C13.8281 18.9578 14.725 18.457 15.5125 17.6389C15.7181 17.4248 19.3012 14.1665 19.3691 13.8709C19.3778 13.834 19.3866 13.6962 19.3034 13.6235C19.2225 13.5507 19.1022 13.5756 19.0147 13.5953C18.89 13.6233 16.9234 14.9245 13.1084 17.4985C12.5506 17.8822 12.0453 18.0692 11.5903 18.0594C11.0916 18.0486 10.1291 17.7767 9.41375 17.5444C8.53875 17.2594 7.84093 17.1087 7.90218 16.6246C7.93281 16.3726 8.28062 16.1147 8.94343 15.8511Z" fill="white"/>
<defs>
<linearGradient id="paint0_linear_2865_1394" x1="1402.5" y1="2" x2="1402.5" y2="2802" gradientUnits="userSpaceOnUse">
<stop stop-color="#2AABEE"/>
<stop offset="1" stop-color="#229ED9"/>
</linearGradient>
</defs>
</svg>
