<svg width="33" height="32" viewBox="0 0 33 32" fill="none" xmlns="http://www.w3.org/2000/svg">
<path d="M10.7016 2.09947C9.21163 2.16947 8.19463 2.40747 7.30563 2.75647C6.38563 3.11547 5.60563 3.59647 4.82863 4.37547C4.05263 5.15447 3.57463 5.93547 3.21863 6.85647C2.87363 7.74747 2.64063 8.76547 2.57463 10.2565C2.50863 11.7465 2.49463 12.2265 2.50163 16.0275C2.50863 19.8285 2.52563 20.3055 2.59763 21.7995C2.66863 23.2885 2.90563 24.3055 3.25463 25.1955C3.61363 26.1155 4.09463 26.8955 4.87363 27.6725C5.65263 28.4485 6.43263 28.9255 7.35663 29.2825C8.24663 29.6265 9.26563 29.8615 10.7556 29.9265C12.2456 29.9915 12.7256 30.0065 16.5266 29.9995C20.3276 29.9925 20.8056 29.9755 22.2996 29.9045C23.7936 29.8335 24.8046 29.5955 25.6946 29.2475C26.6146 28.8875 27.3956 28.4075 28.1716 27.6275C28.9476 26.8475 29.4256 26.0665 29.7806 25.1445C30.1256 24.2545 30.3596 23.2355 30.4246 21.7465C30.4896 20.2525 30.5056 19.7755 30.4976 15.9735C30.4896 12.1715 30.4736 11.6955 30.4026 10.2025C30.3316 8.70947 30.0946 7.69547 29.7456 6.80547C29.3856 5.88547 28.9056 5.10547 28.1266 4.32847C27.3476 3.55147 26.5656 3.07447 25.6436 2.71947C24.7526 2.37447 23.7346 2.13947 22.2446 2.07547C20.7546 2.01147 20.2746 1.99447 16.4726 2.00147C12.6706 2.00847 12.1946 2.02547 10.7016 2.09747M10.8656 27.4065C9.50063 27.3475 8.75963 27.1205 8.26563 26.9305C7.61163 26.6785 7.14563 26.3735 6.65363 25.8865C6.16163 25.3995 5.85863 24.9315 5.60363 24.2785C5.41163 23.7845 5.18063 23.0445 5.11663 21.6795C5.04763 20.2045 5.03263 19.7615 5.02463 16.0235C5.01663 12.2855 5.03063 11.8435 5.09563 10.3675C5.15363 9.00347 5.38163 8.26147 5.57163 7.76747C5.82363 7.11247 6.12763 6.64747 6.61563 6.15547C7.10363 5.66347 7.57063 5.36047 8.22363 5.10547C8.71663 4.91247 9.45763 4.68347 10.8216 4.61847C12.2976 4.54847 12.7406 4.53447 16.4776 4.52647C20.2146 4.51847 20.6586 4.53247 22.1356 4.59747C23.4996 4.65647 24.2416 4.88247 24.7346 5.07347C25.3886 5.32547 25.8546 5.62847 26.3466 6.11747C26.8386 6.60647 27.1416 7.07147 27.3976 7.72647C27.5906 8.21847 27.8196 8.95847 27.8836 10.3235C27.9536 11.7995 27.9696 12.2425 27.9766 15.9795C27.9836 19.7165 27.9706 20.1605 27.9056 21.6355C27.8456 23.0005 27.6196 23.7415 27.4296 24.2365C27.1776 24.8905 26.8736 25.3565 26.3846 25.8485C25.8956 26.3405 25.4296 26.6435 24.7766 26.8985C24.2836 27.0905 23.5426 27.3205 22.1796 27.3855C20.7036 27.4545 20.2606 27.4695 16.5226 27.4775C12.7846 27.4855 12.3416 27.4705 10.8656 27.4065ZM22.2786 8.51847C22.2806 9.44647 23.0336 10.1975 23.9616 10.1955C24.8896 10.1935 25.6406 9.44047 25.6386 8.51247C25.6366 7.58447 24.8836 6.83347 23.9556 6.83547C23.0276 6.83747 22.2776 7.59047 22.2786 8.51847ZM9.31163 16.0145C9.31963 19.9845 12.5436 23.1965 16.5136 23.1885C20.4836 23.1805 23.6966 19.9565 23.6896 15.9865C23.6816 12.0165 20.4566 8.80347 16.4866 8.81147C12.5166 8.81947 9.30363 12.0445 9.31163 16.0145ZM11.8346 16.0095C11.8296 13.4325 13.9146 11.3385 16.4926 11.3335C19.0696 11.3285 21.1636 13.4135 21.1686 15.9915C21.1736 18.5685 19.0886 20.6625 16.5106 20.6675C13.9336 20.6725 11.8396 18.5885 11.8346 16.0115" fill="black"/>
</svg>
