<svg width="73" height="40" viewBox="0 0 73 40" fill="none" xmlns="http://www.w3.org/2000/svg">
<rect x="0.953125" width="71.3333" height="40" rx="11.1111" fill="white" fill-opacity="0.3"/>
<g clip-path="url(#clip0_3078_5110)">
<mask id="mask0_3078_5110" style="mask-type:luminance" maskUnits="userSpaceOnUse" x="4" y="-7" width="65" height="55">
<path d="M68.1978 -6.00098H4.14062V47.0825H68.1978V-6.00098Z" fill="white"/>
</mask>
<g mask="url(#mask0_3078_5110)">
<path fill-rule="evenodd" clip-rule="evenodd" d="M18.0234 9.89013H29.2042V8.0791H18.0234V9.89013ZM49.5046 25.9489C47.8673 25.9489 46.7339 24.4321 46.5378 22.4219C47.035 20.7059 48.1375 19.8511 49.4412 19.8511C51.1171 19.8511 52.0629 21.098 52.0629 22.8704C52.0629 24.7724 50.9855 25.9489 49.5046 25.9489ZM49.9147 18.1901C48.2615 18.1901 47.079 18.9608 46.482 20.102C46.482 17.4062 47.4152 15.0577 49.6314 15.0577C51.0405 15.0577 51.5998 15.8746 51.8987 17.2133L53.9509 16.7999C53.4681 14.4883 52.0096 13.3646 49.6462 13.3646C46.6765 13.3646 44.4544 15.6614 44.4544 20.8092C44.4544 25.3789 46.3069 27.6375 49.4996 27.6375C52.1376 27.6375 54.1132 25.8232 54.1132 22.8333C54.1132 20.4974 52.877 18.1901 49.9147 18.1901ZM27.1077 13.5122V23.0743H27.1069C27.1069 23.9208 27.1263 24.4325 27.1654 24.9248H27.1263C26.9212 24.3611 26.6789 23.8673 26.3176 23.2246L20.7038 13.5122H18.1378V27.4899H20.1372V17.9276H20.1382C20.1382 17.0811 20.1186 16.5694 20.0796 16.0771H20.1186C20.3237 16.6407 20.566 17.1344 20.9273 17.7769L26.5415 27.4899H29.0808V13.5122H27.1077ZM29.2042 32.9138H18.0234V31.1119H29.2042V32.9138ZM38.5876 23.0743C37.9231 23.7437 36.4255 24.9523 35.3805 25.6789H41.6494V27.4899H32.4243V25.8362C33.4933 25.0674 35.7134 23.3971 37.1029 21.9973C38.4328 20.6575 39.3035 19.4332 39.3035 17.6366C39.3035 15.8689 38.3396 15.1337 37.0369 15.1337C35.7011 15.1337 34.6341 15.9112 34.6341 17.535C34.6341 17.8896 34.6731 18.283 34.7709 18.736L32.6753 18.5313C32.5777 18.1375 32.5385 17.7833 32.5385 17.429C32.5385 15.2605 34.0478 13.3647 37.1059 13.3647C39.6279 13.3647 41.4932 14.6844 41.4932 17.5676C41.4932 20.1899 39.5926 22.0762 38.7375 22.9249C38.683 22.9789 38.6329 23.0287 38.5876 23.0743Z" fill="white"/>
</g>
</g>
<defs>
<clipPath id="clip0_3078_5110">
<rect width="38" height="26" fill="white" transform="translate(17.6172 7)"/>
</clipPath>
</defs>
</svg>
