<svg width="103" height="40" viewBox="0 0 103 40" fill="none" xmlns="http://www.w3.org/2000/svg">
<rect x="0.617188" width="102.333" height="40" rx="11.1111" fill="white" fill-opacity="0.3"/>
<path fill-rule="evenodd" clip-rule="evenodd" d="M64.3434 12H67.0523V27.8656H64.3434V12ZM86.2812 18.6842V16.2222H83.48V13.0122H80.7712V24.7149C80.7712 25.7902 81.0289 26.6097 81.5371 27.1506C82.0449 27.692 82.8365 27.9664 83.8897 27.9664H86.2812V25.5044H84.5313C84.1507 25.5044 83.8778 25.4166 83.7196 25.2431C83.5743 25.0844 83.48 24.6834 83.48 24.2217V18.6842H86.2812ZM45.9422 24.7775L48.7431 16.2219H51.5891L47.5456 27.8658H44.3387L40.2953 16.2219H43.1412L45.9422 24.7775ZM76.3557 22.0549C76.3557 22.7921 76.249 23.4334 76.0395 23.961C75.8313 24.4858 75.5331 24.8881 75.153 25.1564C74.7729 25.4247 74.3057 25.5609 73.7641 25.5609C72.9896 25.5609 72.4051 25.2936 72.0274 24.7669C71.6454 24.2346 71.4515 23.4279 71.4515 22.3693V16.2222H68.7427V22.6835C68.7427 23.6896 68.8623 24.543 69.099 25.2196C69.3357 25.8982 69.6611 26.4503 70.0655 26.8601C70.4699 27.2695 70.9419 27.5651 71.4687 27.7392C71.9926 27.9123 72.5566 28 73.1444 28C73.9913 28 74.6924 27.8388 75.2273 27.5207C75.7151 27.2298 76.1242 26.8896 76.4443 26.5082L76.6868 27.8656H79.0646V16.2222H76.3557V22.0549ZM60.2023 16.8362C59.3486 16.3394 58.3349 16.0876 57.1897 16.0876C56.0585 16.0876 55.0485 16.3394 54.1877 16.8361C53.326 17.334 52.6488 18.0373 52.1751 18.9262C51.702 19.8144 51.4622 20.8671 51.4622 22.0549C51.4622 23.2282 51.702 24.2736 52.1751 25.1617C52.6485 26.0504 53.3258 26.7535 54.1877 27.2514C55.0485 27.7481 56.0585 27.9999 57.1897 27.9999C58.3348 27.9999 59.3486 27.7481 60.2023 27.2513C61.0569 26.7536 61.7305 26.0505 62.2041 25.1617C62.6773 24.2731 62.9172 23.2277 62.9172 22.0549C62.9172 20.8675 62.6773 19.8148 62.2041 18.9262C61.7302 18.0371 61.0568 17.3338 60.2023 16.8362ZM58.7711 25.1558C58.3347 25.4541 57.8027 25.6054 57.1898 25.6054C56.591 25.6054 56.0624 25.4541 55.6186 25.1557C55.1741 24.8568 54.8255 24.4352 54.5823 23.9021C54.338 23.3685 54.214 22.7471 54.214 22.0549C54.214 21.3485 54.3379 20.7236 54.5823 20.1973C54.8254 19.6714 55.1743 19.2495 55.6192 18.9432C56.0628 18.6372 56.5913 18.4821 57.1898 18.4821C57.8023 18.4821 58.3341 18.6372 58.7707 18.9429C59.2084 19.2494 59.5539 19.6714 59.7976 20.1974C60.0417 20.725 60.1655 21.35 60.1655 22.055C60.1655 22.7456 60.0417 23.3671 59.7976 23.9021C59.5539 24.4353 59.2086 24.857 58.7711 25.1558ZM20.0966 15.9156H17.2812V27.8658H20.0966V15.9156ZM28.9252 16.5989C28.9252 14.0632 26.9581 12.0002 24.5401 12.0002H17.2812V14.5522H24.195C25.2893 14.5522 26.1957 15.4546 26.2158 16.5638C26.2258 17.1191 26.0272 17.6433 25.6566 18.0396C25.286 18.4361 24.7907 18.6546 24.2621 18.6546H21.5688C21.4732 18.6546 21.3954 18.7362 21.3954 18.8366V21.1047C21.3954 21.1433 21.4067 21.1802 21.4281 21.2112L25.9976 27.8658H29.3425L24.7624 21.193C27.069 21.0715 28.9252 19.0371 28.9252 16.5989ZM37.5821 16.7685C36.7711 16.3166 35.8082 16.0876 34.72 16.0876C33.6305 16.0876 32.6564 16.3395 31.8246 16.8365C30.9915 17.3341 30.3361 18.0374 29.8766 18.9268C29.4177 19.8142 29.185 20.8743 29.185 22.0777C29.185 23.2505 29.4212 24.2956 29.8874 25.1839C30.3546 26.0742 31.0284 26.7737 31.8899 27.2628C32.7497 27.752 33.7812 28 34.9552 28C35.8866 28 36.723 27.8169 37.4412 27.4553C38.1595 27.0929 38.746 26.5993 39.1843 25.9882C39.6007 25.4075 39.8817 24.7507 40.0191 24.0361L40.0339 23.9599H37.3399L37.3272 24.0057C37.1788 24.5387 36.8911 24.9598 36.4715 25.2576C36.0212 25.5778 35.4681 25.7403 34.8273 25.7403C34.2842 25.7403 33.7937 25.6181 33.3695 25.3772C32.9474 25.1377 32.6174 24.7952 32.3888 24.3589C32.1593 23.9211 32.0287 23.3942 32.0008 22.7962V22.7027H40.1383L40.1474 22.6505C40.1758 22.4866 40.194 22.3177 40.2019 22.1479C40.2087 21.9824 40.2126 21.817 40.2126 21.6502C40.198 20.522 39.9578 19.5297 39.4987 18.7006C39.0378 17.8704 38.3929 17.2203 37.5821 16.7685ZM36.595 18.9612C37.0578 19.3701 37.3457 19.9511 37.4513 20.6894H32.0943C32.1555 20.2104 32.3071 19.7955 32.5451 19.4552C32.7948 19.0983 33.1146 18.8179 33.4959 18.6217C33.8776 18.4249 34.2967 18.325 34.7414 18.325C35.4931 18.3249 36.1167 18.539 36.595 18.9612Z" fill="white"/>
</svg>
