<svg width="87" height="40" viewBox="0 0 87 40" fill="none" xmlns="http://www.w3.org/2000/svg">
<rect x="0.953125" width="85.3333" height="40" rx="11.1111" fill="white"/>
<path d="M18.1094 16.7726C18.1094 16.4931 18.2483 16.3497 18.2483 16.0702C18.519 14.3861 19.1991 13.6838 20.6985 13.4044C22.6001 12.9814 24.509 12.9814 26.4106 13.2609C28.3122 13.5403 29.1313 14.6655 29.1313 16.4931V17.339H25.8694V17.1955C25.7304 15.9343 25.4598 15.7908 24.2384 15.7908H22.878C22.0588 15.9343 21.6566 16.2137 21.6566 17.1955C21.6566 18.0413 21.9272 18.4567 22.878 18.4567C23.6971 18.4567 24.509 18.4567 25.3281 18.6002L27.7783 19.0231C28.868 19.3025 29.4093 20.1483 29.5482 21.2736C29.5482 22.2553 29.5482 23.3806 29.4093 24.3624C29.2703 25.4876 28.5901 26.1899 27.6393 26.4694C26.8202 26.7488 26.14 26.8923 25.3281 27.0282H22.878C22.0588 26.8847 21.247 26.8847 20.4279 26.7488C19.2065 26.4694 18.3873 25.6235 18.2483 24.3624C18.2483 24.2189 18.1094 23.9394 18.1094 23.8035V22.5348H21.3713C21.5103 23.7959 21.7809 24.2189 22.5928 24.2189H25.0429C25.862 24.2189 26.1327 23.66 26.1327 22.8142C26.1327 21.9684 25.7231 21.553 25.0429 21.553C23.8215 21.4095 22.4611 21.2736 21.2324 21.1301C19.4624 20.9866 18.6506 20.1483 18.3727 18.3207C18.3727 18.1772 18.2337 18.0413 18.2337 17.8978C18.1094 17.4749 18.1094 17.1955 18.1094 16.7726ZM44.4977 27.0282V13.6838C44.4977 13.1249 44.6367 12.9814 45.1779 12.9814C47.489 12.9814 49.8002 12.9814 52.1187 13.1249C54.5688 13.2684 55.7902 14.5296 55.9292 17.0595C56.0682 18.1848 55.9292 19.31 55.7903 20.4277C55.5196 22.1118 54.2909 23.2371 52.5283 23.2371H47.8986V26.8923C46.8089 27.0282 45.5875 27.0282 44.4977 27.0282ZM47.8986 20.1483H51.0289C51.8481 20.1483 52.1187 19.7254 52.1187 18.8871V17.4825C52.1187 16.5007 51.7091 16.0778 50.7583 15.9343H48.3082C48.1692 15.9343 47.8986 16.2137 47.8986 16.2137V20.1483ZM54.4299 27.0282C55.249 24.0754 56.1998 20.9866 57.0117 18.0413C57.5529 16.3572 57.9625 14.6731 58.511 12.9814H63.6819C63.8208 12.9814 64.0915 13.2609 64.0915 13.4044L67.763 26.0465C67.902 26.3259 68.0336 26.7488 68.1726 27.0282H64.4937C64.2231 26.3259 64.0841 25.6235 63.8135 24.9212C63.6746 24.7777 63.5429 24.4983 63.404 24.4983H59.0522C58.9133 24.4983 58.6427 24.6418 58.6427 24.7777C58.372 25.4801 58.2331 26.3259 58.0941 27.0282H54.4299ZM61.3707 15.9343H61.2317C60.6905 17.8978 60.142 20.0048 59.6008 21.9759H63.1407C62.5921 19.8613 61.9119 17.8978 61.3707 15.9343Z" fill="#5F9AC5"/>
<path d="M40.0098 24.7729C37.8303 24.7729 36.1993 23.7911 35.5191 22.243H40.4194L40.9606 20.6948H34.9706V19.5771L41.0923 19.8565L41.7724 18.0365H35.2412C35.9214 16.073 37.6913 15.0836 40.0025 15.0836C40.9826 15.0761 41.948 15.2724 42.8622 15.6425L43.4034 13.679C42.8622 13.3995 41.6335 13.1201 39.8635 13.1201C36.192 13.1201 33.3323 14.9477 32.3815 18.18H30.7505L30.0703 19.7281H32.1109V20.9818H30.8895L30.0703 22.5299H32.3815C33.2079 25.3393 35.797 27.0234 39.4686 27.0234C41.2385 27.0234 42.5989 26.744 43.1401 26.457L42.7306 24.4935C42.1893 24.637 41.0996 24.7804 40.0098 24.7729Z" fill="#5F9AC5"/>
</svg>
