<svg width="54" height="21" viewBox="0 0 54 21" fill="none" xmlns="http://www.w3.org/2000/svg">
<path d="M25.3912 10.1462V16.0429H23.4453V1.48145H28.6038C29.9112 1.48145 31.026 1.90055 31.9381 2.73876C32.8705 3.57697 33.3367 4.60036 33.3367 5.80894C33.3367 7.04675 32.8705 8.07014 31.9381 8.89861C31.0362 9.72707 29.9214 10.1364 28.6038 10.1364H25.3912V10.1462ZM25.3912 3.27482V8.3528H28.6444C29.4146 8.3528 30.0632 8.09939 30.57 7.60231C31.0868 7.10523 31.3503 6.50094 31.3503 5.81868C31.3503 5.14617 31.0868 4.55163 30.57 4.05455C30.0632 3.53798 29.4248 3.28457 28.6444 3.28457H25.3912V3.27482Z" fill="#3C4043"/>
<path d="M38.4263 5.75098C39.8654 5.75098 41.0005 6.12135 41.8316 6.86209C42.6626 7.60283 43.0781 8.61648 43.0781 9.90303V16.0434H41.2235V14.6594H41.1424C40.3418 15.7997 39.2675 16.365 37.9297 16.365C36.7845 16.365 35.8318 16.0434 35.0616 15.3904C34.2914 14.7373 33.9062 13.9284 33.9062 12.9537C33.9062 11.9206 34.3116 11.1019 35.1224 10.4976C35.9332 9.88353 37.0176 9.58139 38.3655 9.58139C39.5209 9.58139 40.4735 9.78607 41.2133 10.1954V9.76657C41.2133 9.11355 40.9498 8.56774 40.4127 8.10965C39.8756 7.65156 39.2472 7.42739 38.5277 7.42739C37.4433 7.42739 36.5818 7.86599 35.9535 8.75293L34.2407 7.71979C35.1832 6.404 36.5818 5.75098 38.4263 5.75098ZM35.9129 12.983C35.9129 13.4703 36.1257 13.8796 36.5615 14.2013C36.9872 14.5229 37.4939 14.6886 38.0716 14.6886C38.8925 14.6886 39.6222 14.3962 40.2607 13.8114C40.8992 13.2266 41.2235 12.5444 41.2235 11.7549C40.6154 11.2968 39.7742 11.0629 38.6898 11.0629C37.8993 11.0629 37.2406 11.2481 36.7136 11.6087C36.1764 11.9888 35.9129 12.4469 35.9129 12.983Z" fill="#3C4043"/>
<path d="M53.6545 6.07324L47.1683 20.4202H45.1617L47.5737 15.4007L43.2969 6.07324H45.415L48.4959 13.2272H48.5365L51.5363 6.07324H53.6545Z" fill="#3C4043"/>
<path d="M17.6545 8.95751C17.6545 8.34737 17.5977 7.76355 17.4923 7.20215H9.33594V10.4185L14.0334 10.4195C13.8428 11.4897 13.2297 12.402 12.2902 13.0101V15.0969H15.0863C16.719 13.6437 17.6545 11.4955 17.6545 8.95751Z" fill="#4285F4"/>
<path d="M12.2905 13.0105C11.5121 13.5153 10.5098 13.8107 9.33721 13.8107C7.07212 13.8107 5.15059 12.3428 4.46245 10.3643H1.57812V12.5163C3.00711 15.2434 5.94413 17.1148 9.33721 17.1148C11.6824 17.1148 13.6525 16.373 15.0866 15.0962L12.2905 13.0105Z" fill="#34A853"/>
<path d="M4.19223 8.76807C4.19223 8.21251 4.28851 7.67548 4.46384 7.1706V5.01855H1.57952C0.988665 6.14624 0.65625 7.41914 0.65625 8.76807C0.65625 10.117 0.989679 11.3899 1.57952 12.5176L4.46384 10.3655C4.28851 9.86067 4.19223 9.32363 4.19223 8.76807Z" fill="#FABB05"/>
<path d="M9.33722 3.72402C10.6172 3.72402 11.7635 4.148 12.6685 4.97646L15.1464 2.59536C13.6414 1.24741 11.6793 0.419922 9.33722 0.419922C5.94515 0.419922 3.00711 2.29127 1.57812 5.01837L4.46245 7.17042C5.15059 5.19186 7.07212 3.72402 9.33722 3.72402Z" fill="#E94235"/>
</svg>
