<svg width="46" height="21" viewBox="0 0 46 21" fill="none" xmlns="http://www.w3.org/2000/svg">
<path d="M8.52305 3.35039C9.05392 2.68639 9.41416 1.79484 9.31914 0.883789C8.54204 0.92243 7.59373 1.39647 7.0447 2.06099C6.55173 2.63004 6.11542 3.55892 6.22917 4.43178C7.10151 4.50745 7.97305 3.99575 8.52305 3.35039Z" fill="black"/>
<path d="M9.30805 4.60271C8.04119 4.52725 6.96406 5.32171 6.35907 5.32171C5.75375 5.32171 4.82732 4.64074 3.82531 4.65909C2.52112 4.67825 1.31099 5.41564 0.649176 6.58845C-0.71207 8.93463 0.289943 12.4148 1.61368 14.3257C2.25652 15.271 3.03125 16.3119 4.05207 16.2745C5.01658 16.2367 5.39463 15.65 6.56703 15.65C7.73857 15.65 8.07911 16.2745 9.1001 16.2556C10.1589 16.2367 10.8208 15.3098 11.4637 14.3635C12.2011 13.2859 12.503 12.2453 12.522 12.1882C12.503 12.1693 10.4803 11.3933 10.4616 9.06665C10.4425 7.11848 12.0496 6.19182 12.1252 6.13436C11.2177 4.79209 9.79965 4.64074 9.30805 4.60271Z" fill="black"/>
<path d="M20.3359 1.96582C23.0894 1.96582 25.0068 3.86382 25.0068 6.62717C25.0068 9.40038 23.05 11.3082 20.2669 11.3082H17.2183V16.1564H15.0156V1.96582H20.3359V1.96582ZM17.2183 9.45937H19.7456C21.6634 9.45937 22.7548 8.42691 22.7548 6.63703C22.7548 4.84734 21.6634 3.82456 19.7555 3.82456H17.2183V9.45937Z" fill="black"/>
<path d="M25.5781 13.216C25.5781 11.4064 26.9647 10.2952 29.4234 10.1575L32.2555 9.99041V9.19392C32.2555 8.04328 31.4785 7.35491 30.1807 7.35491C28.9511 7.35491 28.184 7.94484 27.9974 8.86936H25.9913C26.1092 7.00077 27.7022 5.62402 30.2592 5.62402C32.7668 5.62402 34.3697 6.95164 34.3697 9.02662V16.1563H32.334V14.4551H32.285C31.6853 15.6057 30.3772 16.3333 29.0202 16.3333C26.9943 16.3333 25.5781 15.0746 25.5781 13.216ZM32.2555 12.2818V11.4656L29.7084 11.6229C28.4397 11.7114 27.722 12.272 27.722 13.157C27.722 14.0616 28.4693 14.6518 29.6101 14.6518C31.095 14.6518 32.2555 13.629 32.2555 12.2818Z" fill="black"/>
<path d="M36.2962 19.9619V18.2409C36.4533 18.2801 36.8072 18.2801 36.9844 18.2801C37.9677 18.2801 38.4989 17.8672 38.8232 16.8051C38.8232 16.7854 39.0103 16.1758 39.0103 16.1659L35.2734 5.81055H37.5743L40.1905 14.2286H40.2296L42.8457 5.81055H45.0878L41.2129 16.6968C40.3282 19.2047 39.3054 20.011 37.1616 20.011C36.9844 20.011 36.4533 19.9913 36.2962 19.9619Z" fill="black"/>
</svg>
