<svg width="106" height="40" viewBox="0 0 106 40" fill="none" xmlns="http://www.w3.org/2000/svg">
<rect x="0.289062" width="105.333" height="40" rx="11.1111" fill="white" fill-opacity="0.3"/>
<path d="M56.8793 12.2618H61.1962L59.0244 27.7535H54.7076L56.8793 12.2618ZM51.4369 12.2618L48.5237 21.186L47.2524 12.2618H44.2333L40.4196 21.1595L39.9429 12.2618H35.7584L37.2151 27.7535H40.6845L44.9748 17.9553L46.4845 27.7535H49.9008L55.5419 12.2618H51.4369ZM87.68 21.2654H77.4307C77.4837 23.2782 78.6888 24.6022 80.4631 24.6022C81.8006 24.6022 82.8599 23.8872 83.681 22.5234L87.141 24.0964C85.952 26.4387 83.4465 27.9653 80.3572 27.9653C76.1463 27.9653 73.3522 25.1318 73.3522 20.577C73.3522 15.572 76.6362 12.0234 81.2709 12.0234C85.3493 12.0234 87.9183 14.7775 87.9183 19.0675C87.9183 19.7826 87.8389 20.4976 87.68 21.2654ZM83.8399 18.2996C83.8399 16.4988 82.8335 15.3601 81.2179 15.3601C79.6025 15.3601 78.1723 16.5518 77.8016 18.2996H83.8399ZM22.2663 16.9305L17.8594 22.0799H25.7277L26.6123 19.6514H23.2409L25.3013 17.2694L25.308 17.2059L23.9679 14.9007H29.9943L25.3225 27.7535H28.5191L34.1602 12.2618H19.5861L22.265 16.9305H22.2663ZM68.2144 15.3601C69.7371 15.3601 71.072 16.1784 72.2372 17.5819L72.8491 13.2151C71.7631 12.4802 70.2934 12.0234 68.3468 12.0234C64.4802 12.0234 62.3085 14.2876 62.3085 17.1609C62.3085 19.1536 63.4208 20.3717 65.2482 21.1595L66.1222 21.5568C67.7509 22.252 68.1879 22.5962 68.1879 23.3311C68.1879 24.066 67.453 24.5757 66.334 24.5757C64.4867 24.5823 62.9905 23.6356 61.8649 22.0202L61.2412 26.4705C62.5231 27.4477 64.1664 27.9653 66.334 27.9653C70.0086 27.9653 72.2664 25.8468 72.2664 22.9073C72.2664 20.908 71.3792 19.6237 69.1413 18.6174L68.1879 18.1672C66.8636 17.578 66.4135 17.2536 66.4135 16.6048C66.4135 15.903 67.0292 15.3601 68.2144 15.3601Z" fill="white"/>
</svg>
