<svg width="142" height="32" viewBox="0 0 142 32" fill="none" xmlns="http://www.w3.org/2000/svg">
<g clip-path="url(#clip0_2999_2202)">
<path fill-rule="evenodd" clip-rule="evenodd" d="M6.31814 19.8817C6.31814 20.1531 6.53837 20.3732 6.80994 20.3732H11.6445C11.9161 20.3732 12.1363 20.1531 12.1363 19.8817V17.4662H14.5536C14.8251 17.4662 15.0454 17.2461 15.0454 16.9747V15.0506C15.0454 14.7792 14.8251 14.5592 14.5536 14.5592H6.80994C6.53837 14.5592 6.31814 14.7792 6.31814 15.0506V19.8817ZM6.31814 9.21996C6.31814 8.94858 6.09792 8.72852 5.82635 8.72852H0.991792C0.720223 8.72852 0.5 8.94858 0.5 9.21996V14.0511C0.5 14.3225 0.720223 14.5425 0.991792 14.5425H2.91728C3.18885 14.5425 3.40907 14.3225 3.40907 14.0511V11.6355H5.82635C6.09792 11.6355 6.31814 11.4155 6.31814 11.1441V9.21996ZM9.22722 26.6619C9.22722 26.3905 9.00699 26.1705 8.73542 26.1705H6.80994C6.53837 26.1705 6.31814 26.3905 6.31814 26.6619V28.586C6.31814 28.8574 6.53837 29.0775 6.80994 29.0775H8.73542C9.00699 29.0775 9.22722 28.8574 9.22722 28.586V26.6619ZM43.6443 8.72852H38.8097C38.5382 8.72852 38.3179 8.94858 38.3179 9.21996V11.1441C38.3179 11.4155 38.5382 11.6355 38.8097 11.6355H41.227V14.0511C41.227 14.3225 41.4472 14.5425 41.7188 14.5425H43.6443C43.9159 14.5425 44.1361 14.3225 44.1361 14.0511V9.21996C44.1361 8.94858 43.9159 8.72852 43.6443 8.72852ZM37.8261 14.5425H30.0825C29.8109 14.5425 29.5907 14.7626 29.5907 15.034V16.9581C29.5907 17.2294 29.8109 17.4495 30.0825 17.4495H32.4998V19.8651C32.4998 20.1364 32.72 20.3565 32.9916 20.3565H37.8261C38.0977 20.3565 38.3179 20.1364 38.3179 19.8651V15.034C38.3179 14.7626 38.0977 14.5425 37.8261 14.5425ZM34.9171 29.0941H32.4998V26.6786C32.4998 26.4072 32.2796 26.1871 32.008 26.1871H29.5907V20.8646C29.5907 20.5932 29.3705 20.3732 29.0989 20.3732H26.6817V15.0506C26.6817 14.7792 26.4614 14.5592 26.1899 14.5592H18.4462C18.1747 14.5592 17.9544 14.7792 17.9544 15.0506V20.3732H15.5372C15.2655 20.3732 15.0454 20.5932 15.0454 20.8646V26.1871H12.6281C12.3565 26.1871 12.1363 26.4072 12.1363 26.6786V29.0941H9.71901C9.44744 29.0941 9.22722 29.3142 9.22722 29.5856V31.5097C9.22722 31.7811 9.44744 32.0011 9.71901 32.0011H14.5536C14.8251 32.0011 15.0454 31.7811 15.0454 31.5097V29.0941H17.4626C17.7342 29.0941 17.9544 28.8741 17.9544 28.6027V23.2801H26.6817V28.6027C26.6817 28.8741 26.9019 29.0941 27.1734 29.0941H29.5907V31.5097C29.5907 31.7811 29.8109 32.0011 30.0825 32.0011H34.9171C35.1886 32.0011 35.4089 31.7811 35.4089 31.5097V29.5856C35.4089 29.3142 35.1886 29.0941 34.9171 29.0941ZM37.8261 26.1705H35.9007C35.6291 26.1705 35.4089 26.3905 35.4089 26.6619V28.586C35.4089 28.8574 35.6291 29.0775 35.9007 29.0775H37.8261C38.0977 29.0775 38.3179 28.8574 38.3179 28.586V26.6619C38.3179 26.3905 38.0977 26.1705 37.8261 26.1705Z" fill="#001133"/>
<path fill-rule="evenodd" clip-rule="evenodd" d="M12.6246 8.72722H32.0046C32.2761 8.72722 32.4963 8.507 32.4963 8.23543V6.30994C32.4963 6.03828 32.2761 5.81815 32.0046 5.81815H29.5873V3.40086C29.5873 3.1293 29.3671 2.90907 29.0955 2.90907H26.6782V0.491792C26.6782 0.220223 26.458 0 26.1864 0H18.4428C18.1712 0 17.951 0.220223 17.951 0.491792V2.90907H15.5337C15.2621 2.90907 15.0419 3.1293 15.0419 3.40086V5.81815H12.6246C12.3531 5.81815 12.1328 6.03828 12.1328 6.30994V8.23543C12.1328 8.507 12.3531 8.72722 12.6246 8.72722Z" fill="#001133"/>
<path fill-rule="evenodd" clip-rule="evenodd" d="M94.3563 14.2518C92.8259 14.2518 91.4433 14.8814 90.4706 15.891C89.5202 14.8775 88.1665 14.244 86.6662 14.244C85.8244 14.244 84.9655 14.5522 84.3032 14.9976V14.85C84.3032 14.6371 84.1264 14.4752 83.9208 14.4752H81.7866C81.5824 14.4752 81.4043 14.6371 81.4043 14.85V25.4822C81.4043 25.6951 81.5811 25.857 81.7866 25.857H83.926C84.1303 25.857 84.3083 25.6951 84.3083 25.4822V19.4451C84.3083 18.1442 85.3648 17.0914 86.6662 17.0914C87.9688 17.0914 89.0241 18.1455 89.0241 19.4451V25.4822C89.0241 25.6951 89.2007 25.857 89.4063 25.857H91.4957C91.5009 25.857 91.5049 25.857 91.5075 25.857H91.5546C91.7588 25.857 91.9369 25.6951 91.9369 25.4822V19.449C91.9369 18.1546 93.0157 17.0966 94.3563 17.0966C95.6968 17.0966 96.7756 18.1546 96.7756 19.449V25.4809C96.7756 25.6938 96.9523 25.8557 97.1579 25.8557H99.305C99.5106 25.8557 99.6872 25.6938 99.6872 25.4809V19.449C99.6859 16.5742 97.2953 14.2518 94.3563 14.2518ZM110.362 19.9623C109.547 19.4673 108.501 19.2296 107.589 19.0232L107.571 19.0193C106.909 18.8691 106.327 18.7359 105.908 18.5399C105.493 18.3466 105.305 18.1246 105.305 17.8189C105.305 17.5551 105.404 17.3213 105.64 17.1371C105.882 16.9477 106.283 16.8014 106.902 16.7649C107.957 16.7649 108.774 16.7897 109.327 16.8145C109.604 16.8263 109.815 16.8393 109.955 16.8485C110.026 16.8537 110.079 16.8563 110.115 16.8589C110.133 16.8602 110.146 16.8615 110.154 16.8615L110.163 16.8628H110.166L110.175 16.8641H110.184C110.348 16.8641 110.497 16.8328 110.599 16.727C110.689 16.6329 110.708 16.5128 110.716 16.454C110.716 16.4501 110.717 16.4462 110.717 16.4436C110.721 16.4187 110.724 16.4004 110.727 16.3835L110.733 16.3613V15.0512C110.733 14.8918 110.722 14.7455 110.661 14.6332C110.585 14.4935 110.458 14.449 110.356 14.4268L110.346 14.4255L110.337 14.4242H110.333L110.323 14.4229C110.314 14.4216 110.301 14.4203 110.284 14.419C110.248 14.4151 110.196 14.4099 110.127 14.4033C109.986 14.3903 109.777 14.3733 109.494 14.3563C108.929 14.3223 108.07 14.2884 106.894 14.2884H106.89H106.886C105.381 14.3446 104.239 14.7625 103.471 15.4234C102.7 16.0857 102.32 16.9791 102.32 17.9456C102.32 18.5817 102.467 19.1029 102.726 19.5326C102.984 19.961 103.346 20.2863 103.76 20.541C104.576 21.0412 105.62 21.2829 106.53 21.4932L106.549 21.4971C107.212 21.6499 107.795 21.7857 108.214 21.9843C108.628 22.1802 108.82 22.4062 108.82 22.721C108.82 22.9835 108.698 23.2173 108.404 23.3962C108.097 23.5817 107.601 23.7058 106.871 23.7058C106.041 23.7058 105.135 23.617 104.433 23.5269C104.082 23.4825 103.785 23.4367 103.574 23.4028C103.469 23.3858 103.386 23.3714 103.329 23.3623C103.314 23.3597 103.3 23.3571 103.289 23.3558C103.28 23.3544 103.27 23.3531 103.264 23.3518L103.248 23.3492L103.243 23.3479L103.225 23.344H103.206C103.057 23.344 102.916 23.3714 102.816 23.472C102.728 23.5595 102.709 23.6758 102.701 23.7293C102.7 23.7332 102.7 23.7372 102.7 23.7398C102.694 23.7685 102.69 23.7868 102.686 23.8051L102.681 23.826L102.599 25.3045V25.3098C102.599 25.4064 102.613 25.5214 102.666 25.6246C102.719 25.7343 102.816 25.8322 102.964 25.8701L102.969 25.8714L102.975 25.8727L102.981 25.8388C102.975 25.8727 102.975 25.8727 102.975 25.8727L102.98 25.874C102.982 25.8753 102.988 25.8753 102.994 25.8766C103.006 25.8793 103.024 25.8819 103.048 25.8871C103.095 25.8962 103.163 25.908 103.253 25.9224C103.434 25.9511 103.697 25.989 104.038 26.0282C104.716 26.1052 105.695 26.181 106.899 26.181H106.909C107.057 26.1823 108.26 26.1914 109.434 25.7512C110.023 25.5305 110.617 25.1922 111.065 24.6724C111.517 24.1486 111.809 23.4498 111.809 22.5329C111.809 21.9033 111.661 21.3861 111.402 20.9603C111.14 20.5344 110.777 20.2131 110.362 19.9623ZM134.489 14.4817C133.294 14.4817 132.177 14.8174 131.239 15.3986V10.5272C131.239 10.3143 131.062 10.1523 130.856 10.1523H128.714C128.51 10.1523 128.332 10.3143 128.332 10.5272V25.4848C128.332 25.6977 128.509 25.8597 128.714 25.8597H130.856C131.061 25.8597 131.239 25.6977 131.239 25.4848V24.9871C132.124 25.6768 133.297 26.1797 134.489 26.1797C137.822 26.1797 140.535 23.5673 140.535 20.3307C140.535 17.094 137.822 14.4817 134.489 14.4817ZM134.489 23.3558C132.761 23.3558 131.359 22.0013 131.359 20.3307C131.359 18.6601 132.76 17.3056 134.489 17.3056C136.217 17.3056 137.619 18.6601 137.619 20.3307C137.619 22.0013 136.219 23.3558 134.489 23.3558ZM125.037 14.4817H122.89C122.684 14.4817 122.507 14.6437 122.507 14.8566V21.0399C122.507 22.316 121.431 23.3623 120.088 23.3623C120.082 23.3623 120.076 23.3623 120.07 23.3623C120.063 23.3623 120.058 23.3623 120.051 23.3623C118.708 23.3623 117.632 22.316 117.632 21.0399V14.8566C117.632 14.6437 117.455 14.4817 117.25 14.4817H115.103C114.897 14.4817 114.72 14.6437 114.72 14.8566V21.0399C114.72 23.8847 117.114 26.1784 120.051 26.1784C120.058 26.1784 120.063 26.1784 120.07 26.1784C120.076 26.1784 120.082 26.1784 120.088 26.1784C123.025 26.1784 125.419 23.8847 125.419 21.0399V14.8566C125.419 14.6437 125.242 14.4817 125.037 14.4817ZM63.4472 19.9623C62.6316 19.4673 61.5856 19.2296 60.6744 19.0232L60.656 19.0193C59.9936 18.8691 59.4123 18.7359 58.9934 18.5399C58.5784 18.3466 58.3899 18.1246 58.3899 17.8189C58.3899 17.5551 58.4894 17.3213 58.725 17.1371C58.9672 16.9477 59.3678 16.8014 59.987 16.7649C61.0422 16.7649 61.8592 16.7897 62.4116 16.8145C62.6892 16.8263 62.9 16.8393 63.04 16.8485C63.1107 16.8537 63.1644 16.8563 63.1998 16.8589C63.2181 16.8602 63.2312 16.8615 63.239 16.8615L63.2482 16.8628H63.2508L63.26 16.8641H63.2692C63.4328 16.8641 63.5821 16.8328 63.6842 16.727C63.7745 16.6329 63.7928 16.5128 63.8007 16.454C63.8007 16.4501 63.802 16.4462 63.802 16.4436C63.8059 16.4187 63.8085 16.4004 63.8125 16.3835L63.8177 16.3613V15.0512C63.8177 14.8918 63.8072 14.7455 63.7457 14.6332C63.6698 14.4935 63.5428 14.449 63.4407 14.4268L63.4315 14.4255L63.4223 14.4242H63.4184L63.4079 14.4229C63.3988 14.4216 63.3857 14.4203 63.3686 14.419C63.3333 14.4151 63.2809 14.4099 63.2115 14.4033C63.0715 14.3903 62.862 14.3733 62.5792 14.3563C62.0137 14.3223 61.1548 14.2884 59.9792 14.2884H59.9753H59.9713C58.4658 14.3446 57.3242 14.7625 56.5557 15.4234C55.7859 16.0857 55.4062 16.9791 55.4062 17.9456C55.4062 18.5817 55.5529 19.1029 55.8121 19.5326C56.07 19.961 56.4326 20.2863 56.8463 20.541C57.662 21.0412 58.7067 21.2829 59.6166 21.4932L59.6349 21.4971C60.2986 21.6499 60.8812 21.7857 61.3002 21.9843C61.7139 22.1802 61.9063 22.4062 61.9063 22.721C61.9063 22.9835 61.7845 23.2173 61.49 23.3962C61.1836 23.5817 60.6875 23.7058 59.9569 23.7058C59.1269 23.7058 58.221 23.617 57.5193 23.5269C57.1684 23.4825 56.8713 23.4367 56.6604 23.4028C56.5558 23.3858 56.4719 23.3714 56.4156 23.3623C56.3999 23.3597 56.3868 23.3571 56.375 23.3558C56.3659 23.3544 56.3567 23.3531 56.3502 23.3518L56.3344 23.3492L56.3292 23.3479L56.3109 23.344H56.2912C56.142 23.344 56.0006 23.3714 55.9011 23.472C55.8134 23.5595 55.7938 23.6758 55.7859 23.7293C55.7846 23.7332 55.7846 23.7372 55.7846 23.7398C55.7794 23.7685 55.7754 23.7868 55.7715 23.8051L55.7663 23.826L55.6812 25.3032V25.3085C55.6812 25.4051 55.6956 25.5201 55.7479 25.6232C55.8016 25.733 55.8985 25.8309 56.0464 25.8688L56.0517 25.8701L56.0569 25.8714L56.0634 25.8375C56.0569 25.8714 56.0569 25.8714 56.0569 25.8714H56.0582L56.0621 25.8727C56.0648 25.874 56.07 25.874 56.0765 25.8753C56.0883 25.8779 56.1067 25.8806 56.1302 25.8858C56.1773 25.8949 56.2454 25.9067 56.3358 25.921C56.5164 25.9498 56.7796 25.9877 57.12 26.0268C57.7981 26.1039 58.7774 26.1797 59.9818 26.1797H59.991C60.1389 26.181 61.342 26.1901 62.5164 25.7499C63.1055 25.5292 63.6999 25.1909 64.1476 24.6711C64.5993 24.1473 64.8912 23.4485 64.8912 22.5316C64.8912 21.902 64.7434 21.3848 64.4841 20.9589C64.2248 20.5344 63.8622 20.2131 63.4472 19.9623ZM78.1134 14.4817H75.9664C75.7608 14.4817 75.5841 14.6437 75.5841 14.8566V21.0399C75.5841 22.316 74.508 23.3623 73.1647 23.3623C73.1582 23.3623 73.153 23.3623 73.1465 23.3623C73.1399 23.3623 73.1346 23.3623 73.1281 23.3623C71.7849 23.3623 70.7088 22.316 70.7088 21.0399V14.8566C70.7088 14.6437 70.5321 14.4817 70.3265 14.4817H68.1794C67.9739 14.4817 67.7971 14.6437 67.7971 14.8566V21.0399C67.7971 23.8847 70.1903 26.1784 73.1281 26.1784C73.1346 26.1784 73.1399 26.1784 73.1465 26.1784C73.153 26.1784 73.1582 26.1784 73.1647 26.1784C76.1012 26.1784 78.4957 23.8847 78.4957 21.0399V14.8566C78.4957 14.6437 78.319 14.4817 78.1134 14.4817Z" fill="#001133"/>
</g>
<defs>
<clipPath id="clip0_2999_2202">
<rect width="141" height="32" fill="white" transform="translate(0.5)"/>
</clipPath>
</defs>
</svg>
