<svg width="106" height="28" viewBox="0 0 106 28" fill="none" xmlns="http://www.w3.org/2000/svg">
<path d="M16.7045 14.763C16.7166 13.8431 16.9669 12.9411 17.4321 12.141C17.8972 11.3409 18.5621 10.6687 19.3648 10.1869C18.8548 9.47582 18.1821 8.89066 17.4 8.47785C16.6178 8.06505 15.7479 7.83597 14.8592 7.80883C12.9635 7.61456 11.1258 8.91628 10.1598 8.91628C9.17506 8.91628 7.68776 7.82812 6.08616 7.86028C5.05021 7.89296 4.04059 8.18707 3.15568 8.71395C2.27077 9.24083 1.54075 9.98252 1.03674 10.8668C-1.14648 14.5571 0.482005 19.9808 2.57338 22.9639C3.61975 24.4246 4.84264 26.0562 6.44279 25.9984C8.00863 25.9349 8.59344 25.0235 10.4835 25.0235C12.3561 25.0235 12.9048 25.9984 14.5374 25.9616C16.2176 25.9349 17.2762 24.4944 18.2859 23.0198C19.0377 21.979 19.6162 20.8287 20 19.6115C19.0238 19.2084 18.1908 18.5337 17.6048 17.6715C17.0187 16.8093 16.7056 15.7977 16.7045 14.763Z" fill="white"/>
<path d="M13.6181 5.84713C14.5342 4.77343 14.9856 3.39335 14.8763 2C13.4767 2.14352 12.1838 2.7966 11.2553 3.82911C10.8013 4.33351 10.4536 4.92033 10.2321 5.55601C10.0105 6.19168 9.91951 6.86375 9.96417 7.5338C10.6642 7.54084 11.3568 7.3927 11.9897 7.10054C12.6227 6.80838 13.1794 6.37982 13.6181 5.84713Z" fill="white"/>
<path d="M28.791 2.50146H30.8608C32.6494 2.50146 33.5195 3.56494 33.5195 5.49414C33.5195 7.42334 32.6406 8.5 30.8608 8.5H28.791V2.50146ZM29.7886 3.34082V7.66064H30.751C31.9375 7.66064 32.4956 6.94434 32.4956 5.50732C32.4956 4.06152 31.9331 3.34082 30.751 3.34082H29.7886ZM36.6748 3.77588C37.8877 3.77588 38.7358 4.5625 38.7358 5.86768V6.46973C38.7358 7.81885 37.8877 8.5791 36.6748 8.5791C35.4443 8.5791 34.605 7.82764 34.605 6.47412V5.87207C34.605 4.60205 35.4575 3.77588 36.6748 3.77588ZM36.6792 4.5625C35.9849 4.5625 35.5894 5.14258 35.5894 5.92041V6.43896C35.5894 7.2168 35.9585 7.79248 36.6792 7.79248C37.3911 7.79248 37.7559 7.22119 37.7559 6.43896V5.92041C37.7559 5.14258 37.3735 4.5625 36.6792 4.5625ZM45.8989 3.85498L44.6772 8.5H43.6841L42.7129 5.07227H42.6865L41.7329 8.5H40.7354L39.4609 3.85498H40.5112L41.2583 7.39697H41.3022L42.2383 3.85498H43.1567L44.1191 7.39697H44.1631L44.9233 3.85498H45.8989ZM46.8657 8.5V3.85498H47.8237V4.68994H47.8721C47.9907 4.3252 48.3291 3.78467 49.2695 3.78467C50.2056 3.78467 50.834 4.30322 50.834 5.3623V8.5H49.8584V5.64795C49.8584 4.94043 49.4893 4.61523 48.9399 4.61523C48.2192 4.61523 47.8413 5.16895 47.8413 5.92041V8.5H46.8657ZM52.3105 8.5V2.18506H53.2861V8.5H52.3105ZM56.6348 3.77588C57.8477 3.77588 58.6958 4.5625 58.6958 5.86768V6.46973C58.6958 7.81885 57.8477 8.5791 56.6348 8.5791C55.4043 8.5791 54.5649 7.82764 54.5649 6.47412V5.87207C54.5649 4.60205 55.4175 3.77588 56.6348 3.77588ZM56.6392 4.5625C55.9448 4.5625 55.5493 5.14258 55.5493 5.92041V6.43896C55.5493 7.2168 55.9185 7.79248 56.6392 7.79248C57.3511 7.79248 57.7158 7.22119 57.7158 6.43896V5.92041C57.7158 5.14258 57.3335 4.5625 56.6392 4.5625ZM61.2227 8.57031C60.3218 8.57031 59.7021 8.0166 59.7021 7.15088C59.7021 6.3291 60.2734 5.77539 61.3457 5.77539H62.519V5.34033C62.519 4.80859 62.1807 4.55811 61.6445 4.55811C61.1172 4.55811 60.8799 4.77783 60.8052 5.08545H59.8779C59.9351 4.30762 60.5195 3.78467 61.6753 3.78467C62.6685 3.78467 63.4902 4.19775 63.4902 5.35352V8.5H62.563V7.89795H62.519C62.3125 8.25391 61.9082 8.57031 61.2227 8.57031ZM61.5259 7.81445C62.0796 7.81445 62.519 7.43652 62.519 6.93115V6.43018H61.4995C60.9326 6.43018 60.6821 6.71582 60.6821 7.10254C60.6821 7.58594 61.0864 7.81445 61.5259 7.81445ZM66.4961 3.79346C67.1509 3.79346 67.6519 4.0835 67.832 4.55371H67.8804V2.18506H68.856V8.5H67.9067V7.75732H67.8584C67.7178 8.22754 67.1597 8.56152 66.4829 8.56152C65.415 8.56152 64.7207 7.80127 64.7207 6.5752V5.77979C64.7207 4.55371 65.4282 3.79346 66.4961 3.79346ZM66.7686 4.59326C66.1182 4.59326 65.7139 5.07666 65.7139 5.92041V6.43018C65.7139 7.27832 66.1226 7.76172 66.7905 7.76172C67.4497 7.76172 67.8804 7.28271 67.8804 6.4917V5.78857C67.8804 5.07227 67.4102 4.59326 66.7686 4.59326ZM74.2129 3.77588C75.4258 3.77588 76.2739 4.5625 76.2739 5.86768V6.46973C76.2739 7.81885 75.4258 8.5791 74.2129 8.5791C72.9824 8.5791 72.1431 7.82764 72.1431 6.47412V5.87207C72.1431 4.60205 72.9956 3.77588 74.2129 3.77588ZM74.2173 4.5625C73.5229 4.5625 73.1274 5.14258 73.1274 5.92041V6.43896C73.1274 7.2168 73.4966 7.79248 74.2173 7.79248C74.9292 7.79248 75.2939 7.22119 75.2939 6.43896V5.92041C75.2939 5.14258 74.9116 4.5625 74.2173 4.5625ZM77.5308 8.5V3.85498H78.4888V4.68994H78.5371C78.6558 4.3252 78.9941 3.78467 79.9346 3.78467C80.8706 3.78467 81.499 4.30322 81.499 5.3623V8.5H80.5234V5.64795C80.5234 4.94043 80.1543 4.61523 79.605 4.61523C78.8843 4.61523 78.5063 5.16895 78.5063 5.92041V8.5H77.5308ZM85.2739 3.88574V2.72559H86.2275V3.88574H87.269V4.65039H86.2275V7.11572C86.2275 7.62109 86.4165 7.76172 86.9395 7.76172C87.0713 7.76172 87.2471 7.75293 87.3218 7.74414V8.49121C87.2427 8.50439 86.9175 8.53076 86.6978 8.53076C85.5684 8.53076 85.2607 8.12646 85.2607 7.19482V4.65039H84.5532V3.88574H85.2739ZM88.4995 8.5V2.18506H89.4707V4.68994H89.519C89.6201 4.36035 89.998 3.78467 90.9297 3.78467C91.835 3.78467 92.481 4.30762 92.481 5.3667V8.5H91.5098V5.65234C91.5098 4.94482 91.1187 4.61523 90.5649 4.61523C89.8662 4.61523 89.4707 5.16455 89.4707 5.92041V8.5H88.4995ZM95.7549 8.5791C94.4893 8.5791 93.7026 7.80127 93.7026 6.4917V5.86328C93.7026 4.54492 94.564 3.77588 95.6978 3.77588C96.8623 3.77588 97.6841 4.58447 97.6841 5.86328V6.4082H94.6694V6.63672C94.6694 7.30469 95.0649 7.79688 95.7505 7.79688C96.2603 7.79688 96.6118 7.55518 96.6777 7.26514H97.6313C97.5742 7.80127 97.0073 8.5791 95.7549 8.5791ZM94.6694 5.771H96.7305V5.70947C96.7305 5.01074 96.3218 4.54492 95.7021 4.54492C95.0825 4.54492 94.6694 5.01074 94.6694 5.70947V5.771Z" fill="white"/>
<path d="M30.2061 24.5H28.1758L32.3066 12.5029H34.5391L38.6611 24.5H36.5518L35.4883 21.1777H31.2783L30.2061 24.5ZM33.4316 14.5771H33.3525L31.7266 19.6484H35.04L33.4316 14.5771ZM44.2644 24.6318C43.0603 24.6318 42.1462 24.0605 41.654 23.208H41.5837V27.585H39.6325V15.21H41.531V16.5723H41.6013C42.1111 15.6846 43.0603 15.0869 44.3083 15.0869C46.3913 15.0869 47.8767 16.6602 47.8767 19.4375V20.2637C47.8767 23.0234 46.4089 24.6318 44.2644 24.6318ZM43.8161 23.0234C45.0554 23.0234 45.8991 22.0303 45.8991 20.1582V19.5078C45.8991 17.7061 45.1081 16.6777 43.781 16.6777C42.4187 16.6777 41.5661 17.7852 41.5661 19.499V20.1582C41.5661 21.916 42.4275 23.0234 43.8161 23.0234ZM54.183 24.6318C52.9789 24.6318 52.0649 24.0605 51.5727 23.208H51.5024V27.585H49.5512V15.21H51.4496V16.5723H51.52C52.0297 15.6846 52.9789 15.0869 54.227 15.0869C56.31 15.0869 57.7954 16.6602 57.7954 19.4375V20.2637C57.7954 23.0234 56.3276 24.6318 54.183 24.6318ZM53.7348 23.0234C54.9741 23.0234 55.8178 22.0303 55.8178 20.1582V19.5078C55.8178 17.7061 55.0268 16.6777 53.6996 16.6777C52.3373 16.6777 51.4848 17.7852 51.4848 19.499V20.1582C51.4848 21.916 52.3461 23.0234 53.7348 23.0234ZM61.8387 21.1689H63.7899C63.8778 22.2061 64.7919 23.0938 66.4882 23.0938C68.0438 23.0938 68.9667 22.3643 68.9667 21.2305C68.9667 20.3164 68.3514 19.8242 67.0682 19.5166L65.0995 19.0244C63.5526 18.6641 62.1639 17.7412 62.1639 15.79C62.1639 13.4961 64.1679 12.2393 66.497 12.2393C68.8261 12.2393 70.7684 13.4961 70.8124 15.7373H68.8964C68.8085 14.7178 68.0262 13.874 66.4706 13.874C65.0995 13.874 64.1679 14.5244 64.1679 15.6406C64.1679 16.4229 64.7128 16.9854 65.829 17.2402L67.7889 17.7236C69.5907 18.1631 70.9618 19.0156 70.9618 21.0547C70.9618 23.4102 69.0546 24.7373 66.3387 24.7373C62.9989 24.7373 61.8827 22.7861 61.8387 21.1689ZM73.3395 15.21V12.9512H75.2555V15.21H77.066V16.7744H75.2555V21.7314C75.2555 22.7422 75.6334 23.0234 76.6793 23.0234C76.8463 23.0234 77.0045 23.0234 77.1188 23.0059V24.5C76.9605 24.5264 76.5914 24.5615 76.1959 24.5615C73.9371 24.5615 73.3131 23.7529 73.3131 21.8896V16.7744H72.0299V15.21H73.3395ZM82.3353 15.0518C85.0071 15.0518 86.4573 16.9326 86.4573 19.4639V20.2109C86.4573 22.8301 85.0159 24.6582 82.3353 24.6582C79.6546 24.6582 78.1956 22.8301 78.1956 20.2109V19.4639C78.1956 16.9414 79.6634 15.0518 82.3353 15.0518ZM82.3353 16.6162C80.8851 16.6162 80.1644 17.8027 80.1644 19.4902V20.2021C80.1644 21.8633 80.8763 23.085 82.3353 23.085C83.7943 23.085 84.4974 21.8721 84.4974 20.2021V19.4902C84.4974 17.7939 83.7855 16.6162 82.3353 16.6162ZM88.1055 24.5V15.21H90.0567V16.4316H90.127C90.3643 15.8516 91.0586 15.0781 92.3506 15.0781C92.6055 15.0781 92.8252 15.0957 93.0098 15.1309V16.8535C92.8428 16.8096 92.5 16.7832 92.1748 16.7832C90.6104 16.7832 90.083 17.75 90.083 18.998V24.5H88.1055ZM97.7429 24.6582C95.2556 24.6582 93.6736 23.0146 93.6736 20.2637V19.3232C93.6736 16.7305 95.2205 15.0518 97.6638 15.0518C100.142 15.0518 101.636 16.792 101.636 19.4111V20.2988H95.5984V20.5186C95.5984 22.083 96.4421 23.1201 97.7693 23.1201C98.7625 23.1201 99.4392 22.6279 99.6765 21.8281H101.531C101.25 23.3311 100.037 24.6582 97.7429 24.6582ZM95.5984 18.9365H99.7293V18.9189C99.7293 17.6006 98.9119 16.5635 97.6726 16.5635C96.4158 16.5635 95.5984 17.6006 95.5984 18.9189V18.9365Z" fill="white"/>
</svg>
