<svg width="123" height="25" viewBox="0 0 123 25" fill="none" xmlns="http://www.w3.org/2000/svg">
<g clip-path="url(#clip0_3299_39466)">
<path d="M12 0C8.81813 0 5.76375 1.26506 3.51562 3.51469C1.26518 5.76521 0.000623381 8.81734 0 12C0 15.1813 1.26562 18.2357 3.51562 20.4853C5.76375 22.7349 8.81813 24 12 24C15.1819 24 18.2363 22.7349 20.4844 20.4853C22.7344 18.2357 24 15.1813 24 12C24 8.81869 22.7344 5.76431 20.4844 3.51469C18.2363 1.26506 15.1819 0 12 0Z" fill="url(#paint0_linear_3299_39466)"/>
<path d="M5.43477 11.8721C8.93352 10.3481 11.266 9.34326 12.4323 8.85782C15.766 7.47163 16.4579 7.23088 16.9098 7.22273C17.0091 7.22113 17.2304 7.2457 17.3748 7.36241C17.4948 7.46085 17.5285 7.59398 17.5454 7.68745C17.5604 7.78082 17.581 7.99363 17.5641 8.15976C17.3841 10.0573 16.6023 14.6619 16.2048 16.7872C16.0379 17.6864 15.706 17.9879 15.3854 18.0174C14.6879 18.0815 14.1591 17.5569 13.4841 17.1146C12.4285 16.4221 11.8323 15.9913 10.8066 15.3157C9.62165 14.5349 10.3904 14.1058 11.0654 13.4045C11.2416 13.2209 14.3129 10.4281 14.371 10.1748C14.3785 10.1431 14.386 10.025 14.3148 9.96276C14.2454 9.90032 14.1423 9.9217 14.0673 9.93857C13.9604 9.96257 12.2748 11.0778 9.00477 13.2841C8.52665 13.613 8.09352 13.7733 7.70352 13.7649C7.27602 13.7557 6.45102 13.5226 5.8379 13.3235C5.0879 13.0792 4.48977 12.95 4.54227 12.5351C4.56852 12.3191 4.86665 12.098 5.43477 11.8721Z" fill="white"/>
</g>
<path d="M37.213 9.081C35.494 9.081 34.387 7.83 34.387 5.931V5.769C34.387 3.888 35.584 2.61 37.285 2.61H37.384C38.347 2.61 39.256 3.132 39.742 3.978L38.959 4.473C38.626 3.852 38.095 3.483 37.375 3.483H37.294C36.133 3.483 35.377 4.392 35.377 5.76V5.94C35.377 7.317 36.142 8.208 37.33 8.208H37.411C38.356 8.208 39.04 7.569 39.04 6.705V6.552H37.51V5.715H39.94V9H39.238C39.166 8.847 39.103 8.541 39.085 8.289C38.725 8.757 38.014 9.081 37.285 9.081H37.213ZM43.07 9.072C41.729 9.072 40.829 8.154 40.829 6.786V6.615C40.829 5.211 41.729 4.257 43.061 4.257H43.142C44.366 4.257 45.194 5.13 45.194 6.426V6.984H41.738C41.801 7.767 42.332 8.271 43.124 8.271H43.214C43.808 8.271 44.231 7.983 44.492 7.614L45.068 8.127C44.627 8.721 43.961 9.072 43.169 9.072H43.07ZM41.756 6.291H44.339V6.282C44.303 5.517 43.817 5.022 43.124 5.022H43.034C42.332 5.022 41.855 5.508 41.756 6.291ZM47.6458 9.036C46.8178 9.036 46.3768 8.613 46.3768 7.704V5.085H45.7558V4.464C45.9358 4.401 46.1788 4.338 46.3768 4.32V3.24L47.2678 3.123V4.32H48.5998V5.085H47.2588V7.533C47.2588 8.064 47.4748 8.235 47.8708 8.235C48.0778 8.235 48.4828 8.19 48.6718 8.136V8.874C48.4288 8.982 47.9518 9.036 47.6458 9.036ZM53.9858 9.063C52.6628 9.063 51.7538 8.127 51.7538 6.777V6.534C51.7538 5.193 52.6808 4.257 53.9678 4.257H54.0398C54.8498 4.257 55.5428 4.662 55.9568 5.382L55.2818 5.805C55.0118 5.292 54.5888 5.031 54.0488 5.031H53.9678C53.1848 5.031 52.6808 5.625 52.6808 6.552V6.768C52.6808 7.686 53.2118 8.28 54.0218 8.28H54.1028C54.5978 8.28 55.0118 8.019 55.2908 7.524L55.9748 7.956C55.5338 8.676 54.8678 9.063 54.0668 9.063H53.9858ZM58.1448 9.081C57.2358 9.081 56.6058 8.532 56.6058 7.695V7.623C56.6058 6.615 57.4698 6.111 59.2608 6.111H59.6658V5.85C59.6658 5.346 59.3238 5.031 58.7028 5.031H58.6488C58.1808 5.031 57.6498 5.202 57.2268 5.517L56.8308 4.842C57.3978 4.464 58.0368 4.23 58.7118 4.23H58.7748C59.8728 4.23 60.5298 4.842 60.5298 5.832V8.136C60.5298 8.424 60.6108 8.748 60.6918 9H59.8188C59.7648 8.865 59.7198 8.64 59.6928 8.442C59.2608 8.856 58.7208 9.081 58.1448 9.081ZM58.2888 8.298C58.8378 8.298 59.3328 8.046 59.6658 7.65V6.786H59.3778C58.0458 6.786 57.4788 7.029 57.4788 7.587V7.632C57.4788 8.037 57.8028 8.298 58.2888 8.298ZM61.9041 9V4.32H62.5881C62.6421 4.491 62.7051 4.725 62.7321 4.932C63.0651 4.545 63.5511 4.32 64.1271 4.32H64.2441V5.202C64.1631 5.184 64.0281 5.175 63.9291 5.175C63.1641 5.175 62.7951 5.616 62.7951 6.507V9H61.9041ZM66.9375 9.072C65.7045 9.072 64.8495 8.127 64.8495 6.786V6.534C64.8495 5.193 65.7045 4.248 66.9375 4.248H67.0185C67.6125 4.248 68.1165 4.473 68.4765 4.851V2.52H69.3675V9H68.6655C68.6025 8.856 68.5485 8.622 68.5305 8.415C68.1615 8.829 67.6305 9.072 67.0095 9.072H66.9375ZM67.0905 8.289H67.1625C67.9545 8.289 68.4765 7.668 68.4765 6.768V6.543C68.4765 5.634 67.9455 5.031 67.1625 5.031H67.0905C66.3075 5.031 65.7855 5.634 65.7855 6.543V6.768C65.7855 7.677 66.3075 8.289 67.0905 8.289ZM73.6655 3.627C73.3505 3.627 73.1165 3.411 73.1165 3.105C73.1165 2.799 73.3505 2.574 73.6655 2.574C73.9895 2.574 74.2325 2.799 74.2325 3.105C74.2325 3.411 73.9895 3.627 73.6655 3.627ZM73.2245 9V4.32H74.1155V9H73.2245ZM75.5096 9V4.32H76.2116C76.2656 4.491 76.3286 4.761 76.3466 4.968C76.7336 4.518 77.2916 4.239 77.9396 4.239H77.9936C79.0376 4.239 79.5956 4.869 79.5956 6.003V9H78.7046V6.174C78.7046 5.454 78.4166 5.058 77.7506 5.058H77.6876C76.9226 5.058 76.4006 5.571 76.4006 6.399V9H75.5096Z" fill="white"/>
<path d="M41.5029 14.021H38.6528V22H37.1357V14.021H34.3047V12.7578H41.5029V14.021ZM45.5271 22.127C45.0193 22.127 44.5538 22.0423 44.1306 21.873C43.7116 21.7038 43.3519 21.4689 43.0515 21.1685C42.751 20.8722 42.5183 20.5231 42.3532 20.1211C42.1924 19.7148 42.112 19.2769 42.112 18.8071V18.5469C42.112 18.0094 42.1967 17.5228 42.3659 17.0869C42.5352 16.651 42.768 16.2786 43.0642 15.9697C43.3604 15.6608 43.7032 15.4238 44.0925 15.2588C44.4861 15.0895 44.905 15.0049 45.3493 15.0049C45.8445 15.0049 46.2824 15.0895 46.6633 15.2588C47.0442 15.4238 47.3637 15.6545 47.6218 15.9507C47.8799 16.2511 48.0746 16.6087 48.2058 17.0234C48.337 17.4382 48.4026 17.891 48.4026 18.3818V19.0356H43.6418V19.0674C43.6884 19.3678 43.7603 19.6196 43.8576 19.8228C43.955 20.0259 44.0883 20.2078 44.2575 20.3687C44.4268 20.5379 44.6257 20.6691 44.8542 20.7622C45.087 20.8553 45.3409 20.9019 45.6159 20.9019C45.9926 20.9019 46.3438 20.8299 46.6696 20.686C46.9955 20.5379 47.2642 20.3285 47.4758 20.0576L48.2883 20.8447C48.0598 21.1748 47.7085 21.471 47.2346 21.7334C46.7649 21.9958 46.1957 22.127 45.5271 22.127ZM45.343 16.2363C45.1272 16.2363 44.9262 16.2765 44.74 16.3569C44.558 16.4331 44.3951 16.5431 44.2512 16.687C44.1073 16.8351 43.9867 17.0129 43.8894 17.2202C43.792 17.4276 43.7201 17.6624 43.6736 17.9248H46.9045V17.8232C46.9045 17.6243 46.8685 17.4276 46.7966 17.2329C46.7247 17.034 46.6231 16.8605 46.4919 16.7124C46.365 16.5685 46.2042 16.4543 46.0095 16.3696C45.8191 16.2808 45.5969 16.2363 45.343 16.2363ZM49.9511 12.25H53.6518V20.7432H55.7338V22H49.9511V20.7432H52.122V13.5132H49.9511V12.25ZM60.2023 22.127C59.6945 22.127 59.229 22.0423 58.8058 21.873C58.3869 21.7038 58.0272 21.4689 57.7267 21.1685C57.4263 20.8722 57.1935 20.5231 57.0285 20.1211C56.8677 19.7148 56.7873 19.2769 56.7873 18.8071V18.5469C56.7873 18.0094 56.8719 17.5228 57.0412 17.0869C57.2104 16.651 57.4432 16.2786 57.7394 15.9697C58.0356 15.6608 58.3784 15.4238 58.7677 15.2588C59.1613 15.0895 59.5802 15.0049 60.0246 15.0049C60.5197 15.0049 60.9577 15.0895 61.3385 15.2588C61.7194 15.4238 62.0389 15.6545 62.297 15.9507C62.5552 16.2511 62.7498 16.6087 62.881 17.0234C63.0122 17.4382 63.0778 17.891 63.0778 18.3818V19.0356H58.3171V19.0674C58.3636 19.3678 58.4355 19.6196 58.5329 19.8228C58.6302 20.0259 58.7635 20.2078 58.9328 20.3687C59.102 20.5379 59.3009 20.6691 59.5295 20.7622C59.7622 20.8553 60.0161 20.9019 60.2912 20.9019C60.6678 20.9019 61.019 20.8299 61.3449 20.686C61.6707 20.5379 61.9394 20.3285 62.151 20.0576L62.9635 20.8447C62.735 21.1748 62.3838 21.471 61.9098 21.7334C61.4401 21.9958 60.8709 22.127 60.2023 22.127ZM60.0182 16.2363C59.8024 16.2363 59.6014 16.2765 59.4152 16.3569C59.2332 16.4331 59.0703 16.5431 58.9264 16.687C58.7825 16.8351 58.6619 17.0129 58.5646 17.2202C58.4673 17.4276 58.3953 17.6624 58.3488 17.9248H61.5797V17.8232C61.5797 17.6243 61.5438 17.4276 61.4718 17.2329C61.3999 17.034 61.2983 16.8605 61.1671 16.7124C61.0402 16.5685 60.8794 16.4543 60.6847 16.3696C60.4943 16.2808 60.2721 16.2363 60.0182 16.2363ZM64.1376 18.5151C64.1376 17.9946 64.2011 17.5207 64.328 17.0933C64.455 16.6616 64.639 16.2913 64.8803 15.9824C65.1215 15.6735 65.4113 15.4344 65.7499 15.2651C66.0927 15.0916 66.4777 15.0049 66.9052 15.0049C67.1591 15.0049 67.3897 15.0324 67.5971 15.0874C67.8044 15.1382 67.9927 15.2144 68.162 15.3159C68.272 15.3794 68.3757 15.4556 68.473 15.5444C68.5704 15.6291 68.6613 15.7222 68.746 15.8237L68.8095 15.1318H70.1869V21.8096C70.1869 22.2708 70.1107 22.6792 69.9584 23.0347C69.8103 23.3944 69.6008 23.6991 69.33 23.9487C69.0549 24.1942 68.7248 24.3804 68.3397 24.5073C67.9589 24.6385 67.5378 24.7041 67.0765 24.7041C66.8819 24.7041 66.6682 24.6829 66.4354 24.6406C66.2027 24.5983 65.9699 24.5327 65.7372 24.4438C65.5044 24.355 65.2823 24.2386 65.0707 24.0947C64.8591 23.9508 64.6771 23.7773 64.5248 23.5742L65.2421 22.6538C65.3648 22.8019 65.496 22.9289 65.6356 23.0347C65.7795 23.1447 65.9255 23.2336 66.0736 23.3013C66.2217 23.369 66.372 23.4176 66.5243 23.4473C66.6766 23.4811 66.8311 23.498 66.9877 23.498C67.2585 23.498 67.4976 23.46 67.705 23.3838C67.9166 23.3076 68.0964 23.1976 68.2445 23.0537C68.3799 22.9141 68.4836 22.7427 68.5555 22.5396C68.6317 22.3364 68.6698 22.1058 68.6698 21.8477V21.3716C68.5809 21.4647 68.4878 21.5514 68.3905 21.6318C68.2974 21.7122 68.1958 21.7821 68.0858 21.8413C67.9208 21.9344 67.7388 22.0042 67.5399 22.0508C67.341 22.1016 67.1252 22.127 66.8925 22.127C66.4693 22.127 66.0884 22.0402 65.7499 21.8667C65.4113 21.689 65.1215 21.4435 64.8803 21.1304C64.6433 20.8215 64.4592 20.4554 64.328 20.0322C64.2011 19.6048 64.1376 19.1436 64.1376 18.6484V18.5151ZM65.661 18.6484C65.661 18.9531 65.6906 19.2409 65.7499 19.5117C65.8134 19.7826 65.9128 20.0174 66.0482 20.2163C66.1794 20.4237 66.3466 20.5866 66.5497 20.7051C66.7528 20.8193 66.994 20.8765 67.2733 20.8765C67.4468 20.8765 67.6034 20.8574 67.743 20.8193C67.8869 20.7812 68.016 20.7284 68.1303 20.6606C68.2445 20.5887 68.3461 20.502 68.4349 20.4004C68.5238 20.2988 68.6021 20.1867 68.6698 20.064V17.0552C68.6021 16.9282 68.5196 16.814 68.4222 16.7124C68.3291 16.6108 68.2212 16.5241 68.0985 16.4521C67.9885 16.3929 67.8658 16.3464 67.7304 16.3125C67.5949 16.2744 67.4468 16.2554 67.286 16.2554C67.0025 16.2554 66.7592 16.3146 66.556 16.4331C66.3529 16.5516 66.1858 16.7145 66.0546 16.9219C65.9192 17.1292 65.8197 17.3704 65.7562 17.6455C65.6928 17.9163 65.661 18.2062 65.661 18.5151V18.6484ZM76.42 15.0049C76.6655 15.0049 76.9024 15.0218 77.131 15.0557C77.3637 15.0895 77.5457 15.1297 77.6769 15.1763L77.461 16.6743C77.2283 16.6235 76.9977 16.5854 76.7691 16.5601C76.5449 16.5347 76.3206 16.522 76.0963 16.522C75.8424 16.522 75.6139 16.5474 75.4107 16.5981C75.2076 16.6489 75.0278 16.7272 74.8712 16.833C74.7019 16.9346 74.558 17.0636 74.4396 17.2202C74.3211 17.3768 74.2216 17.5566 74.1412 17.7598V22H72.6241V15.1318H74.046L74.1095 16.084L74.1158 16.2427C74.3951 15.8576 74.7294 15.555 75.1188 15.335C75.5123 15.1149 75.9461 15.0049 76.42 15.0049ZM83.3958 22C83.3493 21.9154 83.3112 21.8138 83.2816 21.6953C83.2562 21.5726 83.2329 21.4456 83.2117 21.3145C83.1059 21.4245 82.9853 21.5303 82.8499 21.6318C82.7187 21.7292 82.5706 21.8138 82.4056 21.8857C82.2405 21.9619 82.0628 22.0212 81.8724 22.0635C81.682 22.1058 81.4767 22.127 81.2567 22.127C80.9012 22.127 80.5753 22.0762 80.2791 21.9746C79.9871 21.8688 79.7375 21.7249 79.5301 21.543C79.3185 21.3652 79.1535 21.1515 79.035 20.9019C78.9207 20.6479 78.8636 20.375 78.8636 20.083C78.8636 19.7064 78.9377 19.3742 79.0858 19.0864C79.2381 18.7944 79.4582 18.5532 79.7459 18.3628C80.0125 18.1851 80.3405 18.0496 80.7298 17.9565C81.1234 17.8634 81.5677 17.8169 82.0628 17.8169H83.1673V17.3535C83.1673 17.1758 83.1356 17.015 83.0721 16.8711C83.0128 16.7272 82.9261 16.6024 82.8118 16.4966C82.6891 16.3908 82.5389 16.3104 82.3612 16.2554C82.1877 16.1961 81.9866 16.1665 81.7581 16.1665C81.5508 16.1665 81.3688 16.1919 81.2122 16.2427C81.0599 16.2935 80.9329 16.3633 80.8314 16.4521C80.7298 16.5326 80.6536 16.632 80.6029 16.7505C80.5563 16.8647 80.533 16.9875 80.533 17.1187H79.0096C79.0138 16.8436 79.0794 16.5791 79.2064 16.3252C79.3333 16.0713 79.5195 15.847 79.765 15.6523C80.0019 15.4535 80.2939 15.2969 80.6409 15.1826C80.9922 15.0641 81.3921 15.0049 81.8406 15.0049C82.2427 15.0049 82.6172 15.0557 82.9642 15.1572C83.3154 15.2546 83.618 15.4006 83.8719 15.5952C84.1258 15.7899 84.3247 16.0374 84.4686 16.3379C84.6125 16.6341 84.6844 16.9769 84.6844 17.3662V20.4194C84.6844 20.7284 84.7056 21.0076 84.7479 21.2573C84.7944 21.5028 84.86 21.7144 84.9446 21.8921V22H83.3958ZM81.5487 20.9082C81.7475 20.9082 81.9316 20.8828 82.1009 20.832C82.2744 20.7812 82.431 20.7157 82.5706 20.6353C82.7103 20.5549 82.8309 20.4639 82.9324 20.3623C83.034 20.2607 83.1123 20.1549 83.1673 20.0449V18.7754H82.1898C81.8597 18.7754 81.574 18.8071 81.3328 18.8706C81.0916 18.9299 80.8991 19.0166 80.7552 19.1309C80.6282 19.2282 80.533 19.3446 80.4696 19.48C80.4103 19.6154 80.3807 19.7677 80.3807 19.937C80.3807 20.0767 80.4061 20.2078 80.4569 20.3306C80.5076 20.4491 80.5817 20.5506 80.679 20.6353C80.7764 20.7199 80.897 20.7876 81.0408 20.8384C81.1847 20.8849 81.354 20.9082 81.5487 20.9082ZM87.2105 15.1318L87.2549 15.8872C87.3861 15.6121 87.566 15.3963 87.7945 15.2397C88.0272 15.0832 88.3065 15.0049 88.6324 15.0049C88.8016 15.0049 88.954 15.0239 89.0894 15.062C89.2248 15.1001 89.3412 15.1593 89.4385 15.2397C89.5147 15.299 89.5824 15.3709 89.6416 15.4556C89.7009 15.536 89.7517 15.6291 89.794 15.7349C89.8532 15.6375 89.9209 15.5465 89.9971 15.4619C90.0733 15.3773 90.1558 15.3053 90.2447 15.2461C90.3589 15.1699 90.4859 15.1107 90.6255 15.0684C90.7694 15.026 90.926 15.0049 91.0953 15.0049C91.3153 15.0049 91.5163 15.043 91.6983 15.1191C91.8845 15.1911 92.0453 15.3032 92.1807 15.4556C92.3161 15.6164 92.4198 15.8258 92.4917 16.084C92.5679 16.3379 92.606 16.6447 92.606 17.0044V22H91.2095V16.9917C91.2095 16.8563 91.1947 16.742 91.1651 16.6489C91.1355 16.5516 91.0931 16.4733 91.0381 16.4141C90.9831 16.359 90.9154 16.3188 90.835 16.2935C90.7588 16.2681 90.6742 16.2554 90.5811 16.2554C90.4838 16.2554 90.3991 16.2681 90.3272 16.2935C90.2552 16.3188 90.1918 16.3548 90.1368 16.4014C90.086 16.4437 90.0437 16.4945 90.0098 16.5537C89.9759 16.6087 89.9506 16.6722 89.9336 16.7441C89.9336 16.7611 89.9336 16.7822 89.9336 16.8076C89.9336 16.8288 89.9336 16.8605 89.9336 16.9028V22H88.5625V16.9854C88.5625 16.8499 88.5477 16.7357 88.5181 16.6426C88.4927 16.5452 88.4525 16.4691 88.3975 16.4141C88.3425 16.359 88.2769 16.3188 88.2007 16.2935C88.1288 16.2681 88.0463 16.2554 87.9532 16.2554C87.8516 16.2554 87.7606 16.2702 87.6802 16.2998C87.604 16.3252 87.5384 16.3654 87.4834 16.4204C87.4411 16.4585 87.403 16.5029 87.3692 16.5537C87.3396 16.6045 87.312 16.6616 87.2867 16.7251V22H85.8902V15.1318H87.2105ZM107.059 18.6357C107.059 18.9531 107.036 19.2557 106.989 19.5435C106.943 19.8312 106.875 20.0978 106.786 20.3433C106.685 20.6353 106.549 20.8997 106.38 21.1367C106.211 21.3737 106.007 21.5705 105.77 21.7271C105.58 21.854 105.366 21.9513 105.129 22.019C104.897 22.091 104.643 22.127 104.368 22.127C104.088 22.127 103.834 22.0931 103.606 22.0254C103.377 21.9577 103.172 21.8582 102.99 21.7271C102.897 21.6593 102.808 21.5874 102.724 21.5112C102.643 21.4308 102.565 21.3441 102.489 21.251L102.419 22H101.048V12.25H102.565V15.8047C102.654 15.6947 102.751 15.5952 102.857 15.5063C102.963 15.4175 103.077 15.3392 103.2 15.2715C103.36 15.1826 103.536 15.117 103.727 15.0747C103.921 15.0282 104.131 15.0049 104.355 15.0049C104.651 15.0049 104.922 15.0451 105.167 15.1255C105.417 15.2017 105.641 15.3117 105.84 15.4556C106.01 15.5741 106.16 15.7201 106.291 15.8936C106.426 16.0628 106.545 16.249 106.646 16.4521C106.782 16.7357 106.883 17.0509 106.951 17.3979C107.023 17.745 107.059 18.1131 107.059 18.5024V18.6357ZM105.542 18.5024C105.542 18.3078 105.529 18.1195 105.504 17.9375C105.483 17.7513 105.451 17.5778 105.409 17.417C105.349 17.2223 105.271 17.0467 105.174 16.8901C105.081 16.7293 104.954 16.5939 104.793 16.4839C104.687 16.4077 104.567 16.3506 104.431 16.3125C104.296 16.2744 104.143 16.2554 103.974 16.2554C103.767 16.2554 103.581 16.285 103.416 16.3442C103.25 16.3993 103.107 16.4797 102.984 16.5854C102.895 16.6574 102.815 16.742 102.743 16.8394C102.675 16.9325 102.616 17.034 102.565 17.144V19.9878C102.624 20.1147 102.694 20.2311 102.774 20.3369C102.859 20.4385 102.954 20.5295 103.06 20.6099C103.179 20.6945 103.314 20.7622 103.466 20.813C103.623 20.8595 103.796 20.8828 103.987 20.8828C104.16 20.8828 104.317 20.8617 104.457 20.8193C104.596 20.7728 104.721 20.7114 104.831 20.6353C104.979 20.5295 105.1 20.3962 105.193 20.2354C105.29 20.0703 105.364 19.8862 105.415 19.6831C105.457 19.5308 105.489 19.3657 105.51 19.188C105.531 19.0103 105.542 18.8262 105.542 18.6357V18.5024ZM108.081 18.5024C108.081 18.0031 108.153 17.5418 108.297 17.1187C108.44 16.6912 108.65 16.321 108.925 16.0078C109.196 15.6947 109.528 15.4492 109.922 15.2715C110.315 15.0938 110.764 15.0049 111.267 15.0049C111.771 15.0049 112.219 15.0938 112.613 15.2715C113.011 15.4492 113.347 15.6947 113.622 16.0078C113.893 16.321 114.1 16.6912 114.244 17.1187C114.388 17.5418 114.46 18.0031 114.46 18.5024V18.6357C114.46 19.1393 114.388 19.6027 114.244 20.0259C114.1 20.4491 113.893 20.8172 113.622 21.1304C113.351 21.4435 113.017 21.689 112.619 21.8667C112.226 22.0444 111.779 22.1333 111.28 22.1333C110.776 22.1333 110.326 22.0444 109.928 21.8667C109.53 21.689 109.196 21.4435 108.925 21.1304C108.65 20.8172 108.44 20.4491 108.297 20.0259C108.153 19.6027 108.081 19.1393 108.081 18.6357V18.5024ZM109.598 18.6357C109.598 18.9447 109.63 19.2367 109.693 19.5117C109.761 19.7868 109.864 20.028 110.004 20.2354C110.14 20.4427 110.313 20.6077 110.525 20.7305C110.736 20.849 110.988 20.9082 111.28 20.9082C111.564 20.9082 111.811 20.849 112.023 20.7305C112.234 20.6077 112.408 20.4427 112.543 20.2354C112.679 20.028 112.778 19.7868 112.842 19.5117C112.909 19.2367 112.943 18.9447 112.943 18.6357V18.5024C112.943 18.202 112.909 17.9142 112.842 17.6392C112.774 17.3641 112.674 17.1229 112.543 16.9155C112.404 16.7082 112.228 16.5431 112.016 16.4204C111.809 16.2977 111.559 16.2363 111.267 16.2363C110.98 16.2363 110.73 16.2977 110.518 16.4204C110.311 16.5431 110.14 16.7082 110.004 16.9155C109.864 17.1229 109.761 17.3641 109.693 17.6392C109.63 17.9142 109.598 18.202 109.598 18.5024V18.6357ZM118.745 13.4561V15.1318H121.328V16.2681H118.745V19.5498C118.745 19.8037 118.774 20.0174 118.833 20.1909C118.897 20.3602 118.984 20.4935 119.094 20.5908C119.204 20.6924 119.335 20.7643 119.487 20.8066C119.64 20.849 119.807 20.8701 119.989 20.8701C120.12 20.8701 120.255 20.8638 120.395 20.8511C120.535 20.8384 120.67 20.8215 120.801 20.8003C120.928 20.7834 121.047 20.7643 121.157 20.7432C121.271 20.7178 121.366 20.6966 121.442 20.6797L121.607 21.7271C121.497 21.7948 121.364 21.854 121.207 21.9048C121.055 21.9513 120.89 21.9915 120.712 22.0254C120.535 22.0592 120.348 22.0846 120.154 22.1016C119.963 22.1227 119.773 22.1333 119.582 22.1333C119.235 22.1333 118.916 22.0868 118.624 21.9937C118.336 21.8963 118.089 21.7461 117.881 21.543C117.674 21.3441 117.511 21.0881 117.393 20.7749C117.278 20.4618 117.221 20.0851 117.221 19.645V16.2681H115.558V15.1318H117.221V13.4561H118.745Z" fill="white"/>
<defs>
<linearGradient id="paint0_linear_3299_39466" x1="1200" y1="0" x2="1200" y2="2400" gradientUnits="userSpaceOnUse">
<stop stop-color="#2AABEE"/>
<stop offset="1" stop-color="#229ED9"/>
</linearGradient>
<clipPath id="clip0_3299_39466">
<rect width="24" height="24" fill="white"/>
</clipPath>
</defs>
</svg>
