<svg width="77" height="28" viewBox="0 0 77 28" fill="none" xmlns="http://www.w3.org/2000/svg">
<path d="M0.227115 16.5242C0.715598 19.2257 1.9949 21.8111 4.06329 23.8998C9.4817 29.3712 18.2663 29.3712 23.6841 23.8998C27.8539 19.6892 28.8146 13.4653 26.5665 8.32723C25.9086 6.8235 24.9756 5.41259 23.7679 4.17272C23.7402 4.14411 23.7124 4.11551 23.6841 4.08691C23.6558 4.0583 23.6275 4.03028 23.5991 4.00226C22.3713 2.79333 20.8931 1.99769 19.3352 1.6165C17.2165 1.09638 14.951 1.34214 12.9704 2.35319C12.6271 2.52889 12.2924 2.72737 11.968 2.94919C11.6698 3.15233 11.3807 3.37591 11.1027 3.61816C10.9321 3.76702 10.7656 3.92346 10.6038 4.08691C6.99188 7.73414 6.99188 13.6481 10.6038 17.2953C11.5634 18.2643 12.682 18.9759 13.874 19.4306C14.9099 19.8252 16.0025 20.0255 17.0951 20.0313V17.2288C15.9447 17.2206 14.8411 16.9106 13.874 16.3362C13.4023 16.0572 12.9629 15.7151 12.5658 15.3141C11.3431 14.0794 10.6697 12.4374 10.6697 10.6914C10.6697 8.94541 11.3431 7.30276 12.5658 6.06814C13.789 4.83352 15.4146 4.15345 17.1442 4.15345C17.5818 4.15345 18.0125 4.19723 18.4322 4.28246C19.6254 4.52355 20.7261 5.10204 21.6221 5.9689C21.6556 6.00159 21.6891 6.03486 21.7221 6.06814C21.755 6.10141 21.788 6.13527 21.8204 6.16912C22.7031 7.08152 23.4124 8.11942 23.9333 9.24371C24.6143 10.7112 24.9732 12.3241 24.9732 13.9931C24.9732 14.2546 24.9646 14.5149 24.9472 14.7729C24.9206 15.1588 24.8756 15.5406 24.8108 15.9177C24.7478 16.2889 24.6669 16.6549 24.5674 17.0151C24.0616 18.8516 23.0933 20.5339 21.7221 21.9186C19.626 24.0352 16.8384 25.201 13.874 25.201C10.9096 25.201 8.12204 24.0352 6.02532 21.9186C4.53328 20.4119 3.51816 18.5515 3.05742 16.5242C2.8707 15.7034 2.77474 14.8558 2.77474 13.9931C2.77474 13.7514 2.78226 13.5109 2.79729 13.2715H0.018426C-0.0370702 14.3585 0.0328782 15.4507 0.227115 16.5242Z" fill="black"/>
<path d="M2.79415 13.3567C2.77994 13.5895 2.77283 13.8234 2.77283 14.0584C2.77283 14.3203 2.78634 14.5809 2.80389 14.8398H0.0238904C-0.00366096 14.3392 -0.00904613 13.8375 0.0165152 13.3369H0.0175053C0.0435323 12.8372 0.0851052 12.3388 0.163849 11.8438H2.97817C2.87935 12.3397 2.8273 12.8449 2.79534 13.3567H2.79415Z" fill="black"/>
<path d="M17.1197 20.0336C16.7798 20.0318 16.4398 20.0111 16.1016 19.9717V17.1436C16.4323 17.1986 16.7695 17.2281 17.1108 17.231V17.2308C17.1137 17.2309 17.1167 17.231 17.1196 17.231C17.1196 17.231 17.1197 17.231 17.1197 17.231C17.1331 17.2314 17.1467 17.2314 17.1599 17.2314H17.16C17.502 17.2314 17.8399 17.2047 18.1715 17.1525V19.9776C17.8221 20.0162 17.4709 20.0348 17.1197 20.0334V20.0336Z" fill="black"/>
<path d="M17.0859 17.2198V20.0223C19.4694 20.0346 21.8563 19.1228 23.675 17.2863C23.8374 17.1223 23.9923 16.9542 24.1397 16.7814C24.3802 16.5006 24.6005 16.2093 24.8017 15.9087C24.8664 15.5316 24.9115 15.1498 24.9381 14.764C24.9554 14.506 24.9641 14.2456 24.9641 13.9841C24.9641 12.3152 24.6051 10.7023 23.9241 9.23474C23.4033 8.11045 22.694 7.07255 21.8112 6.16016C22.6703 7.06496 23.2431 8.17699 23.4825 9.38301C23.5669 9.80622 23.6096 10.2411 23.6096 10.6824C23.6096 12.4284 22.9362 14.0705 21.7129 15.3051C20.4903 16.5403 18.8641 17.2204 17.1351 17.2204C17.1189 17.2204 17.1021 17.2204 17.0859 17.2198Z" fill="black"/>
<path d="M0 13.288H2.77886C2.94882 10.566 4.08013 8.03026 6.00689 6.08464C7.37811 4.70058 9.04416 3.72281 10.8628 3.21145C11.2195 3.11163 11.582 3.02932 11.9496 2.96569C12.2739 2.74387 12.6086 2.54539 12.952 2.36969C14.9325 1.35864 17.1981 1.11289 19.3168 1.633C20.8747 2.01419 22.3529 2.80983 23.5807 4.01877C22.3529 2.79874 20.955 1.85658 19.4659 1.19286C14.3776 -1.07732 8.21461 -0.107141 4.04487 4.10341C1.51748 6.65554 0.169379 9.94669 0 13.288Z" fill="black"/>
<path d="M37.0015 17.3489L42.6007 23.3389H39.2057L34.7086 18.1984V23.3389H32.1953V7.58887H34.7086V16.5668L39.1176 11.0199H42.6007L37.0015 17.3489Z" fill="black"/>
<path d="M45.6122 22.6601C44.6878 22.1362 43.9612 21.3978 43.433 20.4455C42.9047 19.4932 42.6406 18.3902 42.6406 17.1348C42.6406 15.8794 42.9122 14.7954 43.4553 13.8355C43.9978 12.8763 44.7392 12.1379 45.6785 11.6209C46.6177 11.1045 47.6667 10.8457 48.8261 10.8457C49.9854 10.8457 51.0344 11.1039 51.9737 11.6209C52.9129 12.1379 53.6538 12.8757 54.1969 13.8355C54.7394 14.7954 55.0115 15.8949 55.0115 17.1348C55.0115 18.3746 54.7325 19.4748 54.1752 20.434C53.6172 21.3938 52.858 22.1357 51.8971 22.6596C50.9355 23.1835 49.8756 23.4457 48.7163 23.4457C47.557 23.4457 46.5371 23.184 45.6127 22.6596L45.6122 22.6601ZM50.5319 20.7894C51.0967 20.4794 51.5558 20.0142 51.9079 19.3943C52.2601 18.7743 52.4361 18.0215 52.4361 17.1354C52.4361 16.2492 52.2675 15.5004 51.9296 14.8879C51.5918 14.2755 51.1442 13.8137 50.5868 13.5037C50.0288 13.1938 49.4275 13.0385 48.7815 13.0385C48.1355 13.0385 47.5375 13.1932 46.9876 13.5037C46.4371 13.8137 46.0003 14.2755 45.6779 14.8879C45.3549 15.501 45.1937 16.2497 45.1937 17.1354C45.1937 18.4494 45.5275 19.4644 46.1952 20.1798C46.863 20.8958 47.7033 21.2541 48.7157 21.2541C49.3611 21.2541 49.9665 21.0988 50.5319 20.7888V20.7894Z" fill="black"/>
<path d="M64.615 20.7899H62.5484C60.5532 20.7899 58.9355 19.1601 58.9355 17.1488V7.58887H56.4062V17.1529C56.4062 20.5693 59.1544 23.3389 62.5443 23.3389H64.6144V20.7899H64.615Z" fill="black"/>
<path d="M67.6121 22.6601C66.6878 22.1362 65.9612 21.3978 65.433 20.4455C64.9047 19.4932 64.6406 18.3902 64.6406 17.1348C64.6406 15.8794 64.9122 14.7954 65.4553 13.8355C65.9978 12.8763 66.7392 12.1379 67.6785 11.6209C68.6177 11.1045 69.6667 10.8457 70.8261 10.8457C71.9854 10.8457 73.0344 11.1039 73.9737 11.6209C74.9129 12.1379 75.6538 12.8757 76.1969 13.8355C76.7394 14.7954 77.0115 15.8949 77.0115 17.1348C77.0115 18.3746 76.7325 19.4748 76.1752 20.434C75.6172 21.3938 74.858 22.1357 73.8971 22.6596C72.9355 23.1835 71.8756 23.4457 70.7163 23.4457C69.557 23.4457 68.5371 23.184 67.6127 22.6596L67.6121 22.6601ZM72.5319 20.7894C73.0967 20.4794 73.5558 20.0142 73.9079 19.3943C74.2601 18.7743 74.4361 18.0215 74.4361 17.1354C74.4361 16.2492 74.2675 15.5004 73.9296 14.8879C73.5918 14.2755 73.1442 13.8137 72.5868 13.5037C72.0288 13.1938 71.4275 13.0385 70.7815 13.0385C70.1355 13.0385 69.5375 13.1932 68.9876 13.5037C68.4371 13.8137 68.0003 14.2755 67.6779 14.8879C67.3549 15.501 67.1937 16.2497 67.1937 17.1354C67.1937 18.4494 67.5275 19.4644 68.1953 20.1798C68.863 20.8958 69.7033 21.2541 70.7157 21.2541C71.3611 21.2541 71.9665 21.0988 72.5319 20.7888V20.7894Z" fill="black"/>
</svg>
