<svg width="18" height="18" viewBox="0 0 18 18" fill="none" xmlns="http://www.w3.org/2000/svg">
<path fill-rule="evenodd" clip-rule="evenodd" d="M2.82719 3.77143C3.45923 3.07453 4.35724 2.6875 5.41011 2.6875H12.9627C14.0181 2.6875 14.9166 3.07427 15.5484 3.77166C16.176 4.46438 16.4986 5.41663 16.4986 6.47678V11.5545C16.4986 12.615 16.176 13.5673 15.5483 14.26C14.9163 14.9573 14.0176 15.3438 12.962 15.3438H5.41011C4.3548 15.3438 3.45646 14.9573 2.82476 14.2599C2.19731 13.5671 1.875 12.6148 1.875 11.5545V6.47678C1.875 5.41596 2.19925 4.46382 2.82719 3.77143ZM3.65013 4.55981C3.24854 5.00262 3 5.65606 3 6.47678V11.5545C3 12.3764 3.24755 13.0297 3.64818 13.472C4.04457 13.9096 4.63252 14.1875 5.41011 14.1875H12.962C13.74 14.1875 14.3284 13.9095 14.725 13.4719C15.1259 13.0296 15.3736 12.3763 15.3736 11.5545V6.47678C15.3736 5.65538 15.126 5.00206 14.7251 4.55959C14.3284 4.12179 13.7403 3.84375 12.9627 3.84375H5.41011C4.63593 3.84375 4.04763 4.12152 3.65013 4.55981Z" fill="black"/>
<path fill-rule="evenodd" clip-rule="evenodd" d="M1.875 7.37695C1.875 7.06629 2.12684 6.81445 2.4375 6.81445H15.9361C16.2467 6.81445 16.4986 7.06629 16.4986 7.37695C16.4986 7.68765 16.2467 7.93942 15.9361 7.93942H2.4375C2.12684 7.93942 1.875 7.68765 1.875 7.37695Z" fill="black"/>
<path fill-rule="evenodd" clip-rule="evenodd" d="M4.79688 11.3789C4.79688 11.0683 5.04872 10.8164 5.35937 10.8164H6.43051C6.74117 10.8164 6.99301 11.0683 6.99301 11.3789C6.99301 11.6896 6.74117 11.9414 6.43051 11.9414H5.35937C5.04872 11.9414 4.79688 11.6896 4.79688 11.3789Z" fill="black"/>
<path fill-rule="evenodd" clip-rule="evenodd" d="M7.71094 11.3789C7.71094 11.0683 7.96279 10.8164 8.27344 10.8164H9.34459C9.65524 10.8164 9.90709 11.0683 9.90709 11.3789C9.90709 11.6896 9.65524 11.9414 9.34459 11.9414H8.27344C7.96279 11.9414 7.71094 11.6896 7.71094 11.3789Z" fill="black"/>
</svg>
