<svg width="18" height="18" viewBox="0 0 18 18" fill="none" xmlns="http://www.w3.org/2000/svg">
<path d="M13.2275 2.70605C14.1301 2.72024 14.6795 2.77692 15.125 3.00391C15.6472 3.27015 16.0718 3.69548 16.3379 4.21777C16.6403 4.81171 16.6406 5.58979 16.6406 7.14453V10.8584L16.6357 11.8877C16.6345 11.9683 16.63 12.046 16.6279 12.1211V12.375H16.6191C16.5905 12.9995 16.5208 13.4261 16.3379 13.7852L16.2314 13.9766C15.9648 14.4113 15.5819 14.7651 15.125 14.998L15.0107 15.0518C14.5851 15.2345 14.0547 15.2839 13.2275 15.2969L12.1982 15.3008H5.79492L4.76465 15.2969C3.9375 15.2839 3.40712 15.2345 2.98145 15.0518L2.86816 14.998C2.41123 14.7652 2.0285 14.4112 1.76172 13.9766L1.6543 13.7852C1.47134 13.4261 1.40164 12.9995 1.37305 12.375H1.35547V11.584L1.35156 10.8584V7.14453C1.35156 5.68672 1.35128 4.9116 1.60059 4.33105L1.6543 4.21777C1.88725 3.76058 2.24177 3.37813 2.67676 3.11133L2.86816 3.00391C3.31357 2.77714 3.86237 2.72024 4.76465 2.70605L5.79492 2.70117H12.1982L13.2275 2.70605ZM2.48535 11.8701C2.48975 12.1527 2.49903 12.3867 2.51562 12.5898C2.54775 12.9828 2.60451 13.1613 2.66113 13.2725C2.81903 13.582 3.07127 13.8334 3.38086 13.9912L3.47852 14.0342C3.59377 14.0755 3.76793 14.1126 4.0625 14.1367C4.4688 14.1699 4.99895 14.1709 5.79492 14.1709H12.1982C12.9941 14.1709 13.5235 14.1699 13.9297 14.1367C14.3224 14.1046 14.5002 14.0478 14.6113 13.9912L14.7256 13.9277C14.9831 13.7696 15.193 13.5431 15.3311 13.2725L15.374 13.1738C15.4153 13.0586 15.4525 12.8845 15.4766 12.5898C15.4873 12.4588 15.493 12.3147 15.498 12.1533V9.57422H12.4443C12.1745 9.57422 11.9455 9.7023 11.8154 9.88184L11.7656 9.96191L11.6436 10.1963V10.1973C11.1222 11.1944 10.0764 11.7985 8.96191 11.7988C7.91691 11.7988 6.93207 11.2678 6.38379 10.3789L6.28027 10.1963L6.15723 9.96191V9.96094C6.04104 9.74045 5.78595 9.57436 5.47852 9.57422H2.48535V11.8701ZM3.38672 6.86621C3.2773 6.8666 3.05669 6.96126 2.82324 7.20508C2.71757 7.31546 2.63252 7.43305 2.57715 7.53711C2.52222 7.64035 2.51462 7.69519 2.51367 7.7002H2.48145V8.44434H5.47852C6.18993 8.44448 6.84055 8.8302 7.15918 9.43945L7.28125 9.67383C7.5795 10.2453 8.17003 10.6196 8.8291 10.6641L8.96191 10.6689C9.62877 10.6687 10.2417 10.3295 10.5781 9.78516L10.6416 9.67383L10.7646 9.43945C11.0629 8.86834 11.6527 8.49376 12.3115 8.44922L12.4443 8.44434H15.5107V7.7002H15.4834C15.4825 7.6955 15.4749 7.64016 15.4199 7.53613C15.3648 7.4321 15.2798 7.31424 15.1748 7.2041C14.9424 6.96036 14.7228 6.86621 14.6143 6.86621H3.38672ZM5.79492 3.83105C4.99893 3.83105 4.4688 3.83206 4.0625 3.86523C3.76764 3.88934 3.59377 3.92741 3.47852 3.96875L3.38086 4.01074C3.10967 4.14892 2.88284 4.35915 2.72461 4.61719L2.66113 4.73047C2.60452 4.8416 2.54774 5.01915 2.51562 5.41211C2.50114 5.58941 2.49212 5.79018 2.4873 6.02637C2.74915 5.85877 3.05621 5.73552 3.38672 5.73535H14.6143C14.9402 5.73535 15.243 5.8556 15.502 6.01953C15.4971 5.78635 15.4909 5.58767 15.4766 5.41211C15.4525 5.11746 15.4153 4.94338 15.374 4.82812L15.3311 4.73047C15.1732 4.42076 14.921 4.16863 14.6113 4.01074C14.5002 3.95418 14.3222 3.89733 13.9297 3.86523C13.5235 3.83205 12.994 3.83106 12.1982 3.83105H5.79492Z" fill="black"/>
</svg>
