<svg width="61" height="60" viewBox="0 0 61 60" fill="none" xmlns="http://www.w3.org/2000/svg">
<foreignObject x="-59.9141" y="-60" width="180" height="180"><div xmlns="http://www.w3.org/1999/xhtml" style="backdrop-filter:blur(30px);clip-path:url(#bgblur_1_3475_40750_clip_path);height:100%;width:100%"></div></foreignObject><g data-figma-bg-blur-radius="60">
<g clip-path="url(#clip0_3475_40750)">
<rect x="0.0859375" width="60" height="60" rx="13.3333" fill="white" fill-opacity="0.3"/>
<path d="M37.6137 28.9292C39.4488 28.0116 40.5193 26.4823 40.3663 23.7297C40.0605 20.0594 36.849 18.836 32.8729 18.3772V13.3307H29.8144V18.2243C29.0498 18.2243 28.1322 18.2243 27.3676 18.2243V13.1777H24.309V18.2243C23.6973 18.2243 22.9327 18.2243 22.321 18.2243H18.0391V21.5887H20.333C21.5564 21.5887 22.0152 22.3533 22.1681 22.965V28.7762C22.321 28.7762 22.321 28.7762 22.4739 28.7762C22.321 28.7762 22.321 28.7762 22.1681 28.7762V36.8813C22.1681 37.3401 21.8622 37.9518 20.9447 37.9518H18.6508L18.0391 41.6221H22.0152C22.7798 41.6221 23.5444 41.6221 24.1561 41.6221V46.8216H27.2147V41.775C28.1322 41.775 28.8968 41.775 29.6615 41.775V46.8216H32.72V41.6221C37.9195 41.3162 41.5898 40.0928 42.0485 35.1992C42.5073 31.5289 40.6722 29.6938 37.6137 28.9292ZM27.3676 22.0475C29.0498 22.0475 34.5551 21.5887 34.5551 25.2589C34.5551 28.7762 29.0498 28.3175 27.3676 28.3175V22.0475ZM27.2147 38.1048V31.2231C29.3556 31.2231 35.9315 30.6114 35.9315 34.7404C35.9315 38.5635 29.3556 38.1048 27.2147 38.1048Z" fill="white"/>
</g>
<rect x="0.335938" y="0.25" width="59.5" height="59.5" rx="13.0833" stroke="url(#paint0_linear_3475_40750)" stroke-opacity="0.3" stroke-width="0.5"/>
</g>
<defs>
<clipPath id="bgblur_1_3475_40750_clip_path" transform="translate(59.9141 60)"><rect x="0.0859375" width="60" height="60" rx="13.3333"/>
</clipPath><linearGradient id="paint0_linear_3475_40750" x1="30.0859" y1="0" x2="30.0859" y2="60" gradientUnits="userSpaceOnUse">
<stop stop-color="white"/>
<stop offset="0.826923" stop-color="white" stop-opacity="0"/>
<stop offset="1" stop-color="white" stop-opacity="0.8"/>
</linearGradient>
<clipPath id="clip0_3475_40750">
<rect x="0.0859375" width="60" height="60" rx="13.3333" fill="white"/>
</clipPath>
</defs>
</svg>
