<svg width="61" height="60" viewBox="0 0 61 60" fill="none" xmlns="http://www.w3.org/2000/svg">
<foreignObject x="-59.9141" y="-60" width="180" height="180"><div xmlns="http://www.w3.org/1999/xhtml" style="backdrop-filter:blur(30px);clip-path:url(#bgblur_1_3475_40753_clip_path);height:100%;width:100%"></div></foreignObject><g data-figma-bg-blur-radius="60">
<g clip-path="url(#clip0_3475_40753)">
<rect x="0.0859375" width="60" height="60" rx="13.3333" fill="white" fill-opacity="0.3"/>
<path opacity="0.3" d="M18.2812 32.6016L29.9132 49.0947V39.546L18.2812 32.6016Z" fill="white"/>
<path opacity="0.8" d="M29.9062 39.546V49.0947L41.7119 32.6016L29.9062 39.546Z" fill="white"/>
<path opacity="0.8" d="M29.9062 10.9062V37.2952L41.7119 30.3508L29.9062 10.9062Z" fill="white"/>
<path opacity="0.3" d="M29.9132 10.9062V37.2952L18.2812 30.3508L29.9132 10.9062Z" fill="white"/>
<path opacity="0.6" d="M29.9132 24.9688L18.2812 30.3507L29.9132 37.2952V24.9688Z" fill="white"/>
<path d="M29.9062 24.9688V37.2952L41.7119 30.3507L29.9062 24.9688Z" fill="white"/>
</g>
<rect x="0.335938" y="0.25" width="59.5" height="59.5" rx="13.0833" stroke="url(#paint0_linear_3475_40753)" stroke-opacity="0.3" stroke-width="0.5"/>
</g>
<defs>
<clipPath id="bgblur_1_3475_40753_clip_path" transform="translate(59.9141 60)"><rect x="0.0859375" width="60" height="60" rx="13.3333"/>
</clipPath><linearGradient id="paint0_linear_3475_40753" x1="30.0859" y1="0" x2="30.0859" y2="60" gradientUnits="userSpaceOnUse">
<stop stop-color="white"/>
<stop offset="0.826923" stop-color="white" stop-opacity="0"/>
<stop offset="1" stop-color="white" stop-opacity="0.8"/>
</linearGradient>
<clipPath id="clip0_3475_40753">
<rect x="0.0859375" width="60" height="60" rx="13.3333" fill="white"/>
</clipPath>
</defs>
</svg>
