<svg width="61" height="60" viewBox="0 0 61 60" fill="none" xmlns="http://www.w3.org/2000/svg">
<foreignObject x="-59.9141" y="-60" width="180" height="180"><div xmlns="http://www.w3.org/1999/xhtml" style="backdrop-filter:blur(30px);clip-path:url(#bgblur_0_3475_40762_clip_path);height:100%;width:100%"></div></foreignObject><g data-figma-bg-blur-radius="60">
<rect x="0.0859375" width="60" height="60" rx="13.3333" fill="white" fill-opacity="0.3"/>
<rect x="0.335938" y="0.25" width="59.5" height="59.5" rx="13.0833" stroke="url(#paint0_linear_3475_40762)" stroke-opacity="0.3" stroke-width="0.5"/>
<path fill-rule="evenodd" clip-rule="evenodd" d="M38.6346 27.0636L38.634 27.0653C40.1809 29.0049 41.1053 31.4615 41.1053 34.1336C41.1053 36.8452 40.1532 39.3352 38.5646 41.288L38.4277 41.4561L38.3915 41.2424C38.3606 41.0607 38.3244 40.8772 38.2823 40.6923C37.4873 37.1991 34.897 34.2037 30.6335 31.7784C27.7546 30.145 26.1067 28.1784 25.674 25.9439C25.3946 24.4989 25.6023 23.0476 26.0038 21.8044C26.4052 20.5617 27.0022 19.5205 27.5094 18.8937L29.1682 16.8654C29.4591 16.5097 30.0033 16.5097 30.2942 16.8654L38.6346 27.0636ZM41.2578 25.0376L30.1421 11.4446C29.9298 11.1851 29.5325 11.1851 29.3203 11.4446L18.204 25.0369L18.1682 25.0825C16.1226 27.6209 14.8984 30.8467 14.8984 34.3583C14.8984 42.5366 21.5391 49.1667 29.7311 49.1667C37.9231 49.1667 44.5638 42.5366 44.5638 34.3583C44.5638 30.8468 43.3396 27.6209 41.2941 25.0825L41.2578 25.0376ZM20.8638 27.0199L21.8585 25.8035L21.8886 26.0279C21.9124 26.2057 21.9412 26.3844 21.9755 26.5639C22.6188 29.9393 24.9169 32.7539 28.7593 34.9337C32.0991 36.8345 34.0437 39.0204 34.604 41.4177C34.8378 42.4181 34.8795 43.4025 34.7783 44.2631L34.7719 44.3163L34.7238 44.3399C33.2163 45.0763 31.5217 45.4896 29.7308 45.4896C23.449 45.4896 18.3563 40.4055 18.3563 34.1336C18.3563 31.4407 19.2951 28.9664 20.8638 27.0199Z" fill="white"/>
</g>
<defs>
<clipPath id="bgblur_0_3475_40762_clip_path" transform="translate(59.9141 60)"><rect x="0.0859375" width="60" height="60" rx="13.3333"/>
</clipPath><linearGradient id="paint0_linear_3475_40762" x1="30.0859" y1="0" x2="30.0859" y2="60" gradientUnits="userSpaceOnUse">
<stop stop-color="white"/>
<stop offset="0.826923" stop-color="white" stop-opacity="0"/>
<stop offset="1" stop-color="white" stop-opacity="0.8"/>
</linearGradient>
</defs>
</svg>
