<svg width="450" height="450" viewBox="0 0 450 450" fill="none" xmlns="http://www.w3.org/2000/svg">
<g clip-path="url(#clip0_3562_41520)">
<path d="M450 0H0V450H450V0Z" fill="white"/>
<path d="M41.5645 27.9752H27.9766V41.5631H41.5645V27.9752Z" fill="black"/>
<path d="M55.1504 27.9752H41.5625V41.5631H55.1504V27.9752Z" fill="black"/>
<path d="M68.7364 27.9752H55.1484V41.5631H68.7364V27.9752Z" fill="black"/>
<path d="M82.3301 27.9752H68.7422V41.5631H82.3301V27.9752Z" fill="black"/>
<path d="M95.916 27.9752H82.3281V41.5631H95.916V27.9752Z" fill="black"/>
<path d="M109.502 27.9752H95.9141V41.5631H109.502V27.9752Z" fill="black"/>
<path d="M123.088 27.9752H109.5V41.5631H123.088V27.9752Z" fill="black"/>
<path d="M136.682 27.9752H123.094V41.5631H136.682V27.9752Z" fill="white"/>
<path d="M150.268 27.9752H136.68V41.5631H150.268V27.9752Z" fill="black"/>
<path d="M163.854 27.9752H150.266V41.5631H163.854V27.9752Z" fill="white"/>
<path d="M177.439 27.9752H163.852V41.5631H177.439V27.9752Z" fill="white"/>
<path d="M191.033 27.9752H177.445V41.5631H191.033V27.9752Z" fill="white"/>
<path d="M204.619 27.9752H191.031V41.5631H204.619V27.9752Z" fill="white"/>
<path d="M218.205 27.9752H204.617V41.5631H218.205V27.9752Z" fill="black"/>
<path d="M231.791 27.9752H218.203V41.5631H231.791V27.9752Z" fill="black"/>
<path d="M245.385 27.9752H231.797V41.5631H245.385V27.9752Z" fill="black"/>
<path d="M258.971 27.9752H245.383V41.5631H258.971V27.9752Z" fill="black"/>
<path d="M272.557 27.9752H258.969V41.5631H272.557V27.9752Z" fill="white"/>
<path d="M286.143 27.9752H272.555V41.5631H286.143V27.9752Z" fill="white"/>
<path d="M299.736 27.9752H286.148V41.5631H299.736V27.9752Z" fill="black"/>
<path d="M313.322 27.9752H299.734V41.5631H313.322V27.9752Z" fill="white"/>
<path d="M326.908 27.9752H313.32V41.5631H326.908V27.9752Z" fill="white"/>
<path d="M340.494 27.9752H326.906V41.5631H340.494V27.9752Z" fill="black"/>
<path d="M354.088 27.9752H340.5V41.5631H354.088V27.9752Z" fill="black"/>
<path d="M367.674 27.9752H354.086V41.5631H367.674V27.9752Z" fill="black"/>
<path d="M381.26 27.9752H367.672V41.5631H381.26V27.9752Z" fill="black"/>
<path d="M394.846 27.9752H381.258V41.5631H394.846V27.9752Z" fill="black"/>
<path d="M408.439 27.9752H394.852V41.5631H408.439V27.9752Z" fill="black"/>
<path d="M422.025 27.9752H408.438V41.5631H422.025V27.9752Z" fill="black"/>
<path d="M41.5645 41.563H27.9766V55.151H41.5645V41.563Z" fill="black"/>
<path d="M55.1504 41.563H41.5625V55.151H55.1504V41.563Z" fill="white"/>
<path d="M68.7364 41.563H55.1484V55.151H68.7364V41.563Z" fill="white"/>
<path d="M82.3301 41.563H68.7422V55.151H82.3301V41.563Z" fill="white"/>
<path d="M95.916 41.563H82.3281V55.151H95.916V41.563Z" fill="white"/>
<path d="M109.502 41.563H95.9141V55.151H109.502V41.563Z" fill="white"/>
<path d="M123.088 41.563H109.5V55.151H123.088V41.563Z" fill="black"/>
<path d="M136.682 41.563H123.094V55.151H136.682V41.563Z" fill="white"/>
<path d="M150.268 41.563H136.68V55.151H150.268V41.563Z" fill="black"/>
<path d="M163.854 41.563H150.266V55.151H163.854V41.563Z" fill="white"/>
<path d="M177.439 41.563H163.852V55.151H177.439V41.563Z" fill="white"/>
<path d="M191.033 41.563H177.445V55.151H191.033V41.563Z" fill="black"/>
<path d="M204.619 41.563H191.031V55.151H204.619V41.563Z" fill="black"/>
<path d="M218.205 41.563H204.617V55.151H218.205V41.563Z" fill="white"/>
<path d="M231.791 41.563H218.203V55.151H231.791V41.563Z" fill="white"/>
<path d="M245.385 41.563H231.797V55.151H245.385V41.563Z" fill="white"/>
<path d="M258.971 41.563H245.383V55.151H258.971V41.563Z" fill="black"/>
<path d="M272.557 41.563H258.969V55.151H272.557V41.563Z" fill="white"/>
<path d="M286.143 41.563H272.555V55.151H286.143V41.563Z" fill="black"/>
<path d="M299.736 41.563H286.148V55.151H299.736V41.563Z" fill="black"/>
<path d="M313.322 41.563H299.734V55.151H313.322V41.563Z" fill="black"/>
<path d="M326.908 41.563H313.32V55.151H326.908V41.563Z" fill="white"/>
<path d="M340.494 41.563H326.906V55.151H340.494V41.563Z" fill="black"/>
<path d="M354.088 41.563H340.5V55.151H354.088V41.563Z" fill="white"/>
<path d="M367.674 41.563H354.086V55.151H367.674V41.563Z" fill="white"/>
<path d="M381.26 41.563H367.672V55.151H381.26V41.563Z" fill="white"/>
<path d="M394.846 41.563H381.258V55.151H394.846V41.563Z" fill="white"/>
<path d="M408.439 41.563H394.852V55.151H408.439V41.563Z" fill="white"/>
<path d="M422.025 41.563H408.438V55.151H422.025V41.563Z" fill="black"/>
<path d="M41.5645 55.151H27.9766V68.7389H41.5645V55.151Z" fill="black"/>
<path d="M55.1504 55.151H41.5625V68.7389H55.1504V55.151Z" fill="white"/>
<path d="M68.7364 55.151H55.1484V68.7389H68.7364V55.151Z" fill="black"/>
<path d="M82.3301 55.151H68.7422V68.7389H82.3301V55.151Z" fill="black"/>
<path d="M95.916 55.151H82.3281V68.7389H95.916V55.151Z" fill="black"/>
<path d="M109.502 55.151H95.9141V68.7389H109.502V55.151Z" fill="white"/>
<path d="M123.088 55.151H109.5V68.7389H123.088V55.151Z" fill="black"/>
<path d="M136.682 55.151H123.094V68.7389H136.682V55.151Z" fill="white"/>
<path d="M150.268 55.151H136.68V68.7389H150.268V55.151Z" fill="black"/>
<path d="M163.854 55.151H150.266V68.7389H163.854V55.151Z" fill="black"/>
<path d="M177.439 55.151H163.852V68.7389H177.439V55.151Z" fill="white"/>
<path d="M191.033 55.151H177.445V68.7389H191.033V55.151Z" fill="white"/>
<path d="M204.619 55.151H191.031V68.7389H204.619V55.151Z" fill="black"/>
<path d="M218.205 55.151H204.617V68.7389H218.205V55.151Z" fill="white"/>
<path d="M231.791 55.151H218.203V68.7389H231.791V55.151Z" fill="white"/>
<path d="M245.385 55.151H231.797V68.7389H245.385V55.151Z" fill="black"/>
<path d="M258.971 55.151H245.383V68.7389H258.971V55.151Z" fill="black"/>
<path d="M272.557 55.151H258.969V68.7389H272.557V55.151Z" fill="black"/>
<path d="M286.143 55.151H272.555V68.7389H286.143V55.151Z" fill="white"/>
<path d="M299.736 55.151H286.148V68.7389H299.736V55.151Z" fill="white"/>
<path d="M313.322 55.151H299.734V68.7389H313.322V55.151Z" fill="black"/>
<path d="M326.908 55.151H313.32V68.7389H326.908V55.151Z" fill="white"/>
<path d="M340.494 55.151H326.906V68.7389H340.494V55.151Z" fill="black"/>
<path d="M354.088 55.151H340.5V68.7389H354.088V55.151Z" fill="white"/>
<path d="M367.674 55.151H354.086V68.7389H367.674V55.151Z" fill="black"/>
<path d="M381.26 55.151H367.672V68.7389H381.26V55.151Z" fill="black"/>
<path d="M394.846 55.151H381.258V68.7389H394.846V55.151Z" fill="black"/>
<path d="M408.439 55.151H394.852V68.7389H408.439V55.151Z" fill="white"/>
<path d="M422.025 55.151H408.438V68.7389H422.025V55.151Z" fill="black"/>
<path d="M41.5645 68.7389H27.9766V82.3268H41.5645V68.7389Z" fill="black"/>
<path d="M55.1504 68.7389H41.5625V82.3268H55.1504V68.7389Z" fill="white"/>
<path d="M68.7364 68.7389H55.1484V82.3268H68.7364V68.7389Z" fill="black"/>
<path d="M82.3301 68.7389H68.7422V82.3268H82.3301V68.7389Z" fill="black"/>
<path d="M95.916 68.7389H82.3281V82.3268H95.916V68.7389Z" fill="black"/>
<path d="M109.502 68.7389H95.9141V82.3268H109.502V68.7389Z" fill="white"/>
<path d="M123.088 68.7389H109.5V82.3268H123.088V68.7389Z" fill="black"/>
<path d="M136.682 68.7389H123.094V82.3268H136.682V68.7389Z" fill="white"/>
<path d="M150.268 68.7389H136.68V82.3268H150.268V68.7389Z" fill="black"/>
<path d="M163.854 68.7389H150.266V82.3268H163.854V68.7389Z" fill="black"/>
<path d="M177.439 68.7389H163.852V82.3268H177.439V68.7389Z" fill="black"/>
<path d="M191.033 68.7389H177.445V82.3268H191.033V68.7389Z" fill="white"/>
<path d="M204.619 68.7389H191.031V82.3268H204.619V68.7389Z" fill="black"/>
<path d="M218.205 68.7389H204.617V82.3268H218.205V68.7389Z" fill="white"/>
<path d="M231.791 68.7389H218.203V82.3268H231.791V68.7389Z" fill="black"/>
<path d="M245.385 68.7389H231.797V82.3268H245.385V68.7389Z" fill="black"/>
<path d="M258.971 68.7389H245.383V82.3268H258.971V68.7389Z" fill="black"/>
<path d="M272.557 68.7389H258.969V82.3268H272.557V68.7389Z" fill="white"/>
<path d="M286.143 68.7389H272.555V82.3268H286.143V68.7389Z" fill="black"/>
<path d="M299.736 68.7389H286.148V82.3268H299.736V68.7389Z" fill="black"/>
<path d="M313.322 68.7389H299.734V82.3268H313.322V68.7389Z" fill="white"/>
<path d="M326.908 68.7389H313.32V82.3268H326.908V68.7389Z" fill="white"/>
<path d="M340.494 68.7389H326.906V82.3268H340.494V68.7389Z" fill="black"/>
<path d="M354.088 68.7389H340.5V82.3268H354.088V68.7389Z" fill="white"/>
<path d="M367.674 68.7389H354.086V82.3268H367.674V68.7389Z" fill="black"/>
<path d="M381.26 68.7389H367.672V82.3268H381.26V68.7389Z" fill="black"/>
<path d="M394.846 68.7389H381.258V82.3268H394.846V68.7389Z" fill="black"/>
<path d="M408.439 68.7389H394.852V82.3268H408.439V68.7389Z" fill="white"/>
<path d="M422.025 68.7389H408.438V82.3268H422.025V68.7389Z" fill="black"/>
<path d="M41.5645 82.3268H27.9766V95.9148H41.5645V82.3268Z" fill="black"/>
<path d="M55.1504 82.3268H41.5625V95.9148H55.1504V82.3268Z" fill="white"/>
<path d="M68.7364 82.3268H55.1484V95.9148H68.7364V82.3268Z" fill="black"/>
<path d="M82.3301 82.3268H68.7422V95.9148H82.3301V82.3268Z" fill="black"/>
<path d="M95.916 82.3268H82.3281V95.9148H95.916V82.3268Z" fill="black"/>
<path d="M109.502 82.3268H95.9141V95.9148H109.502V82.3268Z" fill="white"/>
<path d="M123.088 82.3268H109.5V95.9148H123.088V82.3268Z" fill="black"/>
<path d="M136.682 82.3268H123.094V95.9148H136.682V82.3268Z" fill="white"/>
<path d="M150.268 82.3268H136.68V95.9148H150.268V82.3268Z" fill="white"/>
<path d="M163.854 82.3268H150.266V95.9148H163.854V82.3268Z" fill="black"/>
<path d="M177.439 82.3268H163.852V95.9148H177.439V82.3268Z" fill="black"/>
<path d="M191.033 82.3268H177.445V95.9148H191.033V82.3268Z" fill="white"/>
<path d="M204.619 82.3268H191.031V95.9148H204.619V82.3268Z" fill="black"/>
<path d="M218.205 82.3268H204.617V95.9148H218.205V82.3268Z" fill="white"/>
<path d="M231.791 82.3268H218.203V95.9148H231.791V82.3268Z" fill="white"/>
<path d="M245.385 82.3268H231.797V95.9148H245.385V82.3268Z" fill="black"/>
<path d="M258.971 82.3268H245.383V95.9148H258.971V82.3268Z" fill="black"/>
<path d="M272.557 82.3268H258.969V95.9148H272.557V82.3268Z" fill="white"/>
<path d="M286.143 82.3268H272.555V95.9148H286.143V82.3268Z" fill="black"/>
<path d="M299.736 82.3268H286.148V95.9148H299.736V82.3268Z" fill="white"/>
<path d="M313.322 82.3268H299.734V95.9148H313.322V82.3268Z" fill="white"/>
<path d="M326.908 82.3268H313.32V95.9148H326.908V82.3268Z" fill="white"/>
<path d="M340.494 82.3268H326.906V95.9148H340.494V82.3268Z" fill="black"/>
<path d="M354.088 82.3268H340.5V95.9148H354.088V82.3268Z" fill="white"/>
<path d="M367.674 82.3268H354.086V95.9148H367.674V82.3268Z" fill="black"/>
<path d="M381.26 82.3268H367.672V95.9148H381.26V82.3268Z" fill="black"/>
<path d="M394.846 82.3268H381.258V95.9148H394.846V82.3268Z" fill="black"/>
<path d="M408.439 82.3268H394.852V95.9148H408.439V82.3268Z" fill="white"/>
<path d="M422.025 82.3268H408.438V95.9148H422.025V82.3268Z" fill="black"/>
<path d="M41.5645 95.9147H27.9766V109.503H41.5645V95.9147Z" fill="black"/>
<path d="M55.1504 95.9147H41.5625V109.503H55.1504V95.9147Z" fill="white"/>
<path d="M68.7364 95.9147H55.1484V109.503H68.7364V95.9147Z" fill="white"/>
<path d="M82.3301 95.9147H68.7422V109.503H82.3301V95.9147Z" fill="white"/>
<path d="M95.916 95.9147H82.3281V109.503H95.916V95.9147Z" fill="white"/>
<path d="M109.502 95.9147H95.9141V109.503H109.502V95.9147Z" fill="white"/>
<path d="M123.088 95.9147H109.5V109.503H123.088V95.9147Z" fill="black"/>
<path d="M136.682 95.9147H123.094V109.503H136.682V95.9147Z" fill="white"/>
<path d="M150.268 95.9147H136.68V109.503H150.268V95.9147Z" fill="black"/>
<path d="M163.854 95.9147H150.266V109.503H163.854V95.9147Z" fill="black"/>
<path d="M177.439 95.9147H163.852V109.503H177.439V95.9147Z" fill="black"/>
<path d="M191.033 95.9147H177.445V109.503H191.033V95.9147Z" fill="white"/>
<path d="M204.619 95.9147H191.031V109.503H204.619V95.9147Z" fill="white"/>
<path d="M218.205 95.9147H204.617V109.503H218.205V95.9147Z" fill="white"/>
<path d="M231.791 95.9147H218.203V109.503H231.791V95.9147Z" fill="white"/>
<path d="M245.385 95.9147H231.797V109.503H245.385V95.9147Z" fill="white"/>
<path d="M258.971 95.9147H245.383V109.503H258.971V95.9147Z" fill="black"/>
<path d="M272.557 95.9147H258.969V109.503H272.557V95.9147Z" fill="black"/>
<path d="M286.143 95.9147H272.555V109.503H286.143V95.9147Z" fill="white"/>
<path d="M299.736 95.9147H286.148V109.503H299.736V95.9147Z" fill="black"/>
<path d="M313.322 95.9147H299.734V109.503H313.322V95.9147Z" fill="white"/>
<path d="M326.908 95.9147H313.32V109.503H326.908V95.9147Z" fill="white"/>
<path d="M340.494 95.9147H326.906V109.503H340.494V95.9147Z" fill="black"/>
<path d="M354.088 95.9147H340.5V109.503H354.088V95.9147Z" fill="white"/>
<path d="M367.674 95.9147H354.086V109.503H367.674V95.9147Z" fill="white"/>
<path d="M381.26 95.9147H367.672V109.503H381.26V95.9147Z" fill="white"/>
<path d="M394.846 95.9147H381.258V109.503H394.846V95.9147Z" fill="white"/>
<path d="M408.439 95.9147H394.852V109.503H408.439V95.9147Z" fill="white"/>
<path d="M422.025 95.9147H408.438V109.503H422.025V95.9147Z" fill="black"/>
<path d="M41.5645 109.503H27.9766V123.091H41.5645V109.503Z" fill="black"/>
<path d="M55.1504 109.503H41.5625V123.091H55.1504V109.503Z" fill="black"/>
<path d="M68.7364 109.503H55.1484V123.091H68.7364V109.503Z" fill="black"/>
<path d="M82.3301 109.503H68.7422V123.091H82.3301V109.503Z" fill="black"/>
<path d="M95.916 109.503H82.3281V123.091H95.916V109.503Z" fill="black"/>
<path d="M109.502 109.503H95.9141V123.091H109.502V109.503Z" fill="black"/>
<path d="M123.088 109.503H109.5V123.091H123.088V109.503Z" fill="black"/>
<path d="M136.682 109.503H123.094V123.091H136.682V109.503Z" fill="white"/>
<path d="M150.268 109.503H136.68V123.091H150.268V109.503Z" fill="black"/>
<path d="M163.854 109.503H150.266V123.091H163.854V109.503Z" fill="white"/>
<path d="M177.439 109.503H163.852V123.091H177.439V109.503Z" fill="black"/>
<path d="M191.033 109.503H177.445V123.091H191.033V109.503Z" fill="white"/>
<path d="M204.619 109.503H191.031V123.091H204.619V109.503Z" fill="black"/>
<path d="M218.205 109.503H204.617V123.091H218.205V109.503Z" fill="white"/>
<path d="M231.791 109.503H218.203V123.091H231.791V109.503Z" fill="black"/>
<path d="M245.385 109.503H231.797V123.091H245.385V109.503Z" fill="white"/>
<path d="M258.971 109.503H245.383V123.091H258.971V109.503Z" fill="black"/>
<path d="M272.557 109.503H258.969V123.091H272.557V109.503Z" fill="white"/>
<path d="M286.143 109.503H272.555V123.091H286.143V109.503Z" fill="black"/>
<path d="M299.736 109.503H286.148V123.091H299.736V109.503Z" fill="white"/>
<path d="M313.322 109.503H299.734V123.091H313.322V109.503Z" fill="black"/>
<path d="M326.908 109.503H313.32V123.091H326.908V109.503Z" fill="white"/>
<path d="M340.494 109.503H326.906V123.091H340.494V109.503Z" fill="black"/>
<path d="M354.088 109.503H340.5V123.091H354.088V109.503Z" fill="black"/>
<path d="M367.674 109.503H354.086V123.091H367.674V109.503Z" fill="black"/>
<path d="M381.26 109.503H367.672V123.091H381.26V109.503Z" fill="black"/>
<path d="M394.846 109.503H381.258V123.091H394.846V109.503Z" fill="black"/>
<path d="M408.439 109.503H394.852V123.091H408.439V109.503Z" fill="black"/>
<path d="M422.025 109.503H408.438V123.091H422.025V109.503Z" fill="black"/>
<path d="M41.5645 123.091H27.9766V136.678H41.5645V123.091Z" fill="white"/>
<path d="M55.1504 123.091H41.5625V136.678H55.1504V123.091Z" fill="white"/>
<path d="M68.7364 123.091H55.1484V136.678H68.7364V123.091Z" fill="white"/>
<path d="M82.3301 123.091H68.7422V136.678H82.3301V123.091Z" fill="white"/>
<path d="M95.916 123.091H82.3281V136.678H95.916V123.091Z" fill="white"/>
<path d="M109.502 123.091H95.9141V136.678H109.502V123.091Z" fill="white"/>
<path d="M123.088 123.091H109.5V136.678H123.088V123.091Z" fill="white"/>
<path d="M136.682 123.091H123.094V136.678H136.682V123.091Z" fill="white"/>
<path d="M150.268 123.091H136.68V136.678H150.268V123.091Z" fill="white"/>
<path d="M163.854 123.091H150.266V136.678H163.854V123.091Z" fill="white"/>
<path d="M177.439 123.091H163.852V136.678H177.439V123.091Z" fill="black"/>
<path d="M191.033 123.091H177.445V136.678H191.033V123.091Z" fill="black"/>
<path d="M204.619 123.091H191.031V136.678H204.619V123.091Z" fill="white"/>
<path d="M218.205 123.091H204.617V136.678H218.205V123.091Z" fill="white"/>
<path d="M231.791 123.091H218.203V136.678H231.791V123.091Z" fill="black"/>
<path d="M245.385 123.091H231.797V136.678H245.385V123.091Z" fill="white"/>
<path d="M258.971 123.091H245.383V136.678H258.971V123.091Z" fill="white"/>
<path d="M272.557 123.091H258.969V136.678H272.557V123.091Z" fill="black"/>
<path d="M286.143 123.091H272.555V136.678H286.143V123.091Z" fill="black"/>
<path d="M299.736 123.091H286.148V136.678H299.736V123.091Z" fill="black"/>
<path d="M313.322 123.091H299.734V136.678H313.322V123.091Z" fill="black"/>
<path d="M326.908 123.091H313.32V136.678H326.908V123.091Z" fill="white"/>
<path d="M340.494 123.091H326.906V136.678H340.494V123.091Z" fill="white"/>
<path d="M354.088 123.091H340.5V136.678H354.088V123.091Z" fill="white"/>
<path d="M367.674 123.091H354.086V136.678H367.674V123.091Z" fill="white"/>
<path d="M381.26 123.091H367.672V136.678H381.26V123.091Z" fill="white"/>
<path d="M394.846 123.091H381.258V136.678H394.846V123.091Z" fill="white"/>
<path d="M408.439 123.091H394.852V136.678H408.439V123.091Z" fill="white"/>
<path d="M422.025 123.091H408.438V136.678H422.025V123.091Z" fill="white"/>
<path d="M41.5645 136.679H27.9766V150.266H41.5645V136.679Z" fill="black"/>
<path d="M55.1504 136.679H41.5625V150.266H55.1504V136.679Z" fill="black"/>
<path d="M68.7364 136.679H55.1484V150.266H68.7364V136.679Z" fill="white"/>
<path d="M82.3301 136.679H68.7422V150.266H82.3301V136.679Z" fill="white"/>
<path d="M95.916 136.679H82.3281V150.266H95.916V136.679Z" fill="black"/>
<path d="M109.502 136.679H95.9141V150.266H109.502V136.679Z" fill="black"/>
<path d="M123.088 136.679H109.5V150.266H123.088V136.679Z" fill="black"/>
<path d="M136.682 136.679H123.094V150.266H136.682V136.679Z" fill="white"/>
<path d="M150.268 136.679H136.68V150.266H150.268V136.679Z" fill="white"/>
<path d="M163.854 136.679H150.266V150.266H163.854V136.679Z" fill="white"/>
<path d="M177.439 136.679H163.852V150.266H177.439V136.679Z" fill="black"/>
<path d="M191.033 136.679H177.445V150.266H191.033V136.679Z" fill="white"/>
<path d="M204.619 136.679H191.031V150.266H204.619V136.679Z" fill="black"/>
<path d="M218.205 136.679H204.617V150.266H218.205V136.679Z" fill="white"/>
<path d="M231.791 136.679H218.203V150.266H231.791V136.679Z" fill="white"/>
<path d="M245.385 136.679H231.797V150.266H245.385V136.679Z" fill="black"/>
<path d="M258.971 136.679H245.383V150.266H258.971V136.679Z" fill="black"/>
<path d="M272.557 136.679H258.969V150.266H272.557V136.679Z" fill="black"/>
<path d="M286.143 136.679H272.555V150.266H286.143V136.679Z" fill="black"/>
<path d="M299.736 136.679H286.148V150.266H299.736V136.679Z" fill="white"/>
<path d="M313.322 136.679H299.734V150.266H313.322V136.679Z" fill="black"/>
<path d="M326.908 136.679H313.32V150.266H326.908V136.679Z" fill="white"/>
<path d="M340.494 136.679H326.906V150.266H340.494V136.679Z" fill="white"/>
<path d="M354.088 136.679H340.5V150.266H354.088V136.679Z" fill="black"/>
<path d="M367.674 136.679H354.086V150.266H367.674V136.679Z" fill="white"/>
<path d="M381.26 136.679H367.672V150.266H381.26V136.679Z" fill="black"/>
<path d="M394.846 136.679H381.258V150.266H394.846V136.679Z" fill="black"/>
<path d="M408.439 136.679H394.852V150.266H408.439V136.679Z" fill="black"/>
<path d="M422.025 136.679H408.438V150.266H422.025V136.679Z" fill="black"/>
<path d="M41.5645 150.266H27.9766V163.854H41.5645V150.266Z" fill="white"/>
<path d="M55.1504 150.266H41.5625V163.854H55.1504V150.266Z" fill="white"/>
<path d="M68.7364 150.266H55.1484V163.854H68.7364V150.266Z" fill="black"/>
<path d="M82.3301 150.266H68.7422V163.854H82.3301V150.266Z" fill="white"/>
<path d="M95.916 150.266H82.3281V163.854H95.916V150.266Z" fill="black"/>
<path d="M109.502 150.266H95.9141V163.854H109.502V150.266Z" fill="black"/>
<path d="M123.088 150.266H109.5V163.854H123.088V150.266Z" fill="white"/>
<path d="M136.682 150.266H123.094V163.854H136.682V150.266Z" fill="black"/>
<path d="M150.268 150.266H136.68V163.854H150.268V150.266Z" fill="black"/>
<path d="M163.854 150.266H150.266V163.854H163.854V150.266Z" fill="white"/>
<path d="M177.439 150.266H163.852V163.854H177.439V150.266Z" fill="white"/>
<path d="M191.033 150.266H177.445V163.854H191.033V150.266Z" fill="white"/>
<path d="M204.619 150.266H191.031V163.854H204.619V150.266Z" fill="white"/>
<path d="M218.205 150.266H204.617V163.854H218.205V150.266Z" fill="black"/>
<path d="M231.791 150.266H218.203V163.854H231.791V150.266Z" fill="white"/>
<path d="M245.385 150.266H231.797V163.854H245.385V150.266Z" fill="black"/>
<path d="M258.971 150.266H245.383V163.854H258.971V150.266Z" fill="white"/>
<path d="M272.557 150.266H258.969V163.854H272.557V150.266Z" fill="white"/>
<path d="M286.143 150.266H272.555V163.854H286.143V150.266Z" fill="white"/>
<path d="M299.736 150.266H286.148V163.854H299.736V150.266Z" fill="white"/>
<path d="M313.322 150.266H299.734V163.854H313.322V150.266Z" fill="black"/>
<path d="M326.908 150.266H313.32V163.854H326.908V150.266Z" fill="white"/>
<path d="M340.494 150.266H326.906V163.854H340.494V150.266Z" fill="black"/>
<path d="M354.088 150.266H340.5V163.854H354.088V150.266Z" fill="black"/>
<path d="M367.674 150.266H354.086V163.854H367.674V150.266Z" fill="black"/>
<path d="M381.26 150.266H367.672V163.854H381.26V150.266Z" fill="black"/>
<path d="M394.846 150.266H381.258V163.854H394.846V150.266Z" fill="black"/>
<path d="M408.439 150.266H394.852V163.854H408.439V150.266Z" fill="black"/>
<path d="M422.025 150.266H408.438V163.854H422.025V150.266Z" fill="black"/>
<path d="M41.5645 163.854H27.9766V177.442H41.5645V163.854Z" fill="white"/>
<path d="M55.1504 163.854H41.5625V177.442H55.1504V163.854Z" fill="white"/>
<path d="M68.7364 163.854H55.1484V177.442H68.7364V163.854Z" fill="white"/>
<path d="M82.3301 163.854H68.7422V177.442H82.3301V163.854Z" fill="black"/>
<path d="M95.916 163.854H82.3281V177.442H95.916V163.854Z" fill="white"/>
<path d="M109.502 163.854H95.9141V177.442H109.502V163.854Z" fill="white"/>
<path d="M123.088 163.854H109.5V177.442H123.088V163.854Z" fill="black"/>
<path d="M136.682 163.854H123.094V177.442H136.682V163.854Z" fill="white"/>
<path d="M150.268 163.854H136.68V177.442H150.268V163.854Z" fill="black"/>
<path d="M163.854 163.854H150.266V177.442H163.854V163.854Z" fill="black"/>
<path d="M177.439 163.854H163.852V177.442H177.439V163.854Z" fill="black"/>
<path d="M191.033 163.854H177.445V177.442H191.033V163.854Z" fill="white"/>
<path d="M204.619 163.854H191.031V177.442H204.619V163.854Z" fill="white"/>
<path d="M218.205 163.854H204.617V177.442H218.205V163.854Z" fill="white"/>
<path d="M231.791 163.854H218.203V177.442H231.791V163.854Z" fill="white"/>
<path d="M245.385 163.854H231.797V177.442H245.385V163.854Z" fill="black"/>
<path d="M258.971 163.854H245.383V177.442H258.971V163.854Z" fill="white"/>
<path d="M272.557 163.854H258.969V177.442H272.557V163.854Z" fill="black"/>
<path d="M286.143 163.854H272.555V177.442H286.143V163.854Z" fill="white"/>
<path d="M299.736 163.854H286.148V177.442H299.736V163.854Z" fill="white"/>
<path d="M313.322 163.854H299.734V177.442H313.322V163.854Z" fill="white"/>
<path d="M326.908 163.854H313.32V177.442H326.908V163.854Z" fill="black"/>
<path d="M340.494 163.854H326.906V177.442H340.494V163.854Z" fill="white"/>
<path d="M354.088 163.854H340.5V177.442H354.088V163.854Z" fill="black"/>
<path d="M367.674 163.854H354.086V177.442H367.674V163.854Z" fill="black"/>
<path d="M381.26 163.854H367.672V177.442H381.26V163.854Z" fill="white"/>
<path d="M394.846 163.854H381.258V177.442H394.846V163.854Z" fill="white"/>
<path d="M408.439 163.854H394.852V177.442H408.439V163.854Z" fill="white"/>
<path d="M422.025 163.854H408.438V177.442H422.025V163.854Z" fill="black"/>
<path d="M41.5645 177.442H27.9766V191.03H41.5645V177.442Z" fill="black"/>
<path d="M55.1504 177.442H41.5625V191.03H55.1504V177.442Z" fill="white"/>
<path d="M68.7364 177.442H55.1484V191.03H68.7364V177.442Z" fill="white"/>
<path d="M82.3301 177.442H68.7422V191.03H82.3301V177.442Z" fill="white"/>
<path d="M95.916 177.442H82.3281V191.03H95.916V177.442Z" fill="black"/>
<path d="M109.502 177.442H95.9141V191.03H109.502V177.442Z" fill="white"/>
<path d="M123.088 177.442H109.5V191.03H123.088V177.442Z" fill="white"/>
<path d="M136.682 177.442H123.094V191.03H136.682V177.442Z" fill="white"/>
<path d="M150.268 177.442H136.68V191.03H150.268V177.442Z" fill="white"/>
<path d="M163.854 177.442H150.266V191.03H163.854V177.442Z" fill="black"/>
<path d="M177.439 177.442H163.852V191.03H177.439V177.442Z" fill="white"/>
<path d="M191.033 177.442H177.445V191.03H191.033V177.442Z" fill="white"/>
<path d="M204.619 177.442H191.031V191.03H204.619V177.442Z" fill="black"/>
<path d="M218.205 177.442H204.617V191.03H218.205V177.442Z" fill="white"/>
<path d="M231.791 177.442H218.203V191.03H231.791V177.442Z" fill="black"/>
<path d="M245.385 177.442H231.797V191.03H245.385V177.442Z" fill="black"/>
<path d="M258.971 177.442H245.383V191.03H258.971V177.442Z" fill="white"/>
<path d="M272.557 177.442H258.969V191.03H272.557V177.442Z" fill="black"/>
<path d="M286.143 177.442H272.555V191.03H286.143V177.442Z" fill="black"/>
<path d="M299.736 177.442H286.148V191.03H299.736V177.442Z" fill="black"/>
<path d="M313.322 177.442H299.734V191.03H313.322V177.442Z" fill="white"/>
<path d="M326.908 177.442H313.32V191.03H326.908V177.442Z" fill="white"/>
<path d="M340.494 177.442H326.906V191.03H340.494V177.442Z" fill="white"/>
<path d="M354.088 177.442H340.5V191.03H354.088V177.442Z" fill="white"/>
<path d="M367.674 177.442H354.086V191.03H367.674V177.442Z" fill="black"/>
<path d="M381.26 177.442H367.672V191.03H381.26V177.442Z" fill="black"/>
<path d="M394.846 177.442H381.258V191.03H394.846V177.442Z" fill="white"/>
<path d="M408.439 177.442H394.852V191.03H408.439V177.442Z" fill="black"/>
<path d="M422.025 177.442H408.438V191.03H422.025V177.442Z" fill="black"/>
<path d="M41.5645 191.03H27.9766V204.618H41.5645V191.03Z" fill="white"/>
<path d="M55.1504 191.03H41.5625V204.618H55.1504V191.03Z" fill="white"/>
<path d="M68.7364 191.03H55.1484V204.618H68.7364V191.03Z" fill="white"/>
<path d="M82.3301 191.03H68.7422V204.618H82.3301V191.03Z" fill="white"/>
<path d="M95.916 191.03H82.3281V204.618H95.916V191.03Z" fill="white"/>
<path d="M109.502 191.03H95.9141V204.618H109.502V191.03Z" fill="black"/>
<path d="M123.088 191.03H109.5V204.618H123.088V191.03Z" fill="black"/>
<path d="M136.682 191.03H123.094V204.618H136.682V191.03Z" fill="white"/>
<path d="M150.268 191.03H136.68V204.618H150.268V191.03Z" fill="black"/>
<path d="M163.854 191.03H150.266V204.618H163.854V191.03Z" fill="white"/>
<path d="M177.439 191.03H163.852V204.618H177.439V191.03Z" fill="white"/>
<path d="M191.033 191.03H177.445V204.618H191.033V191.03Z" fill="black"/>
<path d="M204.619 191.03H191.031V204.618H204.619V191.03Z" fill="white"/>
<path d="M218.205 191.03H204.617V204.618H218.205V191.03Z" fill="white"/>
<path d="M231.791 191.03H218.203V204.618H231.791V191.03Z" fill="white"/>
<path d="M245.385 191.03H231.797V204.618H245.385V191.03Z" fill="white"/>
<path d="M258.971 191.03H245.383V204.618H258.971V191.03Z" fill="black"/>
<path d="M272.557 191.03H258.969V204.618H272.557V191.03Z" fill="black"/>
<path d="M286.143 191.03H272.555V204.618H286.143V191.03Z" fill="black"/>
<path d="M299.736 191.03H286.148V204.618H299.736V191.03Z" fill="white"/>
<path d="M313.322 191.03H299.734V204.618H313.322V191.03Z" fill="white"/>
<path d="M326.908 191.03H313.32V204.618H326.908V191.03Z" fill="black"/>
<path d="M340.494 191.03H326.906V204.618H340.494V191.03Z" fill="white"/>
<path d="M354.088 191.03H340.5V204.618H354.088V191.03Z" fill="white"/>
<path d="M367.674 191.03H354.086V204.618H367.674V191.03Z" fill="white"/>
<path d="M381.26 191.03H367.672V204.618H381.26V191.03Z" fill="white"/>
<path d="M394.846 191.03H381.258V204.618H394.846V191.03Z" fill="white"/>
<path d="M408.439 191.03H394.852V204.618H408.439V191.03Z" fill="black"/>
<path d="M422.025 191.03H408.438V204.618H422.025V191.03Z" fill="white"/>
<path d="M41.5645 204.618H27.9766V218.206H41.5645V204.618Z" fill="white"/>
<path d="M55.1504 204.618H41.5625V218.206H55.1504V204.618Z" fill="black"/>
<path d="M68.7364 204.618H55.1484V218.206H68.7364V204.618Z" fill="white"/>
<path d="M82.3301 204.618H68.7422V218.206H82.3301V204.618Z" fill="black"/>
<path d="M95.916 204.618H82.3281V218.206H95.916V204.618Z" fill="white"/>
<path d="M109.502 204.618H95.9141V218.206H109.502V204.618Z" fill="black"/>
<path d="M123.088 204.618H109.5V218.206H123.088V204.618Z" fill="white"/>
<path d="M136.682 204.618H123.094V218.206H136.682V204.618Z" fill="white"/>
<path d="M150.268 204.618H136.68V218.206H150.268V204.618Z" fill="white"/>
<path d="M163.854 204.618H150.266V218.206H163.854V204.618Z" fill="white"/>
<path d="M177.439 204.618H163.852V218.206H177.439V204.618Z" fill="black"/>
<path d="M191.033 204.618H177.445V218.206H191.033V204.618Z" fill="white"/>
<path d="M204.619 204.618H191.031V218.206H204.619V204.618Z" fill="black"/>
<path d="M218.205 204.618H204.617V218.206H218.205V204.618Z" fill="black"/>
<path d="M231.791 204.618H218.203V218.206H231.791V204.618Z" fill="white"/>
<path d="M245.385 204.618H231.797V218.206H245.385V204.618Z" fill="black"/>
<path d="M258.971 204.618H245.383V218.206H258.971V204.618Z" fill="black"/>
<path d="M272.557 204.618H258.969V218.206H272.557V204.618Z" fill="black"/>
<path d="M286.143 204.618H272.555V218.206H286.143V204.618Z" fill="black"/>
<path d="M299.736 204.618H286.148V218.206H299.736V204.618Z" fill="white"/>
<path d="M313.322 204.618H299.734V218.206H313.322V204.618Z" fill="white"/>
<path d="M326.908 204.618H313.32V218.206H326.908V204.618Z" fill="white"/>
<path d="M340.494 204.618H326.906V218.206H340.494V204.618Z" fill="black"/>
<path d="M354.088 204.618H340.5V218.206H354.088V204.618Z" fill="white"/>
<path d="M367.674 204.618H354.086V218.206H367.674V204.618Z" fill="black"/>
<path d="M381.26 204.618H367.672V218.206H381.26V204.618Z" fill="black"/>
<path d="M394.846 204.618H381.258V218.206H394.846V204.618Z" fill="black"/>
<path d="M408.439 204.618H394.852V218.206H408.439V204.618Z" fill="black"/>
<path d="M422.025 204.618H408.438V218.206H422.025V204.618Z" fill="black"/>
<path d="M41.5645 218.206H27.9766V231.794H41.5645V218.206Z" fill="white"/>
<path d="M55.1504 218.206H41.5625V231.794H55.1504V218.206Z" fill="black"/>
<path d="M68.7364 218.206H55.1484V231.794H68.7364V218.206Z" fill="black"/>
<path d="M82.3301 218.206H68.7422V231.794H82.3301V218.206Z" fill="white"/>
<path d="M95.916 218.206H82.3281V231.794H95.916V218.206Z" fill="white"/>
<path d="M109.502 218.206H95.9141V231.794H109.502V218.206Z" fill="black"/>
<path d="M123.088 218.206H109.5V231.794H123.088V218.206Z" fill="black"/>
<path d="M136.682 218.206H123.094V231.794H136.682V218.206Z" fill="white"/>
<path d="M150.268 218.206H136.68V231.794H150.268V218.206Z" fill="white"/>
<path d="M163.854 218.206H150.266V231.794H163.854V218.206Z" fill="white"/>
<path d="M177.439 218.206H163.852V231.794H177.439V218.206Z" fill="white"/>
<path d="M191.033 218.206H177.445V231.794H191.033V218.206Z" fill="black"/>
<path d="M204.619 218.206H191.031V231.794H204.619V218.206Z" fill="black"/>
<path d="M218.205 218.206H204.617V231.794H218.205V218.206Z" fill="black"/>
<path d="M231.791 218.206H218.203V231.794H231.791V218.206Z" fill="white"/>
<path d="M245.385 218.206H231.797V231.794H245.385V218.206Z" fill="black"/>
<path d="M258.971 218.206H245.383V231.794H258.971V218.206Z" fill="black"/>
<path d="M272.557 218.206H258.969V231.794H272.557V218.206Z" fill="white"/>
<path d="M286.143 218.206H272.555V231.794H286.143V218.206Z" fill="black"/>
<path d="M299.736 218.206H286.148V231.794H299.736V218.206Z" fill="white"/>
<path d="M313.322 218.206H299.734V231.794H313.322V218.206Z" fill="black"/>
<path d="M326.908 218.206H313.32V231.794H326.908V218.206Z" fill="white"/>
<path d="M340.494 218.206H326.906V231.794H340.494V218.206Z" fill="white"/>
<path d="M354.088 218.206H340.5V231.794H354.088V218.206Z" fill="black"/>
<path d="M367.674 218.206H354.086V231.794H367.674V218.206Z" fill="white"/>
<path d="M381.26 218.206H367.672V231.794H381.26V218.206Z" fill="black"/>
<path d="M394.846 218.206H381.258V231.794H394.846V218.206Z" fill="black"/>
<path d="M408.439 218.206H394.852V231.794H408.439V218.206Z" fill="white"/>
<path d="M422.025 218.206H408.438V231.794H422.025V218.206Z" fill="black"/>
<path d="M41.5645 231.794H27.9766V245.382H41.5645V231.794Z" fill="white"/>
<path d="M55.1504 231.794H41.5625V245.382H55.1504V231.794Z" fill="white"/>
<path d="M68.7364 231.794H55.1484V245.382H68.7364V231.794Z" fill="black"/>
<path d="M82.3301 231.794H68.7422V245.382H82.3301V231.794Z" fill="white"/>
<path d="M95.916 231.794H82.3281V245.382H95.916V231.794Z" fill="black"/>
<path d="M109.502 231.794H95.9141V245.382H109.502V231.794Z" fill="black"/>
<path d="M123.088 231.794H109.5V245.382H123.088V231.794Z" fill="white"/>
<path d="M136.682 231.794H123.094V245.382H136.682V231.794Z" fill="white"/>
<path d="M150.268 231.794H136.68V245.382H150.268V231.794Z" fill="white"/>
<path d="M163.854 231.794H150.266V245.382H163.854V231.794Z" fill="black"/>
<path d="M177.439 231.794H163.852V245.382H177.439V231.794Z" fill="white"/>
<path d="M191.033 231.794H177.445V245.382H191.033V231.794Z" fill="black"/>
<path d="M204.619 231.794H191.031V245.382H204.619V231.794Z" fill="white"/>
<path d="M218.205 231.794H204.617V245.382H218.205V231.794Z" fill="white"/>
<path d="M231.791 231.794H218.203V245.382H231.791V231.794Z" fill="white"/>
<path d="M245.385 231.794H231.797V245.382H245.385V231.794Z" fill="black"/>
<path d="M258.971 231.794H245.383V245.382H258.971V231.794Z" fill="white"/>
<path d="M272.557 231.794H258.969V245.382H272.557V231.794Z" fill="black"/>
<path d="M286.143 231.794H272.555V245.382H286.143V231.794Z" fill="black"/>
<path d="M299.736 231.794H286.148V245.382H299.736V231.794Z" fill="white"/>
<path d="M313.322 231.794H299.734V245.382H313.322V231.794Z" fill="white"/>
<path d="M326.908 231.794H313.32V245.382H326.908V231.794Z" fill="white"/>
<path d="M340.494 231.794H326.906V245.382H340.494V231.794Z" fill="white"/>
<path d="M354.088 231.794H340.5V245.382H354.088V231.794Z" fill="black"/>
<path d="M367.674 231.794H354.086V245.382H367.674V231.794Z" fill="white"/>
<path d="M381.26 231.794H367.672V245.382H381.26V231.794Z" fill="white"/>
<path d="M394.846 231.794H381.258V245.382H394.846V231.794Z" fill="white"/>
<path d="M408.439 231.794H394.852V245.382H408.439V231.794Z" fill="black"/>
<path d="M422.025 231.794H408.438V245.382H422.025V231.794Z" fill="black"/>
<path d="M41.5645 245.382H27.9766V258.97H41.5645V245.382Z" fill="black"/>
<path d="M55.1504 245.382H41.5625V258.97H55.1504V245.382Z" fill="white"/>
<path d="M68.7364 245.382H55.1484V258.97H68.7364V245.382Z" fill="black"/>
<path d="M82.3301 245.382H68.7422V258.97H82.3301V245.382Z" fill="white"/>
<path d="M95.916 245.382H82.3281V258.97H95.916V245.382Z" fill="white"/>
<path d="M109.502 245.382H95.9141V258.97H109.502V245.382Z" fill="white"/>
<path d="M123.088 245.382H109.5V258.97H123.088V245.382Z" fill="black"/>
<path d="M136.682 245.382H123.094V258.97H136.682V245.382Z" fill="black"/>
<path d="M150.268 245.382H136.68V258.97H150.268V245.382Z" fill="white"/>
<path d="M163.854 245.382H150.266V258.97H163.854V245.382Z" fill="white"/>
<path d="M177.439 245.382H163.852V258.97H177.439V245.382Z" fill="black"/>
<path d="M191.033 245.382H177.445V258.97H191.033V245.382Z" fill="white"/>
<path d="M204.619 245.382H191.031V258.97H204.619V245.382Z" fill="black"/>
<path d="M218.205 245.382H204.617V258.97H218.205V245.382Z" fill="white"/>
<path d="M231.791 245.382H218.203V258.97H231.791V245.382Z" fill="black"/>
<path d="M245.385 245.382H231.797V258.97H245.385V245.382Z" fill="black"/>
<path d="M258.971 245.382H245.383V258.97H258.971V245.382Z" fill="white"/>
<path d="M272.557 245.382H258.969V258.97H272.557V245.382Z" fill="black"/>
<path d="M286.143 245.382H272.555V258.97H286.143V245.382Z" fill="black"/>
<path d="M299.736 245.382H286.148V258.97H299.736V245.382Z" fill="white"/>
<path d="M313.322 245.382H299.734V258.97H313.322V245.382Z" fill="white"/>
<path d="M326.908 245.382H313.32V258.97H326.908V245.382Z" fill="black"/>
<path d="M340.494 245.382H326.906V258.97H340.494V245.382Z" fill="white"/>
<path d="M354.088 245.382H340.5V258.97H354.088V245.382Z" fill="black"/>
<path d="M367.674 245.382H354.086V258.97H367.674V245.382Z" fill="white"/>
<path d="M381.26 245.382H367.672V258.97H381.26V245.382Z" fill="white"/>
<path d="M394.846 245.382H381.258V258.97H394.846V245.382Z" fill="white"/>
<path d="M408.439 245.382H394.852V258.97H408.439V245.382Z" fill="black"/>
<path d="M422.025 245.382H408.438V258.97H422.025V245.382Z" fill="white"/>
<path d="M41.5645 258.97H27.9766V272.558H41.5645V258.97Z" fill="black"/>
<path d="M55.1504 258.97H41.5625V272.558H55.1504V258.97Z" fill="black"/>
<path d="M68.7364 258.97H55.1484V272.558H68.7364V258.97Z" fill="white"/>
<path d="M82.3301 258.97H68.7422V272.558H82.3301V258.97Z" fill="black"/>
<path d="M95.916 258.97H82.3281V272.558H95.916V258.97Z" fill="white"/>
<path d="M109.502 258.97H95.9141V272.558H109.502V258.97Z" fill="black"/>
<path d="M123.088 258.97H109.5V272.558H123.088V258.97Z" fill="white"/>
<path d="M136.682 258.97H123.094V272.558H136.682V258.97Z" fill="white"/>
<path d="M150.268 258.97H136.68V272.558H150.268V258.97Z" fill="black"/>
<path d="M163.854 258.97H150.266V272.558H163.854V258.97Z" fill="white"/>
<path d="M177.439 258.97H163.852V272.558H177.439V258.97Z" fill="black"/>
<path d="M191.033 258.97H177.445V272.558H191.033V258.97Z" fill="white"/>
<path d="M204.619 258.97H191.031V272.558H204.619V258.97Z" fill="white"/>
<path d="M218.205 258.97H204.617V272.558H218.205V258.97Z" fill="white"/>
<path d="M231.791 258.97H218.203V272.558H231.791V258.97Z" fill="white"/>
<path d="M245.385 258.97H231.797V272.558H245.385V258.97Z" fill="black"/>
<path d="M258.971 258.97H245.383V272.558H258.971V258.97Z" fill="black"/>
<path d="M272.557 258.97H258.969V272.558H272.557V258.97Z" fill="white"/>
<path d="M286.143 258.97H272.555V272.558H286.143V258.97Z" fill="white"/>
<path d="M299.736 258.97H286.148V272.558H299.736V258.97Z" fill="white"/>
<path d="M313.322 258.97H299.734V272.558H313.322V258.97Z" fill="white"/>
<path d="M326.908 258.97H313.32V272.558H326.908V258.97Z" fill="white"/>
<path d="M340.494 258.97H326.906V272.558H340.494V258.97Z" fill="black"/>
<path d="M354.088 258.97H340.5V272.558H354.088V258.97Z" fill="black"/>
<path d="M367.674 258.97H354.086V272.558H367.674V258.97Z" fill="black"/>
<path d="M381.26 258.97H367.672V272.558H381.26V258.97Z" fill="black"/>
<path d="M394.846 258.97H381.258V272.558H394.846V258.97Z" fill="white"/>
<path d="M408.439 258.97H394.852V272.558H408.439V258.97Z" fill="black"/>
<path d="M422.025 258.97H408.438V272.558H422.025V258.97Z" fill="black"/>
<path d="M41.5645 272.558H27.9766V286.146H41.5645V272.558Z" fill="white"/>
<path d="M55.1504 272.558H41.5625V286.146H55.1504V272.558Z" fill="white"/>
<path d="M68.7364 272.558H55.1484V286.146H68.7364V272.558Z" fill="white"/>
<path d="M82.3301 272.558H68.7422V286.146H82.3301V272.558Z" fill="black"/>
<path d="M95.916 272.558H82.3281V286.146H95.916V272.558Z" fill="black"/>
<path d="M109.502 272.558H95.9141V286.146H109.502V272.558Z" fill="black"/>
<path d="M123.088 272.558H109.5V286.146H123.088V272.558Z" fill="black"/>
<path d="M136.682 272.558H123.094V286.146H136.682V272.558Z" fill="black"/>
<path d="M150.268 272.558H136.68V286.146H150.268V272.558Z" fill="black"/>
<path d="M163.854 272.558H150.266V286.146H163.854V272.558Z" fill="black"/>
<path d="M177.439 272.558H163.852V286.146H177.439V272.558Z" fill="white"/>
<path d="M191.033 272.558H177.445V286.146H191.033V272.558Z" fill="white"/>
<path d="M204.619 272.558H191.031V286.146H204.619V272.558Z" fill="white"/>
<path d="M218.205 272.558H204.617V286.146H218.205V272.558Z" fill="white"/>
<path d="M231.791 272.558H218.203V286.146H231.791V272.558Z" fill="black"/>
<path d="M245.385 272.558H231.797V286.146H245.385V272.558Z" fill="black"/>
<path d="M258.971 272.558H245.383V286.146H258.971V272.558Z" fill="white"/>
<path d="M272.557 272.558H258.969V286.146H272.557V272.558Z" fill="white"/>
<path d="M286.143 272.558H272.555V286.146H286.143V272.558Z" fill="black"/>
<path d="M299.736 272.558H286.148V286.146H299.736V272.558Z" fill="white"/>
<path d="M313.322 272.558H299.734V286.146H313.322V272.558Z" fill="white"/>
<path d="M326.908 272.558H313.32V286.146H326.908V272.558Z" fill="white"/>
<path d="M340.494 272.558H326.906V286.146H340.494V272.558Z" fill="white"/>
<path d="M354.088 272.558H340.5V286.146H354.088V272.558Z" fill="black"/>
<path d="M367.674 272.558H354.086V286.146H367.674V272.558Z" fill="white"/>
<path d="M381.26 272.558H367.672V286.146H381.26V272.558Z" fill="white"/>
<path d="M394.846 272.558H381.258V286.146H394.846V272.558Z" fill="black"/>
<path d="M408.439 272.558H394.852V286.146H408.439V272.558Z" fill="white"/>
<path d="M422.025 272.558H408.438V286.146H422.025V272.558Z" fill="black"/>
<path d="M41.5645 286.146H27.9766V299.734H41.5645V286.146Z" fill="white"/>
<path d="M55.1504 286.146H41.5625V299.734H55.1504V286.146Z" fill="white"/>
<path d="M68.7364 286.146H55.1484V299.734H68.7364V286.146Z" fill="white"/>
<path d="M82.3301 286.146H68.7422V299.734H82.3301V286.146Z" fill="black"/>
<path d="M95.916 286.146H82.3281V299.734H95.916V286.146Z" fill="black"/>
<path d="M109.502 286.146H95.9141V299.734H109.502V286.146Z" fill="black"/>
<path d="M123.088 286.146H109.5V299.734H123.088V286.146Z" fill="white"/>
<path d="M136.682 286.146H123.094V299.734H136.682V286.146Z" fill="white"/>
<path d="M150.268 286.146H136.68V299.734H150.268V286.146Z" fill="white"/>
<path d="M163.854 286.146H150.266V299.734H163.854V286.146Z" fill="black"/>
<path d="M177.439 286.146H163.852V299.734H177.439V286.146Z" fill="black"/>
<path d="M191.033 286.146H177.445V299.734H191.033V286.146Z" fill="white"/>
<path d="M204.619 286.146H191.031V299.734H204.619V286.146Z" fill="black"/>
<path d="M218.205 286.146H204.617V299.734H218.205V286.146Z" fill="white"/>
<path d="M231.791 286.146H218.203V299.734H231.791V286.146Z" fill="black"/>
<path d="M245.385 286.146H231.797V299.734H245.385V286.146Z" fill="black"/>
<path d="M258.971 286.146H245.383V299.734H258.971V286.146Z" fill="black"/>
<path d="M272.557 286.146H258.969V299.734H272.557V286.146Z" fill="black"/>
<path d="M286.143 286.146H272.555V299.734H286.143V286.146Z" fill="black"/>
<path d="M299.736 286.146H286.148V299.734H299.736V286.146Z" fill="white"/>
<path d="M313.322 286.146H299.734V299.734H313.322V286.146Z" fill="white"/>
<path d="M326.908 286.146H313.32V299.734H326.908V286.146Z" fill="black"/>
<path d="M340.494 286.146H326.906V299.734H340.494V286.146Z" fill="black"/>
<path d="M354.088 286.146H340.5V299.734H354.088V286.146Z" fill="black"/>
<path d="M367.674 286.146H354.086V299.734H367.674V286.146Z" fill="white"/>
<path d="M381.26 286.146H367.672V299.734H381.26V286.146Z" fill="white"/>
<path d="M394.846 286.146H381.258V299.734H394.846V286.146Z" fill="white"/>
<path d="M408.439 286.146H394.852V299.734H408.439V286.146Z" fill="black"/>
<path d="M422.025 286.146H408.438V299.734H422.025V286.146Z" fill="black"/>
<path d="M41.5645 299.734H27.9766V313.322H41.5645V299.734Z" fill="black"/>
<path d="M55.1504 299.734H41.5625V313.322H55.1504V299.734Z" fill="black"/>
<path d="M68.7364 299.734H55.1484V313.322H68.7364V299.734Z" fill="black"/>
<path d="M82.3301 299.734H68.7422V313.322H82.3301V299.734Z" fill="black"/>
<path d="M95.916 299.734H82.3281V313.322H95.916V299.734Z" fill="white"/>
<path d="M109.502 299.734H95.9141V313.322H109.502V299.734Z" fill="black"/>
<path d="M123.088 299.734H109.5V313.322H123.088V299.734Z" fill="black"/>
<path d="M136.682 299.734H123.094V313.322H136.682V299.734Z" fill="black"/>
<path d="M150.268 299.734H136.68V313.322H150.268V299.734Z" fill="black"/>
<path d="M163.854 299.734H150.266V313.322H163.854V299.734Z" fill="white"/>
<path d="M177.439 299.734H163.852V313.322H177.439V299.734Z" fill="white"/>
<path d="M191.033 299.734H177.445V313.322H191.033V299.734Z" fill="black"/>
<path d="M204.619 299.734H191.031V313.322H204.619V299.734Z" fill="black"/>
<path d="M218.205 299.734H204.617V313.322H218.205V299.734Z" fill="white"/>
<path d="M231.791 299.734H218.203V313.322H231.791V299.734Z" fill="white"/>
<path d="M245.385 299.734H231.797V313.322H245.385V299.734Z" fill="white"/>
<path d="M258.971 299.734H245.383V313.322H258.971V299.734Z" fill="white"/>
<path d="M272.557 299.734H258.969V313.322H272.557V299.734Z" fill="black"/>
<path d="M286.143 299.734H272.555V313.322H286.143V299.734Z" fill="white"/>
<path d="M299.736 299.734H286.148V313.322H299.736V299.734Z" fill="white"/>
<path d="M313.322 299.734H299.734V313.322H313.322V299.734Z" fill="black"/>
<path d="M326.908 299.734H313.32V313.322H326.908V299.734Z" fill="black"/>
<path d="M340.494 299.734H326.906V313.322H340.494V299.734Z" fill="black"/>
<path d="M354.088 299.734H340.5V313.322H354.088V299.734Z" fill="black"/>
<path d="M367.674 299.734H354.086V313.322H367.674V299.734Z" fill="black"/>
<path d="M381.26 299.734H367.672V313.322H381.26V299.734Z" fill="black"/>
<path d="M394.846 299.734H381.258V313.322H394.846V299.734Z" fill="white"/>
<path d="M408.439 299.734H394.852V313.322H408.439V299.734Z" fill="white"/>
<path d="M422.025 299.734H408.438V313.322H422.025V299.734Z" fill="black"/>
<path d="M41.5645 313.322H27.9766V326.909H41.5645V313.322Z" fill="white"/>
<path d="M55.1504 313.322H41.5625V326.909H55.1504V313.322Z" fill="white"/>
<path d="M68.7364 313.322H55.1484V326.909H68.7364V313.322Z" fill="white"/>
<path d="M82.3301 313.322H68.7422V326.909H82.3301V313.322Z" fill="white"/>
<path d="M95.916 313.322H82.3281V326.909H95.916V313.322Z" fill="white"/>
<path d="M109.502 313.322H95.9141V326.909H109.502V313.322Z" fill="white"/>
<path d="M123.088 313.322H109.5V326.909H123.088V313.322Z" fill="white"/>
<path d="M136.682 313.322H123.094V326.909H136.682V313.322Z" fill="white"/>
<path d="M150.268 313.322H136.68V326.909H150.268V313.322Z" fill="black"/>
<path d="M163.854 313.322H150.266V326.909H163.854V313.322Z" fill="black"/>
<path d="M177.439 313.322H163.852V326.909H177.439V313.322Z" fill="black"/>
<path d="M191.033 313.322H177.445V326.909H191.033V313.322Z" fill="white"/>
<path d="M204.619 313.322H191.031V326.909H204.619V313.322Z" fill="black"/>
<path d="M218.205 313.322H204.617V326.909H218.205V313.322Z" fill="black"/>
<path d="M231.791 313.322H218.203V326.909H231.791V313.322Z" fill="white"/>
<path d="M245.385 313.322H231.797V326.909H245.385V313.322Z" fill="black"/>
<path d="M258.971 313.322H245.383V326.909H258.971V313.322Z" fill="black"/>
<path d="M272.557 313.322H258.969V326.909H272.557V313.322Z" fill="black"/>
<path d="M286.143 313.322H272.555V326.909H286.143V313.322Z" fill="black"/>
<path d="M299.736 313.322H286.148V326.909H299.736V313.322Z" fill="white"/>
<path d="M313.322 313.322H299.734V326.909H313.322V313.322Z" fill="black"/>
<path d="M326.908 313.322H313.32V326.909H326.908V313.322Z" fill="white"/>
<path d="M340.494 313.322H326.906V326.909H340.494V313.322Z" fill="white"/>
<path d="M354.088 313.322H340.5V326.909H354.088V313.322Z" fill="white"/>
<path d="M367.674 313.322H354.086V326.909H367.674V313.322Z" fill="black"/>
<path d="M381.26 313.322H367.672V326.909H381.26V313.322Z" fill="white"/>
<path d="M394.846 313.322H381.258V326.909H394.846V313.322Z" fill="white"/>
<path d="M408.439 313.322H394.852V326.909H408.439V313.322Z" fill="white"/>
<path d="M422.025 313.322H408.438V326.909H422.025V313.322Z" fill="black"/>
<path d="M41.5645 326.909H27.9766V340.497H41.5645V326.909Z" fill="black"/>
<path d="M55.1504 326.909H41.5625V340.497H55.1504V326.909Z" fill="black"/>
<path d="M68.7364 326.909H55.1484V340.497H68.7364V326.909Z" fill="black"/>
<path d="M82.3301 326.909H68.7422V340.497H82.3301V326.909Z" fill="black"/>
<path d="M95.916 326.909H82.3281V340.497H95.916V326.909Z" fill="black"/>
<path d="M109.502 326.909H95.9141V340.497H109.502V326.909Z" fill="black"/>
<path d="M123.088 326.909H109.5V340.497H123.088V326.909Z" fill="black"/>
<path d="M136.682 326.909H123.094V340.497H136.682V326.909Z" fill="white"/>
<path d="M150.268 326.909H136.68V340.497H150.268V326.909Z" fill="white"/>
<path d="M163.854 326.909H150.266V340.497H163.854V326.909Z" fill="black"/>
<path d="M177.439 326.909H163.852V340.497H177.439V326.909Z" fill="black"/>
<path d="M191.033 326.909H177.445V340.497H191.033V326.909Z" fill="black"/>
<path d="M204.619 326.909H191.031V340.497H204.619V326.909Z" fill="black"/>
<path d="M218.205 326.909H204.617V340.497H218.205V326.909Z" fill="white"/>
<path d="M231.791 326.909H218.203V340.497H231.791V326.909Z" fill="black"/>
<path d="M245.385 326.909H231.797V340.497H245.385V326.909Z" fill="black"/>
<path d="M258.971 326.909H245.383V340.497H258.971V326.909Z" fill="black"/>
<path d="M272.557 326.909H258.969V340.497H272.557V326.909Z" fill="black"/>
<path d="M286.143 326.909H272.555V340.497H286.143V326.909Z" fill="white"/>
<path d="M299.736 326.909H286.148V340.497H299.736V326.909Z" fill="black"/>
<path d="M313.322 326.909H299.734V340.497H313.322V326.909Z" fill="black"/>
<path d="M326.908 326.909H313.32V340.497H326.908V326.909Z" fill="white"/>
<path d="M340.494 326.909H326.906V340.497H340.494V326.909Z" fill="black"/>
<path d="M354.088 326.909H340.5V340.497H354.088V326.909Z" fill="white"/>
<path d="M367.674 326.909H354.086V340.497H367.674V326.909Z" fill="black"/>
<path d="M381.26 326.909H367.672V340.497H381.26V326.909Z" fill="black"/>
<path d="M394.846 326.909H381.258V340.497H394.846V326.909Z" fill="black"/>
<path d="M408.439 326.909H394.852V340.497H408.439V326.909Z" fill="white"/>
<path d="M422.025 326.909H408.438V340.497H422.025V326.909Z" fill="black"/>
<path d="M41.5645 340.497H27.9766V354.085H41.5645V340.497Z" fill="black"/>
<path d="M55.1504 340.497H41.5625V354.085H55.1504V340.497Z" fill="white"/>
<path d="M68.7364 340.497H55.1484V354.085H68.7364V340.497Z" fill="white"/>
<path d="M82.3301 340.497H68.7422V354.085H82.3301V340.497Z" fill="white"/>
<path d="M95.916 340.497H82.3281V354.085H95.916V340.497Z" fill="white"/>
<path d="M109.502 340.497H95.9141V354.085H109.502V340.497Z" fill="white"/>
<path d="M123.088 340.497H109.5V354.085H123.088V340.497Z" fill="black"/>
<path d="M136.682 340.497H123.094V354.085H136.682V340.497Z" fill="white"/>
<path d="M150.268 340.497H136.68V354.085H150.268V340.497Z" fill="black"/>
<path d="M163.854 340.497H150.266V354.085H163.854V340.497Z" fill="black"/>
<path d="M177.439 340.497H163.852V354.085H177.439V340.497Z" fill="white"/>
<path d="M191.033 340.497H177.445V354.085H191.033V340.497Z" fill="black"/>
<path d="M204.619 340.497H191.031V354.085H204.619V340.497Z" fill="black"/>
<path d="M218.205 340.497H204.617V354.085H218.205V340.497Z" fill="white"/>
<path d="M231.791 340.497H218.203V354.085H231.791V340.497Z" fill="white"/>
<path d="M245.385 340.497H231.797V354.085H245.385V340.497Z" fill="black"/>
<path d="M258.971 340.497H245.383V354.085H258.971V340.497Z" fill="white"/>
<path d="M272.557 340.497H258.969V354.085H272.557V340.497Z" fill="black"/>
<path d="M286.143 340.497H272.555V354.085H286.143V340.497Z" fill="black"/>
<path d="M299.736 340.497H286.148V354.085H299.736V340.497Z" fill="black"/>
<path d="M313.322 340.497H299.734V354.085H313.322V340.497Z" fill="black"/>
<path d="M326.908 340.497H313.32V354.085H326.908V340.497Z" fill="white"/>
<path d="M340.494 340.497H326.906V354.085H340.494V340.497Z" fill="white"/>
<path d="M354.088 340.497H340.5V354.085H354.088V340.497Z" fill="white"/>
<path d="M367.674 340.497H354.086V354.085H367.674V340.497Z" fill="black"/>
<path d="M381.26 340.497H367.672V354.085H381.26V340.497Z" fill="white"/>
<path d="M394.846 340.497H381.258V354.085H394.846V340.497Z" fill="white"/>
<path d="M408.439 340.497H394.852V354.085H408.439V340.497Z" fill="white"/>
<path d="M422.025 340.497H408.438V354.085H422.025V340.497Z" fill="black"/>
<path d="M41.5645 354.085H27.9766V367.673H41.5645V354.085Z" fill="black"/>
<path d="M55.1504 354.085H41.5625V367.673H55.1504V354.085Z" fill="white"/>
<path d="M68.7364 354.085H55.1484V367.673H68.7364V354.085Z" fill="black"/>
<path d="M82.3301 354.085H68.7422V367.673H82.3301V354.085Z" fill="black"/>
<path d="M95.916 354.085H82.3281V367.673H95.916V354.085Z" fill="black"/>
<path d="M109.502 354.085H95.9141V367.673H109.502V354.085Z" fill="white"/>
<path d="M123.088 354.085H109.5V367.673H123.088V354.085Z" fill="black"/>
<path d="M136.682 354.085H123.094V367.673H136.682V354.085Z" fill="white"/>
<path d="M150.268 354.085H136.68V367.673H150.268V354.085Z" fill="black"/>
<path d="M163.854 354.085H150.266V367.673H163.854V354.085Z" fill="black"/>
<path d="M177.439 354.085H163.852V367.673H177.439V354.085Z" fill="white"/>
<path d="M191.033 354.085H177.445V367.673H191.033V354.085Z" fill="white"/>
<path d="M204.619 354.085H191.031V367.673H204.619V354.085Z" fill="black"/>
<path d="M218.205 354.085H204.617V367.673H218.205V354.085Z" fill="white"/>
<path d="M231.791 354.085H218.203V367.673H231.791V354.085Z" fill="white"/>
<path d="M245.385 354.085H231.797V367.673H245.385V354.085Z" fill="black"/>
<path d="M258.971 354.085H245.383V367.673H258.971V354.085Z" fill="white"/>
<path d="M272.557 354.085H258.969V367.673H272.557V354.085Z" fill="black"/>
<path d="M286.143 354.085H272.555V367.673H286.143V354.085Z" fill="white"/>
<path d="M299.736 354.085H286.148V367.673H299.736V354.085Z" fill="black"/>
<path d="M313.322 354.085H299.734V367.673H313.322V354.085Z" fill="black"/>
<path d="M326.908 354.085H313.32V367.673H326.908V354.085Z" fill="black"/>
<path d="M340.494 354.085H326.906V367.673H340.494V354.085Z" fill="black"/>
<path d="M354.088 354.085H340.5V367.673H354.088V354.085Z" fill="black"/>
<path d="M367.674 354.085H354.086V367.673H367.674V354.085Z" fill="black"/>
<path d="M381.26 354.085H367.672V367.673H381.26V354.085Z" fill="black"/>
<path d="M394.846 354.085H381.258V367.673H394.846V354.085Z" fill="white"/>
<path d="M408.439 354.085H394.852V367.673H408.439V354.085Z" fill="black"/>
<path d="M422.025 354.085H408.438V367.673H422.025V354.085Z" fill="black"/>
<path d="M41.5645 367.673H27.9766V381.261H41.5645V367.673Z" fill="black"/>
<path d="M55.1504 367.673H41.5625V381.261H55.1504V367.673Z" fill="white"/>
<path d="M68.7364 367.673H55.1484V381.261H68.7364V367.673Z" fill="black"/>
<path d="M82.3301 367.673H68.7422V381.261H82.3301V367.673Z" fill="black"/>
<path d="M95.916 367.673H82.3281V381.261H95.916V367.673Z" fill="black"/>
<path d="M109.502 367.673H95.9141V381.261H109.502V367.673Z" fill="white"/>
<path d="M123.088 367.673H109.5V381.261H123.088V367.673Z" fill="black"/>
<path d="M136.682 367.673H123.094V381.261H136.682V367.673Z" fill="white"/>
<path d="M150.268 367.673H136.68V381.261H150.268V367.673Z" fill="white"/>
<path d="M163.854 367.673H150.266V381.261H163.854V367.673Z" fill="black"/>
<path d="M177.439 367.673H163.852V381.261H177.439V367.673Z" fill="white"/>
<path d="M191.033 367.673H177.445V381.261H191.033V367.673Z" fill="black"/>
<path d="M204.619 367.673H191.031V381.261H204.619V367.673Z" fill="white"/>
<path d="M218.205 367.673H204.617V381.261H218.205V367.673Z" fill="black"/>
<path d="M231.791 367.673H218.203V381.261H231.791V367.673Z" fill="white"/>
<path d="M245.385 367.673H231.797V381.261H245.385V367.673Z" fill="black"/>
<path d="M258.971 367.673H245.383V381.261H258.971V367.673Z" fill="black"/>
<path d="M272.557 367.673H258.969V381.261H272.557V367.673Z" fill="white"/>
<path d="M286.143 367.673H272.555V381.261H286.143V367.673Z" fill="white"/>
<path d="M299.736 367.673H286.148V381.261H299.736V367.673Z" fill="black"/>
<path d="M313.322 367.673H299.734V381.261H313.322V367.673Z" fill="white"/>
<path d="M326.908 367.673H313.32V381.261H326.908V367.673Z" fill="black"/>
<path d="M340.494 367.673H326.906V381.261H340.494V367.673Z" fill="white"/>
<path d="M354.088 367.673H340.5V381.261H354.088V367.673Z" fill="black"/>
<path d="M367.674 367.673H354.086V381.261H367.674V367.673Z" fill="white"/>
<path d="M381.26 367.673H367.672V381.261H381.26V367.673Z" fill="white"/>
<path d="M394.846 367.673H381.258V381.261H394.846V367.673Z" fill="white"/>
<path d="M408.439 367.673H394.852V381.261H408.439V367.673Z" fill="white"/>
<path d="M422.025 367.673H408.438V381.261H422.025V367.673Z" fill="black"/>
<path d="M41.5645 381.261H27.9766V394.849H41.5645V381.261Z" fill="black"/>
<path d="M55.1504 381.261H41.5625V394.849H55.1504V381.261Z" fill="white"/>
<path d="M68.7364 381.261H55.1484V394.849H68.7364V381.261Z" fill="black"/>
<path d="M82.3301 381.261H68.7422V394.849H82.3301V381.261Z" fill="black"/>
<path d="M95.916 381.261H82.3281V394.849H95.916V381.261Z" fill="black"/>
<path d="M109.502 381.261H95.9141V394.849H109.502V381.261Z" fill="white"/>
<path d="M123.088 381.261H109.5V394.849H123.088V381.261Z" fill="black"/>
<path d="M136.682 381.261H123.094V394.849H136.682V381.261Z" fill="white"/>
<path d="M150.268 381.261H136.68V394.849H150.268V381.261Z" fill="white"/>
<path d="M163.854 381.261H150.266V394.849H163.854V381.261Z" fill="white"/>
<path d="M177.439 381.261H163.852V394.849H177.439V381.261Z" fill="white"/>
<path d="M191.033 381.261H177.445V394.849H191.033V381.261Z" fill="black"/>
<path d="M204.619 381.261H191.031V394.849H204.619V381.261Z" fill="black"/>
<path d="M218.205 381.261H204.617V394.849H218.205V381.261Z" fill="black"/>
<path d="M231.791 381.261H218.203V394.849H231.791V381.261Z" fill="white"/>
<path d="M245.385 381.261H231.797V394.849H245.385V381.261Z" fill="black"/>
<path d="M258.971 381.261H245.383V394.849H258.971V381.261Z" fill="white"/>
<path d="M272.557 381.261H258.969V394.849H272.557V381.261Z" fill="white"/>
<path d="M286.143 381.261H272.555V394.849H286.143V381.261Z" fill="white"/>
<path d="M299.736 381.261H286.148V394.849H299.736V381.261Z" fill="black"/>
<path d="M313.322 381.261H299.734V394.849H313.322V381.261Z" fill="black"/>
<path d="M326.908 381.261H313.32V394.849H326.908V381.261Z" fill="black"/>
<path d="M340.494 381.261H326.906V394.849H340.494V381.261Z" fill="white"/>
<path d="M354.088 381.261H340.5V394.849H354.088V381.261Z" fill="white"/>
<path d="M367.674 381.261H354.086V394.849H367.674V381.261Z" fill="white"/>
<path d="M381.26 381.261H367.672V394.849H381.26V381.261Z" fill="black"/>
<path d="M394.846 381.261H381.258V394.849H394.846V381.261Z" fill="black"/>
<path d="M408.439 381.261H394.852V394.849H408.439V381.261Z" fill="black"/>
<path d="M422.025 381.261H408.438V394.849H422.025V381.261Z" fill="black"/>
<path d="M41.5645 394.849H27.9766V408.437H41.5645V394.849Z" fill="black"/>
<path d="M55.1504 394.849H41.5625V408.437H55.1504V394.849Z" fill="white"/>
<path d="M68.7364 394.849H55.1484V408.437H68.7364V394.849Z" fill="white"/>
<path d="M82.3301 394.849H68.7422V408.437H82.3301V394.849Z" fill="white"/>
<path d="M95.916 394.849H82.3281V408.437H95.916V394.849Z" fill="white"/>
<path d="M109.502 394.849H95.9141V408.437H109.502V394.849Z" fill="white"/>
<path d="M123.088 394.849H109.5V408.437H123.088V394.849Z" fill="black"/>
<path d="M136.682 394.849H123.094V408.437H136.682V394.849Z" fill="white"/>
<path d="M150.268 394.849H136.68V408.437H150.268V394.849Z" fill="black"/>
<path d="M163.854 394.849H150.266V408.437H163.854V394.849Z" fill="white"/>
<path d="M177.439 394.849H163.852V408.437H177.439V394.849Z" fill="white"/>
<path d="M191.033 394.849H177.445V408.437H191.033V394.849Z" fill="black"/>
<path d="M204.619 394.849H191.031V408.437H204.619V394.849Z" fill="black"/>
<path d="M218.205 394.849H204.617V408.437H218.205V394.849Z" fill="white"/>
<path d="M231.791 394.849H218.203V408.437H231.791V394.849Z" fill="white"/>
<path d="M245.385 394.849H231.797V408.437H245.385V394.849Z" fill="white"/>
<path d="M258.971 394.849H245.383V408.437H258.971V394.849Z" fill="white"/>
<path d="M272.557 394.849H258.969V408.437H272.557V394.849Z" fill="black"/>
<path d="M286.143 394.849H272.555V408.437H286.143V394.849Z" fill="white"/>
<path d="M299.736 394.849H286.148V408.437H299.736V394.849Z" fill="white"/>
<path d="M313.322 394.849H299.734V408.437H313.322V394.849Z" fill="black"/>
<path d="M326.908 394.849H313.32V408.437H326.908V394.849Z" fill="white"/>
<path d="M340.494 394.849H326.906V408.437H340.494V394.849Z" fill="white"/>
<path d="M354.088 394.849H340.5V408.437H354.088V394.849Z" fill="white"/>
<path d="M367.674 394.849H354.086V408.437H367.674V394.849Z" fill="white"/>
<path d="M381.26 394.849H367.672V408.437H381.26V394.849Z" fill="black"/>
<path d="M394.846 394.849H381.258V408.437H394.846V394.849Z" fill="white"/>
<path d="M408.439 394.849H394.852V408.437H408.439V394.849Z" fill="black"/>
<path d="M422.025 394.849H408.438V408.437H422.025V394.849Z" fill="black"/>
<path d="M41.5645 408.437H27.9766V422.025H41.5645V408.437Z" fill="black"/>
<path d="M55.1504 408.437H41.5625V422.025H55.1504V408.437Z" fill="black"/>
<path d="M68.7364 408.437H55.1484V422.025H68.7364V408.437Z" fill="black"/>
<path d="M82.3301 408.437H68.7422V422.025H82.3301V408.437Z" fill="black"/>
<path d="M95.916 408.437H82.3281V422.025H95.916V408.437Z" fill="black"/>
<path d="M109.502 408.437H95.9141V422.025H109.502V408.437Z" fill="black"/>
<path d="M123.088 408.437H109.5V422.025H123.088V408.437Z" fill="black"/>
<path d="M136.682 408.437H123.094V422.025H136.682V408.437Z" fill="white"/>
<path d="M150.268 408.437H136.68V422.025H150.268V408.437Z" fill="black"/>
<path d="M163.854 408.437H150.266V422.025H163.854V408.437Z" fill="white"/>
<path d="M177.439 408.437H163.852V422.025H177.439V408.437Z" fill="white"/>
<path d="M191.033 408.437H177.445V422.025H191.033V408.437Z" fill="white"/>
<path d="M204.619 408.437H191.031V422.025H204.619V408.437Z" fill="white"/>
<path d="M218.205 408.437H204.617V422.025H218.205V408.437Z" fill="white"/>
<path d="M231.791 408.437H218.203V422.025H231.791V408.437Z" fill="white"/>
<path d="M245.385 408.437H231.797V422.025H245.385V408.437Z" fill="white"/>
<path d="M258.971 408.437H245.383V422.025H258.971V408.437Z" fill="black"/>
<path d="M272.557 408.437H258.969V422.025H272.557V408.437Z" fill="black"/>
<path d="M286.143 408.437H272.555V422.025H286.143V408.437Z" fill="white"/>
<path d="M299.736 408.437H286.148V422.025H299.736V408.437Z" fill="black"/>
<path d="M313.322 408.437H299.734V422.025H313.322V408.437Z" fill="black"/>
<path d="M326.908 408.437H313.32V422.025H326.908V408.437Z" fill="black"/>
<path d="M340.494 408.437H326.906V422.025H340.494V408.437Z" fill="black"/>
<path d="M354.088 408.437H340.5V422.025H354.088V408.437Z" fill="white"/>
<path d="M367.674 408.437H354.086V422.025H367.674V408.437Z" fill="black"/>
<path d="M381.26 408.437H367.672V422.025H381.26V408.437Z" fill="black"/>
<path d="M394.846 408.437H381.258V422.025H394.846V408.437Z" fill="white"/>
<path d="M408.439 408.437H394.852V422.025H408.439V408.437Z" fill="black"/>
<path d="M422.025 408.437H408.438V422.025H422.025V408.437Z" fill="white"/>
</g>
<defs>
<clipPath id="clip0_3562_41520">
<rect width="450" height="450" fill="white"/>
</clipPath>
</defs>
</svg>
